<svg xmlns="http://www.w3.org/2000/svg" width="24" height="24" fill="none" stroke="#475467" stroke-width="2" stroke-linejoin="round" xmlns:v="https://vecta.io/nano"><path d="M2 8.377l.015-.673a3 3 0 0 1 2.69-2.69C4.852 5 5.036 5 5.406 5l.274-.004a2 2 0 0 0 1.735-1.25L7.5 3.5l.086-.246a2 2 0 0 1 1.735-1.25L9.581 2h4.838l.26.004a2 2 0 0 1 1.735 1.25l.086.246.086.246a2 2 0 0 0 1.735 1.25l.274.004.701.015a3 3 0 0 1 2.69 2.69c.015.148.015.323.015.673V16.2c0 1.68 0 2.52-.327 3.162a3 3 0 0 1-1.311 1.311C19.72 21 18.88 21 17.2 21H6.8c-1.68 0-2.52 0-3.162-.327a3 3 0 0 1-1.311-1.311C2 18.72 2 17.88 2 16.2V8.377z"/><path d="M12 16.5a4 4 0 1 0 0-8 4 4 0 1 0 0 8z"/></svg>