<svg width="16" height="16" viewBox="0 0 16 16" fill="none" xmlns="http://www.w3.org/2000/svg">
<g clip-path="url(#clip0_2073_20803)">
<path d="M6.66668 10L4.61651 12.0758C4.33053 12.3654 4.18755 12.5102 4.06464 12.5204C3.95802 12.5292 3.85362 12.4864 3.78398 12.4051C3.70371 12.3115 3.70371 12.108 3.70371 11.7011V10.6611C3.70371 10.296 3.40473 10.0318 3.04348 9.97892V9.97892C2.16917 9.85086 1.48253 9.16421 1.35446 8.28991C1.33334 8.14574 1.33334 7.97372 1.33334 7.62967V4.53337C1.33334 3.41327 1.33334 2.85322 1.55133 2.42539C1.74308 2.04907 2.04904 1.74311 2.42536 1.55136C2.85319 1.33337 3.41324 1.33337 4.53334 1.33337H9.46668C10.5868 1.33337 11.1468 1.33337 11.5747 1.55136C11.951 1.74311 12.2569 2.04907 12.4487 2.42539C12.6667 2.85322 12.6667 3.41327 12.6667 4.53337V7.33337M12.6667 14.6667L11.2157 13.658C11.0118 13.5162 10.9098 13.4453 10.7988 13.395C10.7003 13.3504 10.5967 13.3179 10.4904 13.2983C10.3706 13.2762 10.2464 13.2762 9.99796 13.2762H8.80001C8.05327 13.2762 7.67991 13.2762 7.39469 13.1309C7.14381 13.0031 6.93983 12.7991 6.812 12.5482C6.66668 12.263 6.66668 11.8896 6.66668 11.1429V9.46671C6.66668 8.71997 6.66668 8.3466 6.812 8.06139C6.93983 7.8105 7.14381 7.60653 7.39469 7.4787C7.67991 7.33337 8.05327 7.33337 8.80001 7.33337H12.5333C13.2801 7.33337 13.6534 7.33337 13.9387 7.4787C14.1895 7.60653 14.3935 7.8105 14.5214 8.06139C14.6667 8.3466 14.6667 8.71997 14.6667 9.46671V11.2762C14.6667 11.8975 14.6667 12.2081 14.5652 12.4531C14.4299 12.7798 14.1703 13.0394 13.8436 13.1747C13.5986 13.2762 13.2879 13.2762 12.6667 13.2762V14.6667Z" stroke="#344054" stroke-linecap="round" stroke-linejoin="round"/>
</g>
<defs>
<clipPath id="clip0_2073_20803">
<rect width="16" height="16" fill="white"/>
</clipPath>
</defs>
</svg>
