<svg width="56" height="17" viewBox="0 0 56 17" fill="none" xmlns="http://www.w3.org/2000/svg">
<path d="M2.13833 6.68773C1.92798 6.69407 4.81914 7.19218 5.06108 7.2209C6.29198 7.29842 7.1071 7.31296 8.72673 7.29665C11.1828 7.7806 12.6143 8.04977 15.3023 8.52581C16.0416 8.741 16.343 8.87234 16.8635 9.03084C17.3841 9.18934 18.8486 9.30824 18.8486 9.30824C19.763 9.46467 20.2867 9.55859 21.353 9.80322C23.7431 10.7822 23.358 10.6453 23.43 10.703C24.3212 11.0351 24.8636 11.1863 25.8242 11.4617C27.161 11.8446 27.6935 12.0831 28.5265 12.5221C29.0447 12.8356 29.3704 13.068 29.9726 13.5271L33.3106 14.2461L34.5564 14.8037L36.0337 14.3024C36.4228 13.7268 36.7821 13.5792 37.3204 12.8811C37.8586 12.1831 37.8676 12.001 38.3952 11.5737L39.2519 10.6754L40.1252 8.9797C40.4409 8.18056 40.6412 7.75431 41.004 7.01816C41.1536 6.67611 41.2584 6.50826 41.5423 6.32014C42.4254 6.10092 42.8747 6.04173 43.6449 5.97947L47.109 5.66694C49.0213 5.226 49.7297 4.9601 50.6961 4.47052L53.3486 2.87066C54.0625 2.34419 54.3759 2.17716 54.941 1.86939" stroke="#292929" stroke-width="3"/>
</svg>
