<svg xmlns="http://www.w3.org/2000/svg" width="24" height="24" fill="none" xmlns:v="https://vecta.io/nano"><path d="M14 2.269V6.4c0 .56 0 .84.109 1.054a1 1 0 0 0 .437.437C14.76 8 15.04 8 15.6 8h4.131M20 9.988V17.2c0 1.68 0 2.52-.327 3.162a3 3 0 0 1-1.311 1.311C17.72 22 16.88 22 15.2 22H8.8c-1.68 0-2.52 0-3.162-.327a3 3 0 0 1-1.311-1.311C4 19.72 4 18.88 4 17.2V6.8c0-1.68 0-2.52.327-3.162a3 3 0 0 1 1.311-1.311C6.28 2 7.12 2 8.8 2h3.212c.734 0 1.101 0 1.446.083a3 3 0 0 1 .867.359c.303.186.562.445 1.081.964l3.188 3.188c.519.519.778.778.964 1.081a3 3 0 0 1 .359.867c.083.345.083.712.083 1.446z" stroke="#475467" stroke-width="2" stroke-linecap="round" stroke-linejoin="round"/></svg>