<svg width="222" height="164" viewBox="0 0 222 164" fill="none" xmlns="http://www.w3.org/2000/svg">
<path d="M221.049 144.122H0.950195V144.232H221.049V144.122Z" fill="#EBEBEB"/>
<path d="M198.995 151.204H184.416V151.314H198.995V151.204Z" fill="#EBEBEB"/>
<path d="M146.753 152.4H142.928V152.51H146.753V152.4Z" fill="#EBEBEB"/>
<path d="M183.976 147.119H175.528V147.229H183.976V147.119Z" fill="#EBEBEB"/>
<path d="M43.0551 147.857H24.043V147.967H43.0551V147.857Z" fill="#EBEBEB"/>
<path d="M49.764 147.857H46.9775V147.967H49.764V147.857Z" fill="#EBEBEB"/>
<path d="M100.061 149.717H58.8232V149.827H100.061V149.717Z" fill="#EBEBEB"/>
<path d="M105.278 124.488H20.2796C19.6138 124.487 18.9756 124.222 18.5051 123.75C18.0347 123.279 17.7705 122.64 17.7705 121.974V2.49152C17.7763 1.82947 18.0431 1.19645 18.5129 0.729945C18.9827 0.26344 19.6176 0.00113412 20.2796 0H105.278C105.944 0 106.583 0.264818 107.055 0.736196C107.526 1.20757 107.791 1.8469 107.791 2.51353V121.974C107.791 122.641 107.526 123.28 107.055 123.752C106.583 124.223 105.944 124.488 105.278 124.488ZM20.2796 0.08804C19.643 0.089206 19.0328 0.342943 18.583 0.793557C18.1332 1.24417 17.8806 1.85484 17.8806 2.49152V121.974C17.8806 122.611 18.1332 123.222 18.583 123.672C19.0328 124.123 19.643 124.377 20.2796 124.378H105.278C105.915 124.377 106.525 124.123 106.976 123.673C107.426 123.222 107.68 122.612 107.681 121.974V2.49152C107.68 1.85444 107.426 1.24378 106.976 0.793288C106.525 0.3428 105.915 0.0892036 105.278 0.08804H20.2796Z" fill="#EBEBEB"/>
<path d="M200.496 124.488H115.494C114.828 124.487 114.189 124.222 113.718 123.751C113.247 123.279 112.982 122.641 112.98 121.974V2.49152C112.987 1.82907 113.255 1.19605 113.726 0.729669C114.196 0.263286 114.832 0.00112175 115.494 0H200.496C201.158 0.00229101 201.791 0.265109 202.26 0.731489C202.729 1.19787 202.995 1.83023 203.001 2.49152V121.974C203.001 122.64 202.737 123.278 202.268 123.749C201.798 124.22 201.161 124.486 200.496 124.488ZM115.494 0.08804C114.857 0.0892036 114.246 0.3428 113.796 0.793288C113.345 1.24378 113.092 1.85444 113.091 2.49152V121.974C113.092 122.612 113.345 123.222 113.796 123.673C114.246 124.123 114.857 124.377 115.494 124.378H200.496C201.133 124.377 201.744 124.123 202.194 123.673C202.645 123.222 202.899 122.612 202.9 121.974V2.49152C202.899 1.85444 202.645 1.24378 202.194 0.793288C201.744 0.3428 201.133 0.0892036 200.496 0.08804H115.494Z" fill="#EBEBEB"/>
<path d="M179.01 97.8868C179.01 97.8868 176.153 81.5467 182.312 62.2308C188.47 42.9149 189.795 33.3362 184.953 25.6943" stroke="#EBEBEB" stroke-miterlimit="10"/>
<path d="M175.709 97.037C165.866 86.3578 178.13 58.9863 172.337 50.2836C166.544 41.5808 163.974 26.7021 163.974 26.7021" stroke="#EBEBEB" stroke-miterlimit="10"/>
<path d="M185.12 28.3096C190.315 28.3096 194.527 23.5205 194.527 17.6128C194.527 11.7051 190.315 6.91602 185.12 6.91602C179.925 6.91602 175.713 11.7051 175.713 17.6128C175.713 23.5205 179.925 28.3096 185.12 28.3096Z" fill="#EBEBEB"/>
<path d="M185.12 53.3214C190.315 53.3214 194.527 48.5322 194.527 42.6245C194.527 36.7169 190.315 31.9277 185.12 31.9277C179.925 31.9277 175.713 36.7169 175.713 42.6245C175.713 48.5322 179.925 53.3214 185.12 53.3214Z" fill="#F5F5F5"/>
<path d="M164.972 39.0059C170.168 39.0059 174.38 34.2168 174.38 28.3091C174.38 22.4014 170.168 17.6123 164.972 17.6123C159.777 17.6123 155.565 22.4014 155.565 28.3091C155.565 34.2168 159.777 39.0059 164.972 39.0059Z" fill="#F0F0F0"/>
<path d="M183.122 48.4219C178.599 53.9122 175.995 60.7312 175.709 67.839C175.269 79.6759 177.324 96.0997 175.709 102.227" stroke="#F5F5F5" stroke-miterlimit="10"/>
<path d="M99.4053 45.626H21.8027V143.891H99.4053V45.626Z" fill="#F0F0F0"/>
<path d="M96.6626 49.2051H24.5449V70.2201H96.6626V49.2051Z" fill="#E0E0E0"/>
<path d="M28.6432 52.6084H24.5449V70.2207H28.6432V52.6084Z" fill="#EBEBEB"/>
<path d="M48.4518 52.6084H44.3535V70.2207H48.4518V52.6084Z" fill="#EBEBEB"/>
<path d="M70.9401 52.1662L66.9014 52.8623L69.8931 70.2187L73.9318 69.5225L70.9401 52.1662Z" fill="#EBEBEB"/>
<path d="M33.7184 54.9287H29.6201V70.2212H33.7184V54.9287Z" fill="#EBEBEB"/>
<path d="M43.1344 54.9287H39.0361V70.2212H43.1344V54.9287Z" fill="#EBEBEB"/>
<path d="M66.901 54.9287H62.8027V70.2212H66.901V54.9287Z" fill="#EBEBEB"/>
<path d="M53.8366 54.4029L49.8359 55.292L53.1537 70.2202L57.1543 69.3311L53.8366 54.4029Z" fill="#EBEBEB"/>
<path d="M37.2579 51.7373H35.2109V70.2212H37.2579V51.7373Z" fill="#EBEBEB"/>
<path d="M61.6231 51.7373H59.5762V70.2212H61.6231V51.7373Z" fill="#EBEBEB"/>
<path d="M24.5406 94.5596L96.6582 94.5596V73.5445H24.5406V94.5596Z" fill="#E0E0E0"/>
<path d="M92.56 94.5596H96.6582V76.9472H92.56V94.5596Z" fill="#EBEBEB"/>
<path d="M72.7514 94.5596H76.8496V76.9472H72.7514V94.5596Z" fill="#EBEBEB"/>
<path d="M47.2748 93.8634L51.3135 94.5596L54.3052 77.2032L50.2665 76.507L47.2748 93.8634Z" fill="#EBEBEB"/>
<path d="M87.4887 94.5596H91.5869V79.2671H87.4887V94.5596Z" fill="#EBEBEB"/>
<path d="M78.0687 94.5596H82.167V79.2671H78.0687V94.5596Z" fill="#EBEBEB"/>
<path d="M54.3021 94.5596H58.4004V79.2671H54.3021V94.5596Z" fill="#EBEBEB"/>
<path d="M64.0628 93.6705L68.0635 94.5596L71.3812 79.6313L67.3806 78.7422L64.0628 93.6705Z" fill="#EBEBEB"/>
<path d="M83.9453 94.5596H85.9922V76.0757H83.9453V94.5596Z" fill="#EBEBEB"/>
<path d="M59.58 94.5596H61.627V76.0757H59.58V94.5596Z" fill="#EBEBEB"/>
<path d="M28.6432 76.9512H24.5449V94.5635H28.6432V76.9512Z" fill="#EBEBEB"/>
<path d="M33.7184 79.2715H29.6201V94.564H33.7184V79.2715Z" fill="#EBEBEB"/>
<path d="M43.1344 79.2715H39.0361V94.564H43.1344V79.2715Z" fill="#EBEBEB"/>
<path d="M37.2579 76.0752H35.2109V94.5591H37.2579V76.0752Z" fill="#EBEBEB"/>
<path d="M96.6626 97.8867H24.5449V118.902H96.6626V97.8867Z" fill="#E0E0E0"/>
<path d="M70.0348 101.289H65.9365V118.901H70.0348V101.289Z" fill="#EBEBEB"/>
<path d="M92.525 100.844L88.4863 101.54L91.4781 118.896L95.5167 118.2L92.525 100.844Z" fill="#EBEBEB"/>
<path d="M55.3014 103.609H51.2031V118.902H55.3014V103.609Z" fill="#EBEBEB"/>
<path d="M64.7174 103.609H60.6191V118.902H64.7174V103.609Z" fill="#EBEBEB"/>
<path d="M88.484 103.609H84.3857V118.902H88.484V103.609Z" fill="#EBEBEB"/>
<path d="M75.4215 103.085L71.4209 103.974L74.7386 118.902L78.7392 118.013L75.4215 103.085Z" fill="#EBEBEB"/>
<path d="M58.8409 100.414H56.7939V118.898H58.8409V100.414Z" fill="#EBEBEB"/>
<path d="M83.2051 100.414H81.1582V118.898H83.2051V100.414Z" fill="#EBEBEB"/>
<path d="M45.3951 100.849L41.3564 101.545L44.3482 118.901L48.3869 118.205L45.3951 100.849Z" fill="#EBEBEB"/>
<path d="M41.3512 103.609H37.2529V118.902H41.3512V103.609Z" fill="#EBEBEB"/>
<path d="M28.2897 103.084L24.2891 103.973L27.6068 118.901L31.6074 118.012L28.2897 103.084Z" fill="#EBEBEB"/>
<path d="M36.0782 100.414H34.0312V118.898H36.0782V100.414Z" fill="#EBEBEB"/>
<path d="M191.485 90.6055H143.742C142.711 90.6055 141.722 91.015 140.993 91.7439C140.264 92.4729 139.855 93.4615 139.855 94.4924L134.572 128.15H190.09L195.372 94.4924C195.372 93.4615 194.963 92.4729 194.234 91.7439C193.505 91.015 192.516 90.6055 191.485 90.6055Z" fill="#EBEBEB"/>
<path d="M134.709 103.622L134.771 103.446H116.282V144.385H139.173V108.354C139.19 107.14 138.733 105.967 137.9 105.084C137.067 104.2 135.922 103.676 134.709 103.622Z" fill="#E0E0E0"/>
<path d="M116.088 103.609C114.83 103.609 113.623 104.109 112.733 104.999C111.843 105.889 111.343 107.096 111.343 108.355V144.385H120.829V108.355C120.829 107.097 120.33 105.891 119.441 105.001C118.552 104.111 117.346 103.611 116.088 103.609Z" fill="#F0F0F0"/>
<path d="M187.973 103.622L188.034 103.446H169.546V144.385H192.436V108.354C192.453 107.14 191.997 105.967 191.164 105.084C190.33 104.2 189.186 103.676 187.973 103.622Z" fill="#E0E0E0"/>
<path d="M164.607 115.552H123.929V144.385H164.607V115.552Z" fill="#E0E0E0"/>
<path d="M126.578 112.599H172.359V122.596H126.578C125.921 122.597 125.269 122.469 124.661 122.219C124.052 121.968 123.5 121.6 123.034 121.136C122.568 120.671 122.198 120.119 121.946 119.512C121.694 118.904 121.564 118.253 121.564 117.595C121.565 116.937 121.695 116.287 121.948 115.68C122.2 115.072 122.57 114.521 123.035 114.057C123.501 113.593 124.054 113.225 124.662 112.975C125.27 112.725 125.921 112.597 126.578 112.599Z" fill="#F5F5F5"/>
<path d="M169.353 103.609C168.094 103.609 166.887 104.109 165.997 104.999C165.107 105.889 164.607 107.096 164.607 108.355V144.385H174.094V108.355C174.094 107.097 173.594 105.891 172.705 105.001C171.816 104.111 170.611 103.611 169.353 103.609Z" fill="#F0F0F0"/>
<path d="M182.312 128.647H190.09L195.372 94.4924C195.372 93.9816 195.272 93.4758 195.076 93.0039C194.88 92.5321 194.594 92.1034 194.232 91.7424C193.871 91.3814 193.442 91.0952 192.97 90.9001C192.498 90.705 191.992 90.6049 191.481 90.6055C190.45 90.6055 189.461 91.015 188.732 91.7439C188.003 92.4729 187.594 93.4615 187.594 94.4924L182.312 128.647Z" fill="#E0E0E0"/>
<path d="M110.999 163.999C158.137 163.999 196.349 161.768 196.349 159.016C196.349 156.264 158.137 154.033 110.999 154.033C63.8619 154.033 25.6494 156.264 25.6494 159.016C25.6494 161.768 63.8619 163.999 110.999 163.999Z" fill="#F5F5F5"/>
<path d="M38.8074 147.261C38.8074 147.261 36.2587 142.273 39.1728 137.361C42.0869 132.448 42.9277 131.286 41.0701 130.278C39.2124 129.27 38.3672 134.213 38.3672 134.213C38.3672 134.213 36.8045 130.815 38.0943 127.258C39.3841 123.701 40.1985 117.908 38.4333 117.288C36.6681 116.667 38.0943 124.516 36.5668 127.188C35.7915 125.325 35.2874 123.361 35.0702 121.355C34.8589 118.498 35.189 113.938 33.7936 112.767C32.3982 111.596 31.509 112.406 32.878 118.709C33.7011 122.471 34.1567 126.304 34.2382 130.155C34.2382 130.155 31.192 121.87 29.1627 121.628C27.1334 121.386 27.1378 124.067 28.8722 126.386C30.6066 128.706 33.9653 132.871 34.5067 135.01C34.5067 135.01 31.192 128.79 28.2031 130.696C25.2141 132.602 30.8046 136.361 33.2918 137.739C35.7789 139.117 37.5089 147.608 37.5089 147.608L38.8074 147.261Z" fill="#407BFF"/>
<path opacity="0.2" d="M38.8074 147.261C38.8074 147.261 36.2587 142.273 39.1728 137.361C42.0869 132.448 42.9277 131.286 41.0701 130.278C39.2124 129.27 38.3672 134.213 38.3672 134.213C38.3672 134.213 36.8045 130.815 38.0943 127.258C39.3841 123.701 40.1985 117.908 38.4333 117.288C36.6681 116.667 38.0943 124.516 36.5668 127.188C35.7915 125.325 35.2874 123.361 35.0702 121.355C34.8589 118.498 35.189 113.938 33.7936 112.767C32.3982 111.596 31.509 112.406 32.878 118.709C33.7011 122.471 34.1567 126.304 34.2382 130.155C34.2382 130.155 31.192 121.87 29.1627 121.628C27.1334 121.386 27.1378 124.067 28.8722 126.386C30.6066 128.706 33.9653 132.871 34.5067 135.01C34.5067 135.01 31.192 128.79 28.2031 130.696C25.2141 132.602 30.8046 136.361 33.2918 137.739C35.7789 139.117 37.5089 147.608 37.5089 147.608L38.8074 147.261Z" fill="black"/>
<path d="M36.7784 149.307C36.7784 149.307 39.2479 144.285 36.2854 139.412C33.3229 134.539 32.4469 133.39 34.2913 132.368C36.1357 131.347 37.047 136.251 37.047 136.251C37.047 136.251 38.5656 132.835 37.223 129.296C35.8804 125.757 35.022 119.977 36.752 119.33C38.482 118.683 37.1922 126.549 38.7549 129.203C39.5052 127.331 39.9825 125.361 40.1724 123.353C40.344 120.492 39.9523 115.936 41.3301 114.747C42.7079 113.559 43.6103 114.355 42.3293 120.677C41.5572 124.444 41.1532 128.277 41.1232 132.122C41.1232 132.122 44.0329 123.815 46.0578 123.547C48.0827 123.278 48.1179 125.955 46.4144 128.301C44.7108 130.647 41.4137 134.851 40.8943 136.999C40.8943 136.999 44.1297 130.735 47.1363 132.597C50.1429 134.459 44.614 138.293 42.1445 139.689C39.6749 141.084 38.0594 149.615 38.0594 149.615L36.7784 149.307Z" fill="#407BFF"/>
<path d="M48.2232 145.76H27.7275L29.3871 158.913H46.5636L48.2232 145.76Z" fill="#407BFF"/>
<g opacity="0.6">
<path d="M48.2232 145.76H27.7275L29.3871 158.913H46.5636L48.2232 145.76Z" fill="white"/>
</g>
<path d="M95.5932 48.1835L95.8133 44.8644C95.8133 44.8644 95.0209 43.8916 95.0782 43.3237C95.1354 42.7558 96.5044 39.6084 96.9622 39.5028C97.42 39.3971 99.6914 40.7838 99.6606 41.5145C99.6298 42.2452 98.0583 44.7896 97.8162 44.9744L97.7942 48.5224L95.5932 48.1835Z" fill="#E4897B"/>
<path d="M65.6597 37.8265C63.6524 38.3899 62.6135 42.048 63.5688 48.871C64.524 55.6941 61.8828 64.7534 61.8828 64.7534C61.8828 64.7534 72.8481 68.1649 79.7461 63.7982C86.644 59.4314 76.8099 50.7771 76.8099 50.7771C76.8099 50.7771 80.8113 53.4931 82.1671 57.16C82.4349 56.5236 82.5113 55.823 82.3872 55.1439C81.5051 53.3502 80.2254 51.7815 78.6456 50.557C75.9295 48.3912 78.2054 43.2937 76.2993 40.5425C74.3932 37.7913 73.3984 35.6563 65.6597 37.8265Z" fill="#263238"/>
<path d="M76.7744 44.6494C76.7744 44.6494 76.5543 48.6112 77.9497 49.5664C79.3451 50.5217 82.2416 51.292 83.1925 53.1232" stroke="#263238" stroke-width="0.488465" stroke-linecap="round" stroke-linejoin="round"/>
<path d="M78.7956 54.2049C82.8278 54.5043 90.7514 60.8739 92.9524 61.3141C95.1534 61.7543 95.4483 46.2197 95.4483 46.2197H98.6749C98.6749 46.2197 98.0895 63.2686 95.7388 65.1482C93.3882 67.0279 78.3994 61.3273 78.3994 61.3273L78.7956 54.2049Z" fill="#407BFF"/>
<path opacity="0.3" d="M98.6749 46.2197C98.6749 46.2197 98.0895 63.2686 95.7388 65.1482C94.2069 66.3808 87.2826 64.3647 82.6605 62.8284C80.9482 62.2561 79.5527 61.7455 78.866 61.5078L78.3994 61.3317L78.8 54.2093C82.8278 54.5043 90.7514 60.8783 92.9524 61.3185C95.1534 61.7587 95.4483 46.2197 95.4483 46.2197H98.6749Z" fill="black"/>
<path d="M95.1533 45.7803H98.6749L99.0623 47.1009H95.1533V45.7803Z" fill="#407BFF"/>
<path opacity="0.2" d="M82.6607 62.8289C80.9483 62.2566 79.5529 61.7504 78.8662 61.5083V58.3564C78.8662 58.3564 81.6351 60.2625 82.6607 62.8289Z" fill="black"/>
<path d="M74.5162 137.209C71.7078 140.731 69.181 143.944 66.98 146.277C64.779 148.641 63.6433 150.107 63.6433 150.107L61.4688 148.857C61.4688 148.857 63.4805 145.674 66.2097 141.285C68.5295 137.561 71.3688 132.966 73.9484 128.709C77.2851 123.207 80.186 118.272 80.9519 116.507C81.4978 115.252 80.0187 110.432 78.3856 105.889C76.726 101.263 74.9036 96.9179 74.9036 96.9179L80.8419 86.8594C80.8419 86.8594 83.2586 93.5548 85.4067 100.62C86.8198 105.242 88.1051 110.027 88.5409 113.205C89.1484 117.647 81.5066 128.436 74.5162 137.209Z" fill="#E4897B"/>
<path opacity="0.2" d="M74.5346 137.21C71.7261 140.731 69.0277 143.945 67.0204 146.278C66.7343 144.843 66.4437 143.144 66.2148 141.29C68.5347 137.566 71.374 132.971 73.9535 128.714C73.8988 131.557 74.0932 134.4 74.5346 137.21Z" fill="black"/>
<path opacity="0.2" d="M85.407 100.623L78.3638 105.906C76.7043 101.279 74.8818 96.9345 74.8818 96.9345L80.8201 86.876C80.8201 86.876 83.2676 93.5582 85.407 100.623Z" fill="black"/>
<path d="M73.1432 155.249L70.6121 155.579C70.6121 155.579 66.9804 137.702 67.0905 122.951C65.742 118.07 64.6895 113.112 63.9387 108.103C63.0583 102.064 62.6181 95.3376 63.789 90.3193L72.593 94.2811L72.7735 107.487L72.9231 118.492L73.1432 155.249Z" fill="#E4897B"/>
<path opacity="0.2" d="M72.7735 107.487L63.9387 108.103C63.0583 102.064 62.6181 95.3376 63.789 90.3193L72.593 94.2811L72.7735 107.487Z" fill="black"/>
<path d="M61.6141 147.466C61.8738 147.277 64.066 150.547 64.066 150.547C64.066 150.547 63.5774 153.968 64.5678 156.177C65.5583 158.387 63.6346 158.198 62.0367 156.107L58.0749 150.93C56.948 149.469 58.9245 149.429 61.6141 147.466Z" fill="#263238"/>
<path d="M64.8101 153.048C64.3083 152.929 63.9869 151.512 63.9297 151.23V151.186V151.155V151.129L63.9649 151.107C64.0133 151.107 64.9377 150.799 65.4396 151.107C65.5161 151.15 65.5825 151.21 65.6341 151.281C65.6857 151.352 65.7215 151.434 65.7389 151.52C65.7785 151.714 65.7389 151.851 65.6288 151.925C65.5188 152 65.1226 151.947 64.7925 151.798C65.0136 152.003 65.1736 152.265 65.2547 152.555C65.2628 152.613 65.2591 152.672 65.244 152.729C65.2289 152.786 65.2026 152.839 65.1666 152.885C65.1329 152.94 65.0864 152.985 65.0313 153.018C64.9761 153.051 64.9138 153.071 64.8497 153.074L64.8101 153.048ZM64.8541 152.845C64.8761 152.845 64.9377 152.845 65.0346 152.74C65.0537 152.716 65.0674 152.688 65.075 152.659C65.0826 152.629 65.0838 152.598 65.0786 152.568C65.0346 152.242 64.546 151.767 64.1982 151.476C64.3391 152.084 64.6208 152.788 64.8541 152.845ZM64.2818 151.248C64.8145 151.578 65.3999 151.837 65.5452 151.736C65.5892 151.705 65.576 151.604 65.5452 151.547C65.5352 151.489 65.5122 151.434 65.4779 151.386C65.4436 151.338 65.3989 151.298 65.3471 151.27C65.2 151.196 65.0362 151.161 64.8717 151.168C64.6728 151.173 64.4749 151.199 64.2818 151.248Z" fill="#407BFF"/>
<path d="M69.7143 153.981C69.7143 153.66 73.6761 153.902 73.6761 153.902C73.6761 153.902 76.0972 156.38 78.4522 156.935C80.8073 157.49 79.4911 158.911 76.8587 158.911H70.3394C68.4685 158.911 69.6219 157.305 69.7143 153.981Z" fill="#263238"/>
<path d="M74.1032 154.404L74.068 154.382V154.355C74.068 154.355 74.068 154.333 74.068 154.324C74.0659 154.311 74.0659 154.298 74.068 154.285C74.068 154.236 74.4157 153.325 74.9483 153.105C75.0284 153.068 75.1155 153.049 75.2037 153.049C75.2918 153.049 75.379 153.068 75.459 153.105C75.6395 153.189 75.7275 153.299 75.7187 153.435C75.7187 153.642 75.4282 153.849 75.1068 154.021C75.4036 153.972 75.7081 154.006 75.9872 154.118C76.0377 154.146 76.082 154.185 76.1175 154.231C76.1531 154.277 76.1791 154.33 76.1941 154.386C76.2233 154.457 76.2302 154.535 76.2136 154.61C76.1971 154.684 76.158 154.752 76.1017 154.804C75.9995 154.874 75.8773 154.908 75.7539 154.901C75.1785 154.835 74.6195 154.666 74.1032 154.404ZM74.4641 154.338C75.0452 154.584 75.7627 154.8 75.952 154.65C75.952 154.65 76.018 154.593 75.9784 154.439C75.9694 154.41 75.9547 154.383 75.935 154.359C75.9153 154.336 75.8912 154.316 75.864 154.302C75.7177 154.236 75.5577 154.206 75.3973 154.214C75.0828 154.223 74.7701 154.264 74.4641 154.338ZM75.01 153.286C74.6969 153.487 74.4586 153.785 74.3321 154.135C74.9175 153.911 75.481 153.607 75.4898 153.426C75.4898 153.374 75.4017 153.321 75.3489 153.299C75.2958 153.274 75.238 153.262 75.1795 153.262C75.1209 153.262 75.0631 153.274 75.01 153.299V153.286Z" fill="#407BFF"/>
<path d="M76.6645 103.415L86.186 98.4275C83.1926 89.3242 80.4898 84.165 80.4898 84.165C71.1312 85.7674 71.9852 93.1671 71.9852 93.1671C71.9852 93.1671 74.3887 98.1017 76.6645 103.415Z" fill="#407BFF"/>
<path opacity="0.6" d="M76.0708 102.011C76.2733 102.473 76.4802 102.944 76.6826 103.415L86.2041 98.4275C83.2108 89.3286 80.508 84.165 80.508 84.165C74.7326 85.1599 72.8485 88.3557 72.2499 90.6536C72.0284 91.4719 71.9451 92.3214 72.0033 93.1671C72.0033 93.1671 73.9798 97.2829 76.0708 102.011Z" fill="white"/>
<path opacity="0.2" d="M76.0708 102.012C73.9798 97.2663 72.0033 93.168 72.0033 93.168C71.9451 92.3223 72.0284 91.4728 72.2499 90.6545C72.5488 90.4613 72.8797 90.3227 73.2271 90.2451C73.2271 90.2451 75.7846 94.2377 76.0708 102.012Z" fill="black"/>
<path d="M73.7327 105.471L73.407 90.2405L80.952 88.0395C80.952 88.0395 80.3577 81.0535 79.4773 77.6068C79.4773 77.6068 67.2222 74.5562 65.3513 78.7117C65.3513 78.7117 65.3513 78.7777 65.3249 78.7997L65.2985 78.8393C65.2985 78.8393 61.7769 85.0329 62.8246 105.467L73.7327 105.471Z" fill="#407BFF"/>
<path opacity="0.6" d="M73.7327 105.471L73.407 90.2405L80.952 88.0395C80.952 88.0395 80.3577 81.0535 79.4773 77.6068C79.4773 77.6068 67.2222 74.5562 65.3513 78.7117C65.3513 78.7117 65.3513 78.7777 65.3249 78.7997L65.2985 78.8393C65.2985 78.8393 61.7769 85.0329 62.8246 105.467L73.7327 105.471Z" fill="white"/>
<path d="M65.2197 76.6075V78.6852L79.3061 77.5979V75.1416L65.2197 76.6075Z" fill="#263238"/>
<path d="M69.9846 75.9277L69.2803 75.9629L69.4599 79.5549L70.1642 79.5197L69.9846 75.9277Z" fill="#407BFF"/>
<path d="M76.1452 75.6428L73.041 75.9209L73.252 78.2753L76.3561 77.9972L76.1452 75.6428Z" fill="white"/>
<path d="M78.6585 74.7874L77.9551 74.8232L78.1381 78.4106L78.8415 78.3747L78.6585 74.7874Z" fill="#407BFF"/>
<path opacity="0.6" d="M69.9846 75.9277L69.2803 75.9629L69.4599 79.5549L70.1642 79.5197L69.9846 75.9277Z" fill="white"/>
<path opacity="0.6" d="M78.6585 74.7874L77.9551 74.8232L78.1381 78.4106L78.8415 78.3747L78.6585 74.7874Z" fill="white"/>
<path d="M79.4777 75.3881L65.2857 76.6162C64.9468 71.3338 64.6122 67.9355 61.4868 58.5329C61.2169 57.7082 60.9234 56.8352 60.6064 55.9137C62.5331 55.2992 64.5015 54.8241 66.4963 54.4919C68.6025 54.1178 70.7325 53.8927 72.8704 53.8184C75.6304 53.8184 78.7998 54.1089 78.7998 54.1089C78.7998 54.1089 79.24 54.2189 79.5394 57.1463C79.7947 59.8931 80.05 65.3912 79.4777 75.3881Z" fill="#407BFF"/>
<path opacity="0.3" d="M79.4777 75.388L65.2857 76.6162C65.1402 72.9942 64.6089 69.398 63.701 65.8886C63.3357 64.4711 62.8779 62.8776 62.2968 61.0464C62.0503 60.2628 61.7818 59.4353 61.4868 58.5505C61.1919 57.6657 60.9234 56.8513 60.6064 55.9313C62.5331 55.3168 64.5015 54.8416 66.4963 54.5094C68.6025 54.1354 70.7325 53.9103 72.8704 53.8359C75.6304 53.8359 78.8042 54.1265 78.8042 54.1265C78.8042 54.1265 79.2444 54.2365 79.5394 57.1594C79.7947 59.8931 80.05 65.3911 79.4777 75.388Z" fill="black"/>
<path d="M61.918 104.846L74.3536 104.736L74.1335 106.607L62.4682 106.497L61.918 104.846Z" fill="#407BFF"/>
<path d="M75.8945 103.306L86.2392 97.6934L86.7894 99.3441L76.7749 104.296L75.8945 103.306Z" fill="#407BFF"/>
<path d="M70.0093 54.0118C70.0093 54.0118 66.1004 53.8577 66.3205 55.8562C66.5406 57.8547 76.0709 63.6522 76.0709 63.6522C76.0709 63.6522 75.6483 53.1182 70.0093 54.0118Z" stroke="#407BFF" stroke-miterlimit="10"/>
<path d="M71.6952 56.9573C68.1736 56.5171 67.1436 55.0116 67.1436 55.0116C68.5742 53.6646 68.3145 51.6749 67.9491 50.4336C67.8356 50.0401 67.6883 49.6572 67.5089 49.2891L71.7216 50.077C71.6245 50.6592 71.5701 51.2477 71.5587 51.8378C71.5431 52.2812 71.583 52.7249 71.6776 53.1584C71.9637 54.4174 72.6812 54.435 72.6812 54.435C73.4296 55.8128 71.6952 56.9573 71.6952 56.9573Z" fill="#E4897B"/>
<path opacity="0.2" d="M71.5674 51.85C71.5517 52.2934 71.5917 52.7371 71.6863 53.1706C70.0135 52.9505 68.7457 51.6123 67.949 50.4502C67.8355 50.0567 67.6882 49.6738 67.5088 49.3057L71.7215 50.0936C71.6276 50.6746 71.5761 51.2616 71.5674 51.85Z" fill="black"/>
<path d="M70.8716 38.4155C74.534 38.5476 75.6433 40.5549 75.771 44.3406C75.9295 49.0683 74.7585 52.383 70.2157 51.2033C64.0485 49.6053 64.7792 38.1866 70.8716 38.4155Z" fill="#E4897B"/>
<path d="M73.4072 44.0459C73.6813 44.6039 74.0212 45.1271 74.4197 45.6042C74.3068 45.7516 74.1554 45.8649 73.9822 45.9317C73.809 45.9985 73.6207 46.0162 73.438 45.9828L73.4072 44.0459Z" fill="#DE5753"/>
<path d="M71.1799 43.6626C71.1799 43.9663 71.0083 44.2084 70.8058 44.204C70.6033 44.1996 70.4492 43.9531 70.4492 43.6537C70.4492 43.3544 70.6209 43.1123 70.8234 43.1123C71.0259 43.1123 71.1843 43.3632 71.1799 43.6626Z" fill="#263238"/>
<path d="M70.7393 43.1381L71.3952 42.8916C71.3952 42.8916 71.0606 43.4242 70.7393 43.1381Z" fill="#263238"/>
<path d="M74.9041 43.6538C74.9041 43.9532 74.7369 44.1953 74.5344 44.1909C74.3319 44.1865 74.1734 43.9444 74.1778 43.6406C74.1822 43.3369 74.3495 43.0992 74.5476 43.1036C74.7457 43.108 74.9262 43.3501 74.9041 43.6538Z" fill="#263238"/>
<path d="M74.4639 43.1386L75.1242 42.8877C75.1242 42.8877 74.8072 43.4159 74.4639 43.1386Z" fill="#263238"/>
<path d="M71.2371 41.1311C70.9484 41.0852 70.653 41.1062 70.3737 41.1924C70.0944 41.2787 69.8386 41.4279 69.626 41.6285" stroke="#263238" stroke-width="0.707962" stroke-linecap="round" stroke-linejoin="round"/>
<path d="M73.9043 41.0793C74.1566 41.025 74.418 41.0285 74.6687 41.0895C74.9195 41.1505 75.1533 41.2674 75.3526 41.4314" stroke="#263238" stroke-width="0.707962" stroke-linecap="round" stroke-linejoin="round"/>
<path d="M72.8485 47.4046C72.6625 47.8129 72.5051 48.2335 72.3775 48.6636L72.1398 48.6328C71.0789 48.4831 70.6343 48.0649 70.4626 47.6467C70.3849 47.4389 70.3578 47.2156 70.3834 46.9952C70.3926 46.8699 70.4208 46.7467 70.467 46.6299C71.081 47.0125 71.7701 47.2587 72.4875 47.3518C72.7032 47.3914 72.8485 47.4046 72.8485 47.4046Z" fill="#263238"/>
<path d="M72.487 47.3518L72.3373 47.7172C71.338 47.5763 70.6557 47.343 70.3828 46.9952C70.392 46.8699 70.4202 46.7467 70.4665 46.6299C71.0805 47.0125 71.7695 47.2587 72.487 47.3518Z" fill="white"/>
<path d="M72.1391 48.6325C71.0782 48.4829 70.6336 48.0647 70.4619 47.6465C70.8656 47.7085 71.2547 47.8427 71.6108 48.0427C71.846 48.1771 72.0313 48.384 72.1391 48.6325Z" fill="#DE5753"/>
<path d="M66.6411 44.4596C66.6411 44.4596 68.4635 41.5146 68.2918 39.1772C68.2918 39.1772 75.6607 36.4788 75.7444 43.8609C75.7444 43.8609 76.6952 37.346 70.4048 36.9674C64.1143 36.5888 63.8018 45.8022 66.9492 48.6679C66.9492 48.6502 65.5098 46.282 66.6411 44.4596Z" fill="#263238"/>
<path d="M67.2097 45.2345C67.1891 44.8094 67.0012 44.4097 66.687 44.1227C66.3727 43.8357 65.9577 43.6847 65.5325 43.7026C64.3924 43.7818 63.7717 46.0929 66.5714 46.7576C66.9808 46.8544 67.2141 46.467 67.2097 45.2345Z" fill="#E4897B"/>
<path d="M68.8158 35.9944C70.7966 35.4441 76.079 35.3693 77.3248 40.8366L76.5897 41.2019C75.3493 40.578 74.0078 40.18 72.6279 40.0266C72.3347 39.5056 71.9912 39.0147 71.6022 38.5607C71.6427 39.025 71.6427 39.4919 71.6022 39.9562C71.6022 39.9562 68.1555 40.458 66.6148 41.8622C64.1937 44.0632 64.044 45.4586 64.044 45.4586C64.044 45.4586 62.3669 37.7816 68.8158 35.9944Z" fill="#263238"/>
<path d="M68.5215 36.3947C68.5215 36.3947 75.5999 33.9384 77.8405 40.6514" stroke="#263238" stroke-width="0.488465" stroke-linecap="round" stroke-linejoin="round"/>
<path d="M76.7612 65.5235C77.4055 65.5235 77.9278 65.0012 77.9278 64.357C77.9278 63.7127 77.4055 63.1904 76.7612 63.1904C76.117 63.1904 75.5947 63.7127 75.5947 64.357C75.5947 65.0012 76.117 65.5235 76.7612 65.5235Z" fill="white"/>
<path opacity="0.2" d="M63.7011 65.8882C63.3357 64.4708 62.8779 62.8773 62.2969 61.0461L62.8955 59.7959C62.8955 59.7959 64.4494 63.4187 63.7011 65.8882Z" fill="black"/>
<path d="M42.2191 48.3767L40.9998 45.2953C40.9998 45.2953 41.44 44.1288 41.2287 43.605C41.0174 43.0811 38.746 40.5016 38.275 40.5236C37.8039 40.5456 36.074 42.5749 36.3161 43.2616C36.5582 43.9483 38.8384 45.9028 39.1245 45.9952L40.225 49.3716L42.2191 48.3767Z" fill="#E4897B"/>
<path d="M60.6016 55.9054C58.7264 56.416 51.3575 63.5693 50.1425 63.5693C48.9276 63.5693 42.1089 47.1719 42.1089 47.1719L39.7979 48.6333C39.7979 48.6333 44.53 66.9896 47.3913 68.5303C50.2526 70.071 62.9391 63.1423 62.9391 63.1423C62.9391 63.1423 63.1284 59.5855 62.5781 57.9479C62.4292 57.4777 62.1731 57.0486 61.8302 56.6941C61.4872 56.3397 61.0666 56.0697 60.6016 55.9054Z" fill="#407BFF"/>
<path opacity="0.3" d="M60.6016 55.9054C58.7264 56.416 51.3575 63.5693 50.1425 63.5693C48.9276 63.5693 42.1089 47.1719 42.1089 47.1719L39.7979 48.6333C39.7979 48.6333 44.53 66.9896 47.3913 68.5303C50.2526 70.071 62.9391 63.1423 62.9391 63.1423C62.9391 63.1423 63.1284 59.5855 62.5781 57.9479C62.4292 57.4777 62.1731 57.0486 61.8302 56.6941C61.4872 56.3397 61.0666 56.0697 60.6016 55.9054Z" fill="black"/>
<path d="M39.2568 48.5227L42.2194 46.6299L42.9853 47.7172L39.7983 49.7113L39.2568 48.5227Z" fill="#407BFF"/>
<path d="M142.839 44.2168C142.839 44.2168 131.394 55.0149 126.112 56.8197C120.829 58.6245 107.249 65.3111 107.249 65.3111L105.167 63.6692C105.167 63.5767 103.648 64.752 103.631 65.5664C103.631 66.1563 105.123 71.0997 105.436 71.0953C106.888 71.0953 108.517 67.7674 108.517 67.7674C108.517 67.7674 125.905 63.2378 129.021 61.8731C132.138 60.5085 144.983 50.4896 144.983 50.4896L142.839 44.2168Z" fill="#B97964"/>
<path d="M145.375 41.6289C142.034 42.4565 137.742 48.3111 137.742 48.3111L140.824 53.7828L145.811 51.9427L145.375 41.6289Z" fill="#407BFF"/>
<path opacity="0.6" d="M145.811 51.9427L141.409 53.5847L140.824 53.8048L137.742 48.3375C137.742 48.3375 142.034 42.4785 145.375 41.6465L145.578 46.4226L145.811 51.9427Z" fill="white"/>
<path d="M137.742 47.3027L141.373 53.7824L140.128 54.6937L137.147 48.2448L137.742 47.3027Z" fill="#407BFF"/>
<path opacity="0.2" d="M145.81 51.942L141.408 53.5839C141.813 50.0271 144.727 47.1878 145.577 46.4219L145.81 51.942Z" fill="black"/>
<path d="M145.978 155.53L142.294 155.917L141.603 147.971L145.287 147.584L145.978 155.53Z" fill="#B97964"/>
<path d="M164.356 155.262H160.786L160.491 146.995H164.066L164.356 155.262Z" fill="#B97964"/>
<path d="M160.301 154.848H164.637C164.709 154.848 164.777 154.873 164.833 154.918C164.888 154.962 164.926 155.025 164.941 155.094L165.646 158.272C165.66 158.34 165.66 158.409 165.648 158.477C165.635 158.545 165.609 158.609 165.572 158.667C165.534 158.724 165.485 158.774 165.429 158.813C165.372 158.852 165.308 158.879 165.241 158.893C165.201 158.897 165.161 158.897 165.122 158.893C163.722 158.871 162.701 158.783 160.935 158.783C159.852 158.783 156.577 158.898 155.081 158.898C153.584 158.898 153.386 157.418 153.998 157.282C156.749 156.683 158.84 155.851 159.72 155.059C159.882 154.921 160.089 154.846 160.301 154.848Z" fill="#263238"/>
<path d="M159.113 155.474C158.87 155.494 158.628 155.43 158.427 155.293C158.363 155.24 158.313 155.172 158.283 155.095C158.252 155.019 158.241 154.935 158.25 154.853C158.248 154.804 158.261 154.754 158.287 154.712C158.313 154.67 158.351 154.636 158.396 154.615C158.792 154.413 159.945 155.122 160.068 155.201C160.083 155.209 160.096 155.221 160.103 155.236C160.111 155.251 160.114 155.268 160.112 155.284C160.11 155.302 160.102 155.318 160.091 155.33C160.079 155.343 160.063 155.351 160.046 155.355C159.741 155.429 159.428 155.469 159.113 155.474ZM158.581 154.734C158.543 154.731 158.504 154.738 158.471 154.756C158.471 154.756 158.422 154.787 158.418 154.857C158.41 154.914 158.417 154.971 158.437 155.024C158.457 155.077 158.49 155.124 158.532 155.161C158.934 155.34 159.387 155.362 159.804 155.223C159.431 154.984 159.016 154.819 158.581 154.734Z" fill="#407BFF"/>
<path d="M160.025 155.345H159.985C159.615 155.147 158.902 154.363 158.977 153.985C158.989 153.921 159.023 153.864 159.073 153.823C159.123 153.782 159.186 153.76 159.25 153.76C159.314 153.751 159.379 153.756 159.441 153.775C159.502 153.794 159.559 153.827 159.607 153.87C160.02 154.205 160.108 155.235 160.113 155.283C160.116 155.294 160.115 155.306 160.111 155.317C160.107 155.328 160.1 155.338 160.09 155.345C160.081 155.351 160.069 155.355 160.058 155.355C160.046 155.355 160.034 155.351 160.025 155.345ZM159.307 153.897H159.268C159.158 153.897 159.149 153.963 159.144 153.985C159.1 154.213 159.554 154.812 159.919 155.089C159.891 154.68 159.737 154.29 159.479 153.971C159.432 153.927 159.371 153.901 159.307 153.897Z" fill="#407BFF"/>
<path d="M141.906 154.733H146.242C146.313 154.734 146.382 154.758 146.437 154.803C146.492 154.848 146.531 154.91 146.546 154.98L147.25 158.158C147.277 158.295 147.25 158.438 147.173 158.555C147.097 158.671 146.977 158.754 146.841 158.783H146.726C145.322 158.761 144.301 158.673 142.54 158.673C141.457 158.673 138.182 158.788 136.685 158.788C135.189 158.788 134.99 157.309 135.602 157.172C138.354 156.573 140.423 155.741 141.325 154.971C141.483 154.823 141.69 154.739 141.906 154.733Z" fill="#263238"/>
<path d="M140.722 155.358C140.48 155.38 140.239 155.316 140.04 155.178C139.975 155.126 139.925 155.058 139.894 154.981C139.863 154.904 139.853 154.82 139.864 154.738C139.862 154.688 139.874 154.639 139.9 154.597C139.926 154.555 139.964 154.521 140.009 154.5C140.401 154.298 141.554 155.006 141.682 155.086C141.697 155.093 141.709 155.105 141.716 155.121C141.723 155.136 141.725 155.153 141.721 155.169C141.719 155.186 141.713 155.203 141.702 155.216C141.691 155.229 141.676 155.239 141.66 155.244C141.352 155.315 141.038 155.353 140.722 155.358ZM140.194 154.619C140.156 154.617 140.118 154.625 140.084 154.641C140.062 154.641 140.035 154.676 140.031 154.742C140.022 154.798 140.028 154.855 140.047 154.908C140.067 154.961 140.099 155.008 140.141 155.046C140.542 155.226 140.996 155.25 141.413 155.112C141.043 154.87 140.628 154.702 140.194 154.619Z" fill="#407BFF"/>
<path d="M141.637 155.235H141.597C141.228 155.032 140.515 154.249 140.589 153.87C140.6 153.807 140.633 153.75 140.682 153.71C140.732 153.669 140.794 153.648 140.858 153.65C140.922 153.64 140.988 153.644 141.05 153.662C141.113 153.681 141.17 153.712 141.219 153.756C141.633 154.095 141.716 155.12 141.721 155.169C141.722 155.184 141.719 155.2 141.712 155.214C141.705 155.228 141.694 155.24 141.681 155.248C141.665 155.248 141.65 155.244 141.637 155.235ZM140.933 153.786H140.893C140.783 153.786 140.774 153.848 140.77 153.87C140.722 154.103 141.179 154.698 141.545 154.975C141.517 154.566 141.363 154.175 141.104 153.857C141.057 153.814 140.996 153.789 140.933 153.786Z" fill="#407BFF"/>
<path opacity="0.2" d="M145.287 147.584L141.603 147.971L141.964 152.07L145.648 151.682L145.287 147.584Z" fill="black"/>
<path opacity="0.2" d="M164.066 146.999H160.491L160.645 151.26H164.22L164.066 146.999Z" fill="black"/>
<path d="M162.591 74.4717H143.663C141.862 84.3057 136.223 119.112 140.269 150.124L146.682 149.332C146.682 149.332 146.088 108.16 151.749 92.938C152.401 101.086 153.175 109.754 153.844 114.362C155.495 125.715 159.021 150.52 159.021 150.52H165.549C165.549 150.52 164.229 126.776 163.599 115.621C162.908 103.512 162.618 76.9588 162.591 74.4717Z" fill="#407BFF"/>
<path opacity="0.2" d="M151.735 92.9118C150.801 95.58 150.093 98.3217 149.618 101.108C149.09 93.8582 151.207 86.168 151.207 86.168L151.735 92.9118Z" fill="black"/>
<path d="M139.52 151.622L147.457 150.438L147.215 148.241L138.957 149.324L139.52 151.622Z" fill="#407BFF"/>
<path opacity="0.6" d="M139.52 151.622L147.457 150.438L147.215 148.241L138.957 149.324L139.52 151.622Z" fill="white"/>
<path d="M158.224 150.573H165.923V148.271L157.934 148.121L158.224 150.573Z" fill="#407BFF"/>
<path opacity="0.6" d="M158.224 150.573H165.923V148.271L157.934 148.121L158.224 150.573Z" fill="white"/>
<path d="M145.374 41.6287C145.374 41.6287 157.427 41.0388 166.403 43.3058C166.403 43.3058 163.343 70.739 163.493 82.1841L141.373 81.4358C141.373 81.4358 142.253 53.3423 145.374 41.6287Z" fill="#407BFF"/>
<path opacity="0.6" d="M166.403 43.31C166.403 43.31 166.046 46.5058 165.58 51.1807C165.113 55.8556 164.536 62.08 164.114 68.0007C163.718 73.4107 163.445 78.5875 163.493 82.1839L141.373 81.4356C141.373 81.4356 142.253 53.3641 145.374 41.646C145.374 41.624 157.427 41.0386 166.403 43.31Z" fill="white"/>
<path d="M104.604 58.7662L104.7 58.7618L104.692 58.7486H104.705L104.7 58.7178L104.604 58.7662Z" fill="#263238"/>
<path d="M141.99 53.6816L141.647 53.7037H116.868L104.908 58.5458H104.705L106.893 81.4361H130.452L143.667 76.1406L141.99 53.6816Z" fill="#263238"/>
<path opacity="0.2" d="M107.575 60.3418L108.535 61.231L109.811 60.9449L109.261 62.129L109.93 63.2559L108.631 63.1018L107.769 64.0835L107.513 62.8025L106.312 62.2831L107.452 61.6448L107.575 60.3418Z" fill="white"/>
<path opacity="0.2" d="M120.992 62.2266L120.904 63.534L121.925 64.3439L120.657 64.6653L120.204 65.889L119.509 64.7797L118.201 64.7269L119.042 63.7232L118.69 62.4643L119.9 62.9529L120.992 62.2266Z" fill="white"/>
<path opacity="0.2" d="M120.552 76.3125L120.464 77.6199L121.485 78.4299L120.217 78.7512L119.764 79.9749L119.068 78.8657L117.761 78.8128L118.602 77.8092L118.249 76.5502L119.46 77.0388L120.552 76.3125Z" fill="white"/>
<path opacity="0.2" d="M114.83 72.79L114.742 74.0974L115.763 74.9074L114.495 75.2287L114.042 76.4525L113.346 75.3432L112.039 75.2904L112.88 74.2867L112.528 73.0277L113.738 73.5164L114.83 72.79Z" fill="white"/>
<path opacity="0.2" d="M121.34 72.3584L121.287 73.1199L121.89 73.5954L121.146 73.7846L120.878 74.5022L120.473 73.8551L119.707 73.8199L120.2 73.2344L119.993 72.4949L120.702 72.781L121.34 72.3584Z" fill="white"/>
<path opacity="0.2" d="M110.335 77.6416L110.282 78.4031L110.886 78.8786L110.142 79.0678L109.873 79.7854L109.468 79.1383L108.702 79.1031L109.195 78.5176L108.988 77.7781L109.697 78.0642L110.335 77.6416Z" fill="white"/>
<path opacity="0.2" d="M109.454 70.1582L109.402 70.9197L110.005 71.3952L109.261 71.5844L108.992 72.302L108.587 71.6549L107.821 71.6197L108.314 71.0342L108.107 70.2947L108.816 70.5808L109.454 70.1582Z" fill="white"/>
<path opacity="0.2" d="M125.742 59.1533L125.689 59.9149L126.292 60.3903L125.548 60.5796L125.279 61.2971L124.874 60.65L124.108 60.6148L124.601 60.0293L124.395 59.2898L125.103 59.5759L125.742 59.1533Z" fill="white"/>
<path opacity="0.2" d="M111.897 64.3564L112.663 65.9103L114.376 66.1569L113.134 67.363L113.429 69.071L111.897 68.2654L110.365 69.071L110.66 67.363L109.419 66.1569L111.131 65.9103L111.897 64.3564Z" fill="white"/>
<path opacity="0.2" d="M123.198 67.5124L124.76 68.2476L126.257 67.376L126.037 69.0928L127.327 70.2461L125.628 70.5674L124.932 72.1521L124.1 70.6334L122.379 70.4618L123.563 69.2028L123.198 67.5124Z" fill="white"/>
<path opacity="0.2" d="M126.425 74.9199L127.191 76.4738L128.903 76.7203L127.662 77.9265L127.956 79.6344L126.425 78.8289L124.893 79.6344L125.188 77.9265L123.946 76.7203L125.659 76.4738L126.425 74.9199Z" fill="white"/>
<path opacity="0.2" d="M130.707 59.5576L131.253 60.3192L131.892 59.8702L131.68 61.1247L132.09 62.1636L131.416 62.1768L131.029 63.2641L130.822 62.0183L130.175 61.653L130.725 60.8738L130.707 59.5576Z" fill="white"/>
<path opacity="0.2" d="M137.715 59.7295L137.746 61.0413L138.323 61.7236L137.689 62.2034L137.526 63.4844L137.103 62.4675L136.43 62.5776L136.799 61.4727L136.544 60.2577L137.196 60.5923L137.715 59.7295Z" fill="white"/>
<path opacity="0.2" d="M138.322 73.8457L138.353 75.1575L138.93 75.8398L138.296 76.3196L138.138 77.6006L137.715 76.5837L137.037 76.6982L137.411 75.5889L137.156 74.3739L137.807 74.7085L138.322 73.8457Z" fill="white"/>
<path opacity="0.2" d="M135.175 71.0605L135.206 72.3723L135.782 73.0547L135.149 73.5345L134.986 74.8154L134.563 73.7986L133.89 73.9086L134.259 72.8037L134.004 71.5888L134.656 71.9189L135.175 71.0605Z" fill="white"/>
<path opacity="0.2" d="M138.495 69.7969L138.513 70.5672L138.851 70.9634L138.482 71.2451L138.385 71.9979L138.138 71.4036L137.742 71.4652L137.962 70.8181L137.808 70.1094L138.191 70.3031L138.495 69.7969Z" fill="white"/>
<path opacity="0.2" d="M133.155 76.4707L133.173 77.241L133.507 77.6416L133.137 77.9234L133.045 78.6717L132.794 78.0774L132.402 78.1435L132.618 77.492L132.468 76.7832L132.851 76.9769L133.155 76.4707Z" fill="white"/>
<path opacity="0.2" d="M132.257 69.1152L132.274 69.8856L132.613 70.2818L132.243 70.5635L132.147 71.3118L131.9 70.7176L131.504 70.7836L131.72 70.1365L131.57 69.4234L131.953 69.6215L132.257 69.1152Z" fill="white"/>
<path opacity="0.2" d="M139.973 56.0537L139.991 56.8241L140.33 57.2202L139.96 57.502L139.863 58.2547L139.617 57.6604L139.221 57.7221L139.436 57.075L139.287 56.3663L139.67 56.5599L139.973 56.0537Z" fill="white"/>
<path opacity="0.2" d="M133.168 63.0137L133.653 64.4663L134.546 64.4971L133.983 65.8574L134.234 67.5213L133.402 66.9138L132.662 67.9131L132.711 66.1743L132.002 65.1266L132.869 64.66L133.168 63.0137Z" fill="white"/>
<path opacity="0.2" d="M139.164 64.7216L140.009 65.2586L140.726 64.2021L140.713 65.9409L141.448 66.927L140.594 67.464L140.33 69.1324L139.811 67.7281L138.917 67.7722L139.45 66.3635L139.164 64.7216Z" fill="white"/>
<path opacity="0.2" d="M141.259 71.7119L141.744 73.1602L142.642 73.191L142.074 74.5556L142.325 76.2195L141.493 75.6121L140.753 76.6069L140.801 74.8681L140.093 73.8249L140.96 73.3583L141.259 71.7119Z" fill="white"/>
<path opacity="0.2" d="M128.251 58.6112L141.99 53.7822L143.667 76.3204L130.452 81.6996L128.251 58.6112Z" fill="black"/>
<path opacity="0.2" d="M104.604 58.6343L116.867 53.7041H141.813L128.251 58.4626L104.604 58.6343Z" fill="white"/>
<path d="M139.098 78.2361L137.522 55.0244H113.201L110.903 56.2174L133.12 56.8248L135.959 79.385L139.098 78.2361Z" fill="#407BFF"/>
<path d="M128.973 53.7041L117.567 58.4362L118.923 81.4366H115.402L112.98 58.5067L125.746 53.7041H128.973Z" fill="#407BFF"/>
<g opacity="0.2">
<path d="M139.098 78.2361L137.522 55.0244H113.201L110.903 56.2174L133.12 56.8248L135.959 79.385L139.098 78.2361Z" fill="white"/>
<path d="M128.974 53.7041L117.568 58.4362L118.924 81.4366H115.403L112.981 58.5067L125.747 53.7041H128.974Z" fill="white"/>
</g>
<path opacity="0.2" d="M137.522 55.2266L133.12 56.8773L135.959 79.4595L139.098 78.337L137.522 55.2266Z" fill="black"/>
<path opacity="0.1" d="M112.98 58.6071L117.567 58.4883L118.923 81.4358H115.402L112.98 58.6071Z" fill="black"/>
<path d="M121.688 55.5036C121.688 55.5036 115.085 50.5117 112.215 51.7619C109.948 52.748 110.278 55.7017 116.013 56.4544C113.861 56.6481 111.312 56.9915 109.789 57.5725L114.116 58.0832C116.713 57.3753 119.363 56.8792 122.04 56.5997C122.15 57.088 122.15 57.5948 122.04 58.0832L125.002 57.8278C125.002 57.8278 124.122 56.9959 123.418 56.384C126.812 56.045 134.079 54.9577 134.81 51.7619C135.765 47.58 125.293 50.3665 121.688 55.5036ZM112.215 52.6027C112.91 51.5022 121.274 55.869 121.274 55.869C117.347 56.4192 111.515 53.7032 112.215 52.6027ZM122.44 55.6841C122.44 55.6841 131.398 49.266 133.564 50.6966C135.73 52.1273 125.148 55.9438 122.445 55.6841H122.44Z" fill="#407BFF"/>
<path opacity="0.1" d="M121.688 55.5036C121.688 55.5036 115.085 50.5117 112.215 51.7619C109.948 52.748 110.278 55.7017 116.013 56.4544C113.861 56.6481 111.312 56.9915 109.789 57.5725L114.116 58.0832C116.713 57.3753 119.363 56.8792 122.04 56.5997C122.15 57.088 122.15 57.5948 122.04 58.0832L125.002 57.8278C125.002 57.8278 124.122 56.9959 123.418 56.384C126.812 56.045 134.079 54.9577 134.81 51.7619C135.765 47.58 125.293 50.3665 121.688 55.5036ZM112.215 52.6027C112.91 51.5022 121.274 55.869 121.274 55.869C117.347 56.4192 111.515 53.7032 112.215 52.6027ZM122.44 55.6841C122.44 55.6841 131.398 49.266 133.564 50.6966C135.73 52.1273 125.148 55.9438 122.445 55.6841H122.44Z" fill="white"/>
<path opacity="0.2" d="M165.584 51.1806C165.118 55.8819 164.541 62.0799 164.119 68.0006C154.311 56.6655 161.328 48.3369 161.328 48.3369L165.584 51.1806Z" fill="black"/>
<path d="M150.345 41.5581C150.345 41.5581 150.253 44.0717 153.554 44.1993C156.856 44.327 161.28 42.3153 161.28 42.3153C161.28 42.3153 154.985 40.9374 150.345 41.5581Z" fill="#407BFF"/>
<path d="M159.554 42.0917C157.815 43.672 153.554 43.0865 153.554 43.0865C153.554 43.0865 150.913 42.3602 151.454 41.5282C153.021 41.2685 153.778 40.5378 154.095 39.6046C154.265 39.0236 154.319 38.4148 154.254 37.813C154.229 37.4791 154.185 37.1469 154.122 36.8181L159.404 32.918C158.695 35.4887 157.85 40.2253 159.554 42.0917Z" fill="#B97964"/>
<path opacity="0.2" d="M158.167 35.3955C157.96 38.5561 155.363 39.4277 154.091 39.6038C154.261 39.0228 154.315 38.414 154.249 37.8122L158.167 35.3955Z" fill="black"/>
<path d="M149.081 25.407C149.081 25.407 148.332 30.324 150.943 32.2169C153.553 34.1097 153.553 24.9492 153.553 24.9492L149.081 25.407Z" fill="#263238"/>
<path d="M158.541 36.1269C157.991 36.9397 157.19 37.5494 156.26 37.862C155.33 38.1746 154.324 38.1728 153.395 37.8569C152.19 37.4753 151.176 36.6488 150.56 35.5458C150.47 35.3928 150.391 35.234 150.322 35.0704C149.037 32.0682 148.627 26.8079 151.806 24.8402C152.506 24.4018 153.306 24.1497 154.131 24.1078C154.955 24.0659 155.777 24.2357 156.518 24.6009C157.259 24.9662 157.893 25.5148 158.362 26.1946C158.831 26.8745 159.118 27.6629 159.197 28.485C159.588 31.9978 159.985 34.0447 158.541 36.1269Z" fill="#B97964"/>
<path d="M154.078 30.373C154.144 30.6503 154.016 30.91 153.827 30.9452C153.638 30.9805 153.453 30.7692 153.387 30.505C153.321 30.2409 153.448 29.9636 153.633 29.9328C153.818 29.902 154.025 30.1045 154.078 30.373Z" fill="#263238"/>
<path d="M150.869 30.9404C150.935 31.2177 150.803 31.4774 150.618 31.5082C150.433 31.539 150.243 31.3321 150.177 31.068C150.111 30.8039 150.243 30.531 150.424 30.5002C150.604 30.4694 150.82 30.6718 150.869 30.9404Z" fill="#263238"/>
<path d="M151.912 30.9062C151.72 31.8257 151.403 32.7144 150.97 33.5474C151.189 33.6531 151.428 33.7097 151.672 33.7135C151.915 33.7173 152.156 33.6682 152.378 33.5694L151.912 30.9062Z" fill="#A24E3F"/>
<path d="M154.892 29.184C154.862 29.1926 154.831 29.1935 154.801 29.1866C154.771 29.1796 154.743 29.1651 154.72 29.1444C154.569 28.9958 154.385 28.8846 154.183 28.8196C153.982 28.7546 153.767 28.7377 153.558 28.7702C153.515 28.7797 153.47 28.7721 153.432 28.7492C153.394 28.7262 153.367 28.6896 153.355 28.647C153.35 28.6256 153.349 28.6034 153.353 28.5816C153.356 28.5598 153.364 28.5389 153.375 28.5201C153.386 28.5013 153.401 28.4849 153.419 28.472C153.437 28.459 153.457 28.4496 153.479 28.4445C153.741 28.3945 154.012 28.4083 154.268 28.4849C154.523 28.5616 154.757 28.6987 154.949 28.8847C154.965 28.9002 154.977 28.9187 154.986 28.9391C154.994 28.9595 154.998 28.9814 154.998 29.0035C154.998 29.0256 154.994 29.0475 154.986 29.0679C154.977 29.0883 154.965 29.1068 154.949 29.1224C154.933 29.146 154.914 29.1668 154.892 29.184Z" fill="#263238"/>
<path d="M153.087 34.9778C153.504 34.9695 153.913 34.8613 154.279 34.6621C154.645 34.4629 154.958 34.1787 155.191 33.8333C155.203 33.8127 155.206 33.7884 155.2 33.7655C155.195 33.7426 155.18 33.7227 155.161 33.71C155.141 33.6983 155.118 33.6944 155.096 33.6994C155.074 33.7043 155.054 33.7176 155.042 33.7364C154.819 34.052 154.527 34.3114 154.187 34.494C153.847 34.6766 153.469 34.7775 153.083 34.7885C153.06 34.7896 153.039 34.7994 153.023 34.8158C153.008 34.8322 152.999 34.8539 152.999 34.8765C152.999 34.8879 153 34.8992 153.004 34.9099C153.008 34.9206 153.014 34.9303 153.022 34.9385C153.03 34.9468 153.039 34.9533 153.05 34.9578C153.06 34.9623 153.071 34.9646 153.083 34.9646L153.087 34.9778Z" fill="#263238"/>
<path d="M149.297 30.0698C149.266 30.0806 149.232 30.0806 149.2 30.0698C149.179 30.0642 149.159 30.0544 149.141 30.0409C149.123 30.0274 149.108 30.0105 149.097 29.9913C149.086 29.972 149.079 29.9508 149.076 29.9287C149.074 29.9067 149.075 29.8843 149.081 29.8629C149.15 29.6023 149.281 29.3623 149.463 29.163C149.645 28.9638 149.872 28.8113 150.125 28.7184C150.167 28.7062 150.213 28.7114 150.252 28.7328C150.291 28.7543 150.319 28.7903 150.332 28.8329C150.344 28.8749 150.339 28.9201 150.319 28.9588C150.298 28.9975 150.263 29.0266 150.221 29.0398C150.024 29.1196 149.848 29.2443 149.708 29.4041C149.567 29.5638 149.466 29.754 149.412 29.9598C149.402 29.9853 149.386 30.0084 149.366 30.0274C149.347 30.0464 149.323 30.0609 149.297 30.0698Z" fill="#263238"/>
<path d="M155.9 24.6016V26.1731C156.177 26.2662 156.409 26.4601 156.549 26.7162C156.689 26.9724 156.728 27.2719 156.658 27.5553C156.314 28.9155 157.3 30.8436 158.396 31.5171C158.396 31.5171 158.361 30.9492 158.837 31.0241C159.312 31.0989 159.558 34.0526 158.801 35.5669C158.801 35.5669 160.047 34.1275 160.465 30.9492C160.848 28.0131 160.65 25.6228 159.933 24.5928L155.9 24.6016Z" fill="#263238"/>
<path d="M161.244 30.2496C160.44 29.0595 159.368 28.0749 158.114 27.3751C156.005 26.1645 152.766 25.3238 148.196 26.7544C148.196 26.7544 149.847 18.7648 157.035 21.472L157.212 21.5424C164.18 24.2937 161.244 30.2496 161.244 30.2496Z" fill="#407BFF"/>
<path opacity="0.2" d="M158.101 27.3751C155.993 26.1645 152.753 25.3237 148.184 26.7544C148.184 26.7544 149.834 18.7648 157.023 21.472L157.199 21.5424C157.625 21.7667 157.993 22.0879 158.273 22.4801C158.924 23.4837 158.458 25.9708 158.101 27.3751Z" fill="white"/>
<path d="M148.984 27.1809C148.02 27.3746 144.842 25.1516 146.105 24.1435C147.122 23.3335 149.974 23.0958 152.215 23.6109C156.366 24.5705 158.175 27.3438 158.175 27.3438C158.175 27.3438 152.871 25.6402 148.984 27.1809Z" fill="#407BFF"/>
<path opacity="0.2" d="M148.984 27.1809C148.02 27.3746 144.842 25.1516 146.105 24.1435C147.122 23.3335 149.974 23.0958 152.215 23.6109C156.366 24.5705 158.175 27.3438 158.175 27.3438C158.175 27.3438 152.871 25.6402 148.984 27.1809Z" fill="black"/>
<path d="M161.209 31.1126C161.084 31.5355 160.877 31.9297 160.6 32.2727C160.323 32.6156 159.981 32.9005 159.593 33.1111C158.555 33.6701 157.78 32.8029 157.833 31.6848C157.903 30.6944 158.519 29.1801 159.673 29.0921C160.826 29.004 161.504 30.0605 161.209 31.1126Z" fill="#B97964"/>
<path d="M146.132 51.9424L144.952 60.1741L147.153 60.1301L146.867 63.8894L144.736 63.8321L144.076 65.3552L147.822 65.725L150.287 52.3342L146.132 51.9424ZM146.656 58.3781L147.739 54.0069L148.509 54.0685L147.756 58.3561L146.656 58.3781Z" fill="#407BFF"/>
<path d="M151.939 52.3828L150.754 60.5133L152.955 60.4693L152.674 64.3298H150.543L149.883 65.8837L153.629 66.2623L156.094 52.8274L151.939 52.3828ZM152.48 58.7173L153.563 54.4429H154.333L153.58 58.6776L152.48 58.7173Z" fill="#407BFF"/>
<path d="M166.738 53.2639C166.738 53.2639 162.974 63.6482 161.86 65.8272C160.746 68.0062 138.825 70.1543 138.825 70.1543C138.825 70.1543 133.982 73.2886 133.102 73.1433C132.222 72.998 130.206 68.8866 131.086 68.4464C131.966 68.0062 134.643 64.9776 136.091 65.026C137.539 65.0745 138.807 66.6856 138.807 66.6856C138.807 66.6856 156.855 61.5133 157.828 61.1303C158.523 60.853 161.376 50.7988 161.376 50.7988L166.738 53.2639Z" fill="#B97964"/>
<path d="M166.403 43.3063C170.902 45.1991 166.403 58.1365 166.403 58.1365L159.554 55.2224C159.554 55.2224 161.799 41.3782 166.403 43.3063Z" fill="#407BFF"/>
<path opacity="0.6" d="M166.403 43.3063C170.902 45.1991 166.403 58.1365 166.403 58.1365L159.554 55.2224C159.554 55.2224 161.799 41.3782 166.403 43.3063Z" fill="white"/>
<path d="M159.201 54.1826L167.235 57.6602L166.407 59.4078L158.761 55.9434L159.201 54.1826Z" fill="#407BFF"/>
<path d="M184.83 133.085C184.83 133.085 184.02 124.51 180.256 124.281C176.492 124.052 176.809 132.205 176.809 132.205" stroke="#263238" stroke-linecap="round" stroke-linejoin="round"/>
<path d="M168.811 158.912H189.06L186.568 136.599L187.449 131.18H170.571L171.716 136.541L168.811 158.912Z" fill="#407BFF"/>
<path opacity="0.2" d="M181.432 131.18L182.167 137.122L180.6 158.798L184.073 155.25L189.06 158.912L186.569 136.599L187.449 131.18H181.432Z" fill="black"/>
<path opacity="0.2" d="M184.218 155.391V136.022L184.83 131.18H181.577L182.167 136.757L180.6 158.798L184.218 155.391Z" fill="black"/>
<path d="M173.582 133.085C173.582 133.085 175.598 123.933 179.415 123.999C183.231 124.065 178.935 133.085 178.935 133.085" stroke="#263238" stroke-linecap="round" stroke-linejoin="round"/>
<path d="M97.3804 143.065L96.9402 141.898C91.0107 142.171 90.3372 139.939 90.2844 139.226C90.1744 137.906 91.3629 136.708 92.9256 136.55C95.0958 136.325 96.544 138.179 97.2836 139.464C98.4017 138.117 100.567 136.906 102.201 136.906C102.763 136.875 103.319 137.046 103.765 137.39C104.212 137.733 104.521 138.225 104.635 138.777C104.735 139.115 104.747 139.472 104.669 139.816C104.592 140.16 104.429 140.478 104.195 140.741C102.817 142.294 98.8419 142.017 97.6445 141.894L97.3804 143.065ZM98.0847 140.604C99.8851 140.763 102.487 140.692 103.239 139.865C103.329 139.761 103.389 139.635 103.412 139.5C103.435 139.365 103.421 139.226 103.372 139.099C103.332 138.83 103.189 138.588 102.974 138.424C102.759 138.259 102.487 138.185 102.218 138.218C100.774 138.223 98.7406 139.543 98.0847 140.6V140.604ZM93.2778 137.853H93.0709C92.1905 137.945 91.5566 138.588 91.6006 139.107C91.6446 139.627 92.7407 140.679 96.4076 140.586C95.9542 139.68 94.8537 137.848 93.2778 137.848V137.853Z" fill="#263238"/>
<path d="M110.12 141.229H84.3857V158.908H110.12V141.229Z" fill="#407BFF"/>
<path opacity="0.2" d="M110.12 147.339H84.3857V158.907H110.12V147.339Z" fill="black"/>
<path opacity="0.2" d="M94.6116 141.229H84.3857V158.908H94.6116V141.229Z" fill="black"/>
<g opacity="0.3">
<path d="M94.6025 155.06V156.239L95.6898 158.911H96.1696L94.6025 155.06Z" fill="white"/>
<path d="M94.6025 147.484V148.655L98.7712 158.912H99.251L94.6025 147.484Z" fill="white"/>
<path d="M102.332 158.911L95.1395 141.22H94.6641L101.852 158.911H102.332Z" fill="white"/>
<path d="M105.414 158.911L98.2215 141.22H97.7461L104.935 158.911H105.414Z" fill="white"/>
<path d="M108.495 158.911L101.303 141.22H100.827L108.016 158.911H108.495Z" fill="white"/>
<path d="M103.904 141.22L110.12 156.93V155.751L104.38 141.22H103.904Z" fill="white"/>
<path d="M106.985 141.22L110.12 149.328V148.148L107.461 141.22H106.985Z" fill="white"/>
</g>
<g opacity="0.2">
<path d="M84.4033 147.955V149.126L86.6307 158.912H86.8992L84.4033 147.955Z" fill="white"/>
<path d="M84.597 141.22H84.4033V141.545L88.3519 158.911H88.6204L84.597 141.22Z" fill="white"/>
<path d="M90.3456 158.911L86.3222 141.22H86.0537L90.0771 158.911H90.3456Z" fill="white"/>
<path d="M92.0712 158.911L88.0434 141.22H87.7793L91.7983 158.911H92.0712Z" fill="white"/>
<path d="M93.7924 158.911L89.769 141.22H89.5049L93.5239 158.911H93.7924Z" fill="white"/>
<path d="M94.6029 155.297L91.4907 141.22H91.2266L94.6029 156.477V155.297Z" fill="white"/>
<path d="M94.6029 147.682L93.2163 141.22H92.9521L94.6029 148.862V147.682Z" fill="white"/>
</g>
<path d="M103.627 141.229H101.536V158.908H103.627V141.229Z" fill="#263238"/>
<path d="M89.5363 141.229H88V158.908H89.5363V141.229Z" fill="#263238"/>
<path d="M113.937 147.436C113.127 147.52 110.415 147.722 109.504 146.67C109.347 146.52 109.236 146.329 109.185 146.118C109.133 145.908 109.143 145.687 109.213 145.481C109.416 144.676 110.014 144.385 110.86 144.385C112.13 144.444 113.326 145.004 114.183 145.944C114.685 145.063 115.662 143.707 117.132 143.857C118.202 143.963 119.008 144.738 118.933 145.64C118.889 146.124 118.44 147.621 114.43 147.436L114.13 148.215L113.937 147.436ZM110.855 145.266C110.415 145.266 110.177 145.301 110.072 145.706C110.001 145.992 110.072 146.032 110.164 146.124C110.662 146.683 112.431 146.837 113.65 146.732C113.311 146.31 112.888 145.962 112.409 145.71C111.93 145.458 111.404 145.307 110.864 145.266H110.855ZM114.786 146.538C117.265 146.604 118.004 145.93 118.035 145.539C118.066 145.147 117.647 144.751 117.04 144.694H116.904C115.843 144.685 115.099 145.922 114.795 146.538H114.786Z" fill="#407BFF"/>
<path d="M105.515 158.911H122.925V146.951H105.515V158.911Z" fill="#407BFF"/>
<path opacity="0.6" d="M105.515 158.911H122.925V146.951H105.515V158.911Z" fill="white"/>
<path opacity="0.1" d="M105.515 158.911H122.925V151.084H105.515V158.911Z" fill="black"/>
<path opacity="0.2" d="M116.009 158.911H122.925V146.951H116.009V158.911Z" fill="white"/>
<g opacity="0.4">
<path d="M105.938 148.127C106.055 148.127 106.149 147.985 106.149 147.81C106.149 147.635 106.055 147.493 105.938 147.493C105.821 147.493 105.727 147.635 105.727 147.81C105.727 147.985 105.821 148.127 105.938 148.127Z" fill="white"/>
<path d="M107.646 147.811C107.646 147.987 107.549 148.128 107.435 148.128C107.32 148.128 107.224 147.987 107.224 147.811C107.224 147.635 107.316 147.489 107.435 147.489C107.554 147.489 107.646 147.635 107.646 147.811Z" fill="white"/>
<path d="M108.931 148.127C109.048 148.127 109.142 147.985 109.142 147.81C109.142 147.635 109.048 147.493 108.931 147.493C108.814 147.493 108.72 147.635 108.72 147.81C108.72 147.985 108.814 148.127 108.931 148.127Z" fill="white"/>
<path d="M110.635 147.811C110.635 147.987 110.543 148.128 110.428 148.128C110.314 148.128 110.217 147.987 110.217 147.811C110.217 147.635 110.309 147.489 110.428 147.489C110.547 147.489 110.635 147.635 110.635 147.811Z" fill="white"/>
<path d="M111.92 148.127C112.037 148.127 112.132 147.985 112.132 147.81C112.132 147.635 112.037 147.493 111.92 147.493C111.804 147.493 111.709 147.635 111.709 147.81C111.709 147.985 111.804 148.127 111.92 148.127Z" fill="white"/>
<path d="M113.641 147.811C113.641 147.987 113.549 148.128 113.43 148.128C113.311 148.128 113.219 147.987 113.219 147.811C113.219 147.635 113.316 147.489 113.43 147.489C113.545 147.489 113.641 147.635 113.641 147.811Z" fill="white"/>
<path d="M114.913 148.127C115.03 148.127 115.125 147.985 115.125 147.81C115.125 147.635 115.03 147.493 114.913 147.493C114.797 147.493 114.702 147.635 114.702 147.81C114.702 147.985 114.797 148.127 114.913 148.127Z" fill="white"/>
<path d="M106.897 148.977C106.897 149.153 106.8 149.294 106.686 149.294C106.571 149.294 106.475 149.153 106.475 148.977C106.475 148.801 106.571 148.66 106.686 148.66C106.8 148.66 106.897 148.788 106.897 148.977Z" fill="white"/>
<path d="M108.39 148.977C108.39 149.153 108.297 149.294 108.183 149.294C108.069 149.294 107.972 149.153 107.972 148.977C107.972 148.801 108.064 148.66 108.183 148.66C108.302 148.66 108.39 148.788 108.39 148.977Z" fill="white"/>
<path d="M109.886 148.977C109.886 149.153 109.794 149.294 109.679 149.294C109.565 149.294 109.468 149.153 109.468 148.977C109.468 148.801 109.56 148.66 109.679 148.66C109.798 148.66 109.886 148.788 109.886 148.977Z" fill="white"/>
<path d="M111.383 148.977C111.383 149.153 111.291 149.294 111.172 149.294C111.053 149.294 110.965 149.153 110.965 148.977C110.965 148.801 111.057 148.66 111.172 148.66C111.286 148.66 111.383 148.788 111.383 148.977Z" fill="white"/>
<path d="M112.88 148.977C112.88 149.153 112.788 149.294 112.669 149.294C112.55 149.294 112.462 149.153 112.462 148.977C112.462 148.801 112.554 148.66 112.669 148.66C112.783 148.66 112.88 148.788 112.88 148.977Z" fill="white"/>
<path d="M114.377 148.977C114.377 149.153 114.28 149.294 114.165 149.294C114.051 149.294 113.954 149.153 113.954 148.977C113.954 148.801 114.051 148.66 114.165 148.66C114.28 148.66 114.377 148.788 114.377 148.977Z" fill="white"/>
<path d="M115.873 148.977C115.873 149.153 115.776 149.294 115.661 149.294C115.547 149.294 115.45 149.153 115.45 148.977C115.45 148.801 115.547 148.66 115.661 148.66C115.776 148.66 115.873 148.788 115.873 148.977Z" fill="white"/>
<path d="M105.938 150.69C106.055 150.69 106.149 150.548 106.149 150.373C106.149 150.198 106.055 150.056 105.938 150.056C105.821 150.056 105.727 150.198 105.727 150.373C105.727 150.548 105.821 150.69 105.938 150.69Z" fill="white"/>
<path d="M107.646 150.372C107.646 150.548 107.549 150.689 107.435 150.689C107.32 150.689 107.224 150.548 107.224 150.372C107.224 150.196 107.316 150.051 107.435 150.051C107.554 150.051 107.646 150.196 107.646 150.372Z" fill="white"/>
<path d="M108.931 150.69C109.048 150.69 109.142 150.548 109.142 150.373C109.142 150.198 109.048 150.056 108.931 150.056C108.814 150.056 108.72 150.198 108.72 150.373C108.72 150.548 108.814 150.69 108.931 150.69Z" fill="white"/>
<path d="M110.635 150.372C110.635 150.548 110.543 150.689 110.428 150.689C110.314 150.689 110.217 150.548 110.217 150.372C110.217 150.196 110.309 150.051 110.428 150.051C110.547 150.051 110.635 150.196 110.635 150.372Z" fill="white"/>
<path d="M111.92 150.69C112.037 150.69 112.132 150.548 112.132 150.373C112.132 150.198 112.037 150.056 111.92 150.056C111.804 150.056 111.709 150.198 111.709 150.373C111.709 150.548 111.804 150.69 111.92 150.69Z" fill="white"/>
<path d="M113.641 150.372C113.641 150.548 113.549 150.689 113.43 150.689C113.311 150.689 113.219 150.548 113.219 150.372C113.219 150.196 113.316 150.051 113.43 150.051C113.545 150.051 113.641 150.196 113.641 150.372Z" fill="white"/>
<path d="M114.913 150.69C115.03 150.69 115.125 150.548 115.125 150.373C115.125 150.198 115.03 150.056 114.913 150.056C114.797 150.056 114.702 150.198 114.702 150.373C114.702 150.548 114.797 150.69 114.913 150.69Z" fill="white"/>
<path d="M106.897 151.539C106.897 151.715 106.8 151.856 106.686 151.856C106.571 151.856 106.475 151.715 106.475 151.539C106.475 151.363 106.571 151.222 106.686 151.222C106.8 151.222 106.897 151.363 106.897 151.539Z" fill="white"/>
<path d="M108.39 151.539C108.39 151.715 108.297 151.856 108.183 151.856C108.069 151.856 107.972 151.715 107.972 151.539C107.972 151.363 108.064 151.222 108.183 151.222C108.302 151.222 108.39 151.363 108.39 151.539Z" fill="white"/>
<path d="M109.886 151.539C109.886 151.715 109.794 151.856 109.679 151.856C109.565 151.856 109.468 151.715 109.468 151.539C109.468 151.363 109.56 151.222 109.679 151.222C109.798 151.222 109.886 151.363 109.886 151.539Z" fill="white"/>
<path d="M111.383 151.539C111.383 151.715 111.291 151.856 111.172 151.856C111.053 151.856 110.965 151.715 110.965 151.539C110.965 151.363 111.057 151.222 111.172 151.222C111.286 151.222 111.383 151.363 111.383 151.539Z" fill="white"/>
<path d="M112.88 151.539C112.88 151.715 112.788 151.856 112.669 151.856C112.55 151.856 112.462 151.715 112.462 151.539C112.462 151.363 112.554 151.222 112.669 151.222C112.783 151.222 112.88 151.363 112.88 151.539Z" fill="white"/>
<path d="M114.377 151.539C114.377 151.715 114.28 151.856 114.165 151.856C114.051 151.856 113.954 151.715 113.954 151.539C113.954 151.363 114.051 151.222 114.165 151.222C114.28 151.222 114.377 151.363 114.377 151.539Z" fill="white"/>
<path d="M115.873 151.539C115.873 151.715 115.776 151.856 115.661 151.856C115.547 151.856 115.45 151.715 115.45 151.539C115.45 151.363 115.547 151.222 115.661 151.222C115.776 151.222 115.873 151.363 115.873 151.539Z" fill="white"/>
<path d="M105.938 153.251C106.055 153.251 106.149 153.109 106.149 152.934C106.149 152.759 106.055 152.617 105.938 152.617C105.821 152.617 105.727 152.759 105.727 152.934C105.727 153.109 105.821 153.251 105.938 153.251Z" fill="white"/>
<path d="M107.646 152.935C107.646 153.111 107.549 153.252 107.435 153.252C107.32 153.252 107.224 153.111 107.224 152.935C107.224 152.759 107.316 152.613 107.435 152.613C107.554 152.613 107.646 152.75 107.646 152.935Z" fill="white"/>
<path d="M108.931 153.251C109.048 153.251 109.142 153.109 109.142 152.934C109.142 152.759 109.048 152.617 108.931 152.617C108.814 152.617 108.72 152.759 108.72 152.934C108.72 153.109 108.814 153.251 108.931 153.251Z" fill="white"/>
<path d="M110.635 152.935C110.635 153.111 110.543 153.252 110.428 153.252C110.314 153.252 110.217 153.111 110.217 152.935C110.217 152.759 110.309 152.613 110.428 152.613C110.547 152.613 110.635 152.75 110.635 152.935Z" fill="white"/>
<path d="M111.92 153.251C112.037 153.251 112.132 153.109 112.132 152.934C112.132 152.759 112.037 152.617 111.92 152.617C111.804 152.617 111.709 152.759 111.709 152.934C111.709 153.109 111.804 153.251 111.92 153.251Z" fill="white"/>
<path d="M113.641 152.935C113.641 153.111 113.549 153.252 113.43 153.252C113.311 153.252 113.219 153.111 113.219 152.935C113.219 152.759 113.316 152.613 113.43 152.613C113.545 152.613 113.641 152.75 113.641 152.935Z" fill="white"/>
<path d="M114.913 153.251C115.03 153.251 115.125 153.109 115.125 152.934C115.125 152.759 115.03 152.617 114.913 152.617C114.797 152.617 114.702 152.759 114.702 152.934C114.702 153.109 114.797 153.251 114.913 153.251Z" fill="white"/>
<path d="M106.897 154.1C106.897 154.276 106.8 154.417 106.686 154.417C106.571 154.417 106.475 154.276 106.475 154.1C106.475 153.924 106.571 153.783 106.686 153.783C106.8 153.783 106.897 153.924 106.897 154.1Z" fill="white"/>
<path d="M108.39 154.1C108.39 154.276 108.297 154.417 108.183 154.417C108.069 154.417 107.972 154.276 107.972 154.1C107.972 153.924 108.064 153.783 108.183 153.783C108.302 153.783 108.39 153.924 108.39 154.1Z" fill="white"/>
<path d="M109.886 154.1C109.886 154.276 109.794 154.417 109.679 154.417C109.565 154.417 109.468 154.276 109.468 154.1C109.468 153.924 109.56 153.783 109.679 153.783C109.798 153.783 109.886 153.924 109.886 154.1Z" fill="white"/>
<path d="M111.383 154.1C111.383 154.276 111.291 154.417 111.172 154.417C111.053 154.417 110.965 154.276 110.965 154.1C110.965 153.924 111.057 153.783 111.172 153.783C111.286 153.783 111.383 153.924 111.383 154.1Z" fill="white"/>
<path d="M112.88 154.1C112.88 154.276 112.788 154.417 112.669 154.417C112.55 154.417 112.462 154.276 112.462 154.1C112.462 153.924 112.554 153.783 112.669 153.783C112.783 153.783 112.88 153.924 112.88 154.1Z" fill="white"/>
<path d="M114.377 154.1C114.377 154.276 114.28 154.417 114.165 154.417C114.051 154.417 113.954 154.276 113.954 154.1C113.954 153.924 114.051 153.783 114.165 153.783C114.28 153.783 114.377 153.924 114.377 154.1Z" fill="white"/>
<path d="M115.873 154.1C115.873 154.276 115.776 154.417 115.661 154.417C115.547 154.417 115.45 154.276 115.45 154.1C115.45 153.924 115.547 153.783 115.661 153.783C115.776 153.783 115.873 153.924 115.873 154.1Z" fill="white"/>
<path d="M105.938 155.814C106.055 155.814 106.149 155.672 106.149 155.497C106.149 155.322 106.055 155.18 105.938 155.18C105.821 155.18 105.727 155.322 105.727 155.497C105.727 155.672 105.821 155.814 105.938 155.814Z" fill="white"/>
<path d="M107.646 155.496C107.646 155.672 107.549 155.813 107.435 155.813C107.32 155.813 107.224 155.672 107.224 155.496C107.224 155.32 107.316 155.175 107.435 155.175C107.554 155.175 107.646 155.32 107.646 155.496Z" fill="white"/>
<path d="M108.931 155.814C109.048 155.814 109.142 155.672 109.142 155.497C109.142 155.322 109.048 155.18 108.931 155.18C108.814 155.18 108.72 155.322 108.72 155.497C108.72 155.672 108.814 155.814 108.931 155.814Z" fill="white"/>
<path d="M110.635 155.496C110.635 155.672 110.543 155.813 110.428 155.813C110.314 155.813 110.217 155.672 110.217 155.496C110.217 155.32 110.309 155.175 110.428 155.175C110.547 155.175 110.635 155.32 110.635 155.496Z" fill="white"/>
<path d="M111.92 155.814C112.037 155.814 112.132 155.672 112.132 155.497C112.132 155.322 112.037 155.18 111.92 155.18C111.804 155.18 111.709 155.322 111.709 155.497C111.709 155.672 111.804 155.814 111.92 155.814Z" fill="white"/>
<path d="M113.641 155.496C113.641 155.672 113.549 155.813 113.43 155.813C113.311 155.813 113.219 155.672 113.219 155.496C113.219 155.32 113.316 155.175 113.43 155.175C113.545 155.175 113.641 155.32 113.641 155.496Z" fill="white"/>
<path d="M114.913 155.814C115.03 155.814 115.125 155.672 115.125 155.497C115.125 155.322 115.03 155.18 114.913 155.18C114.797 155.18 114.702 155.322 114.702 155.497C114.702 155.672 114.797 155.814 114.913 155.814Z" fill="white"/>
<path d="M106.897 156.663C106.897 156.839 106.8 156.98 106.686 156.98C106.571 156.98 106.475 156.839 106.475 156.663C106.475 156.487 106.571 156.346 106.686 156.346C106.8 156.346 106.897 156.487 106.897 156.663Z" fill="white"/>
<path d="M108.39 156.663C108.39 156.839 108.297 156.98 108.183 156.98C108.069 156.98 107.972 156.839 107.972 156.663C107.972 156.487 108.064 156.346 108.183 156.346C108.302 156.346 108.39 156.487 108.39 156.663Z" fill="white"/>
<path d="M109.886 156.663C109.886 156.839 109.794 156.98 109.679 156.98C109.565 156.98 109.468 156.839 109.468 156.663C109.468 156.487 109.56 156.346 109.679 156.346C109.798 156.346 109.886 156.487 109.886 156.663Z" fill="white"/>
<path d="M111.383 156.663C111.383 156.839 111.291 156.98 111.172 156.98C111.053 156.98 110.965 156.839 110.965 156.663C110.965 156.487 111.057 156.346 111.172 156.346C111.286 156.346 111.383 156.487 111.383 156.663Z" fill="white"/>
<path d="M112.88 156.663C112.88 156.839 112.788 156.98 112.669 156.98C112.55 156.98 112.462 156.839 112.462 156.663C112.462 156.487 112.554 156.346 112.669 156.346C112.783 156.346 112.88 156.487 112.88 156.663Z" fill="white"/>
<path d="M114.377 156.663C114.377 156.839 114.28 156.98 114.165 156.98C114.051 156.98 113.954 156.839 113.954 156.663C113.954 156.487 114.051 156.346 114.165 156.346C114.28 156.346 114.377 156.487 114.377 156.663Z" fill="white"/>
<path d="M115.873 156.663C115.873 156.839 115.776 156.98 115.661 156.98C115.547 156.98 115.45 156.839 115.45 156.663C115.45 156.487 115.547 156.346 115.661 156.346C115.776 156.346 115.873 156.487 115.873 156.663Z" fill="white"/>
<path d="M105.938 158.375C106.055 158.375 106.149 158.233 106.149 158.058C106.149 157.883 106.055 157.741 105.938 157.741C105.821 157.741 105.727 157.883 105.727 158.058C105.727 158.233 105.821 158.375 105.938 158.375Z" fill="white"/>
<path d="M107.646 158.059C107.646 158.235 107.549 158.376 107.435 158.376C107.32 158.376 107.224 158.235 107.224 158.059C107.224 157.883 107.316 157.737 107.435 157.737C107.554 157.737 107.646 157.883 107.646 158.059Z" fill="white"/>
<path d="M108.931 158.375C109.048 158.375 109.142 158.233 109.142 158.058C109.142 157.883 109.048 157.741 108.931 157.741C108.814 157.741 108.72 157.883 108.72 158.058C108.72 158.233 108.814 158.375 108.931 158.375Z" fill="white"/>
<path d="M110.635 158.059C110.635 158.235 110.543 158.376 110.428 158.376C110.314 158.376 110.217 158.235 110.217 158.059C110.217 157.883 110.309 157.737 110.428 157.737C110.547 157.737 110.635 157.883 110.635 158.059Z" fill="white"/>
<path d="M111.92 158.375C112.037 158.375 112.132 158.233 112.132 158.058C112.132 157.883 112.037 157.741 111.92 157.741C111.804 157.741 111.709 157.883 111.709 158.058C111.709 158.233 111.804 158.375 111.92 158.375Z" fill="white"/>
<path d="M113.641 158.059C113.641 158.235 113.549 158.376 113.43 158.376C113.311 158.376 113.219 158.235 113.219 158.059C113.219 157.883 113.316 157.737 113.43 157.737C113.545 157.737 113.641 157.883 113.641 158.059Z" fill="white"/>
<path d="M114.913 158.375C115.03 158.375 115.125 158.233 115.125 158.058C115.125 157.883 115.03 157.741 114.913 157.741C114.797 157.741 114.702 157.883 114.702 158.058C114.702 158.233 114.797 158.375 114.913 158.375Z" fill="white"/>
</g>
<g opacity="0.6">
<path d="M116.454 148.127C116.539 148.127 116.608 147.985 116.608 147.81C116.608 147.635 116.539 147.493 116.454 147.493C116.369 147.493 116.3 147.635 116.3 147.81C116.3 147.985 116.369 148.127 116.454 148.127Z" fill="white"/>
<path d="M117.558 148.127C117.643 148.127 117.712 147.985 117.712 147.81C117.712 147.635 117.643 147.493 117.558 147.493C117.473 147.493 117.404 147.635 117.404 147.81C117.404 147.985 117.473 148.127 117.558 148.127Z" fill="white"/>
<path d="M118.659 148.127C118.744 148.127 118.813 147.985 118.813 147.81C118.813 147.635 118.744 147.493 118.659 147.493C118.574 147.493 118.505 147.635 118.505 147.81C118.505 147.985 118.574 148.127 118.659 148.127Z" fill="white"/>
<path d="M119.764 148.127C119.85 148.127 119.918 147.985 119.918 147.81C119.918 147.635 119.85 147.493 119.764 147.493C119.679 147.493 119.61 147.635 119.61 147.81C119.61 147.985 119.679 148.127 119.764 148.127Z" fill="white"/>
<path d="M120.865 148.127C120.95 148.127 121.019 147.985 121.019 147.81C121.019 147.635 120.95 147.493 120.865 147.493C120.78 147.493 120.711 147.635 120.711 147.81C120.711 147.985 120.78 148.127 120.865 148.127Z" fill="white"/>
<path d="M122.124 147.811C122.124 147.987 122.053 148.128 121.97 148.128C121.886 148.128 121.815 147.987 121.815 147.811C121.815 147.635 121.886 147.489 121.97 147.489C122.053 147.489 122.124 147.635 122.124 147.811Z" fill="white"/>
<path d="M117.004 149.294C117.089 149.294 117.158 149.152 117.158 148.977C117.158 148.802 117.089 148.66 117.004 148.66C116.919 148.66 116.85 148.802 116.85 148.977C116.85 149.152 116.919 149.294 117.004 149.294Z" fill="white"/>
<path d="M118.109 149.294C118.194 149.294 118.263 149.152 118.263 148.977C118.263 148.802 118.194 148.66 118.109 148.66C118.024 148.66 117.955 148.802 117.955 148.977C117.955 149.152 118.024 149.294 118.109 149.294Z" fill="white"/>
<path d="M119.21 149.294C119.295 149.294 119.364 149.152 119.364 148.977C119.364 148.802 119.295 148.66 119.21 148.66C119.125 148.66 119.056 148.802 119.056 148.977C119.056 149.152 119.125 149.294 119.21 149.294Z" fill="white"/>
<path d="M120.314 149.294C120.399 149.294 120.468 149.152 120.468 148.977C120.468 148.802 120.399 148.66 120.314 148.66C120.229 148.66 120.16 148.802 120.16 148.977C120.16 149.152 120.229 149.294 120.314 149.294Z" fill="white"/>
<path d="M121.42 149.294C121.505 149.294 121.574 149.152 121.574 148.977C121.574 148.802 121.505 148.66 121.42 148.66C121.335 148.66 121.266 148.802 121.266 148.977C121.266 149.152 121.335 149.294 121.42 149.294Z" fill="white"/>
<path d="M122.52 149.294C122.605 149.294 122.674 149.152 122.674 148.977C122.674 148.802 122.605 148.66 122.52 148.66C122.435 148.66 122.366 148.802 122.366 148.977C122.366 149.152 122.435 149.294 122.52 149.294Z" fill="white"/>
<path d="M116.454 150.69C116.539 150.69 116.608 150.548 116.608 150.373C116.608 150.198 116.539 150.056 116.454 150.056C116.369 150.056 116.3 150.198 116.3 150.373C116.3 150.548 116.369 150.69 116.454 150.69Z" fill="white"/>
<path d="M117.558 150.69C117.643 150.69 117.712 150.548 117.712 150.373C117.712 150.198 117.643 150.056 117.558 150.056C117.473 150.056 117.404 150.198 117.404 150.373C117.404 150.548 117.473 150.69 117.558 150.69Z" fill="white"/>
<path d="M118.659 150.69C118.744 150.69 118.813 150.548 118.813 150.373C118.813 150.198 118.744 150.056 118.659 150.056C118.574 150.056 118.505 150.198 118.505 150.373C118.505 150.548 118.574 150.69 118.659 150.69Z" fill="white"/>
<path d="M119.764 150.69C119.85 150.69 119.918 150.548 119.918 150.373C119.918 150.198 119.85 150.056 119.764 150.056C119.679 150.056 119.61 150.198 119.61 150.373C119.61 150.548 119.679 150.69 119.764 150.69Z" fill="white"/>
<path d="M120.865 150.69C120.95 150.69 121.019 150.548 121.019 150.373C121.019 150.198 120.95 150.056 120.865 150.056C120.78 150.056 120.711 150.198 120.711 150.373C120.711 150.548 120.78 150.69 120.865 150.69Z" fill="white"/>
<path d="M122.124 150.372C122.124 150.548 122.053 150.689 121.97 150.689C121.886 150.689 121.815 150.548 121.815 150.372C121.815 150.196 121.886 150.051 121.97 150.051C122.053 150.051 122.124 150.196 122.124 150.372Z" fill="white"/>
<path d="M117.004 151.856C117.089 151.856 117.158 151.714 117.158 151.539C117.158 151.364 117.089 151.222 117.004 151.222C116.919 151.222 116.85 151.364 116.85 151.539C116.85 151.714 116.919 151.856 117.004 151.856Z" fill="white"/>
<path d="M118.109 151.856C118.194 151.856 118.263 151.714 118.263 151.539C118.263 151.364 118.194 151.222 118.109 151.222C118.024 151.222 117.955 151.364 117.955 151.539C117.955 151.714 118.024 151.856 118.109 151.856Z" fill="white"/>
<path d="M119.21 151.856C119.295 151.856 119.364 151.714 119.364 151.539C119.364 151.364 119.295 151.222 119.21 151.222C119.125 151.222 119.056 151.364 119.056 151.539C119.056 151.714 119.125 151.856 119.21 151.856Z" fill="white"/>
<path d="M120.314 151.856C120.399 151.856 120.468 151.714 120.468 151.539C120.468 151.364 120.399 151.222 120.314 151.222C120.229 151.222 120.16 151.364 120.16 151.539C120.16 151.714 120.229 151.856 120.314 151.856Z" fill="white"/>
<path d="M121.42 151.856C121.505 151.856 121.574 151.714 121.574 151.539C121.574 151.364 121.505 151.222 121.42 151.222C121.335 151.222 121.266 151.364 121.266 151.539C121.266 151.714 121.335 151.856 121.42 151.856Z" fill="white"/>
<path d="M122.52 151.856C122.605 151.856 122.674 151.714 122.674 151.539C122.674 151.364 122.605 151.222 122.52 151.222C122.435 151.222 122.366 151.364 122.366 151.539C122.366 151.714 122.435 151.856 122.52 151.856Z" fill="white"/>
<path d="M116.454 153.251C116.539 153.251 116.608 153.109 116.608 152.934C116.608 152.759 116.539 152.617 116.454 152.617C116.369 152.617 116.3 152.759 116.3 152.934C116.3 153.109 116.369 153.251 116.454 153.251Z" fill="white"/>
<path d="M117.558 153.251C117.643 153.251 117.712 153.109 117.712 152.934C117.712 152.759 117.643 152.617 117.558 152.617C117.473 152.617 117.404 152.759 117.404 152.934C117.404 153.109 117.473 153.251 117.558 153.251Z" fill="white"/>
<path d="M118.659 153.251C118.744 153.251 118.813 153.109 118.813 152.934C118.813 152.759 118.744 152.617 118.659 152.617C118.574 152.617 118.505 152.759 118.505 152.934C118.505 153.109 118.574 153.251 118.659 153.251Z" fill="white"/>
<path d="M119.764 153.251C119.85 153.251 119.918 153.109 119.918 152.934C119.918 152.759 119.85 152.617 119.764 152.617C119.679 152.617 119.61 152.759 119.61 152.934C119.61 153.109 119.679 153.251 119.764 153.251Z" fill="white"/>
<path d="M120.865 153.251C120.95 153.251 121.019 153.109 121.019 152.934C121.019 152.759 120.95 152.617 120.865 152.617C120.78 152.617 120.711 152.759 120.711 152.934C120.711 153.109 120.78 153.251 120.865 153.251Z" fill="white"/>
<path d="M122.124 152.935C122.124 153.111 122.053 153.252 121.97 153.252C121.886 153.252 121.815 153.111 121.815 152.935C121.815 152.759 121.886 152.613 121.97 152.613C122.053 152.613 122.124 152.75 122.124 152.935Z" fill="white"/>
<path d="M117.004 154.417C117.089 154.417 117.158 154.275 117.158 154.1C117.158 153.925 117.089 153.783 117.004 153.783C116.919 153.783 116.85 153.925 116.85 154.1C116.85 154.275 116.919 154.417 117.004 154.417Z" fill="white"/>
<path d="M118.109 154.417C118.194 154.417 118.263 154.275 118.263 154.1C118.263 153.925 118.194 153.783 118.109 153.783C118.024 153.783 117.955 153.925 117.955 154.1C117.955 154.275 118.024 154.417 118.109 154.417Z" fill="white"/>
<path d="M119.21 154.417C119.295 154.417 119.364 154.275 119.364 154.1C119.364 153.925 119.295 153.783 119.21 153.783C119.125 153.783 119.056 153.925 119.056 154.1C119.056 154.275 119.125 154.417 119.21 154.417Z" fill="white"/>
<path d="M120.314 154.417C120.399 154.417 120.468 154.275 120.468 154.1C120.468 153.925 120.399 153.783 120.314 153.783C120.229 153.783 120.16 153.925 120.16 154.1C120.16 154.275 120.229 154.417 120.314 154.417Z" fill="white"/>
<path d="M121.42 154.417C121.505 154.417 121.574 154.275 121.574 154.1C121.574 153.925 121.505 153.783 121.42 153.783C121.335 153.783 121.266 153.925 121.266 154.1C121.266 154.275 121.335 154.417 121.42 154.417Z" fill="white"/>
<path d="M122.52 154.417C122.605 154.417 122.674 154.275 122.674 154.1C122.674 153.925 122.605 153.783 122.52 153.783C122.435 153.783 122.366 153.925 122.366 154.1C122.366 154.275 122.435 154.417 122.52 154.417Z" fill="white"/>
<path d="M116.454 155.814C116.539 155.814 116.608 155.672 116.608 155.497C116.608 155.322 116.539 155.18 116.454 155.18C116.369 155.18 116.3 155.322 116.3 155.497C116.3 155.672 116.369 155.814 116.454 155.814Z" fill="white"/>
<path d="M117.558 155.814C117.643 155.814 117.712 155.672 117.712 155.497C117.712 155.322 117.643 155.18 117.558 155.18C117.473 155.18 117.404 155.322 117.404 155.497C117.404 155.672 117.473 155.814 117.558 155.814Z" fill="white"/>
<path d="M118.659 155.814C118.744 155.814 118.813 155.672 118.813 155.497C118.813 155.322 118.744 155.18 118.659 155.18C118.574 155.18 118.505 155.322 118.505 155.497C118.505 155.672 118.574 155.814 118.659 155.814Z" fill="white"/>
<path d="M119.764 155.814C119.85 155.814 119.918 155.672 119.918 155.497C119.918 155.322 119.85 155.18 119.764 155.18C119.679 155.18 119.61 155.322 119.61 155.497C119.61 155.672 119.679 155.814 119.764 155.814Z" fill="white"/>
<path d="M120.865 155.814C120.95 155.814 121.019 155.672 121.019 155.497C121.019 155.322 120.95 155.18 120.865 155.18C120.78 155.18 120.711 155.322 120.711 155.497C120.711 155.672 120.78 155.814 120.865 155.814Z" fill="white"/>
<path d="M122.124 155.496C122.124 155.672 122.053 155.813 121.97 155.813C121.886 155.813 121.815 155.672 121.815 155.496C121.815 155.32 121.886 155.175 121.97 155.175C122.053 155.175 122.124 155.32 122.124 155.496Z" fill="white"/>
<path d="M117.004 156.98C117.089 156.98 117.158 156.838 117.158 156.663C117.158 156.488 117.089 156.346 117.004 156.346C116.919 156.346 116.85 156.488 116.85 156.663C116.85 156.838 116.919 156.98 117.004 156.98Z" fill="white"/>
<path d="M118.109 156.98C118.194 156.98 118.263 156.838 118.263 156.663C118.263 156.488 118.194 156.346 118.109 156.346C118.024 156.346 117.955 156.488 117.955 156.663C117.955 156.838 118.024 156.98 118.109 156.98Z" fill="white"/>
<path d="M119.21 156.98C119.295 156.98 119.364 156.838 119.364 156.663C119.364 156.488 119.295 156.346 119.21 156.346C119.125 156.346 119.056 156.488 119.056 156.663C119.056 156.838 119.125 156.98 119.21 156.98Z" fill="white"/>
<path d="M120.314 156.98C120.399 156.98 120.468 156.838 120.468 156.663C120.468 156.488 120.399 156.346 120.314 156.346C120.229 156.346 120.16 156.488 120.16 156.663C120.16 156.838 120.229 156.98 120.314 156.98Z" fill="white"/>
<path d="M121.42 156.98C121.505 156.98 121.574 156.838 121.574 156.663C121.574 156.488 121.505 156.346 121.42 156.346C121.335 156.346 121.266 156.488 121.266 156.663C121.266 156.838 121.335 156.98 121.42 156.98Z" fill="white"/>
<path d="M122.52 156.98C122.605 156.98 122.674 156.838 122.674 156.663C122.674 156.488 122.605 156.346 122.52 156.346C122.435 156.346 122.366 156.488 122.366 156.663C122.366 156.838 122.435 156.98 122.52 156.98Z" fill="white"/>
<path d="M116.454 158.375C116.539 158.375 116.608 158.233 116.608 158.058C116.608 157.883 116.539 157.741 116.454 157.741C116.369 157.741 116.3 157.883 116.3 158.058C116.3 158.233 116.369 158.375 116.454 158.375Z" fill="white"/>
<path d="M117.558 158.375C117.643 158.375 117.712 158.233 117.712 158.058C117.712 157.883 117.643 157.741 117.558 157.741C117.473 157.741 117.404 157.883 117.404 158.058C117.404 158.233 117.473 158.375 117.558 158.375Z" fill="white"/>
<path d="M118.659 158.375C118.744 158.375 118.813 158.233 118.813 158.058C118.813 157.883 118.744 157.741 118.659 157.741C118.574 157.741 118.505 157.883 118.505 158.058C118.505 158.233 118.574 158.375 118.659 158.375Z" fill="white"/>
<path d="M119.764 158.375C119.85 158.375 119.918 158.233 119.918 158.058C119.918 157.883 119.85 157.741 119.764 157.741C119.679 157.741 119.61 157.883 119.61 158.058C119.61 158.233 119.679 158.375 119.764 158.375Z" fill="white"/>
<path d="M120.865 158.375C120.95 158.375 121.019 158.233 121.019 158.058C121.019 157.883 120.95 157.741 120.865 157.741C120.78 157.741 120.711 157.883 120.711 158.058C120.711 158.233 120.78 158.375 120.865 158.375Z" fill="white"/>
<path d="M122.124 158.059C122.124 158.235 122.053 158.376 121.97 158.376C121.886 158.376 121.815 158.235 121.815 158.059C121.815 157.883 121.886 157.737 121.97 157.737C122.053 157.737 122.124 157.883 122.124 158.059Z" fill="white"/>
</g>
<path d="M109.913 158.911H111.326V146.951H109.913V158.911Z" fill="#407BFF"/>
<path d="M119.444 158.911H120.482V146.951H119.444V158.911Z" fill="#407BFF"/>
</svg>
