<svg width="56" height="17" viewBox="0 0 56 17" fill="none" xmlns="http://www.w3.org/2000/svg">
<path d="M2.15151 6.68773C1.94116 6.69407 4.83232 7.19218 5.07426 7.2209C6.30517 7.29842 7.12028 7.31296 8.73991 7.29665C11.196 7.7806 12.6275 8.04977 15.3155 8.52581C16.0548 8.741 16.3561 8.87234 16.8767 9.03084C17.3973 9.18934 18.8618 9.30824 18.8618 9.30824C19.7761 9.46467 20.2999 9.55859 21.3662 9.80322C23.7563 10.7822 23.3712 10.6453 23.4431 10.703C24.3344 11.0351 24.8768 11.1863 25.8374 11.4617C27.1742 11.8446 27.7067 12.0831 28.5397 12.5221C29.0578 12.8356 29.3836 13.068 29.9858 13.5271L33.3238 14.2461L34.5696 14.8037L36.0468 14.3024C36.436 13.7268 36.7953 13.5792 37.3335 12.8811C37.8718 12.1831 37.8808 12.001 38.4083 11.5737L39.2651 10.6754L40.1384 8.9797C40.4541 8.18056 40.6544 7.75431 41.0171 7.01816C41.1667 6.67611 41.2716 6.50826 41.5555 6.32014C42.4386 6.10092 42.8879 6.04173 43.6581 5.97947L47.1222 5.66694C49.0345 5.226 49.7429 4.9601 50.7093 4.47052L53.3618 2.87066C54.0757 2.34419 54.3891 2.17716 54.9542 1.86939" stroke="#12B76A" stroke-width="3"/>
</svg>
