<svg width="420" height="200" viewBox="0 0 420 200" fill="none" xmlns="http://www.w3.org/2000/svg">
<g clip-path="url(#clip0_2031_32703)">
<rect width="420" height="200" rx="8" fill="#E4E8F6"/>
<path d="M330 179.152H90V179.272H330V179.152Z" fill="#EBEBEB"/>
<path d="M131.078 183.722H115.181V183.842H131.078V183.722Z" fill="#EBEBEB"/>
<path d="M198 183.784H172.147V183.904H198V183.784Z" fill="#EBEBEB"/>
<path d="M149.981 186.198H140.77V186.318H149.981V186.198Z" fill="#EBEBEB"/>
<path d="M304.08 186.141H294.85V186.261H304.08V186.141Z" fill="#EBEBEB"/>
<path d="M290.572 186.141H276.033V186.261H290.572V186.141Z" fill="#EBEBEB"/>
<path d="M268.027 185.349H247.599V185.469H268.027V185.349Z" fill="#EBEBEB"/>
<path d="M203.76 157.744H111.077C110.351 157.743 109.655 157.453 109.142 156.94C108.629 156.426 108.341 155.729 108.341 155.003V24.7168C108.347 23.9949 108.638 23.3046 109.15 22.7959C109.663 22.2873 110.355 22.0012 111.077 22H203.76C204.487 22 205.184 22.2888 205.698 22.8028C206.212 23.3168 206.501 24.0139 206.501 24.7408V155.003C206.501 155.73 206.212 156.427 205.698 156.941C205.184 157.455 204.487 157.744 203.76 157.744ZM111.077 22.096C110.383 22.0973 109.717 22.374 109.227 22.8653C108.736 23.3567 108.461 24.0226 108.461 24.7168V155.003C108.461 155.697 108.736 156.363 109.227 156.855C109.717 157.346 110.383 157.623 111.077 157.624H203.76C204.455 157.623 205.121 157.346 205.612 156.855C206.103 156.364 206.38 155.698 206.381 155.003V24.7168C206.38 24.0221 206.103 23.3562 205.612 22.865C205.121 22.3738 204.455 22.0973 203.76 22.096H111.077Z" fill="#EBEBEB"/>
<path d="M307.589 157.744H214.901C214.174 157.743 213.478 157.454 212.964 156.94C212.451 156.426 212.161 155.73 212.16 155.003V24.7168C212.168 23.9945 212.46 23.3042 212.973 22.7956C213.486 22.2871 214.179 22.0012 214.901 22H307.589C308.31 22.0025 309.001 22.2891 309.512 22.7976C310.024 23.3062 310.314 23.9957 310.32 24.7168V155.003C310.32 155.728 310.033 156.424 309.521 156.938C309.009 157.452 308.314 157.741 307.589 157.744ZM214.901 22.096C214.206 22.0973 213.54 22.3738 213.049 22.865C212.558 23.3562 212.281 24.0221 212.28 24.7168V155.003C212.281 155.698 212.558 156.364 213.049 156.855C213.54 157.346 214.206 157.623 214.901 157.624H307.589C308.284 157.623 308.95 157.346 309.441 156.855C309.932 156.364 310.208 155.698 310.21 155.003V24.7168C310.208 24.0221 309.932 23.3562 309.441 22.865C308.95 22.3738 308.284 22.0973 307.589 22.096H214.901Z" fill="#EBEBEB"/>
<path d="M235.066 179.152H248.659V111.52H235.066V179.152Z" fill="#E6E6E6"/>
<path d="M237.643 179.152H235.061V171.808H240.35L237.643 179.152Z" fill="#F0F0F0"/>
<path d="M285.869 179.152H299.463V111.52H285.869V179.152Z" fill="#E6E6E6"/>
<path d="M235.066 174.645H288.125V111.52H235.066V174.645Z" fill="#F0F0F0"/>
<path d="M237.067 153.189V165.462H260.727V153.189H237.067Z" fill="#E6E6E6"/>
<path d="M262.459 153.189V165.462H286.118V153.189H262.459Z" fill="#E6E6E6"/>
<path d="M271.949 155.243H276.629C277.636 155.244 278.632 155.039 279.556 154.641C280.48 154.243 281.314 153.661 282.005 152.93H266.573C267.265 153.661 268.098 154.243 269.023 154.641C269.947 155.039 270.943 155.244 271.949 155.243Z" fill="#F0F0F0"/>
<path d="M246.316 155.243H250.996C252.003 155.244 252.999 155.039 253.923 154.641C254.848 154.243 255.681 153.661 256.372 152.93H240.94C241.632 153.661 242.465 154.243 243.39 154.641C244.314 155.039 245.31 155.244 246.316 155.243Z" fill="#F0F0F0"/>
<path d="M237.062 134.109V146.382H260.722V134.109H237.062Z" fill="#E6E6E6"/>
<path d="M262.459 134.114V146.387H286.118V134.114H262.459Z" fill="#E6E6E6"/>
<path d="M271.949 136.163H276.629C277.635 136.161 278.631 135.954 279.554 135.555C280.477 135.155 281.31 134.572 282 133.84H266.573C267.264 134.572 268.098 135.156 269.022 135.556C269.946 135.955 270.942 136.162 271.949 136.163Z" fill="#F0F0F0"/>
<path d="M246.316 136.163H250.996C252.002 136.164 252.998 135.959 253.922 135.562C254.846 135.165 255.68 134.584 256.372 133.854H240.94C241.633 134.584 242.467 135.165 243.391 135.562C244.315 135.959 245.311 136.164 246.316 136.163Z" fill="#F0F0F0"/>
<path d="M237.067 115.034V127.307H260.727V115.034H237.067Z" fill="#E6E6E6"/>
<path d="M262.459 115.034V127.307H286.118V115.034H262.459Z" fill="#E6E6E6"/>
<path d="M271.949 117.088H276.629C277.636 117.089 278.632 116.884 279.556 116.486C280.48 116.088 281.314 115.506 282.005 114.774H266.573C267.265 115.506 268.098 116.088 269.023 116.486C269.947 116.884 270.943 117.089 271.949 117.088Z" fill="#F0F0F0"/>
<path d="M246.316 117.088H250.996C252.003 117.089 252.999 116.884 253.923 116.486C254.848 116.088 255.681 115.506 256.372 114.774H240.94C241.632 115.506 242.465 116.088 243.39 116.486C244.314 116.884 245.31 117.089 246.316 117.088Z" fill="#F0F0F0"/>
<path d="M285.542 179.152H288.125V171.808H282.835L285.542 179.152Z" fill="#F0F0F0"/>
<path d="M287.779 65.0896L289.857 70.7728H287.779L275.025 65.0896H287.779Z" fill="#F5F5F5"/>
<path d="M289.857 65.0896V70.7728L277.108 65.0896H289.857Z" fill="#E6E6E6"/>
<path d="M237.777 65.0896L239.856 70.7728H237.777L225.028 65.0896H237.777Z" fill="#F5F5F5"/>
<path d="M239.856 65.0896V70.7728L227.107 65.0896H239.856Z" fill="#E6E6E6"/>
<path d="M299.218 61.0288H285.351V65.3536H299.218V61.0288Z" fill="#E6E6E6"/>
<path d="M216.408 65.3584L285.351 65.3584V61.0336L216.408 61.0336V65.3584Z" fill="#F5F5F5"/>
<path d="M271.349 46C271.349 46 271.488 61.0336 276.677 61.0336C281.865 61.0336 282 46 282 46H271.349Z" fill="#F0F0F0"/>
<path d="M239.175 56.1279C239.175 56.1279 239.54 61.0287 253.498 61.0287C267.456 61.0287 267.821 56.1279 267.821 56.1279H239.175Z" fill="#F0F0F0"/>
<path d="M197.692 179.152H198.619L201.273 166.072L201.753 163.777L204.633 149.521H215.76L221.774 179.152H222.705L216.576 148.979C216.555 148.876 216.5 148.783 216.418 148.716C216.337 148.649 216.234 148.613 216.129 148.614H204.264C204.159 148.614 204.057 148.65 203.977 148.717C203.896 148.783 203.841 148.876 203.822 148.979L201.278 161.497L200.798 163.787L197.692 179.152Z" fill="#F0F0F0"/>
<path d="M179.87 179.152H180.797L186.816 149.522H197.913L200.793 163.787L201.273 166.072L203.933 179.152H204.859L201.739 163.792L201.259 161.512L198.715 148.994C198.69 148.893 198.633 148.803 198.553 148.737C198.472 148.671 198.372 148.633 198.269 148.629H186.446C186.341 148.628 186.239 148.664 186.157 148.731C186.076 148.797 186.02 148.89 186 148.994L179.87 179.152Z" fill="#F0F0F0"/>
<path d="M217.421 145.158H185.131C184.391 145.16 183.681 145.454 183.158 145.978C182.634 146.502 182.339 147.212 182.338 147.952V148.048C182.338 148.319 182.446 148.579 182.637 148.771C182.829 148.963 183.089 149.07 183.36 149.07H219.192C219.463 149.07 219.723 148.963 219.915 148.771C220.107 148.579 220.215 148.319 220.215 148.048V147.952C220.213 147.212 219.919 146.502 219.395 145.978C218.871 145.454 218.162 145.16 217.421 145.158Z" fill="#F0F0F0"/>
<path d="M165.288 179.152H166.214L168.869 166.072L169.349 163.777L172.229 149.521H183.326L189.36 179.152H190.291L184.162 148.979C184.142 148.876 184.086 148.783 184.004 148.716C183.923 148.649 183.821 148.613 183.715 148.614H171.859C171.755 148.614 171.653 148.65 171.572 148.717C171.492 148.783 171.437 148.876 171.418 148.979L168.874 161.497L168.394 163.787L165.288 179.152Z" fill="#F0F0F0"/>
<path d="M147.466 179.152H148.397L154.411 149.521H165.514L168.394 163.787L168.874 166.072L171.533 179.152H172.459L169.339 163.792L168.859 161.512L166.32 148.979C166.295 148.878 166.238 148.788 166.158 148.722C166.077 148.656 165.978 148.619 165.874 148.614H154.042C153.937 148.613 153.834 148.649 153.753 148.716C153.671 148.783 153.616 148.876 153.595 148.979L147.466 179.152Z" fill="#F0F0F0"/>
<path d="M185.04 145.158H152.726C151.986 145.16 151.276 145.454 150.752 145.978C150.229 146.502 149.934 147.212 149.933 147.952V148.048C149.933 148.319 150.04 148.579 150.232 148.771C150.424 148.963 150.684 149.07 150.955 149.07H186.792C186.926 149.07 187.059 149.044 187.182 148.993C187.306 148.941 187.419 148.866 187.513 148.771C187.608 148.676 187.682 148.563 187.733 148.439C187.784 148.315 187.81 148.182 187.809 148.048V147.952C187.808 147.216 187.517 146.509 186.998 145.986C186.48 145.464 185.776 145.166 185.04 145.158Z" fill="#F0F0F0"/>
<path d="M130.478 107.248H176.87V32.9297H130.478V107.248Z" fill="#E6E6E6"/>
<path d="M127.449 107.248H175.454V32.9297H127.449V107.248Z" fill="#F0F0F0"/>
<path d="M130.478 112.878H176.87V107.243H130.478V112.878Z" fill="#E6E6E6"/>
<path d="M122.4 112.878H170.405V107.243H122.4V112.878Z" fill="#F0F0F0"/>
<path d="M171.206 103.005V37.1729H131.688V103.005H171.206Z" fill="#FAFAFA"/>
<path d="M171.548 103L157.647 37.1729H145.887L159.788 103H171.548Z" fill="white"/>
<path d="M168.345 95.1376C168.426 95.1376 168.502 95.1057 168.559 95.049C168.616 94.9923 168.648 94.9154 168.648 94.8352V39.9328C168.648 39.8526 168.616 39.7757 168.559 39.7189C168.502 39.6622 168.426 39.6304 168.345 39.6304C168.265 39.6304 168.188 39.6622 168.132 39.7189C168.075 39.7757 168.043 39.8526 168.043 39.9328V94.8352C168.043 94.9154 168.075 94.9923 168.132 95.049C168.188 95.1057 168.265 95.1376 168.345 95.1376Z" fill="#F0F0F0"/>
<path d="M157.262 103L143.361 37.1729H138.777L152.673 103H157.262Z" fill="white"/>
<path d="M132.23 103.005V37.1729H131.693V103.005H132.23Z" fill="#E6E6E6"/>
<path opacity="0.6" d="M126.441 40.4319H172.833L173.227 38.8191H126.835L126.441 40.4319Z" fill="#F0F0F0"/>
<path opacity="0.6" d="M126.441 44.1808H172.833L173.227 42.5728H126.835L126.441 44.1808Z" fill="#F0F0F0"/>
<path opacity="0.6" d="M126.441 47.9343H172.833L173.227 46.3215H126.835L126.441 47.9343Z" fill="#F0F0F0"/>
<path opacity="0.6" d="M126.441 51.6832H172.833L173.227 50.0752H126.835L126.441 51.6832Z" fill="#F0F0F0"/>
<path opacity="0.6" d="M126.441 55.4369H172.833L173.227 53.8289H126.835L126.441 55.4369Z" fill="#F0F0F0"/>
<path opacity="0.6" d="M126.441 59.1904H172.833L173.227 57.5776H126.835L126.441 59.1904Z" fill="#F0F0F0"/>
<path d="M210 200.829C261.399 200.829 303.067 198.396 303.067 195.395C303.067 192.394 261.399 189.962 210 189.962C158.6 189.962 116.933 192.394 116.933 195.395C116.933 198.396 158.6 200.829 210 200.829Z" fill="#F5F5F5"/>
<path d="M206.698 121.71H177.375C176.961 121.71 176.626 122.046 176.626 122.459V134.69C176.626 135.103 176.961 135.438 177.375 135.438H206.698C207.112 135.438 207.447 135.103 207.447 134.69V122.459C207.447 122.046 207.112 121.71 206.698 121.71Z" fill="#F59C42"/>
<path opacity="0.6" d="M206.698 121.71H177.375C176.961 121.71 176.626 122.046 176.626 122.459V134.69C176.626 135.103 176.961 135.438 177.375 135.438H206.698C207.112 135.438 207.447 135.103 207.447 134.69V122.459C207.447 122.046 207.112 121.71 206.698 121.71Z" fill="white"/>
<path opacity="0.1" d="M206.693 121.71H177.36C177.162 121.71 176.971 121.789 176.831 121.93C176.69 122.07 176.611 122.261 176.611 122.459V126.381L191.875 129.386C191.969 129.405 192.065 129.405 192.159 129.386L207.427 126.381V122.459C207.427 122.263 207.35 122.075 207.213 121.935C207.076 121.795 206.889 121.714 206.693 121.71Z" fill="black"/>
<path d="M207.336 116.69H198.38V115.187C198.378 114.566 198.131 113.971 197.692 113.532C197.253 113.093 196.658 112.846 196.037 112.845H188.036C187.415 112.846 186.82 113.093 186.381 113.532C185.942 113.971 185.694 114.566 185.693 115.187V116.69H176.741C176.545 116.69 176.357 116.767 176.218 116.906C176.08 117.045 176.002 117.233 176.002 117.429V124.826C176.003 124.996 176.063 125.162 176.171 125.294C176.279 125.425 176.43 125.516 176.597 125.55L191.895 128.56C191.989 128.574 192.084 128.574 192.178 128.56L207.476 125.55C207.643 125.516 207.794 125.426 207.904 125.294C208.013 125.162 208.073 124.997 208.076 124.826V117.429C208.076 117.233 207.998 117.045 207.859 116.906C207.72 116.767 207.532 116.69 207.336 116.69ZM187.474 115.187C187.475 115.038 187.535 114.895 187.64 114.79C187.744 114.684 187.887 114.623 188.036 114.621H196.037C196.186 114.623 196.328 114.684 196.433 114.79C196.538 114.895 196.598 115.038 196.599 115.187V116.69H187.479L187.474 115.187Z" fill="#F59C42"/>
<path opacity="0.6" d="M207.336 116.69H198.38V115.187C198.378 114.566 198.131 113.971 197.692 113.532C197.253 113.093 196.658 112.846 196.037 112.845H188.036C187.415 112.846 186.82 113.093 186.381 113.532C185.942 113.971 185.694 114.566 185.693 115.187V116.69H176.741C176.545 116.69 176.357 116.767 176.218 116.906C176.08 117.045 176.002 117.233 176.002 117.429V124.826C176.003 124.996 176.063 125.162 176.171 125.294C176.279 125.425 176.43 125.516 176.597 125.55L191.895 128.56C191.989 128.574 192.084 128.574 192.178 128.56L207.476 125.55C207.643 125.516 207.794 125.426 207.904 125.294C208.013 125.162 208.073 124.997 208.076 124.826V117.429C208.076 117.233 207.998 117.045 207.859 116.906C207.72 116.767 207.532 116.69 207.336 116.69ZM187.474 115.187C187.475 115.038 187.535 114.895 187.64 114.79C187.744 114.684 187.887 114.623 188.036 114.621H196.037C196.186 114.623 196.328 114.684 196.433 114.79C196.538 114.895 196.598 115.038 196.599 115.187V116.69H187.479L187.474 115.187Z" fill="white"/>
<path d="M193.618 126.539H190.459C190.067 126.539 189.749 126.857 189.749 127.25V129.246C189.749 129.639 190.067 129.957 190.459 129.957H193.618C194.01 129.957 194.328 129.639 194.328 129.246V127.25C194.328 126.857 194.01 126.539 193.618 126.539Z" fill="#F59C42"/>
<path opacity="0.3" d="M193.618 126.539H190.459C190.067 126.539 189.749 126.857 189.749 127.25V129.246C189.749 129.639 190.067 129.957 190.459 129.957H193.618C194.01 129.957 194.328 129.639 194.328 129.246V127.25C194.328 126.857 194.01 126.539 193.618 126.539Z" fill="white"/>
<path d="M206.698 33.4097H177.375C176.961 33.4097 176.626 33.7449 176.626 34.1585V46.3889C176.626 46.8024 176.961 47.1377 177.375 47.1377H206.698C207.112 47.1377 207.447 46.8024 207.447 46.3889V34.1585C207.447 33.7449 207.112 33.4097 206.698 33.4097Z" fill="#F59C42"/>
<path opacity="0.6" d="M206.698 33.4097H177.375C176.961 33.4097 176.626 33.7449 176.626 34.1585V46.3889C176.626 46.8024 176.961 47.1377 177.375 47.1377H206.698C207.112 47.1377 207.447 46.8024 207.447 46.3889V34.1585C207.447 33.7449 207.112 33.4097 206.698 33.4097Z" fill="white"/>
<path opacity="0.1" d="M206.693 33.4097H177.36C177.162 33.4097 176.971 33.4886 176.831 33.629C176.69 33.7694 176.611 33.9599 176.611 34.1585V38.0801L191.875 41.0849C191.969 41.104 192.065 41.104 192.159 41.0849L207.427 38.0801V34.1585C207.427 33.9623 207.35 33.774 207.213 33.634C207.076 33.494 206.889 33.4134 206.693 33.4097Z" fill="black"/>
<path d="M207.336 28.3887H198.38V26.8863C198.378 26.2655 198.131 25.6704 197.692 25.2314C197.253 24.7924 196.658 24.5452 196.037 24.5439H188.036C187.415 24.5452 186.82 24.7924 186.381 25.2314C185.942 25.6704 185.694 26.2655 185.693 26.8863V28.3887H176.741C176.545 28.3887 176.357 28.4666 176.218 28.6053C176.08 28.7439 176.002 28.9319 176.002 29.1279V36.5247C176.002 36.6958 176.061 36.8615 176.17 36.9936C176.278 37.1258 176.429 37.2162 176.597 37.2495L191.895 40.2399C191.988 40.2591 192.085 40.2591 192.178 40.2399L207.476 37.2303C207.641 37.1988 207.792 37.1118 207.902 36.9836C208.012 36.8554 208.075 36.6935 208.08 36.5247V29.1279C208.08 29.0305 208.061 28.9339 208.024 28.844C207.986 28.754 207.931 28.6723 207.862 28.6035C207.793 28.5348 207.711 28.4805 207.621 28.4436C207.53 28.4068 207.434 28.3881 207.336 28.3887ZM187.474 26.8863C187.474 26.737 187.533 26.5936 187.638 26.4875C187.743 26.3814 187.886 26.3212 188.036 26.3199H196.037C196.186 26.3212 196.328 26.3808 196.433 26.4858C196.538 26.5909 196.597 26.733 196.599 26.8815V28.3839H187.479L187.474 26.8863Z" fill="#F59C42"/>
<path opacity="0.6" d="M207.336 28.3887H198.38V26.8863C198.378 26.2655 198.131 25.6704 197.692 25.2314C197.253 24.7924 196.658 24.5452 196.037 24.5439H188.036C187.415 24.5452 186.82 24.7924 186.381 25.2314C185.942 25.6704 185.694 26.2655 185.693 26.8863V28.3887H176.741C176.545 28.3887 176.357 28.4666 176.218 28.6053C176.08 28.7439 176.002 28.9319 176.002 29.1279V36.5247C176.002 36.6958 176.061 36.8615 176.17 36.9936C176.278 37.1258 176.429 37.2162 176.597 37.2495L191.895 40.2399C191.988 40.2591 192.085 40.2591 192.178 40.2399L207.476 37.2303C207.641 37.1988 207.792 37.1118 207.902 36.9836C208.012 36.8554 208.075 36.6935 208.08 36.5247V29.1279C208.08 29.0305 208.061 28.9339 208.024 28.844C207.986 28.754 207.931 28.6723 207.862 28.6035C207.793 28.5348 207.711 28.4805 207.621 28.4436C207.53 28.4068 207.434 28.3881 207.336 28.3887ZM187.474 26.8863C187.474 26.737 187.533 26.5936 187.638 26.4875C187.743 26.3814 187.886 26.3212 188.036 26.3199H196.037C196.186 26.3212 196.328 26.3808 196.433 26.4858C196.538 26.5909 196.597 26.733 196.599 26.8815V28.3839H187.479L187.474 26.8863Z" fill="white"/>
<path d="M193.618 38.2432H190.459C190.067 38.2432 189.749 38.5612 189.749 38.9536V40.9504C189.749 41.3427 190.067 41.6608 190.459 41.6608H193.618C194.01 41.6608 194.328 41.3427 194.328 40.9504V38.9536C194.328 38.5612 194.01 38.2432 193.618 38.2432Z" fill="#F59C42"/>
<path opacity="0.3" d="M193.618 38.2432H190.459C190.067 38.2432 189.749 38.5612 189.749 38.9536V40.9504C189.749 41.3427 190.067 41.6608 190.459 41.6608H193.618C194.01 41.6608 194.328 41.3427 194.328 40.9504V38.9536C194.328 38.5612 194.01 38.2432 193.618 38.2432Z" fill="white"/>
<path d="M161.021 121.71H131.698C131.284 121.71 130.949 122.046 130.949 122.459V134.69C130.949 135.103 131.284 135.438 131.698 135.438H161.021C161.435 135.438 161.77 135.103 161.77 134.69V122.459C161.77 122.046 161.435 121.71 161.021 121.71Z" fill="#F59C42"/>
<path opacity="0.6" d="M161.021 121.71H131.698C131.284 121.71 130.949 122.046 130.949 122.459V134.69C130.949 135.103 131.284 135.438 131.698 135.438H161.021C161.435 135.438 161.77 135.103 161.77 134.69V122.459C161.77 122.046 161.435 121.71 161.021 121.71Z" fill="white"/>
<path opacity="0.1" d="M161.04 121.71H131.698C131.499 121.71 131.309 121.789 131.169 121.93C131.028 122.07 130.949 122.261 130.949 122.459V126.381L146.213 129.386C146.308 129.405 146.406 129.405 146.501 129.386L161.77 126.381V122.459C161.77 122.264 161.694 122.076 161.558 121.936C161.421 121.797 161.236 121.715 161.04 121.71Z" fill="black"/>
<path d="M161.655 116.69H152.698V115.187C152.697 114.566 152.449 113.971 152.01 113.532C151.571 113.093 150.976 112.846 150.356 112.845H142.359C141.738 112.846 141.143 113.093 140.704 113.532C140.265 113.971 140.018 114.566 140.016 115.187V116.69H131.06C130.863 116.69 130.675 116.767 130.537 116.906C130.398 117.045 130.32 117.233 130.32 117.429V124.826C130.321 124.996 130.381 125.162 130.489 125.294C130.598 125.425 130.748 125.516 130.916 125.55L146.213 128.56C146.309 128.574 146.406 128.574 146.501 128.56L161.799 125.55C161.966 125.516 162.117 125.425 162.225 125.294C162.333 125.162 162.393 124.996 162.394 124.826V117.429C162.394 117.233 162.316 117.045 162.177 116.906C162.039 116.767 161.851 116.69 161.655 116.69ZM141.792 115.187C141.795 115.038 141.855 114.895 141.961 114.789C142.067 114.684 142.209 114.623 142.359 114.621H150.356C150.505 114.623 150.648 114.684 150.753 114.789C150.859 114.895 150.919 115.038 150.922 115.187V116.69H141.802L141.792 115.187Z" fill="#F59C42"/>
<path opacity="0.6" d="M161.655 116.69H152.698V115.187C152.697 114.566 152.449 113.971 152.01 113.532C151.571 113.093 150.976 112.846 150.356 112.845H142.359C141.738 112.846 141.143 113.093 140.704 113.532C140.265 113.971 140.018 114.566 140.016 115.187V116.69H131.06C130.863 116.69 130.675 116.767 130.537 116.906C130.398 117.045 130.32 117.233 130.32 117.429V124.826C130.321 124.996 130.381 125.162 130.489 125.294C130.598 125.425 130.748 125.516 130.916 125.55L146.213 128.56C146.309 128.574 146.406 128.574 146.501 128.56L161.799 125.55C161.966 125.516 162.117 125.425 162.225 125.294C162.333 125.162 162.393 124.996 162.394 124.826V117.429C162.394 117.233 162.316 117.045 162.177 116.906C162.039 116.767 161.851 116.69 161.655 116.69ZM141.792 115.187C141.795 115.038 141.855 114.895 141.961 114.789C142.067 114.684 142.209 114.623 142.359 114.621H150.356C150.505 114.623 150.648 114.684 150.753 114.789C150.859 114.895 150.919 115.038 150.922 115.187V116.69H141.802L141.792 115.187Z" fill="white"/>
<path d="M147.936 126.539H144.778C144.385 126.539 144.067 126.857 144.067 127.25V129.246C144.067 129.639 144.385 129.957 144.778 129.957H147.936C148.329 129.957 148.647 129.639 148.647 129.246V127.25C148.647 126.857 148.329 126.539 147.936 126.539Z" fill="#F59C42"/>
<path opacity="0.3" d="M147.936 126.539H144.778C144.385 126.539 144.067 126.857 144.067 127.25V129.246C144.067 129.639 144.385 129.957 144.778 129.957H147.936C148.329 129.957 148.647 129.639 148.647 129.246V127.25C148.647 126.857 148.329 126.539 147.936 126.539Z" fill="white"/>
<path d="M161.021 33.4097H131.698C131.284 33.4097 130.949 33.7449 130.949 34.1585V46.3889C130.949 46.8024 131.284 47.1377 131.698 47.1377H161.021C161.435 47.1377 161.77 46.8024 161.77 46.3889V34.1585C161.77 33.7449 161.435 33.4097 161.021 33.4097Z" fill="#F59C42"/>
<path opacity="0.6" d="M161.021 33.4097H131.698C131.284 33.4097 130.949 33.7449 130.949 34.1585V46.3889C130.949 46.8024 131.284 47.1377 131.698 47.1377H161.021C161.435 47.1377 161.77 46.8024 161.77 46.3889V34.1585C161.77 33.7449 161.435 33.4097 161.021 33.4097Z" fill="white"/>
<path opacity="0.1" d="M161.04 33.4097H131.698C131.499 33.4097 131.309 33.4886 131.169 33.629C131.028 33.7694 130.949 33.9599 130.949 34.1585V38.0801L146.213 41.0849C146.308 41.1041 146.406 41.1041 146.501 41.0849L161.77 38.0801V34.1585C161.77 33.9632 161.694 33.7756 161.558 33.6357C161.421 33.4958 161.236 33.4147 161.04 33.4097Z" fill="black"/>
<path d="M161.655 28.3887H152.698V26.8863C152.697 26.2655 152.449 25.6704 152.01 25.2314C151.571 24.7924 150.976 24.5452 150.356 24.5439H142.359C141.738 24.5452 141.143 24.7924 140.704 25.2314C140.265 25.6704 140.018 26.2655 140.016 26.8863V28.3887H131.06C130.863 28.3887 130.675 28.4666 130.537 28.6053C130.398 28.7439 130.32 28.9319 130.32 29.1279V36.5247C130.32 36.6958 130.38 36.8615 130.488 36.9936C130.597 37.1258 130.748 37.2162 130.916 37.2495L146.213 40.2399C146.308 40.2592 146.406 40.2592 146.501 40.2399L161.799 37.2303C161.966 37.197 162.117 37.1066 162.226 36.9744C162.335 36.8423 162.394 36.6766 162.394 36.5055V29.1279C162.394 28.9319 162.316 28.7439 162.177 28.6053C162.039 28.4666 161.851 28.3887 161.655 28.3887ZM141.792 26.8863C141.794 26.7365 141.854 26.5932 141.96 26.4872C142.066 26.3813 142.209 26.3212 142.359 26.3199H150.356C150.505 26.3212 150.647 26.3806 150.753 26.4855C150.859 26.5904 150.919 26.7326 150.922 26.8815V28.3839H141.802L141.792 26.8863Z" fill="#F59C42"/>
<path opacity="0.6" d="M161.655 28.3887H152.698V26.8863C152.697 26.2655 152.449 25.6704 152.01 25.2314C151.571 24.7924 150.976 24.5452 150.356 24.5439H142.359C141.738 24.5452 141.143 24.7924 140.704 25.2314C140.265 25.6704 140.018 26.2655 140.016 26.8863V28.3887H131.06C130.863 28.3887 130.675 28.4666 130.537 28.6053C130.398 28.7439 130.32 28.9319 130.32 29.1279V36.5247C130.32 36.6958 130.38 36.8615 130.488 36.9936C130.597 37.1258 130.748 37.2162 130.916 37.2495L146.213 40.2399C146.308 40.2592 146.406 40.2592 146.501 40.2399L161.799 37.2303C161.966 37.197 162.117 37.1066 162.226 36.9744C162.335 36.8423 162.394 36.6766 162.394 36.5055V29.1279C162.394 28.9319 162.316 28.7439 162.177 28.6053C162.039 28.4666 161.851 28.3887 161.655 28.3887ZM141.792 26.8863C141.794 26.7365 141.854 26.5932 141.96 26.4872C142.066 26.3813 142.209 26.3212 142.359 26.3199H150.356C150.505 26.3212 150.647 26.3806 150.753 26.4855C150.859 26.5904 150.919 26.7326 150.922 26.8815V28.3839H141.802L141.792 26.8863Z" fill="white"/>
<path d="M147.936 38.2432H144.778C144.385 38.2432 144.067 38.5612 144.067 38.9536V40.9504C144.067 41.3427 144.385 41.6608 144.778 41.6608H147.936C148.329 41.6608 148.647 41.3427 148.647 40.9504V38.9536C148.647 38.5612 148.329 38.2432 147.936 38.2432Z" fill="#F59C42"/>
<path opacity="0.3" d="M147.936 38.2432H144.778C144.385 38.2432 144.067 38.5612 144.067 38.9536V40.9504C144.067 41.3427 144.385 41.6608 144.778 41.6608H147.936C148.329 41.6608 148.647 41.3427 148.647 40.9504V38.9536C148.647 38.5612 148.329 38.2432 147.936 38.2432Z" fill="white"/>
<path d="M157.2 91.2881H131.698C131.498 91.2881 131.306 91.2087 131.165 91.0673C131.024 90.926 130.944 90.7343 130.944 90.5345V78.3089C130.945 78.208 130.966 78.1084 131.007 78.0161C131.026 77.973 131.049 77.9313 131.074 77.8913C131.101 77.8502 131.133 77.813 131.17 77.7809C131.31 77.6403 131.5 77.5608 131.698 77.5601H155.837C155.636 79.2353 155.571 80.9239 155.64 82.6097C155.64 82.8833 155.64 83.1569 155.684 83.4257C155.717 83.9297 155.756 84.4385 155.813 84.9425C156.06 87.0991 156.525 89.2251 157.2 91.2881Z" fill="#F59C42"/>
<path opacity="0.6" d="M157.2 91.2881H131.698C131.498 91.2881 131.306 91.2087 131.165 91.0673C131.024 90.926 130.944 90.7343 130.944 90.5345V78.3089C130.945 78.208 130.966 78.1084 131.007 78.0161C131.026 77.973 131.049 77.9313 131.074 77.8913C131.101 77.8502 131.133 77.813 131.17 77.7809C131.31 77.6403 131.5 77.5608 131.698 77.5601H155.837C155.636 79.2353 155.571 80.9239 155.64 82.6097C155.64 82.8833 155.64 83.1569 155.684 83.4257C155.717 83.9297 155.756 84.4385 155.813 84.9425C156.06 87.0991 156.525 89.2251 157.2 91.2881Z" fill="white"/>
<path opacity="0.1" d="M155.837 77.5601C155.636 79.2353 155.571 80.9239 155.64 82.6097C155.64 82.8833 155.64 83.1569 155.684 83.4257L148.647 84.8081L146.496 85.2305C146.404 85.2544 146.306 85.2544 146.213 85.2305L144.068 84.8129L130.949 82.2305V78.3041C130.951 78.2054 130.97 78.1078 131.007 78.0161C131.026 77.973 131.049 77.9313 131.074 77.8913C131.101 77.8502 131.133 77.813 131.17 77.7809C131.31 77.6403 131.5 77.5608 131.698 77.5601H155.837Z" fill="black"/>
<path d="M156.84 72.5391H152.703V71.0367C152.7 70.4154 152.452 69.8204 152.012 69.3815C151.572 68.9426 150.977 68.6956 150.356 68.6943H142.359C141.737 68.6943 141.142 68.9411 140.702 69.3804C140.263 69.8197 140.016 70.4155 140.016 71.0367V72.5391H131.06C130.962 72.5391 130.866 72.5583 130.777 72.5954C130.687 72.6326 130.605 72.687 130.537 72.7556C130.468 72.8243 130.414 72.9058 130.377 72.9955C130.339 73.0851 130.32 73.1813 130.32 73.2783V80.6703C130.32 80.8426 130.38 81.0095 130.49 81.1426C130.599 81.2756 130.751 81.3666 130.92 81.3999H130.949L144.068 83.9871L146.213 84.4047C146.307 84.4239 146.403 84.4239 146.496 84.4047L148.647 83.9823L155.64 82.6047C155.57 80.919 155.636 79.2303 155.837 77.5551C156.036 75.8589 156.372 74.1815 156.84 72.5391ZM141.792 71.0367C141.795 70.8877 141.855 70.7456 141.961 70.6407C142.067 70.5358 142.21 70.4764 142.359 70.4751H150.356C150.504 70.4764 150.646 70.536 150.751 70.641C150.856 70.7461 150.916 70.8882 150.917 71.0367V72.5391H141.797L141.792 71.0367Z" fill="#F59C42"/>
<path opacity="0.6" d="M156.84 72.5391H152.703V71.0367C152.7 70.4154 152.452 69.8204 152.012 69.3815C151.572 68.9426 150.977 68.6956 150.356 68.6943H142.359C141.737 68.6943 141.142 68.9411 140.702 69.3804C140.263 69.8197 140.016 70.4155 140.016 71.0367V72.5391H131.06C130.962 72.5391 130.866 72.5583 130.777 72.5954C130.687 72.6326 130.605 72.687 130.537 72.7556C130.468 72.8243 130.414 72.9058 130.377 72.9955C130.339 73.0851 130.32 73.1813 130.32 73.2783V80.6703C130.32 80.8426 130.38 81.0095 130.49 81.1426C130.599 81.2756 130.751 81.3666 130.92 81.3999H130.949L144.068 83.9871L146.213 84.4047C146.307 84.4239 146.403 84.4239 146.496 84.4047L148.647 83.9823L155.64 82.6047C155.57 80.919 155.636 79.2303 155.837 77.5551C156.036 75.8589 156.372 74.1815 156.84 72.5391ZM141.792 71.0367C141.795 70.8877 141.855 70.7456 141.961 70.6407C142.067 70.5358 142.21 70.4764 142.359 70.4751H150.356C150.504 70.4764 150.646 70.536 150.751 70.641C150.856 70.7461 150.916 70.8882 150.917 71.0367V72.5391H141.797L141.792 71.0367Z" fill="white"/>
<path d="M147.936 82.3887H144.778C144.385 82.3887 144.067 82.7067 144.067 83.0991V85.0959C144.067 85.4882 144.385 85.8063 144.778 85.8063H147.936C148.329 85.8063 148.647 85.4882 148.647 85.0959V83.0991C148.647 82.7067 148.329 82.3887 147.936 82.3887Z" fill="#F59C42"/>
<path opacity="0.3" d="M147.936 82.3887H144.778C144.385 82.3887 144.067 82.7067 144.067 83.0991V85.0959C144.067 85.4882 144.385 85.8063 144.778 85.8063H147.936C148.329 85.8063 148.647 85.4882 148.647 85.0959V83.0991C148.647 82.7067 148.329 82.3887 147.936 82.3887Z" fill="white"/>
<path d="M223.051 135.434H252.374C252.788 135.434 253.123 135.098 253.123 134.685V122.454C253.123 122.041 252.788 121.706 252.374 121.706H223.051C222.637 121.706 222.302 122.041 222.302 122.454V134.685C222.302 135.098 222.637 135.434 223.051 135.434Z" fill="#F59C42"/>
<path opacity="0.6" d="M223.051 135.434H252.374C252.788 135.434 253.123 135.098 253.123 134.685V122.454C253.123 122.041 252.788 121.706 252.374 121.706H223.051C222.637 121.706 222.302 122.041 222.302 122.454V134.685C222.302 135.098 222.637 135.434 223.051 135.434Z" fill="white"/>
<path opacity="0.1" d="M223.056 121.71H252.374C252.573 121.71 252.764 121.789 252.904 121.93C253.044 122.07 253.123 122.261 253.123 122.459V126.381L237.84 129.386C237.747 129.405 237.65 129.405 237.557 129.386L222.288 126.381V122.459C222.288 122.359 222.308 122.26 222.347 122.168C222.386 122.076 222.443 121.993 222.514 121.923C222.586 121.853 222.671 121.798 222.764 121.762C222.857 121.725 222.956 121.708 223.056 121.71Z" fill="black"/>
<path d="M222.418 116.69H231.374V115.187C231.376 114.566 231.623 113.971 232.062 113.532C232.501 113.093 233.096 112.846 233.717 112.845H241.718C242.339 112.846 242.934 113.093 243.373 113.532C243.812 113.971 244.06 114.566 244.061 115.187V116.69H253.013C253.11 116.69 253.206 116.709 253.296 116.746C253.385 116.783 253.467 116.837 253.535 116.906C253.604 116.975 253.659 117.056 253.696 117.146C253.733 117.236 253.752 117.332 253.752 117.429V124.826C253.751 124.996 253.691 125.162 253.583 125.294C253.475 125.425 253.324 125.516 253.157 125.55L237.84 128.56C237.745 128.574 237.647 128.574 237.552 128.56L222.254 125.55C222.087 125.516 221.937 125.425 221.828 125.294C221.72 125.162 221.66 124.996 221.659 124.826V117.429C221.659 117.33 221.679 117.232 221.717 117.141C221.756 117.05 221.812 116.968 221.882 116.899C221.953 116.83 222.037 116.776 222.129 116.74C222.221 116.704 222.319 116.687 222.418 116.69ZM242.28 115.187C242.279 115.038 242.219 114.895 242.114 114.79C242.009 114.684 241.867 114.623 241.718 114.621H233.717C233.567 114.623 233.425 114.684 233.319 114.789C233.213 114.895 233.153 115.038 233.15 115.187V116.69H242.27L242.28 115.187Z" fill="#F59C42"/>
<path opacity="0.6" d="M222.418 116.69H231.374V115.187C231.376 114.566 231.623 113.971 232.062 113.532C232.501 113.093 233.096 112.846 233.717 112.845H241.718C242.339 112.846 242.934 113.093 243.373 113.532C243.812 113.971 244.06 114.566 244.061 115.187V116.69H253.013C253.11 116.69 253.206 116.709 253.296 116.746C253.385 116.783 253.467 116.837 253.535 116.906C253.604 116.975 253.659 117.056 253.696 117.146C253.733 117.236 253.752 117.332 253.752 117.429V124.826C253.751 124.996 253.691 125.162 253.583 125.294C253.475 125.425 253.324 125.516 253.157 125.55L237.84 128.56C237.745 128.574 237.647 128.574 237.552 128.56L222.254 125.55C222.087 125.516 221.937 125.425 221.828 125.294C221.72 125.162 221.66 124.996 221.659 124.826V117.429C221.659 117.33 221.679 117.232 221.717 117.141C221.756 117.05 221.812 116.968 221.882 116.899C221.953 116.83 222.037 116.776 222.129 116.74C222.221 116.704 222.319 116.687 222.418 116.69ZM242.28 115.187C242.279 115.038 242.219 114.895 242.114 114.79C242.009 114.684 241.867 114.623 241.718 114.621H233.717C233.567 114.623 233.425 114.684 233.319 114.789C233.213 114.895 233.153 115.038 233.15 115.187V116.69H242.27L242.28 115.187Z" fill="white"/>
<path d="M236.136 129.957H239.294C239.687 129.957 240.005 129.639 240.005 129.246V127.25C240.005 126.857 239.687 126.539 239.294 126.539H236.136C235.744 126.539 235.426 126.857 235.426 127.25V129.246C235.426 129.639 235.744 129.957 236.136 129.957Z" fill="#F59C42"/>
<path opacity="0.3" d="M236.136 129.957H239.294C239.687 129.957 240.005 129.639 240.005 129.246V127.25C240.005 126.857 239.687 126.539 239.294 126.539H236.136C235.744 126.539 235.426 126.857 235.426 127.25V129.246C235.426 129.639 235.744 129.957 236.136 129.957Z" fill="white"/>
<path d="M223.051 47.1328L252.374 47.1328C252.788 47.1328 253.123 46.7976 253.123 46.384V34.1536C253.123 33.7401 252.788 33.4048 252.374 33.4048H223.051C222.637 33.4048 222.302 33.7401 222.302 34.1536V46.384C222.302 46.7976 222.637 47.1328 223.051 47.1328Z" fill="#F59C42"/>
<path opacity="0.6" d="M223.051 47.1328L252.374 47.1328C252.788 47.1328 253.123 46.7976 253.123 46.384V34.1536C253.123 33.7401 252.788 33.4048 252.374 33.4048H223.051C222.637 33.4048 222.302 33.7401 222.302 34.1536V46.384C222.302 46.7976 222.637 47.1328 223.051 47.1328Z" fill="white"/>
<path opacity="0.1" d="M223.056 33.4097H252.375C252.573 33.4097 252.764 33.4886 252.904 33.629C253.045 33.7694 253.124 33.9599 253.124 34.1585V38.0801L237.84 41.0849C237.747 41.104 237.651 41.104 237.557 41.0849L222.308 38.0801V34.1585C222.308 33.9599 222.387 33.7694 222.527 33.629C222.667 33.4886 222.858 33.4097 223.056 33.4097Z" fill="black"/>
<path d="M222.418 28.3888H231.374V26.8864C231.376 26.2655 231.623 25.6705 232.062 25.2315C232.501 24.7925 233.096 24.5453 233.717 24.544H241.718C242.027 24.5421 242.334 24.6012 242.62 24.7181C242.906 24.8349 243.166 25.007 243.386 25.2247C243.605 25.4423 243.779 25.7011 243.899 25.9863C244.018 26.2715 244.079 26.5773 244.08 26.8864V28.3888H253.032C253.228 28.3888 253.416 28.4667 253.555 28.6053C253.693 28.7439 253.771 28.9319 253.771 29.128V36.5248C253.771 36.6958 253.712 36.8615 253.603 36.9937C253.495 37.1258 253.344 37.2163 253.176 37.2496L237.84 40.24C237.745 40.2593 237.647 40.2593 237.552 40.24L222.254 37.2304C222.087 37.1971 221.936 37.1066 221.827 36.9745C221.719 36.8423 221.659 36.6766 221.659 36.5056V29.128C221.659 29.0293 221.679 28.9316 221.717 28.8406C221.756 28.7496 221.812 28.6673 221.882 28.5984C221.953 28.5295 222.037 28.4754 222.129 28.4395C222.221 28.4035 222.319 28.3862 222.418 28.3888ZM242.28 26.8864C242.28 26.737 242.221 26.5937 242.116 26.4876C242.011 26.3815 241.868 26.3213 241.718 26.32H233.717C233.568 26.3212 233.425 26.3806 233.319 26.4856C233.214 26.5905 233.153 26.7326 233.15 26.8816V28.384H242.27L242.28 26.8864Z" fill="#F59C42"/>
<path opacity="0.6" d="M222.418 28.3888H231.374V26.8864C231.376 26.2655 231.623 25.6705 232.062 25.2315C232.501 24.7925 233.096 24.5453 233.717 24.544H241.718C242.027 24.5421 242.334 24.6012 242.62 24.7181C242.906 24.8349 243.166 25.007 243.386 25.2247C243.605 25.4423 243.779 25.7011 243.899 25.9863C244.018 26.2715 244.079 26.5773 244.08 26.8864V28.3888H253.032C253.228 28.3888 253.416 28.4667 253.555 28.6053C253.693 28.7439 253.771 28.9319 253.771 29.128V36.5248C253.771 36.6958 253.712 36.8615 253.603 36.9937C253.495 37.1258 253.344 37.2163 253.176 37.2496L237.84 40.24C237.745 40.2593 237.647 40.2593 237.552 40.24L222.254 37.2304C222.087 37.1971 221.936 37.1066 221.827 36.9745C221.719 36.8423 221.659 36.6766 221.659 36.5056V29.128C221.659 29.0293 221.679 28.9316 221.717 28.8406C221.756 28.7496 221.812 28.6673 221.882 28.5984C221.953 28.5295 222.037 28.4754 222.129 28.4395C222.221 28.4035 222.319 28.3862 222.418 28.3888ZM242.28 26.8864C242.28 26.737 242.221 26.5937 242.116 26.4876C242.011 26.3815 241.868 26.3213 241.718 26.32H233.717C233.568 26.3212 233.425 26.3806 233.319 26.4856C233.214 26.5905 233.153 26.7326 233.15 26.8816V28.384H242.27L242.28 26.8864Z" fill="white"/>
<path d="M236.136 41.656H239.294C239.687 41.656 240.005 41.3379 240.005 40.9456V38.9488C240.005 38.5565 239.687 38.2384 239.294 38.2384H236.136C235.744 38.2384 235.426 38.5565 235.426 38.9488V40.9456C235.426 41.3379 235.744 41.656 236.136 41.656Z" fill="#F59C42"/>
<path opacity="0.3" d="M236.136 41.656H239.294C239.687 41.656 240.005 41.3379 240.005 40.9456V38.9488C240.005 38.5565 239.687 38.2384 239.294 38.2384H236.136C235.744 38.2384 235.426 38.5565 235.426 38.9488V40.9456C235.426 41.3379 235.744 41.656 236.136 41.656Z" fill="white"/>
<path d="M226.892 91.2881H252.38C252.579 91.2868 252.769 91.2068 252.909 91.0656C253.05 90.9245 253.128 90.7335 253.128 90.5345V78.3089C253.128 78.208 253.106 78.1084 253.066 78.0161C253.048 77.972 253.026 77.9302 252.999 77.8913C252.972 77.8502 252.94 77.813 252.903 77.7809C252.834 77.7108 252.752 77.6552 252.661 77.6173C252.57 77.5794 252.473 77.5599 252.375 77.5601H228.24C228.441 79.2353 228.507 80.9239 228.437 82.6097C228.437 82.8833 228.437 83.1569 228.394 83.4257C228.365 83.9297 228.322 84.4385 228.264 84.9425C228.022 87.0986 227.562 89.2246 226.892 91.2881Z" fill="#F59C42"/>
<path opacity="0.6" d="M226.892 91.2881H252.38C252.579 91.2868 252.769 91.2068 252.909 91.0656C253.05 90.9245 253.128 90.7335 253.128 90.5345V78.3089C253.128 78.208 253.106 78.1084 253.066 78.0161C253.048 77.972 253.026 77.9302 252.999 77.8913C252.972 77.8502 252.94 77.813 252.903 77.7809C252.834 77.7108 252.752 77.6552 252.661 77.6173C252.57 77.5794 252.473 77.5599 252.375 77.5601H228.24C228.441 79.2353 228.507 80.9239 228.437 82.6097C228.437 82.8833 228.437 83.1569 228.394 83.4257C228.365 83.9297 228.322 84.4385 228.264 84.9425C228.022 87.0986 227.562 89.2246 226.892 91.2881Z" fill="white"/>
<path opacity="0.1" d="M228.24 77.5601C228.441 79.2353 228.507 80.9239 228.437 82.6097C228.437 82.8833 228.437 83.1569 228.394 83.4257L235.44 84.8081L237.591 85.2305C237.684 85.2544 237.781 85.2544 237.874 85.2305L240.019 84.8129L253.138 82.2305V78.3041C253.136 78.2054 253.117 78.1078 253.08 78.0161C253.063 77.972 253.04 77.9302 253.013 77.8913C252.986 77.8502 252.954 77.813 252.917 77.7809C252.848 77.7108 252.766 77.6552 252.675 77.6173C252.585 77.5794 252.487 77.5599 252.389 77.5601H228.24Z" fill="black"/>
<path d="M227.232 72.5391H231.374V71.0367C231.376 70.4159 231.623 69.8208 232.062 69.3818C232.501 68.9428 233.096 68.6956 233.717 68.6943H241.714C242.335 68.6943 242.932 68.941 243.372 69.3801C243.812 69.8193 244.06 70.4151 244.061 71.0367V72.5391H253.013C253.209 72.5391 253.397 72.617 253.536 72.7556C253.674 72.8943 253.752 73.0823 253.752 73.2783V80.6703C253.752 80.8419 253.693 81.0083 253.585 81.1413C253.476 81.2742 253.325 81.3656 253.157 81.3999H253.123L240.005 83.9871L237.84 84.3999C237.747 84.4191 237.65 84.4191 237.557 84.3999L235.406 83.9775L228.413 82.5999C228.549 79.1976 228.144 75.7952 227.213 72.5199L227.232 72.5391ZM242.28 71.0367C242.278 70.8877 242.217 70.7456 242.111 70.6407C242.005 70.5358 241.863 70.4764 241.714 70.4751H233.717C233.568 70.4764 233.426 70.536 233.321 70.641C233.216 70.7461 233.157 70.8882 233.155 71.0367V72.5391H242.275L242.28 71.0367Z" fill="#F59C42"/>
<path opacity="0.6" d="M227.232 72.5391H231.374V71.0367C231.376 70.4159 231.623 69.8208 232.062 69.3818C232.501 68.9428 233.096 68.6956 233.717 68.6943H241.714C242.335 68.6943 242.932 68.941 243.372 69.3801C243.812 69.8193 244.06 70.4151 244.061 71.0367V72.5391H253.013C253.209 72.5391 253.397 72.617 253.536 72.7556C253.674 72.8943 253.752 73.0823 253.752 73.2783V80.6703C253.752 80.8419 253.693 81.0083 253.585 81.1413C253.476 81.2742 253.325 81.3656 253.157 81.3999H253.123L240.005 83.9871L237.84 84.3999C237.747 84.4191 237.65 84.4191 237.557 84.3999L235.406 83.9775L228.413 82.5999C228.549 79.1976 228.144 75.7952 227.213 72.5199L227.232 72.5391ZM242.28 71.0367C242.278 70.8877 242.217 70.7456 242.111 70.6407C242.005 70.5358 241.863 70.4764 241.714 70.4751H233.717C233.568 70.4764 233.426 70.536 233.321 70.641C233.216 70.7461 233.157 70.8882 233.155 71.0367V72.5391H242.275L242.28 71.0367Z" fill="white"/>
<path d="M236.136 85.8113H239.294C239.687 85.8113 240.005 85.4932 240.005 85.1009V83.1041C240.005 82.7117 239.687 82.3937 239.294 82.3937H236.136C235.744 82.3937 235.426 82.7117 235.426 83.1041V85.1009C235.426 85.4932 235.744 85.8113 236.136 85.8113Z" fill="#F59C42"/>
<path opacity="0.3" d="M236.136 85.8113H239.294C239.687 85.8113 240.005 85.4932 240.005 85.1009V83.1041C240.005 82.7117 239.687 82.3937 239.294 82.3937H236.136C235.744 82.3937 235.426 82.7117 235.426 83.1041V85.1009C235.426 85.4932 235.744 85.8113 236.136 85.8113Z" fill="white"/>
<path d="M214.656 74.5791H172.521C171.928 74.5791 171.446 75.0605 171.446 75.6543V93.2271C171.446 93.8209 171.928 94.3023 172.521 94.3023H214.656C215.25 94.3023 215.731 93.8209 215.731 93.2271V75.6543C215.731 75.0605 215.25 74.5791 214.656 74.5791Z" fill="#F59C42"/>
<path d="M199.335 71.4401H187.839C186.967 71.4388 186.132 71.092 185.515 70.4757C184.899 69.8593 184.552 69.0238 184.551 68.1521V65.2001C184.552 64.3285 184.899 63.4929 185.515 62.8765C186.132 62.2602 186.967 61.9134 187.839 61.9121H199.335C200.207 61.9121 201.043 62.2585 201.66 62.8751C202.276 63.4918 202.623 64.3281 202.623 65.2001V68.1377C202.625 68.5707 202.541 68.9998 202.377 69.4004C202.212 69.801 201.97 70.1652 201.665 70.472C201.359 70.7788 200.996 71.0223 200.596 71.1885C200.197 71.3546 199.768 71.4401 199.335 71.4401ZM187.839 64.3265C187.607 64.329 187.386 64.4217 187.222 64.5848C187.058 64.748 186.964 64.9688 186.96 65.2001V68.1377C186.96 68.3732 187.054 68.5991 187.22 68.7656C187.387 68.9322 187.613 69.0257 187.848 69.0257H199.344C199.58 69.0257 199.806 68.9322 199.972 68.7656C200.139 68.5991 200.232 68.3732 200.232 68.1377V65.2001C200.232 64.9646 200.139 64.7387 199.972 64.5722C199.806 64.4057 199.58 64.3121 199.344 64.3121L187.839 64.3265Z" fill="#F59C42"/>
<path opacity="0.2" d="M214.651 74.5791H172.526C172.385 74.5785 172.244 74.6058 172.113 74.6596C171.982 74.7133 171.863 74.7924 171.763 74.8923C171.663 74.9922 171.583 75.111 171.529 75.2417C171.474 75.3725 171.446 75.5127 171.446 75.6543V81.2943L193.382 85.6143C193.517 85.6435 193.656 85.6435 193.79 85.6143L215.731 81.2943V75.6543C215.731 75.5127 215.703 75.3725 215.649 75.2417C215.594 75.111 215.515 74.9922 215.414 74.8923C215.314 74.7924 215.195 74.7133 215.064 74.6596C214.933 74.6058 214.793 74.5785 214.651 74.5791Z" fill="black"/>
<path d="M215.761 80.08L193.781 84.4C193.645 84.4241 193.505 84.4241 193.369 84.4L171.389 80.08C171.148 80.0324 170.93 79.9026 170.774 79.7127C170.617 79.5228 170.531 79.2846 170.53 79.0384V68.4304C170.53 68.2911 170.558 68.1532 170.611 68.0245C170.664 67.8958 170.742 67.7788 170.841 67.6803C170.939 67.5818 171.056 67.5037 171.185 67.4504C171.314 67.3971 171.452 67.3696 171.591 67.3696H215.569C215.708 67.3696 215.846 67.3971 215.975 67.4504C216.103 67.5037 216.22 67.5818 216.319 67.6803C216.417 67.7788 216.495 67.8958 216.549 68.0245C216.602 68.1532 216.629 68.2911 216.629 68.4304V79.0576C216.625 79.3021 216.536 79.5373 216.377 79.7236C216.219 79.9099 216.001 80.0358 215.761 80.08Z" fill="#F59C42"/>
<path d="M195.864 81.5249H191.318C190.756 81.5249 190.301 81.9805 190.301 82.5425V85.4177C190.301 85.9797 190.756 86.4353 191.318 86.4353H195.864C196.426 86.4353 196.882 85.9797 196.882 85.4177V82.5425C196.882 81.9805 196.426 81.5249 195.864 81.5249Z" fill="#F59C42"/>
<path opacity="0.4" d="M195.864 81.5249H191.318C190.756 81.5249 190.301 81.9805 190.301 82.5425V85.4177C190.301 85.9797 190.756 86.4353 191.318 86.4353H195.864C196.426 86.4353 196.882 85.9797 196.882 85.4177V82.5425C196.882 81.9805 196.426 81.5249 195.864 81.5249Z" fill="black"/>
<path d="M272.832 85.4609C273.384 86.5985 273.792 87.6737 274.272 88.7969C274.752 89.9201 275.102 91.0385 275.477 92.1857C276.236 94.5117 276.796 96.8979 277.152 99.3185C277.2 99.6209 277.224 99.9473 277.258 100.279L277.306 100.759C277.306 100.845 277.306 100.907 277.306 101.008V101.32C277.322 102.048 277.259 102.775 277.118 103.49C276.88 104.731 276.542 105.951 276.106 107.138C275.286 109.393 274.264 111.57 273.053 113.642L270.614 112.61C271.157 110.421 271.704 108.189 272.117 106.034C272.319 105.001 272.461 103.958 272.544 102.909C272.572 102.48 272.563 102.05 272.515 101.623L272.462 101.32L272.395 100.936C272.342 100.682 272.309 100.427 272.246 100.168C271.768 98.0493 271.149 95.9647 270.394 93.9281C270.029 92.8865 269.626 91.8497 269.222 90.8081C268.819 89.7665 268.373 88.7201 267.96 87.7601L272.832 85.4609Z" fill="#7F3E3B"/>
<path d="M270.72 111.971L268.848 113.795L272.932 115.715C272.932 115.715 273.921 113.987 273.24 112.422L270.72 111.971Z" fill="#7F3E3B"/>
<path d="M267.341 116.517L270.787 117.928L272.933 115.696L268.848 113.795L267.341 116.517Z" fill="#7F3E3B"/>
<path opacity="0.2" d="M197.428 114.549C204.22 113.788 210.635 111.031 215.86 106.625C221.085 102.219 224.886 96.3628 226.783 89.7967C228.681 83.2306 228.588 76.2494 226.518 69.7358C224.448 63.2222 220.493 57.4686 215.153 53.2025C209.813 48.9364 203.329 46.3495 196.519 45.7686C189.709 45.1878 182.879 46.6392 176.894 49.9393C170.909 53.2394 166.037 58.2401 162.893 64.309C159.75 70.378 158.477 77.2427 159.235 84.0352C159.738 88.547 161.125 92.9154 163.317 96.8909C165.509 100.866 168.463 104.371 172.01 107.205C175.557 110.038 179.627 112.145 183.988 113.405C188.35 114.666 192.917 115.054 197.428 114.549Z" fill="#F59C42"/>
<path opacity="0.1" d="M172.281 52.9794L224.841 94.9602C225.067 94.4802 225.278 94.0002 225.484 93.5202C226.802 90.3861 227.643 87.0727 227.98 83.6898L182.582 47.4402C178.856 48.6827 175.372 50.5563 172.281 52.9794Z" fill="white"/>
<path opacity="0.1" d="M160.156 71.3776L209.567 110.858C214.262 108.409 218.332 104.914 221.462 100.643L167.5 57.52C164.023 61.5154 161.51 66.2567 160.156 71.3776Z" fill="white"/>
<path d="M278.721 119.018C278.658 118.144 278.372 117.301 277.891 116.57C277.541 116.032 277.052 115.598 276.475 115.317L273.197 113.709C271.017 112.629 268.824 111.578 266.63 110.526C264.437 109.475 262.229 108.443 260.03 107.402C257.832 106.36 255.614 105.347 253.392 104.354C248.957 102.344 244.493 100.389 240 98.4881C237.753 97.5281 235.502 96.6065 233.232 95.7041C232.569 95.443 232.03 94.9398 231.724 94.2963C231.419 93.6529 231.369 92.9172 231.585 92.2385C234.624 82.6568 233.932 72.2808 229.648 63.1876C225.363 54.0944 217.802 46.955 208.478 43.1986C199.154 39.4422 188.756 39.346 179.364 42.9292C169.972 46.5125 162.281 53.5107 157.828 62.5231C153.376 71.5355 152.492 81.8969 155.354 91.5332C158.215 101.169 164.61 109.369 173.259 114.492C181.908 119.614 192.173 121.281 201.998 119.158C211.824 117.035 220.485 111.279 226.248 103.043C226.656 102.458 227.271 102.049 227.969 101.901C228.667 101.752 229.395 101.874 230.006 102.242C232.105 103.49 234.214 104.717 236.333 105.923C240.566 108.336 244.832 110.688 249.129 112.979C251.275 114.141 253.449 115.259 255.585 116.397C257.721 117.534 259.905 118.643 262.08 119.757C264.254 120.87 266.4 121.96 268.603 123.035L271.872 124.658C272.446 124.946 273.088 125.073 273.729 125.022C274.602 124.961 275.443 124.675 276.173 124.192C277.042 123.658 277.743 122.889 278.194 121.973C278.645 121.057 278.828 120.033 278.721 119.018ZM179.664 108.4C174.084 105.647 169.446 101.3 166.336 95.9108C163.226 90.5213 161.785 84.3307 162.193 78.1218C162.602 71.9129 164.843 65.9647 168.633 61.0294C172.422 56.0942 177.59 52.3935 183.483 50.3954C189.376 48.3974 195.729 48.1917 201.738 49.8044C207.748 51.4171 213.144 54.7757 217.245 59.4555C221.346 64.1353 223.967 69.9261 224.777 76.0955C225.586 82.265 224.548 88.5359 221.793 94.1153C219.965 97.8197 217.425 101.128 214.319 103.85C211.212 106.573 207.599 108.657 203.687 109.984C199.775 111.31 195.64 111.853 191.518 111.581C187.396 111.31 183.368 110.229 179.664 108.4Z" fill="#F59C42"/>
<path d="M254.731 70.6241C254.731 70.9073 254.582 71.1377 254.395 71.1377C254.207 71.1377 254.059 70.9073 254.059 70.6241C254.059 70.3409 254.207 70.1057 254.395 70.1057C254.582 70.1057 254.731 70.3361 254.731 70.6241Z" fill="#263238"/>
<path d="M254.607 71.1377C254.269 72.0072 253.814 72.8261 253.253 73.5713C253.447 73.7102 253.669 73.8049 253.904 73.8489C254.139 73.8928 254.38 73.8849 254.611 73.8257L254.607 71.1377Z" fill="#630F0F"/>
<path d="M255.739 69.04C255.774 69.0391 255.808 69.0273 255.836 69.0063C255.863 68.9853 255.884 68.9562 255.895 68.9229C255.905 68.8897 255.905 68.854 255.894 68.8208C255.884 68.7876 255.863 68.7585 255.835 68.7376C255.623 68.5787 255.376 68.4723 255.115 68.4272C254.854 68.3822 254.586 68.3997 254.333 68.4784C254.31 68.4846 254.289 68.4955 254.271 68.5103C254.253 68.5252 254.238 68.5437 254.227 68.5646C254.217 68.5856 254.21 68.6085 254.209 68.632C254.208 68.6555 254.212 68.6789 254.22 68.7008C254.229 68.7228 254.242 68.7427 254.258 68.7593C254.275 68.7759 254.295 68.7889 254.317 68.7973C254.339 68.8057 254.362 68.8095 254.385 68.8083C254.409 68.8071 254.432 68.801 254.453 68.7904C254.654 68.7305 254.867 68.7188 255.074 68.7563C255.281 68.7939 255.476 68.8795 255.643 69.0064C255.67 69.0286 255.704 69.0405 255.739 69.04Z" fill="#263238"/>
<path d="M264.441 72.7649C263.932 75.3473 263.428 80.0753 265.233 81.7937C265.233 81.7937 264.528 84.4097 259.737 84.4097C254.457 84.4097 257.217 81.7937 257.217 81.7937C260.097 81.1073 260.02 78.9713 259.516 76.9937L264.441 72.7649Z" fill="#7F3E3B"/>
<path d="M266.159 80.1761C266.558 80.3057 266.039 82.6769 266.039 82.6769C266.039 82.6769 265.382 84.3329 257.212 83.7569C256.583 83.7089 256.823 81.4337 257.423 81.1025C259.358 80.0465 264.873 79.7537 266.159 80.1761Z" fill="#263238"/>
<path d="M282.753 179.349C283.195 179.306 283.838 178.495 284.02 178.197C284.029 178.184 284.033 178.169 284.033 178.154C284.033 178.138 284.029 178.124 284.02 178.111C284.013 178.096 284.001 178.085 283.986 178.078C283.971 178.071 283.955 178.069 283.939 178.072C283.891 178.072 282.729 178.293 282.446 178.744C282.416 178.791 282.396 178.845 282.388 178.9C282.38 178.955 282.383 179.012 282.398 179.066C282.46 179.277 282.58 179.335 282.676 179.349H282.753ZM283.766 178.279C283.454 178.711 282.94 179.215 282.696 179.181C282.672 179.181 282.6 179.181 282.556 179.018C282.547 178.986 282.545 178.953 282.55 178.921C282.555 178.889 282.567 178.858 282.585 178.831C282.916 178.535 283.327 178.343 283.766 178.279Z" fill="#F59C42"/>
<path d="M283.718 178.279C283.804 178.271 283.889 178.257 283.973 178.235C283.987 178.231 284 178.223 284.01 178.212C284.02 178.201 284.027 178.187 284.03 178.173C284.033 178.158 284.032 178.143 284.027 178.128C284.022 178.114 284.013 178.101 284.001 178.091C283.973 178.063 283.195 177.4 282.667 177.453C282.603 177.457 282.542 177.475 282.485 177.504C282.429 177.534 282.38 177.576 282.341 177.626C282.295 177.669 282.267 177.728 282.261 177.79C282.255 177.852 282.271 177.915 282.307 177.967C282.48 178.24 283.238 178.327 283.718 178.279ZM283.757 178.111C283.277 178.168 282.576 178.072 282.441 177.875C282.441 177.875 282.403 177.813 282.47 177.727C282.497 177.695 282.53 177.669 282.567 177.65C282.604 177.631 282.645 177.619 282.686 177.616C283.084 177.671 283.457 177.843 283.757 178.111Z" fill="#F59C42"/>
<path d="M249.753 191.973C250.117 191.972 250.479 191.939 250.838 191.877C250.854 191.872 250.868 191.864 250.88 191.852C250.892 191.84 250.901 191.826 250.905 191.81C250.908 191.793 250.905 191.775 250.898 191.759C250.89 191.744 250.877 191.731 250.862 191.723C250.809 191.69 249.58 190.989 248.99 191.147C248.879 191.175 248.784 191.246 248.726 191.344C248.688 191.397 248.668 191.461 248.668 191.526C248.668 191.592 248.688 191.655 248.726 191.709C248.879 191.92 249.302 191.973 249.753 191.973ZM250.569 191.752C249.911 191.843 249.019 191.838 248.855 191.613C248.831 191.584 248.812 191.531 248.855 191.426C248.873 191.396 248.897 191.371 248.925 191.351C248.953 191.331 248.985 191.317 249.019 191.31C249.398 191.21 250.137 191.531 250.569 191.752Z" fill="#F59C42"/>
<path d="M250.8 191.877C250.817 191.882 250.836 191.882 250.853 191.877C250.864 191.867 250.873 191.856 250.878 191.842C250.884 191.829 250.887 191.815 250.886 191.8C250.886 191.762 250.786 190.811 250.339 190.442C250.273 190.387 250.196 190.345 250.114 190.321C250.031 190.296 249.945 190.288 249.859 190.298C249.629 190.322 249.566 190.437 249.547 190.533C249.485 190.931 250.33 191.694 250.752 191.886L250.8 191.877ZM249.941 190.437C250.048 190.44 250.151 190.479 250.234 190.547C250.5 190.852 250.667 191.23 250.714 191.632C250.277 191.373 249.706 190.773 249.754 190.533C249.754 190.533 249.754 190.456 249.917 190.442L249.941 190.437Z" fill="#F59C42"/>
<path d="M254.698 191.795H251.175L250.819 183.626H254.347L254.698 191.795Z" fill="#7F3E3B"/>
<path d="M287.102 175.614L284.352 177.818L277.354 172.96L280.109 170.757L287.102 175.614Z" fill="#7F3E3B"/>
<path d="M283.848 177.679L286.661 174.89C286.711 174.841 286.776 174.811 286.846 174.804C286.916 174.797 286.986 174.814 287.045 174.851L289.747 176.589C289.813 176.631 289.868 176.688 289.908 176.755C289.948 176.822 289.973 176.897 289.98 176.975C289.987 177.052 289.976 177.131 289.948 177.204C289.92 177.276 289.876 177.342 289.819 177.395C288.821 178.355 288.288 178.768 287.049 179.992C286.291 180.751 284.433 183.007 283.382 184.048C282.331 185.09 281.16 184.187 281.501 183.664C283.013 181.331 283.526 179.407 283.593 178.235C283.608 178.025 283.698 177.827 283.848 177.679Z" fill="#263238"/>
<path d="M251.193 191.387H255.033C255.103 191.387 255.171 191.41 255.225 191.454C255.279 191.498 255.317 191.559 255.331 191.627L256.027 194.762C256.044 194.837 256.045 194.915 256.027 194.991C256.01 195.066 255.976 195.136 255.927 195.197C255.879 195.257 255.817 195.305 255.747 195.338C255.677 195.371 255.6 195.387 255.523 195.386C254.131 195.386 252.125 195.285 250.377 195.285C248.337 195.285 246.576 195.395 244.181 195.395C242.741 195.395 242.333 193.931 242.937 193.797C245.697 193.197 247.949 193.13 250.329 191.661C250.586 191.491 250.885 191.396 251.193 191.387Z" fill="#263238"/>
<path d="M272.184 82.8498C275.241 84.2898 276.504 94.1586 276.504 94.1586L269.472 96.9186C268.38 94.2465 267.496 91.4944 266.827 88.6866C265.843 84.2322 269.04 81.3522 272.184 82.8498Z" fill="#F59C42"/>
<path opacity="0.3" d="M272.184 82.8498C275.241 84.2898 276.504 94.1586 276.504 94.1586L269.472 96.9186C268.38 94.2465 267.496 91.4944 266.827 88.6866C265.843 84.2322 269.04 81.3522 272.184 82.8498Z" fill="white"/>
<path opacity="0.2" d="M267.629 85.7441C267.389 85.6277 267.138 85.536 266.88 85.4705C266.6 86.5229 266.59 87.6292 266.851 88.6865C267.518 91.4945 268.4 94.2467 269.491 96.9185L271.81 96.0113C271.382 93.4337 270.072 86.9153 267.629 85.7441Z" fill="black"/>
<path d="M251.793 82.7729C251.793 82.7729 248.04 87.0113 251.582 113.253H270.446C270.576 110.373 268.756 96.2321 271.55 82.5905C269.464 82.1893 267.354 81.9232 265.233 81.7938C262.563 81.64 259.887 81.64 257.217 81.7938C255.386 81.9782 253.573 82.3056 251.793 82.7729Z" fill="#F59C42"/>
<path opacity="0.3" d="M251.793 82.7729C251.793 82.7729 248.04 87.0113 251.582 113.253H270.446C270.576 110.373 268.756 96.2321 271.55 82.5905C269.464 82.1893 267.354 81.9232 265.233 81.7938C262.563 81.64 259.887 81.64 257.217 81.7938C255.386 81.9782 253.573 82.3056 251.793 82.7729Z" fill="white"/>
<path opacity="0.2" d="M255.599 88.3984C254.745 85.8352 252.691 85.0144 250.598 86.536C250.175 89.0224 249.878 93.0304 250.219 99.3856L253.9 99.352C253.9 99.352 256.862 92.2144 255.599 88.3984Z" fill="black"/>
<path d="M254.908 87.3472C254.754 88.6336 254.543 89.8 254.308 91.0144C254.073 92.2288 253.799 93.4144 253.487 94.6096C252.871 97.0524 252.033 99.4336 250.982 101.723C250.708 102.314 250.391 102.894 250.055 103.475C249.882 103.768 249.71 104.061 249.513 104.349C249.258 104.749 248.956 105.118 248.615 105.448C247.953 106.062 247.168 106.529 246.311 106.816C245.616 107.06 244.897 107.229 244.166 107.32C242.861 107.482 241.543 107.498 240.234 107.368C239.594 107.317 238.97 107.235 238.362 107.123C237.738 107.013 237.148 106.898 236.505 106.73L236.817 104.099C239.008 104.007 241.183 103.685 243.306 103.139C243.738 103.011 244.158 102.844 244.559 102.64C244.823 102.519 245.053 102.336 245.231 102.107C245.193 102.141 245.543 101.56 245.75 101.147C245.956 100.734 246.186 100.187 246.383 99.7072C246.786 98.7184 247.132 97.672 247.449 96.6016C247.766 95.5312 248.044 94.4416 248.303 93.3376C248.562 92.2336 248.783 91.12 249.023 89.9776C249.263 88.8352 249.436 87.7024 249.609 86.6416L254.908 87.3472Z" fill="#7F3E3B"/>
<path d="M256.507 85.3601C257.501 88.5809 253.469 98.1809 253.469 98.1809L244.978 96.0449C245.497 93.0105 246.372 90.0477 247.584 87.2177C250.32 81.2273 255.312 81.4769 256.507 85.3601Z" fill="#F59C42"/>
<path opacity="0.3" d="M256.507 85.3601C257.501 88.5809 253.469 98.1809 253.469 98.1809L244.978 96.0449C245.497 93.0105 246.372 90.0477 247.584 87.2177C250.32 81.2273 255.312 81.4769 256.507 85.3601Z" fill="white"/>
<path d="M236.937 104.114L232.943 104.013L234.863 108.165C234.863 108.165 236.486 108.381 237.82 106.187L239.227 104.512L237.609 104.186C237.387 104.143 237.163 104.118 236.937 104.114Z" fill="#7F3E3B"/>
<path d="M230.424 104.786L232.713 108.227L234.869 108.165L232.944 104.013L230.424 104.786Z" fill="#7F3E3B"/>
<path opacity="0.2" d="M250.824 183.63L251.002 187.84H254.53L254.347 183.63H250.824Z" fill="black"/>
<path opacity="0.2" d="M280.109 170.757L277.354 172.96L280.963 175.466L283.718 173.262L280.109 170.757Z" fill="black"/>
<path d="M264.239 70.0001C264.028 73.4945 264.086 75.5489 262.319 77.3441C259.67 80.0417 255.355 78.4481 254.519 74.9441C253.766 71.8049 254.241 66.6209 257.659 65.2241C258.412 64.9124 259.233 64.799 260.043 64.8949C260.853 64.9907 261.625 65.2926 262.285 65.7716C262.945 66.2506 263.471 66.8908 263.813 67.6311C264.155 68.3714 264.302 69.187 264.239 70.0001Z" fill="#7F3E3B"/>
<path d="M267.062 66.7552C267.062 66.7552 268.901 67.3024 268.325 69.4C267.456 72.5872 265.411 76.2544 262.771 76.4848C259.483 76.7776 258 73.384 257.568 69.8752C255.6 68.5264 254.141 67.264 254.611 65.8624C255.331 63.7024 257.942 61.84 262.099 62.32C266.256 62.8 268.325 65.488 267.062 66.7552Z" fill="#263238"/>
<path d="M259.569 70.5953C259.505 71.4619 259.158 72.2835 258.581 72.9329C257.813 73.7777 257.006 73.2497 256.872 72.2225C256.752 71.2913 257.001 69.7313 257.942 69.2657C258.883 68.8001 259.632 69.5489 259.569 70.5953Z" fill="#7F3E3B"/>
<path d="M258.273 113.253C258.273 113.253 257.083 137.023 259.401 147.093C263.073 163.039 279.216 175.816 279.216 175.816L284.4 171.664C284.4 171.664 271.118 161.781 269.923 148.504C268.853 136.581 270.437 122.887 270.437 113.253H258.273Z" fill="#F59C42"/>
<path opacity="0.2" d="M258.273 113.253C258.273 113.253 257.083 137.023 259.401 147.093C263.073 163.039 279.216 175.816 279.216 175.816L284.4 171.664C284.4 171.664 271.118 161.781 269.923 148.504C268.853 136.581 270.437 122.887 270.437 113.253H258.273Z" fill="black"/>
<path opacity="0.2" d="M260.044 120.295C259.564 119.368 258.628 122.128 257.976 125.671C257.976 130.557 258.062 136.115 258.489 140.824C261.748 134.8 261.057 122.215 260.044 120.295Z" fill="black"/>
<path d="M276.863 174.794L278.831 176.32L284.817 171.467L283.022 169.84L276.863 174.794Z" fill="#2C6BDB"/>
<path opacity="0.4" d="M276.863 174.794L278.831 176.32L284.817 171.467L283.022 169.84L276.863 174.794Z" fill="#FAFAFA"/>
<path d="M251.582 113.253C251.582 113.253 246.274 135.765 245.899 146.517C245.482 158.579 249.686 187.024 249.686 187.024H255.662C255.662 187.024 256.397 158.359 256.666 147.371C256.954 135.395 263.981 113.253 263.981 113.253H251.582Z" fill="#F59C42"/>
<path opacity="0.2" d="M251.582 113.253C251.582 113.253 246.274 135.765 245.899 146.517C245.482 158.579 249.686 187.024 249.686 187.024H255.662C255.662 187.024 256.397 158.359 256.666 147.371C256.954 135.395 263.981 113.253 263.981 113.253H251.582Z" fill="black"/>
<path d="M248.539 184.643C248.51 184.643 248.875 187.125 248.875 187.125H256.142L256.339 184.912L248.539 184.643Z" fill="#2C6BDB"/>
<path opacity="0.4" d="M248.539 184.643C248.51 184.643 248.875 187.125 248.875 187.125H256.142L256.339 184.912L248.539 184.643Z" fill="#FAFAFA"/>
</g>
<defs>
<clipPath id="clip0_2031_32703">
<rect width="420" height="200" rx="8" fill="white"/>
</clipPath>
</defs>
</svg>
