<svg width="420" height="200" viewBox="0 0 420 200" fill="none" xmlns="http://www.w3.org/2000/svg">
<rect width="420" height="200" rx="8" fill="#E4E8F6"/>
<path d="M119.997 173.944L110.526 173.652L110.618 170.655C110.625 170.29 110.531 169.931 110.345 169.616C110.16 169.302 109.89 169.046 109.567 168.876C109.173 168.66 108.791 168.424 108.421 168.169C108.12 167.954 107.766 167.827 107.398 167.801C107.03 167.774 106.662 167.851 106.334 168.021L103.715 169.427L99.2344 161.073L101.857 159.671C102.18 159.491 102.446 159.226 102.628 158.905C102.809 158.584 102.898 158.219 102.886 157.851C102.878 157.401 102.894 156.952 102.934 156.504C102.968 156.143 102.903 155.779 102.744 155.453C102.586 155.126 102.34 154.85 102.035 154.654L99.486 153.074L104.48 145.024L107.022 146.607C107.329 146.796 107.682 146.896 108.041 146.896C108.401 146.896 108.754 146.796 109.061 146.607C109.26 146.485 109.471 146.367 109.682 146.237C109.893 146.108 110.108 146.015 110.322 145.915C110.65 145.764 110.93 145.525 111.129 145.223C111.328 144.922 111.44 144.571 111.451 144.21L111.543 141.228L121.011 141.524L120.918 144.484C120.903 144.843 120.989 145.2 121.166 145.513C121.343 145.826 121.605 146.083 121.921 146.256C122.352 146.491 122.77 146.75 123.171 147.033C123.466 147.238 123.813 147.357 124.171 147.375C124.53 147.394 124.887 147.313 125.202 147.14L127.822 145.738L132.309 154.095L129.682 155.486C129.359 155.665 129.091 155.929 128.909 156.251C128.727 156.572 128.637 156.938 128.65 157.307C128.661 157.756 128.647 158.206 128.61 158.653C128.575 159.015 128.641 159.379 128.8 159.706C128.959 160.032 129.206 160.308 129.512 160.503L132.05 162.076L127.059 170.126L124.54 168.587C124.227 168.396 123.867 168.295 123.5 168.295C123.134 168.295 122.774 168.396 122.461 168.587C122.268 168.705 122.091 168.816 121.873 168.924C121.654 169.031 121.462 169.134 121.258 169.234C120.926 169.385 120.641 169.624 120.437 169.927C120.232 170.229 120.116 170.583 120.1 170.947L119.997 173.944ZM110.907 173.293L119.638 173.563L119.719 170.955C119.737 170.522 119.874 170.102 120.116 169.742C120.357 169.382 120.694 169.096 121.088 168.916C121.288 168.824 121.488 168.724 121.684 168.617C121.88 168.509 122.072 168.402 122.261 168.287C122.632 168.06 123.058 167.939 123.493 167.939C123.928 167.939 124.354 168.06 124.725 168.287L126.945 169.664L131.551 162.242L129.331 160.862C128.962 160.629 128.666 160.298 128.476 159.906C128.286 159.513 128.209 159.076 128.254 158.642C128.292 158.207 128.306 157.77 128.295 157.333C128.28 156.895 128.386 156.462 128.603 156.081C128.82 155.701 129.139 155.389 129.523 155.179L131.817 153.947L127.67 146.237L125.38 147.466C125.004 147.671 124.579 147.768 124.152 147.745C123.724 147.722 123.312 147.581 122.96 147.336C122.57 147.067 122.164 146.82 121.747 146.596C121.37 146.392 121.057 146.086 120.845 145.714C120.633 145.341 120.53 144.916 120.548 144.487L120.629 141.898L111.902 141.624L111.821 144.236C111.802 144.66 111.668 145.071 111.432 145.424C111.195 145.777 110.867 146.059 110.481 146.237C110.27 146.334 110.063 146.441 109.856 146.548C109.649 146.655 109.449 146.774 109.253 146.896C108.889 147.12 108.469 147.239 108.041 147.239C107.614 147.239 107.194 147.12 106.83 146.896L104.61 145.516L99.9965 152.945L102.216 154.328C102.584 154.562 102.88 154.893 103.069 155.285C103.259 155.678 103.335 156.115 103.289 156.548C103.252 156.983 103.237 157.418 103.245 157.854C103.26 158.291 103.154 158.724 102.938 159.104C102.721 159.485 102.404 159.797 102.02 160.007L99.7523 161.225L103.881 168.927L106.175 167.695C106.562 167.492 106.998 167.4 107.435 167.43C107.871 167.46 108.291 167.611 108.646 167.866C109.004 168.113 109.374 168.342 109.756 168.55C110.139 168.753 110.458 169.059 110.677 169.432C110.897 169.806 111.008 170.233 110.999 170.666L110.907 173.293ZM115.776 165.231C115.023 165.231 114.276 165.12 113.556 164.902C111.903 164.405 110.467 163.363 109.482 161.946C108.497 160.529 108.02 158.82 108.13 157.097C108.24 155.375 108.929 153.74 110.086 152.459C111.243 151.179 112.799 150.327 114.501 150.043C116.204 149.76 117.952 150.06 119.462 150.897C120.972 151.733 122.154 153.056 122.816 154.65C123.479 156.243 123.582 158.014 123.11 159.674C122.637 161.334 121.617 162.786 120.215 163.792C118.92 164.72 117.369 165.223 115.776 165.231ZM115.776 150.311C114.63 150.312 113.501 150.584 112.48 151.105C111.459 151.625 110.576 152.379 109.902 153.306C109.228 154.233 108.783 155.305 108.602 156.437C108.421 157.568 108.51 158.726 108.862 159.817C109.213 160.907 109.818 161.899 110.625 162.712C111.433 163.524 112.421 164.135 113.51 164.493C114.598 164.851 115.755 164.947 116.888 164.773C118.02 164.6 119.096 164.161 120.026 163.493C121.278 162.593 122.211 161.319 122.692 159.855C123.173 158.391 123.176 156.812 122.702 155.346C122.228 153.88 121.301 152.602 120.054 151.696C118.808 150.79 117.305 150.304 115.764 150.307L115.776 150.311Z" fill="#EBEBEB"/>
<path d="M91.1136 84.3866C91.2724 84.4804 91.4019 84.6167 91.4875 84.7801C91.5732 84.9435 91.6115 85.1275 91.5982 85.3115C91.5982 85.4151 91.5982 85.5187 91.5982 85.6223C91.5982 85.7259 91.5982 85.8295 91.5982 85.9331C91.6108 86.1165 91.5721 86.2997 91.4865 86.4624C91.401 86.6251 91.2718 86.7607 91.1136 86.8543L90.0037 87.498L92.094 91.1126L93.2039 90.4688C93.3647 90.3775 93.5478 90.3325 93.7326 90.3391C93.9175 90.3456 94.0969 90.4033 94.2509 90.5058C94.4249 90.6207 94.6052 90.7257 94.791 90.8203C94.9552 90.9025 95.0934 91.0287 95.1901 91.1849C95.2867 91.341 95.3382 91.5209 95.3386 91.7045V92.9883H99.5377V91.7045C99.5381 91.5209 99.5896 91.341 99.6862 91.1849C99.7829 91.0287 99.9211 90.9025 100.085 90.8203C100.271 90.7257 100.451 90.6207 100.625 90.5058C100.779 90.4033 100.959 90.3456 101.144 90.3391C101.329 90.3325 101.512 90.3775 101.672 90.4688L102.782 91.1126L104.876 87.4832L103.766 86.8358C103.61 86.7442 103.482 86.6116 103.396 86.4525C103.31 86.2934 103.269 86.1138 103.278 85.9331C103.278 85.8295 103.278 85.7296 103.278 85.626C103.278 85.5224 103.278 85.4188 103.278 85.3152C103.265 85.1312 103.303 84.9472 103.389 84.7838C103.474 84.6204 103.604 84.4841 103.763 84.3903L104.873 83.7503L102.779 80.1172L101.669 80.761C101.508 80.8523 101.325 80.8973 101.14 80.8907C100.955 80.8842 100.776 80.8265 100.622 80.724C100.447 80.6111 100.267 80.5074 100.082 80.4132C99.9164 80.3309 99.7773 80.2042 99.68 80.0474C99.5826 79.8906 99.5308 79.7098 99.5303 79.5253V78.2378H95.3423V79.5216C95.3418 79.7061 95.29 79.8869 95.1926 80.0437C95.0953 80.2005 94.9562 80.3272 94.791 80.4095C94.6057 80.5037 94.4254 80.6074 94.2509 80.7203C94.0969 80.8228 93.9175 80.8805 93.7326 80.887C93.5478 80.8936 93.3647 80.8486 93.2039 80.7573L92.094 80.1135L90 83.7466L91.1136 84.3866ZM97.44 82.1853C98.1189 82.1853 98.7825 82.3866 99.347 82.7637C99.9116 83.1408 100.352 83.6768 100.612 84.3039C100.872 84.931 100.94 85.6211 100.808 86.287C100.675 86.9529 100.349 87.5647 99.869 88.045C99.3892 88.5253 98.7778 88.8526 98.1121 88.9855C97.4463 89.1183 96.7561 89.0509 96.1287 88.7916C95.5013 88.5323 94.9648 88.0928 94.5871 87.5287C94.2094 86.9646 94.0075 86.3012 94.0067 85.6223C94.0067 84.7114 94.3683 83.8377 95.0121 83.1933C95.6558 82.5488 96.5291 82.1863 97.44 82.1853Z" fill="#EBEBEB"/>
<path d="M316.237 48.8996C316.396 48.9938 316.525 49.1301 316.611 49.2933C316.698 49.4565 316.737 49.6403 316.725 49.8245C316.725 49.9281 316.725 50.0279 316.725 50.1315C316.725 50.2351 316.725 50.3424 316.725 50.4423C316.737 50.626 316.698 50.8094 316.612 50.972C316.525 51.1346 316.396 51.2701 316.237 51.3635L315.127 52.0073L317.221 55.6366L318.331 54.9966C318.492 54.9052 318.675 54.8603 318.86 54.8668C319.045 54.8733 319.224 54.9311 319.378 55.0336C319.552 55.1472 319.733 55.251 319.918 55.3443C320.082 55.4275 320.221 55.5545 320.317 55.7111C320.414 55.8678 320.465 56.0482 320.466 56.2323V57.5123H324.661V56.2323C324.662 56.0482 324.713 55.8678 324.81 55.7111C324.907 55.5545 325.045 55.4275 325.209 55.3443C325.395 55.251 325.575 55.1472 325.749 55.0336C325.903 54.9311 326.082 54.8733 326.267 54.8668C326.452 54.8603 326.635 54.9052 326.796 54.9966L327.906 55.6366L330 52.0073L328.89 51.3635C328.732 51.27 328.603 51.1343 328.517 50.9716C328.431 50.809 328.393 50.6257 328.405 50.4423C328.405 50.3387 328.405 50.2351 328.405 50.1315C328.405 50.0279 328.405 49.9281 328.405 49.8245C328.392 49.6405 328.43 49.4564 328.516 49.293C328.602 49.1296 328.731 48.9934 328.89 48.8996L330 48.2558L327.906 44.6265L326.796 45.2702C326.635 45.3616 326.452 45.4065 326.267 45.4C326.082 45.3934 325.903 45.3357 325.749 45.2332C325.574 45.1191 325.394 45.0142 325.209 44.9187C325.044 44.8374 324.904 44.7115 324.807 44.5552C324.71 44.399 324.658 44.2186 324.658 44.0345V42.7507H320.466V44.0345C320.465 44.2186 320.414 44.399 320.316 44.5552C320.219 44.7115 320.08 44.8374 319.915 44.9187C319.729 45.0142 319.549 45.1191 319.374 45.2332C319.22 45.3357 319.041 45.3934 318.856 45.4C318.671 45.4065 318.488 45.3616 318.327 45.2702L317.218 44.6265L315.124 48.2558L316.237 48.8996ZM322.564 46.6798C323.243 46.6798 323.906 46.8811 324.471 47.2584C325.036 47.6356 325.476 48.1718 325.735 48.7992C325.995 49.4265 326.063 50.1168 325.931 50.7828C325.798 51.4488 325.471 52.0606 324.991 52.5407C324.511 53.0209 323.899 53.3479 323.233 53.4803C322.567 53.6128 321.877 53.5448 321.25 53.285C320.622 53.0251 320.086 52.5851 319.709 52.0205C319.332 51.4559 319.13 50.7921 319.13 50.113C319.141 49.2092 319.507 48.346 320.15 47.7103C320.792 47.0746 321.66 46.7177 322.564 46.7168V46.6798Z" fill="#EBEBEB"/>
<path d="M239.717 175.916C239.911 176.105 240.043 176.347 240.098 176.612C240.153 176.877 240.128 177.152 240.026 177.403C239.924 177.653 239.75 177.867 239.525 178.018C239.301 178.169 239.037 178.25 238.766 178.25C238.401 178.258 238.046 178.126 237.775 177.88L231.708 171.724C231.641 171.724 231.619 171.661 231.597 171.595C231.577 171.579 231.556 171.565 231.534 171.554C231.502 171.5 231.479 171.441 231.467 171.38C231.451 171.372 231.436 171.36 231.426 171.345C231.415 171.33 231.407 171.313 231.404 171.295C231.382 171.251 231.382 171.184 231.36 171.166C231.338 171.147 231.319 171.077 231.319 171.055V170.907C231.319 170.862 231.297 170.84 231.297 170.777C231.297 170.714 231.319 170.688 231.319 170.666V170.518C231.319 170.474 231.36 170.452 231.36 170.429C231.36 170.407 231.382 170.322 231.404 170.259C231.426 170.196 231.426 170.237 231.426 170.215C231.456 170.146 231.492 170.081 231.534 170.019C231.534 170.013 231.535 170.007 231.537 170.002C231.539 169.997 231.543 169.992 231.547 169.989C231.551 169.985 231.556 169.982 231.561 169.98C231.567 169.978 231.572 169.978 231.578 169.978C231.607 169.917 231.651 169.864 231.708 169.826L237.775 163.674C238.037 163.425 238.385 163.286 238.746 163.286C239.108 163.286 239.455 163.425 239.717 163.674C239.846 163.801 239.948 163.952 240.017 164.119C240.087 164.285 240.123 164.464 240.123 164.645C240.123 164.826 240.087 165.005 240.017 165.171C239.948 165.338 239.846 165.489 239.717 165.616L234.601 170.777L239.717 175.916Z" fill="#EBEBEB"/>
<path d="M245.223 176.608L250.513 164.029C250.575 163.884 250.665 163.753 250.778 163.643C250.891 163.533 251.025 163.447 251.171 163.388C251.318 163.33 251.474 163.302 251.632 163.304C251.789 163.307 251.945 163.341 252.089 163.404C252.372 163.527 252.594 163.758 252.707 164.045C252.82 164.332 252.815 164.652 252.692 164.935L247.402 177.544C247.308 177.759 247.152 177.942 246.955 178.069C246.757 178.196 246.527 178.261 246.292 178.258C246.143 178.261 245.995 178.23 245.859 178.169C245.712 178.111 245.579 178.024 245.467 177.914C245.355 177.803 245.266 177.671 245.207 177.525C245.147 177.379 245.118 177.222 245.121 177.065C245.124 176.907 245.158 176.752 245.223 176.608Z" fill="#EBEBEB"/>
<path d="M263.144 171.536C263.144 171.541 263.141 171.547 263.137 171.551C263.133 171.555 263.127 171.558 263.121 171.558C263.076 171.612 263.025 171.662 262.97 171.706L256.902 177.862C256.64 178.111 256.293 178.25 255.931 178.25C255.57 178.25 255.222 178.111 254.96 177.862C254.832 177.734 254.73 177.583 254.661 177.416C254.591 177.249 254.555 177.07 254.555 176.889C254.555 176.708 254.591 176.529 254.661 176.362C254.73 176.195 254.832 176.043 254.96 175.916L260.077 170.759L254.96 165.598C254.831 165.471 254.729 165.319 254.66 165.153C254.59 164.986 254.554 164.807 254.554 164.626C254.554 164.446 254.59 164.267 254.66 164.1C254.729 163.933 254.831 163.782 254.96 163.655C255.222 163.406 255.57 163.267 255.931 163.267C256.293 163.267 256.64 163.406 256.902 163.655L262.97 169.808C263.026 169.853 263.077 169.903 263.121 169.959C263.144 169.959 263.144 170 263.144 170C263.184 170.089 263.229 170.13 263.251 170.196C263.273 170.263 263.273 170.218 263.273 170.241C263.289 170.306 263.31 170.371 263.336 170.433C263.336 170.455 263.358 170.455 263.358 170.5V170.648C263.358 170.67 263.38 170.736 263.38 170.759C263.38 170.781 263.358 170.844 263.358 170.866V171.025C263.358 171.047 263.336 171.047 263.336 171.069C263.295 171.154 263.295 171.221 263.273 171.265C263.251 171.31 263.251 171.288 263.251 171.328C263.251 171.369 263.184 171.447 263.144 171.536Z" fill="#EBEBEB"/>
<path d="M94.8539 42.1698C94.8539 41.663 94.9205 40.32 94.9205 39.728C94.9205 37.2493 94.04 36.1283 91.7314 36.058C90.6437 35.9914 90 35.3477 90 34.4301C90 33.5126 90.6437 32.8689 91.7314 32.7986C94.04 32.6987 94.9205 31.611 94.9205 29.099C94.9205 28.5218 94.8539 27.164 94.8539 26.6535C94.8539 23.3608 96.245 21.2557 101.513 20.1014C102.564 19.8646 103.363 20.5084 103.363 21.4925C103.373 21.7957 103.286 22.0942 103.115 22.3449C102.944 22.5956 102.698 22.7855 102.412 22.8872C99.1344 23.9046 98.6424 24.959 98.6424 27.2676C98.6424 27.9447 98.709 29.0657 98.709 29.7797C98.709 32.4249 97.4215 33.7161 95.1795 34.4301C97.4548 35.1701 98.709 36.4317 98.709 39.0806C98.709 39.7946 98.6424 40.9304 98.6424 41.5927C98.6424 43.9013 99.1196 44.9557 102.412 45.9731C102.698 46.0741 102.944 46.2634 103.115 46.5134C103.286 46.7635 103.373 47.0614 103.363 47.3641C103.363 48.3519 102.546 48.9957 101.513 48.7589C96.245 47.6046 94.8539 45.4995 94.8539 42.1698Z" fill="#EBEBEB"/>
<path d="M114.751 26.6534C114.751 27.164 114.684 28.5033 114.684 29.0989C114.684 31.611 115.598 32.6987 117.91 32.7986C118.961 32.8689 119.605 33.5126 119.605 34.4301C119.605 35.3476 118.961 35.9914 117.91 36.058C115.598 36.1282 114.684 37.2492 114.684 39.728C114.684 40.3052 114.751 41.6629 114.751 42.1698C114.751 45.4995 113.36 47.6046 108.091 48.7589C107.041 48.9956 106.242 48.3519 106.242 47.3641C106.231 47.0586 106.321 46.7581 106.496 46.5079C106.672 46.2576 106.924 46.0712 107.215 45.9767C110.474 44.9593 110.947 43.9049 110.947 41.5963C110.947 40.9193 110.881 39.7983 110.881 39.0843C110.881 36.4353 112.172 35.1478 114.41 34.4338C112.135 33.6939 110.881 32.4286 110.881 29.7833C110.881 29.0693 110.947 27.9335 110.947 27.2713C110.947 24.9627 110.474 23.9083 107.215 22.8909C106.921 22.798 106.665 22.6113 106.487 22.3594C106.31 22.1075 106.219 21.8042 106.23 21.4961C106.23 20.512 107.044 19.8683 108.08 20.1051C113.36 21.2557 114.751 23.3608 114.751 26.6534Z" fill="#EBEBEB"/>
<path d="M97.1069 181.558L125.328 181.525L153.552 181.51L210.002 181.488L266.451 181.51L294.676 181.525L322.897 181.558L294.676 181.595L266.451 181.61L210.002 181.632L153.552 181.61L125.328 181.595L97.1069 181.558Z" fill="#263238"/>
<path d="M312.338 36.021H106.871V160.289H312.338V36.021Z" fill="#EBEBEB"/>
<path d="M312.338 36.021H106.871V56.2692H312.338V36.021Z" fill="#455A64"/>
<path d="M119.619 49.177H115.398V49.8836H119.619V49.177Z" fill="white"/>
<path d="M119.619 52.3364H115.398V53.0431H119.619V52.3364Z" fill="white"/>
<path d="M119.619 50.7751H115.398V51.4818H119.619V50.7751Z" fill="white"/>
<path opacity="0.1" d="M303.81 49.114H264.202V53.1022H303.81V49.114Z" fill="black"/>
<path d="M303.81 49.114H299.822V53.1022H303.81V49.114Z" fill="white"/>
<path d="M303.082 52.2293L302.712 52.5068L302.031 51.6041L301.779 51.2748C301.832 51.2565 301.881 51.2289 301.924 51.1934C302.006 51.1288 302.07 51.0449 302.112 50.9492L302.379 51.3192L303.082 52.2293Z" fill="#F59C42"/>
<path d="M302.356 50.1057C302.241 49.9502 302.084 49.831 301.903 49.7625C301.723 49.6939 301.526 49.6788 301.337 49.7191C301.148 49.7593 300.974 49.8531 300.837 49.9893C300.7 50.1255 300.605 50.2983 300.564 50.4871C300.522 50.6759 300.536 50.8726 300.603 51.0538C300.67 51.235 300.788 51.393 300.943 51.5088C301.098 51.6247 301.283 51.6935 301.475 51.7071C301.668 51.7207 301.861 51.6785 302.03 51.5856C302.078 51.5595 302.124 51.5298 302.167 51.4968C302.248 51.4357 302.319 51.3635 302.378 51.2822C302.498 51.1084 302.56 50.9014 302.556 50.6904C302.552 50.4794 302.482 50.2749 302.356 50.1057ZM301.923 51.1934C301.88 51.2289 301.831 51.2565 301.779 51.2748C301.644 51.3253 301.496 51.3262 301.361 51.2773C301.226 51.2284 301.113 51.133 301.042 51.0081C300.971 50.8832 300.947 50.7371 300.975 50.5961C301.002 50.4551 301.078 50.3284 301.191 50.2389C301.318 50.1431 301.477 50.101 301.635 50.1218C301.793 50.1425 301.936 50.2244 302.034 50.3499C302.099 50.4339 302.14 50.5337 302.154 50.639C302.168 50.7443 302.153 50.8514 302.112 50.9492C302.07 51.0449 302.005 51.1288 301.923 51.1934Z" fill="#F59C42"/>
<path d="M265.253 49.8984H265.038V52.318H265.253V49.8984Z" fill="white"/>
<path d="M154.644 53.228H135.295V48.9919H154.644V53.228ZM135.665 52.8581H154.274V49.3619H135.665V52.8581Z" fill="white"/>
<path d="M177.789 53.228H158.443V48.9919H177.789V53.228ZM158.813 52.8581H177.419V49.3619H158.813V52.8581Z" fill="white"/>
<path opacity="0.1" d="M200.753 49.177H181.773V53.0431H200.753V49.177Z" fill="black"/>
<path d="M224.083 53.228H204.737V48.9919H224.083V53.228ZM205.107 52.8581H223.713V49.3619H205.107V52.8581Z" fill="white"/>
<path d="M247.232 53.228H227.882V48.9919H247.232V53.228ZM228.252 52.8581H246.862V49.3619H228.252V52.8581Z" fill="white"/>
<path d="M312.338 36.021H106.871V39.236H312.338V36.021Z" fill="#263238"/>
<path d="M109.427 37.6304C109.427 37.7886 109.38 37.9433 109.292 38.0748C109.204 38.2063 109.079 38.3087 108.933 38.3691C108.786 38.4294 108.626 38.4451 108.47 38.4139C108.315 38.3828 108.173 38.3063 108.061 38.1942C107.95 38.082 107.874 37.9393 107.844 37.7841C107.813 37.6288 107.829 37.468 107.891 37.322C107.952 37.1761 108.055 37.0515 108.186 36.9642C108.318 36.8768 108.473 36.8306 108.631 36.8313C108.736 36.8313 108.84 36.852 108.937 36.8922C109.033 36.9324 109.121 36.9913 109.195 37.0656C109.269 37.1398 109.328 37.228 109.367 37.3249C109.407 37.4218 109.427 37.5257 109.427 37.6304Z" fill="#C7C7C7"/>
<path d="M112.701 37.6304C112.701 37.7885 112.654 37.943 112.567 38.0744C112.479 38.2058 112.354 38.3082 112.208 38.3687C112.062 38.4292 111.901 38.445 111.746 38.4142C111.591 38.3834 111.449 38.3073 111.337 38.1955C111.225 38.0837 111.149 37.9413 111.118 37.7863C111.088 37.6313 111.103 37.4706 111.164 37.3246C111.224 37.1786 111.327 37.0538 111.458 36.966C111.59 36.8782 111.744 36.8313 111.902 36.8313C112.114 36.8313 112.317 36.9155 112.467 37.0654C112.617 37.2152 112.701 37.4185 112.701 37.6304Z" fill="white"/>
<path d="M115.942 37.6304C115.942 37.7885 115.895 37.943 115.807 38.0744C115.72 38.2058 115.595 38.3082 115.449 38.3687C115.303 38.4292 115.142 38.445 114.987 38.4142C114.832 38.3834 114.69 38.3073 114.578 38.1955C114.466 38.0837 114.39 37.9413 114.359 37.7863C114.328 37.6313 114.344 37.4706 114.405 37.3246C114.465 37.1786 114.567 37.0538 114.699 36.966C114.83 36.8782 114.985 36.8313 115.143 36.8313C115.355 36.8313 115.558 36.9155 115.708 37.0654C115.858 37.2152 115.942 37.4185 115.942 37.6304Z" fill="#F59C42"/>
<path d="M312.338 56.2693H308.809V160.292H312.338V56.2693Z" fill="#DBDBDB"/>
<path d="M310.569 92.3298C310.346 92.3451 310.125 92.2719 309.954 92.1258C309.784 91.9798 309.678 91.7727 309.659 91.5491V57.6604C309.677 57.4362 309.783 57.2281 309.953 57.0813C310.124 56.9344 310.345 56.8607 310.569 56.876C310.794 56.8597 311.017 56.933 311.188 57.0799C311.359 57.2268 311.465 57.4355 311.483 57.6604V91.5491C311.464 91.7734 311.358 91.9811 311.187 92.1272C311.016 92.2734 310.794 92.3461 310.569 92.3298Z" fill="#A6A6A6"/>
<path d="M303.026 113.436H169.913V151.791H303.026V113.436Z" fill="white"/>
<path d="M240.091 145.368H265.552V119.907H240.091V145.368Z" fill="#455A64"/>
<path opacity="0.1" d="M259.914 127.243C259.915 127.667 259.79 128.081 259.555 128.433C259.32 128.785 258.987 129.06 258.596 129.222C258.205 129.384 257.774 129.427 257.359 129.345C256.944 129.262 256.563 129.058 256.264 128.759C255.964 128.46 255.761 128.078 255.678 127.663C255.596 127.248 255.638 126.818 255.801 126.427C255.963 126.036 256.238 125.702 256.59 125.467C256.942 125.233 257.356 125.108 257.779 125.109C258.345 125.109 258.888 125.334 259.289 125.734C259.689 126.134 259.914 126.677 259.914 127.243Z" fill="black"/>
<path opacity="0.1" d="M243.081 140.17H262.563L257.798 132.563L255.227 135.231L249.966 128.527L243.081 140.17Z" fill="black"/>
<path d="M270.891 145.368H296.352V119.907H270.891V145.368Z" fill="#F59C42"/>
<path opacity="0.1" d="M290.717 127.243C290.718 127.667 290.593 128.081 290.358 128.433C290.124 128.785 289.79 129.06 289.399 129.222C289.008 129.384 288.578 129.427 288.163 129.345C287.747 129.262 287.366 129.058 287.067 128.759C286.767 128.46 286.564 128.078 286.481 127.663C286.399 127.248 286.442 126.818 286.604 126.427C286.766 126.036 287.041 125.702 287.393 125.467C287.745 125.233 288.159 125.108 288.583 125.109C289.149 125.109 289.692 125.334 290.092 125.734C290.492 126.134 290.717 126.677 290.717 127.243Z" fill="black"/>
<path opacity="0.1" d="M273.884 140.17H293.366L288.597 132.563L286.03 135.231L280.769 128.527L273.884 140.17Z" fill="black"/>
<path d="M230.461 130.906H175.703V132.808H230.461V130.906Z" fill="#C7C7C7"/>
<path d="M230.461 135.094H175.703V136.996H230.461V135.094Z" fill="#C7C7C7"/>
<path d="M230.461 139.278H175.703V141.18H230.461V139.278Z" fill="#C7C7C7"/>
<path d="M230.461 143.466H175.703V145.368H230.461V143.466Z" fill="#C7C7C7"/>
<path d="M230.461 119.907H175.703V125.105H230.461V119.907Z" fill="#F59C42"/>
<path d="M303.026 62.9324H169.913V108.312H303.026V62.9324Z" fill="white"/>
<path d="M296.356 68.1785H240.091V70.0912H296.356V68.1785Z" fill="#C7C7C7"/>
<path d="M296.356 72.3848H240.091V74.2975H296.356V72.3848Z" fill="#C7C7C7"/>
<path d="M296.356 76.595H240.091V78.5077H296.356V76.595Z" fill="#C7C7C7"/>
<path d="M296.356 80.8052H240.091V82.7179H296.356V80.8052Z" fill="#C7C7C7"/>
<path d="M296.356 86.4028H240.091V88.3156H296.356V86.4028Z" fill="#C7C7C7"/>
<path d="M296.356 90.613H240.091V92.5258H296.356V90.613Z" fill="#C7C7C7"/>
<path d="M175.699 103.062H230.457V68.1748H175.699V103.062Z" fill="#F59C42"/>
<path opacity="0.1" d="M210.002 78.4893C210.004 79.2875 209.77 80.0684 209.328 80.7333C208.886 81.3982 208.258 81.9172 207.521 82.2249C206.785 82.5325 205.974 82.6149 205.19 82.4616C204.407 82.3083 203.687 81.9262 203.121 81.3637C202.554 80.8011 202.168 80.0833 202.009 79.301C201.851 78.5187 201.928 77.7071 202.231 76.9686C202.534 76.2302 203.049 75.5981 203.711 75.1523C204.373 74.7066 205.153 74.4671 205.951 74.4641C207.022 74.4612 208.05 74.8835 208.809 75.6383C209.569 76.393 209.998 77.4185 210.002 78.4893Z" fill="black"/>
<path opacity="0.1" d="M179.624 98.9003H226.539L212.843 86.3548L205.703 92.0819L194.412 77.6865L179.624 98.9003Z" fill="black"/>
<path d="M296.356 97.8643H240.091V103.062H296.356V97.8643Z" fill="#455A64"/>
<path d="M164.659 62.9324H116.201V151.794H164.659V62.9324Z" fill="white"/>
<path d="M131.177 68.1785H122.15V77.2056H131.177V68.1785Z" fill="#F59C42"/>
<path d="M158.706 68.1785H136.501V70.0801H158.706V68.1785Z" fill="#C7C7C7"/>
<path d="M158.706 72.3628H136.501V74.2644H158.706V72.3628Z" fill="#C7C7C7"/>
<path d="M131.177 83.8057H122.15V92.8328H131.177V83.8057Z" fill="#455A64"/>
<path d="M158.706 83.8057H136.501V85.7073H158.706V83.8057Z" fill="#C7C7C7"/>
<path d="M158.706 87.99H136.501V89.8916H158.706V87.99Z" fill="#C7C7C7"/>
<path d="M131.177 99.4331H122.15V108.46H131.177V99.4331Z" fill="#F59C42"/>
<path d="M158.706 99.4331H136.501V101.335H158.706V99.4331Z" fill="#C7C7C7"/>
<path d="M158.706 103.621H136.501V105.523H158.706V103.621Z" fill="#C7C7C7"/>
<path d="M131.177 115.06H122.15V124.087H131.177V115.06Z" fill="#37474F"/>
<path d="M158.706 115.06H136.501V116.962H158.706V115.06Z" fill="#C7C7C7"/>
<path d="M158.706 119.248H136.501V121.15H158.706V119.248Z" fill="#C7C7C7"/>
<path d="M158.706 130.906H122.15V132.808H158.706V130.906Z" fill="#C7C7C7"/>
<path d="M158.706 135.094H122.15V136.996H158.706V135.094Z" fill="#C7C7C7"/>
<path d="M158.706 139.278H122.15V141.18H158.706V139.278Z" fill="#C7C7C7"/>
<path d="M158.706 143.466H122.15V145.368H158.706V143.466Z" fill="#C7C7C7"/>
<path d="M232.499 57.0129L234.915 54.5934V50.1316H233.805V54.1161L231.386 56.5357C229.234 55.8353 226.915 55.8353 224.763 56.5357L222.336 54.1161V50.1316H221.227V54.5934L223.642 57.0129C221.297 58.1672 219.835 60.1909 219.835 62.2849H236.317C236.31 60.1909 234.849 58.1857 232.499 57.0129Z" fill="#F59C42"/>
<path d="M236.447 62.4255H219.688V62.2849C219.688 60.1872 221.108 58.1672 223.387 56.9759L221.101 54.6525V49.9946H222.496V54.0642L224.812 56.3802C226.942 55.7044 229.229 55.7044 231.36 56.3802L233.676 54.0642V49.9946H235.074V54.6525L232.751 56.9759C235.048 58.1672 236.451 60.1872 236.451 62.2849L236.447 62.4255ZM219.969 62.148H236.166C236.103 60.1502 234.686 58.2411 232.437 57.135L232.263 57.0499L234.778 54.5378V50.2721H233.935V54.19L231.415 56.7058L231.338 56.6762C229.213 55.9857 226.925 55.9857 224.8 56.6762L224.719 56.7058L222.211 54.19V50.2721H221.36V54.5378L223.872 57.0499L223.698 57.135C221.449 58.2411 220.032 60.1502 219.969 62.148Z" fill="#263238"/>
<path d="M220.294 69.2846H216.188V70.3944H220.553C220.805 71.3586 221.166 72.2907 221.63 73.1729H219.473L217.183 75.7108L218.012 76.4508L219.969 74.2791H222.336C222.978 75.1927 223.838 75.9319 224.837 76.4299C225.836 76.9279 226.944 77.1691 228.06 77.1315C229.179 77.1671 230.29 76.9253 231.293 76.4276C232.296 75.9299 233.16 75.1918 233.809 74.2791H236.166L238.123 76.4471L238.955 75.7071L236.665 73.1692H234.493C234.969 72.2887 235.341 71.3564 235.603 70.3907H239.962V69.2809H235.848C236.058 68.2627 236.19 67.2299 236.243 66.1916H238.349L240.587 62.3514L239.621 61.7891L237.708 65.0743H236.306C236.306 64.1161 236.273 63.5242 236.273 63.5242H219.865C219.865 63.5242 219.821 64.1161 219.865 65.0743H218.444L216.532 61.7891L215.551 62.3514L217.771 66.1916H219.88C219.941 67.2315 220.08 68.2653 220.294 69.2846ZM227.59 64.9486H228.548V74.9857H227.59V64.9486Z" fill="#F59C42"/>
<path d="M228.06 77.2981C226.935 77.3383 225.819 77.1007 224.808 76.6064C223.798 76.1121 222.925 75.3763 222.266 74.4642H220.046L218.034 76.684L217.001 75.748L219.425 73.062H221.415C221.013 72.2605 220.693 71.42 220.461 70.5537H216.047V69.1552H220.117C219.93 68.2261 219.806 67.2855 219.747 66.3398H217.69L215.34 62.3108L216.546 61.6079L218.489 64.9376H219.691C219.669 64.0682 219.691 63.5391 219.71 63.5169V63.3874H236.377V63.5169C236.377 63.5169 236.417 64.0682 236.406 64.9376H237.59L239.532 61.6079L240.738 62.3108L238.43 66.325H236.373C236.313 67.2707 236.19 68.2113 236.003 69.1404H240.072V70.5389H235.7C235.458 71.4049 235.132 72.2451 234.726 73.0472H236.724L239.151 75.7332L238.119 76.684L236.114 74.4642H233.894C233.227 75.3772 232.346 76.1128 231.329 76.6068C230.312 77.1008 229.19 77.3382 228.06 77.2981ZM219.921 74.1682H222.421L222.462 74.2274C223.092 75.1223 223.935 75.8462 224.915 76.3338C225.895 76.8215 226.981 77.0575 228.075 77.0207C229.166 77.0503 230.248 76.8111 231.226 76.324C232.203 75.8369 233.046 75.1169 233.68 74.2274L233.724 74.1682H236.214L238.115 76.2807L238.744 75.7221L236.587 73.3321H234.246L234.357 73.1249C234.819 72.2588 235.182 71.3428 235.437 70.3946V70.2725H239.795V69.429H235.677L235.714 69.2625C235.921 68.2514 236.051 67.2261 236.103 66.1955V66.0623H238.263L240.391 62.4107L239.651 61.9853L237.786 65.2151H236.162V65.0745C236.162 64.39 236.162 63.8869 236.14 63.6649H219.991C219.991 63.8869 219.965 64.4048 219.991 65.0708V65.2151H218.344L216.461 61.9816L215.721 62.407L217.852 66.0586H220.02V66.1955C220.074 67.2264 220.207 68.2517 220.416 69.2625L220.45 69.429H216.324V70.2725H220.69V70.3946C220.941 71.339 221.297 72.2523 221.752 73.1175L221.863 73.321H219.532L217.379 75.711L218 76.2733L219.921 74.1682ZM228.7 75.1264H227.468V64.8155H228.7V75.1264ZM227.745 74.849H228.422V65.093H227.745V74.849Z" fill="#263238"/>
<path d="M112.394 93.9873L114.377 92.0005V88.3379H113.459V91.6195L111.473 93.6062C109.706 93.029 107.801 93.029 106.034 93.6062L104.051 91.6195V88.3379H103.13V92.0005L105.117 93.9873C103.189 94.9344 101.987 96.577 101.987 98.3158H115.52C115.52 96.5955 114.321 94.9344 112.394 93.9873Z" fill="#F59C42"/>
<path d="M115.661 98.4527H101.85V98.3158C101.85 96.5918 103.008 94.9306 104.884 93.9502L102.993 92.0597V88.1973H104.192V91.5639L106.075 93.4471C107.821 92.8995 109.693 92.8995 111.44 93.4471L113.323 91.5639V88.1973H114.521V92.0597L112.631 93.9502C114.507 94.9306 115.665 96.5918 115.665 98.3158L115.661 98.4527ZM102.131 98.1752H115.38C115.317 96.5585 114.163 95.0083 112.331 94.1056L112.157 94.0205L114.24 91.9376V88.471H113.596V91.6749L111.51 93.7615L111.428 93.7319C109.69 93.1697 107.818 93.1697 106.079 93.7319L105.997 93.7615L103.911 91.6749V88.471H103.271V91.9376L105.35 94.0205L105.176 94.1056C103.348 95.0083 102.194 96.5585 102.131 98.1752Z" fill="#263238"/>
<path d="M102.372 104.061H99.0125V104.979H102.594C102.8 105.771 103.098 106.537 103.482 107.261H101.698L99.8153 109.348L100.492 109.981L102.102 108.197H104.044C104.596 108.923 105.309 109.511 106.126 109.916C106.943 110.32 107.842 110.531 108.754 110.531C109.665 110.531 110.565 110.32 111.382 109.916C112.199 109.511 112.911 108.923 113.463 108.197H115.402L117.004 109.977L117.688 109.367L115.809 107.28H114.033C114.416 106.552 114.714 105.782 114.921 104.986H118.499V104.061H115.132C115.306 103.225 115.413 102.376 115.454 101.523H117.185L119.035 98.3675L118.251 97.9087L116.678 100.602H115.528C115.528 99.8177 115.502 99.3294 115.502 99.3294H102.02C102.02 99.3294 101.983 99.8177 102.02 100.602H100.84L99.2678 97.9087L98.4761 98.3675L100.326 101.523H102.046C102.09 102.376 102.199 103.225 102.372 104.061ZM108.362 100.502H109.15V108.741H108.362V100.502Z" fill="#F59C42"/>
<path d="M108.75 110.669C107.823 110.7 106.903 110.502 106.07 110.093C105.238 109.684 104.519 109.076 103.977 108.323H102.168L100.507 110.173L99.619 109.37L101.635 107.151H103.241C102.919 106.507 102.663 105.833 102.475 105.138H98.8606V103.943H102.19C102.045 103.195 101.948 102.439 101.902 101.679H100.233L98.2871 98.3491L99.3193 97.7461L100.921 100.495H101.865C101.865 99.7957 101.865 99.385 101.865 99.348V99.2223H115.594V99.348C115.594 99.3702 115.627 99.7957 115.62 100.495H116.552L118.154 97.7461L119.186 98.3491L117.24 101.679H115.561C115.515 102.439 115.42 103.195 115.276 103.943H118.606V105.138H114.998C114.806 105.833 114.546 106.507 114.222 107.151H115.835L117.847 109.37L116.959 110.166L115.302 108.316H113.496C112.955 109.063 112.24 109.668 111.413 110.078C110.586 110.488 109.672 110.691 108.75 110.669ZM102.042 108.046H104.118L104.158 108.105C104.696 108.816 105.391 109.392 106.189 109.788C106.987 110.185 107.866 110.392 108.757 110.392C109.648 110.392 110.527 110.185 111.325 109.788C112.123 109.392 112.818 108.816 113.356 108.105L113.396 108.046H115.465L117.018 109.77L117.496 109.345L115.749 107.41H113.811L113.922 107.206C114.298 106.495 114.593 105.744 114.802 104.968V104.849H114.943H118.38V104.209H114.984L115.017 104.043C115.188 103.214 115.295 102.373 115.339 101.527V101.398H115.468H117.122L118.846 98.4379L118.295 98.1161L116.748 100.732H115.376V100.591C115.376 100.051 115.376 99.6514 115.376 99.459H102.15C102.15 99.6514 102.15 100.051 102.15 100.569V100.713H100.762L99.2194 98.068L98.6645 98.3898L100.392 101.35H102.183V101.49C102.228 102.334 102.337 103.174 102.508 104.002L102.542 104.169H99.138V104.809H102.712V104.949C102.918 105.719 103.21 106.464 103.581 107.169L103.689 107.373H101.757L100.011 109.308L100.492 109.774L102.042 108.046ZM109.286 108.871H108.224V100.362H109.286V108.871ZM108.502 108.593H109.001V100.643H108.494L108.502 108.593Z" fill="#263238"/>
<path d="M316.988 71.4082L318.346 70.0541V67.5495H317.717V69.7915L316.359 71.1344C315.15 70.7448 313.85 70.7448 312.641 71.1344L311.283 69.7767V67.5347H310.658V70.0393L312.016 71.3934C310.695 72.0408 309.877 73.1766 309.877 74.3531H319.127C319.141 73.1914 318.305 72.0556 316.988 71.4082Z" fill="#F59C42"/>
<path d="M319.263 74.5086H309.737V74.3717C309.737 73.1915 310.514 72.0557 311.783 71.375L310.517 70.1097V67.4089H311.424V69.736L312.682 70.9902C313.868 70.6275 315.136 70.6275 316.322 70.9902L317.58 69.736V67.4089H318.483V70.1097L317.221 71.375C318.486 72.0557 319.263 73.1915 319.263 74.3717V74.5086ZM310.014 74.2311H318.979C318.919 73.1582 318.142 72.1334 316.925 71.534L316.748 71.449L318.202 69.995V67.6864H317.854V69.8507L316.392 71.3084L316.311 71.2825C315.131 70.9024 313.862 70.9024 312.682 71.2825L312.6 71.3084L311.143 69.8507V67.6864H310.791V69.995L312.245 71.449L312.071 71.534C310.858 72.1334 310.081 73.1545 310.018 74.2311H310.014Z" fill="#263238"/>
<path d="M310.137 78.3007H307.832V78.926H310.285C310.424 79.4682 310.626 79.9923 310.888 80.4872H309.678L308.39 81.9116L308.857 82.3334L309.966 81.1125H311.295C311.671 81.6099 312.158 82.0133 312.717 82.291C313.276 82.5687 313.891 82.7133 314.515 82.7133C315.139 82.7133 315.755 82.5687 316.313 82.291C316.872 82.0133 317.359 81.6099 317.736 81.1125H319.06L320.17 82.3334L320.636 81.9116L319.352 80.4872H318.135C318.4 79.9925 318.606 79.4685 318.749 78.926H321.195V78.3007H318.894C319.011 77.7288 319.086 77.1488 319.116 76.5656H320.3L321.554 74.4087L320.991 74.0942L319.918 75.9441H319.142C319.142 75.4076 319.142 75.0746 319.142 75.0746H309.892C309.878 75.3643 309.878 75.6544 309.892 75.9441H309.093L308.02 74.0942L307.477 74.4087L308.734 76.5656H309.918C309.949 77.1485 310.022 77.7284 310.137 78.3007ZM314.232 75.8664H314.772V81.4935H314.232V75.8664Z" fill="#F59C42"/>
<path d="M314.499 82.8587C313.862 82.8798 313.23 82.7448 312.657 82.4656C312.084 82.1864 311.589 81.7714 311.213 81.2568H310.018L308.868 82.5331L308.194 81.9264L309.615 80.354H310.662C310.46 79.9414 310.297 79.5102 310.177 79.0666H307.695V78.1639H309.97C309.877 77.6825 309.815 77.1956 309.785 76.7062H308.649L307.303 74.3569L308.087 73.9019L309.197 75.7961H309.774C309.774 75.341 309.774 75.0562 309.774 75.0562V74.9304H319.238V75.0562C319.238 75.0562 319.26 75.3447 319.256 75.7961H319.826L320.936 73.9019L321.717 74.3569L320.351 76.7025H319.219C319.188 77.1916 319.128 77.6783 319.038 78.1602H321.31V79.0666H318.831C318.707 79.5099 318.542 79.9409 318.339 80.354H319.389L320.806 81.9264L320.133 82.5294L318.986 81.2568H317.791C317.413 81.7706 316.916 82.1848 316.343 82.4639C315.769 82.743 315.136 82.8784 314.499 82.8587ZM309.892 80.9793H311.372L311.413 81.0348C311.776 81.5152 312.246 81.905 312.785 82.1733C313.324 82.4416 313.918 82.5813 314.521 82.5813C315.123 82.5813 315.717 82.4416 316.256 82.1733C316.796 81.905 317.265 81.5152 317.628 81.0348L317.673 80.9793H319.127L320.174 82.141L320.433 81.9079L319.282 80.6315H317.895L318.006 80.4243C318.256 79.9408 318.45 79.4307 318.587 78.9038V78.7854H321.032V78.4339H318.698L318.735 78.2674C318.849 77.7025 318.922 77.13 318.953 76.5545V76.425H320.189L321.336 74.4568L321.032 74.2792L319.989 76.0736H318.979V75.9441C318.979 75.6111 318.979 75.3558 318.979 75.2041H310.029C310.029 75.3447 310.029 75.6 310.029 75.9441V76.0884H309.008L307.961 74.294L307.673 74.4642L308.816 76.4324H310.063V76.5693C310.092 77.1438 310.165 77.7152 310.281 78.2785L310.314 78.445H307.98V78.7965H310.429V78.9334C310.57 79.4538 310.768 79.9573 311.017 80.4354L311.128 80.6389H309.744L308.594 81.9153L308.853 82.1484L309.892 80.9793ZM314.909 81.6378H314.095V75.7184H314.909V81.6378ZM314.373 81.3604H314.632V76.007H314.373V81.3604Z" fill="#263238"/>
<path d="M137.618 153.13L138.969 151.787V149.282H138.34V151.528L136.982 152.882C135.773 152.492 134.472 152.492 133.264 152.882L131.91 151.528V149.282H131.281V151.787L132.638 153.145C131.318 153.792 130.5 154.928 130.5 156.104H139.749C139.757 154.913 138.939 153.777 137.618 153.13Z" fill="#F59C42"/>
<path d="M139.897 156.226H130.367V156.089C130.367 154.909 131.147 153.777 132.413 153.093L131.147 151.827V149.127H132.054V151.454L133.312 152.712C134.497 152.345 135.766 152.345 136.952 152.712L138.21 151.454V149.127H139.116V151.827L137.858 153.093C139.124 153.777 139.904 154.909 139.904 156.089L139.897 156.226ZM130.648 155.949H139.616C139.553 154.876 138.776 153.851 137.559 153.252L137.385 153.167L138.839 151.713V149.404H138.469V151.568L137.011 153.026L136.93 153C135.749 152.619 134.478 152.619 133.297 153L133.215 153.026L131.758 151.568V149.404H131.406V151.713L132.86 153.167L132.686 153.252C131.488 153.851 130.711 154.876 130.648 155.949Z" fill="#263238"/>
<path d="M130.77 160.019H128.461V160.666H130.914C131.056 161.206 131.258 161.729 131.517 162.224H130.308L129.02 163.626L129.486 164.044L130.596 162.827H131.924C132.301 163.323 132.788 163.726 133.347 164.003C133.906 164.281 134.521 164.425 135.145 164.425C135.769 164.425 136.384 164.281 136.943 164.003C137.501 163.726 137.988 163.323 138.365 162.827H139.69L140.8 164.044L141.27 163.626L139.982 162.198H138.765C139.013 161.71 139.206 161.197 139.338 160.666H141.784V160.037H139.486C139.601 159.465 139.674 158.885 139.705 158.302H140.889L142.143 156.149L141.603 155.831L140.526 157.68H139.742C139.742 157.14 139.742 156.807 139.742 156.807H130.53C130.53 156.807 130.504 157.14 130.53 157.68H129.719L128.643 155.831L128.103 156.149L129.357 158.302H130.541C130.574 158.879 130.651 159.453 130.77 160.019ZM134.865 157.584H135.402V163.219H134.865V157.584Z" fill="#F59C42"/>
<path d="M135.128 164.576C134.492 164.597 133.86 164.462 133.287 164.183C132.715 163.904 132.219 163.489 131.843 162.975H130.648L129.498 164.251L128.824 163.644L130.245 162.072H131.292C131.093 161.658 130.931 161.227 130.807 160.784H128.325V159.878H130.6C130.508 159.396 130.447 158.91 130.415 158.42H129.283L127.914 156.075L128.698 155.62L129.808 157.514H130.385C130.385 157.059 130.385 156.774 130.385 156.774V156.648H139.853V156.774C139.853 156.774 139.875 157.063 139.875 157.514H140.448L141.558 155.62L142.343 156.075L140.974 158.42H139.845C139.815 158.91 139.753 159.396 139.66 159.878H141.928V160.784H139.45C139.328 161.227 139.167 161.658 138.969 162.072H140.019L141.44 163.644L140.763 164.251L139.616 162.975H138.425C138.046 163.488 137.548 163.902 136.974 164.181C136.4 164.46 135.766 164.596 135.128 164.576ZM130.526 162.697H131.984L132.024 162.756C132.388 163.236 132.859 163.625 133.398 163.893C133.937 164.161 134.532 164.3 135.134 164.3C135.736 164.3 136.33 164.161 136.87 163.893C137.409 163.625 137.879 163.236 138.243 162.756L138.284 162.701H139.738L140.785 163.862L141.048 163.629L139.894 162.353H138.506L138.617 162.15C138.873 161.669 139.074 161.162 139.216 160.636V160.514H141.662V160.163H139.339L139.372 159.996C139.486 159.431 139.559 158.859 139.59 158.283V158.154H140.818L141.965 156.186L141.662 156.008L140.619 157.802H139.612V157.662C139.612 157.329 139.612 157.074 139.612 156.922H130.659C130.659 157.062 130.659 157.318 130.659 157.662V157.806H129.638L128.61 155.997L128.306 156.175L129.453 158.143H130.696V158.28C130.727 158.854 130.8 159.425 130.914 159.989L130.948 160.155H128.61V160.507H131.059V160.666C131.2 161.185 131.398 161.688 131.647 162.164L131.758 162.368H130.374L129.216 163.626L129.475 163.859L130.526 162.697ZM135.539 163.356H134.725V157.436H135.539V163.356ZM135.003 163.078H135.262V157.725H135.003V163.078Z" fill="#263238"/>
<path d="M284.909 181.632H318.298L318.461 172.594C319.526 168.476 320.011 159.467 319.571 156.375C318.533 149.189 316.577 142.167 313.751 135.479H312.919L287.021 135.224C287.021 135.224 285.867 158.21 284.909 181.632Z" fill="#263238"/>
<path d="M288.127 181.632H288.779C288.816 179.804 288.854 177.977 288.893 176.149C288.933 174.277 288.98 172.407 289.034 170.54C289.034 170.481 289.034 170.418 289.034 170.359C289.274 161.48 289.6 152.601 289.955 143.722C289.955 143.599 289.77 143.603 289.763 143.722C288.975 156.341 288.453 168.986 288.127 181.632Z" fill="#37474F"/>
<path d="M258.097 181.632H293.296C295.564 175.683 297.313 171.162 297.798 169.911C297.824 169.845 297.846 169.786 297.861 169.741C297.909 169.623 297.931 169.56 297.931 169.56C298.671 169.153 299.533 168.716 300.377 168.302C302.278 167.366 304.076 166.556 304.076 166.556C312.434 153.555 312.956 135.479 312.956 135.479L287.058 135.223L272.896 135.075C270.151 145.331 260.01 176.46 258.097 181.632Z" fill="#263238"/>
<path d="M270.125 181.632H271.046C273.085 177.022 275.083 172.401 276.892 167.699C280.425 158.535 283.281 148.775 283.022 138.864C283.022 138.854 283.02 138.845 283.016 138.836C283.013 138.827 283.007 138.819 283 138.812C282.993 138.805 282.985 138.799 282.976 138.796C282.967 138.792 282.958 138.79 282.948 138.79C282.938 138.79 282.929 138.792 282.92 138.796C282.911 138.799 282.903 138.805 282.896 138.812C282.889 138.819 282.883 138.827 282.88 138.836C282.876 138.845 282.874 138.854 282.874 138.864C282.8 140.081 282.696 141.302 282.585 142.523C281.701 152.512 278.327 162.224 274.509 171.436C273.092 174.851 271.616 178.243 270.125 181.632Z" fill="#37474F"/>
<path d="M288.716 170.363C290.566 170.369 292.414 170.22 294.239 169.919C296.089 169.593 297.806 168.998 299.6 168.487C301.298 168.006 303.104 167.947 304.846 167.684C306.627 167.446 308.363 166.947 310 166.205C310.077 166.168 310.14 166.282 310.063 166.319C308.476 167.152 306.823 167.85 305.12 168.406C303.351 168.946 301.509 169.001 299.718 169.423C297.928 169.845 296.096 170.433 294.206 170.633C292.372 170.841 290.517 170.791 288.697 170.485C288.623 170.474 288.649 170.367 288.716 170.363Z" fill="#37474F"/>
<path d="M292.767 181.632H293.795C294.387 180 294.968 178.369 295.523 176.734C296.3 174.458 297.151 172.209 297.798 169.908C297.817 169.853 297.832 169.798 297.843 169.741L297.942 169.393C297.942 169.327 297.843 169.297 297.813 169.36C297.717 169.564 297.617 169.767 297.524 169.974C296.366 172.435 295.441 174.961 294.42 177.455C293.854 178.846 293.307 180.237 292.767 181.632Z" fill="#37474F"/>
<path d="M298.62 83.7134C308.609 89.8511 325.69 107.465 324.776 112.489C323.093 121.761 300.321 130.618 295.804 132.708C293.877 133.599 288.83 116.429 290.869 115.445C292.645 114.576 305.323 111.076 305.453 109.385C305.505 108.686 299.596 99.9474 294.82 89.6106C291.161 81.686 295.667 81.882 298.62 83.7134Z" fill="#AD6359"/>
<path d="M294.724 114.08C294.724 114.08 292.815 114.935 287.757 115.56C283.806 116.056 274.864 119.966 271.849 130.729C270.695 134.861 273.085 137.473 275.049 133.4C276.433 130.529 277.143 128.42 277.857 127.61C277.857 127.61 278.937 132.367 281.557 133.451C283.841 134.401 286.19 135.186 288.586 135.801C288.798 135.388 288.985 134.963 289.145 134.528C290.213 134.865 291.356 134.893 292.44 134.609C293.524 134.325 294.505 133.74 295.271 132.922L299.282 131.217L294.724 114.08Z" fill="#AD6359"/>
<path d="M284.502 117.054C283.074 118.579 280.103 121.864 278.604 125.382C276.94 129.3 274.79 137.295 277.694 138.494C279.825 139.374 280.913 136.393 280.913 136.393C280.913 136.393 280.721 139.885 282.818 140.259C284.731 140.599 285.434 138.242 285.434 138.242C285.434 138.242 285.682 140.381 287.587 140.355C289.877 140.322 288.982 135.845 291.287 133.81C291.79 133.351 284.502 117.054 284.502 117.054Z" fill="#AD6359"/>
<path d="M283.037 126.452C281.927 128.105 280.377 132.501 280.858 136.326C280.858 136.411 280.943 136.448 280.946 136.367C281.252 132.993 281.966 129.668 283.074 126.467C283.081 126.444 283.051 126.433 283.037 126.452Z" fill="#263238"/>
<path d="M286.955 128.246C286.145 129.77 284.735 134.376 285.368 138.235C285.368 138.324 285.456 138.357 285.46 138.276C285.591 134.892 286.105 131.533 286.992 128.265C286.988 128.239 286.955 128.228 286.955 128.246Z" fill="#263238"/>
<path d="M294.724 114.08L299.966 132.73C299.966 132.73 325.471 120.806 325.142 111.642C324.924 105.641 308.283 89.6696 300.676 84.5826C293.07 79.4956 291.057 81.4971 294.439 90.0914C297.82 98.6857 304.909 109.304 304.875 109.515C304.842 109.725 294.724 114.08 294.724 114.08Z" fill="#F59C42"/>
<path d="M296.067 113.499L303.181 133.459C303.181 133.459 325.471 120.806 325.142 111.631C324.924 105.63 308.283 89.6587 300.676 84.5716C293.07 79.4846 291.057 81.4861 294.439 90.0804C297.82 98.6747 304.909 109.293 304.875 109.504C304.842 109.714 296.067 113.499 296.067 113.499Z" fill="#F59C42"/>
<path opacity="0.1" d="M294.443 90.0766C297.828 98.6561 304.876 109.245 304.876 109.5C304.876 109.755 296.063 113.499 296.063 113.499L303.185 133.477C303.185 133.477 313.714 127.499 320.203 120.787L295.049 81.8634C292.326 81.4601 292.134 84.2534 294.443 90.0766Z" fill="black"/>
<path d="M285.818 91.1127C288.504 91.4604 293.136 86.5991 294.579 83.1658C294.675 82.929 294.091 80.6168 293.514 77.7754C293.173 76.0477 292.829 74.1202 292.648 72.3333L281.738 76.2031C281.738 76.2031 283.218 79.8287 283.525 82.9401C283.549 83.1862 283.549 83.434 283.525 83.6801C283.523 83.7207 283.523 83.7615 283.525 83.8022C283.44 85.2154 283.221 90.7649 285.818 91.1127Z" fill="#AD6359"/>
<path d="M283.525 83.6799C283.525 83.7095 283.525 83.7576 283.525 83.8057C283.912 83.8178 284.299 83.798 284.683 83.7465C291.246 82.8031 292.204 75.2373 292.33 72.4441L281.734 76.2029C281.734 76.2029 283.214 79.8323 283.529 82.94C283.548 83.1863 283.547 83.4338 283.525 83.6799Z" fill="#263238"/>
<path d="M294.569 59.2623C295.845 63.2357 293.903 74.8008 291.102 77.3906C287.032 81.1753 280.318 81.6267 277.084 76.7283C273.947 71.9817 276.744 56.9722 279.877 54.5933C284.494 51.0898 292.689 53.3983 294.569 59.2623Z" fill="#AD6359"/>
<path d="M283.322 67.1536C283.322 67.124 283.377 67.198 283.373 67.2313C283.255 68.0119 283.255 68.9146 283.921 69.2846C283.943 69.2846 283.921 69.3364 283.921 69.329C283.059 69.0885 283.081 67.875 283.322 67.1536Z" fill="#263238"/>
<path d="M284.121 66.4211C285.39 66.4803 285.182 69.0108 284.002 68.9627C282.822 68.9147 283.051 66.373 284.121 66.4211Z" fill="#263238"/>
<path d="M278.93 66.6171C278.93 66.5875 278.863 66.6504 278.863 66.68C278.823 67.468 278.645 68.367 277.912 68.5668C277.887 68.5668 277.887 68.6149 277.912 68.6112C278.793 68.5631 279.015 67.3681 278.93 66.6171Z" fill="#263238"/>
<path d="M278.294 65.7366C277.036 65.5368 276.729 68.0637 277.894 68.2523C279.059 68.441 279.348 65.9068 278.294 65.7366Z" fill="#263238"/>
<path d="M285.393 66.151C285.044 66.1441 284.696 66.1169 284.35 66.0696C283.979 66.0934 283.611 65.9932 283.303 65.7847C283.219 65.7005 283.166 65.5909 283.151 65.473C283.136 65.3552 283.161 65.2358 283.222 65.1336C283.371 64.948 283.566 64.8055 283.789 64.7209C284.011 64.6364 284.252 64.6128 284.487 64.6526C284.974 64.6598 285.441 64.8484 285.797 65.1817C285.873 65.2622 285.925 65.3633 285.946 65.4727C285.966 65.5822 285.954 65.6952 285.911 65.7979C285.868 65.9007 285.797 65.9888 285.705 66.0515C285.613 66.1142 285.505 66.1488 285.393 66.151Z" fill="#263238"/>
<path d="M277.706 64.4491C278.076 64.4195 278.386 64.3344 278.734 64.2715C279.105 64.2622 279.462 64.1323 279.752 63.9016C279.827 63.8099 279.869 63.6962 279.873 63.5779C279.877 63.4596 279.842 63.3432 279.774 63.2467C279.61 63.0743 279.402 62.949 279.173 62.884C278.944 62.8189 278.702 62.8164 278.471 62.8768C277.986 62.9312 277.538 63.1631 277.214 63.5279C277.147 63.6153 277.106 63.7202 277.097 63.83C277.088 63.9398 277.111 64.0499 277.163 64.147C277.215 64.2442 277.294 64.3244 277.39 64.378C277.486 64.4315 277.596 64.4562 277.706 64.4491Z" fill="#263238"/>
<path d="M281.775 73.9166C281.568 74.0831 281.353 74.3124 281.065 74.2865C280.774 74.2499 280.494 74.1515 280.243 73.998C280.218 73.998 280.192 73.998 280.206 74.035C280.302 74.2013 280.44 74.3388 280.606 74.4333C280.773 74.5277 280.962 74.5754 281.154 74.5714C281.318 74.547 281.472 74.4741 281.595 74.3621C281.718 74.2501 281.805 74.1041 281.845 73.9425C281.879 73.9166 281.82 73.8944 281.775 73.9166Z" fill="#263238"/>
<path d="M282.541 71.8743C282.298 72.1546 281.999 72.381 281.663 72.539C281.327 72.697 280.962 72.7831 280.591 72.7918C280.268 72.8075 279.943 72.7751 279.629 72.6957C279.569 72.6858 279.509 72.6696 279.452 72.6476C279.395 72.6332 279.34 72.6159 279.285 72.5958C279.244 72.5814 279.209 72.5541 279.185 72.5181C279.161 72.4821 279.15 72.4392 279.152 72.396C279.154 72.3693 279.161 72.3431 279.171 72.3183V72.2517C279.245 71.6487 279.437 70.7422 279.437 70.7422C279.204 70.8199 278.009 71.1566 278.072 70.8458C278.616 68.2561 279.215 65.4036 280.292 62.9582C280.299 62.9421 280.312 62.9291 280.328 62.9218C280.344 62.9144 280.362 62.913 280.379 62.918C280.396 62.9229 280.411 62.9338 280.421 62.9486C280.43 62.9635 280.434 62.9813 280.432 62.9989C280.01 65.4924 279.152 67.8972 278.686 70.3982C279.111 70.272 279.552 70.2072 279.996 70.2058C280.077 70.2428 279.589 71.9483 279.577 72.2221C279.577 72.2319 279.577 72.2418 279.577 72.2517C280.565 72.5292 281.372 72.3368 282.452 71.804C282.545 71.7707 282.596 71.8299 282.541 71.8743Z" fill="#263238"/>
<path d="M294.724 68.7038C291.764 68.9591 290.129 65.426 290.784 62.5513C290.784 62.5513 282.867 63.7315 282.386 57.3718C281.783 58.2338 280.99 58.9454 280.068 59.4516C279.146 59.9578 278.12 60.245 277.069 60.2908L276.511 62.6253C275.693 62.3996 274.709 60.1355 276.67 58.2893C276.67 58.2893 276.758 55.1113 279.067 53.169C279.689 52.6098 280.46 52.2424 281.287 52.1111C282.113 51.9798 282.96 52.0902 283.725 52.4291C285.09 51.4071 286.799 50.956 288.49 51.1712C291.42 51.5005 292.667 54.1309 292.667 54.1309C292.667 54.1309 296.607 54.8561 297.314 57.6456C297.533 58.4304 297.583 59.2526 297.463 60.0584C297.342 60.8641 297.053 61.6355 296.614 62.322C296.614 62.322 297.617 63.4023 297.155 65.7922C296.866 67.3313 295.627 68.6262 294.724 68.7038Z" fill="#263238"/>
<path d="M282.559 56.7983C282.504 57.3148 282.504 57.8357 282.559 58.3522C282.601 58.8638 282.705 59.3683 282.87 59.8542C283.187 60.816 283.855 61.6223 284.742 62.111C285.608 62.6475 286.666 62.7178 287.68 62.7992C288.194 62.777 288.712 62.7992 289.23 62.7363C289.748 62.6734 290.262 62.6031 290.784 62.5513C290.277 62.6845 289.766 62.7918 289.252 62.9213C288.738 63.0508 288.205 63.0323 287.68 63.0877C286.633 63.0618 285.523 62.9916 284.565 62.4403C283.609 61.8973 282.904 61.0024 282.6 59.9467C282.321 58.9175 282.307 57.8344 282.559 56.7983Z" fill="#263238"/>
<path d="M278.527 60.5424C279.391 60.234 280.197 59.7839 280.913 59.2106C281.26 58.924 281.567 58.5931 281.827 58.2265C282.087 57.8458 282.304 57.4376 282.474 57.0093C282.437 57.488 282.298 57.9533 282.067 58.3744C281.836 58.8 281.524 59.1768 281.15 59.4843C280.778 59.7944 280.36 60.0441 279.911 60.2243C279.47 60.4066 279.003 60.5141 278.527 60.5424Z" fill="#263238"/>
<path d="M283.666 71.9115C282.74 71.6594 281.951 71.0507 281.473 70.2187C280.994 69.3867 280.865 68.3991 281.113 67.4719C281.29 66.8166 281.647 66.224 282.144 65.7616C282.64 65.2992 283.257 64.9856 283.923 64.8564C284.59 64.7271 285.279 64.7875 285.912 65.0307C286.546 65.2738 287.099 65.6899 287.508 66.2317C287.917 66.7734 288.165 67.4191 288.225 68.0951C288.285 68.7712 288.154 69.4505 287.847 70.0558C287.54 70.6611 287.069 71.1681 286.488 71.519C285.907 71.87 285.24 72.0508 284.561 72.041C284.258 72.0359 283.957 71.9924 283.666 71.9115ZM281.583 67.594C281.412 68.2261 281.442 68.8958 281.67 69.5096C281.899 70.1234 282.313 70.6505 282.856 71.0172C283.398 71.384 284.042 71.572 284.696 71.555C285.351 71.538 285.984 71.3168 286.506 70.9224C287.029 70.528 287.416 69.9801 287.612 69.3553C287.808 68.7305 287.803 68.06 287.6 67.4377C287.396 66.8154 287.003 66.2723 286.475 65.8844C285.948 65.4965 285.312 65.2832 284.657 65.2743C283.96 65.2655 283.28 65.4886 282.723 65.9084C282.167 66.3283 281.766 66.9212 281.583 67.594Z" fill="#F59C42"/>
<path d="M276.081 70.8865C274.602 70.6904 273.621 68.922 273.884 66.939C273.986 66.0411 274.366 65.1976 274.972 64.5268C275.214 64.2211 275.532 63.9835 275.894 63.8372C276.256 63.6908 276.65 63.6407 277.037 63.6918C277.424 63.7428 277.791 63.8932 278.103 64.1284C278.415 64.3636 278.66 64.6754 278.815 65.0337C279.229 65.8377 279.379 66.7515 279.245 67.6456C278.997 69.5213 277.717 70.9235 276.329 70.905C276.226 70.9013 276.163 70.8976 276.081 70.8865ZM275.323 64.8635C274.789 65.4594 274.452 66.2066 274.361 67.0019C274.135 68.7185 274.935 70.2465 276.144 70.4056C277.354 70.5646 278.527 69.2957 278.753 67.5827C278.873 66.791 278.744 65.9814 278.383 65.2667C278.251 64.9849 278.054 64.7389 277.807 64.5496C277.561 64.3603 277.272 64.2332 276.966 64.179C276.904 64.1754 276.842 64.1754 276.781 64.179C276.503 64.1855 276.231 64.2497 275.98 64.3676C275.729 64.4854 275.505 64.6543 275.323 64.8635Z" fill="#F59C42"/>
<path d="M281.18 67.9009L281.549 67.5717C281.065 67.0426 279.888 66.262 278.886 67.0833L279.193 67.4533C280.073 66.7207 281.135 67.8528 281.18 67.9009Z" fill="#F59C42"/>
<path d="M295.956 70.9383L296.414 70.7756C296.337 70.5647 295.634 68.689 294.565 68.3745C293.584 68.0822 288.175 67.8343 287.905 67.8232L287.887 68.3079C289.759 68.3782 293.677 68.6113 294.435 68.8369C295.138 69.0478 295.771 70.4241 295.956 70.9383Z" fill="#F59C42"/>
<path d="M290.917 69.2624C290.917 69.2624 293.544 65.5627 295.227 66.4913C296.91 67.42 294.924 72.8177 292.933 73.5466C292.684 73.6573 292.415 73.7163 292.143 73.72C291.87 73.7238 291.6 73.6723 291.347 73.5685C291.095 73.4648 290.867 73.311 290.676 73.1164C290.485 72.9219 290.335 72.6907 290.236 72.4367L290.917 69.2624Z" fill="#AD6359"/>
<path d="M294.62 68.0193C294.626 68.0214 294.631 68.0252 294.634 68.0301C294.638 68.0351 294.64 68.041 294.64 68.047C294.64 68.0531 294.638 68.059 294.634 68.0639C294.631 68.0689 294.626 68.0727 294.62 68.0748C293.226 68.6297 292.486 69.9246 291.964 71.2491C292.382 70.7385 292.948 70.4611 293.636 70.9568C293.67 70.9827 293.636 71.0382 293.596 71.0308C293.352 70.9512 293.089 70.9493 292.843 71.0256C292.598 71.1018 292.383 71.2523 292.227 71.4563C291.967 71.8011 291.747 72.1733 291.568 72.5662C291.502 72.6882 291.276 72.6217 291.324 72.4774V72.4441C291.32 70.6645 292.711 68.1747 294.62 68.0193Z" fill="#263238"/>
<path d="M269.271 143.596L318.154 144.069C318.047 143.433 309.149 92.6443 295.379 81.8228C292.945 79.9175 285.505 82.1928 283.17 84.6938C275.712 92.7294 269.996 136.866 269.271 143.596Z" fill="#F59C42"/>
<path d="M287.421 91.3678C286.71 109.211 280.51 133.174 274.542 134.742C267.883 136.478 268.652 112.104 269.459 111.435C270.069 110.935 275.504 100.613 280.928 89.1332C286.351 77.6531 287.598 86.9541 287.421 91.3678Z" fill="#AD6359"/>
<path d="M269.363 111.372C270.269 109.796 277.968 94.3165 281.283 87.942C284.598 81.5675 287.639 81.7525 287.772 90.9757C287.906 100.199 285.738 119.071 280.04 129.082C274.553 138.727 270.31 135.693 268.941 127.099C267.846 120.062 269.363 111.372 269.363 111.372Z" fill="#F59C42"/>
<path d="M242.072 115.405L246.212 114.097L237.994 88.0711L233.853 89.3785L242.072 115.405Z" fill="#C7C7C7"/>
<path d="M243.687 127.132L249.965 125.127L244.56 108.205L238.282 110.21V110.214L243.687 127.132Z" fill="#263238"/>
<g opacity="0.4">
<path d="M214.715 83.1028C210.221 79.9104 206.972 75.2581 205.524 69.9388C204.075 64.6195 204.516 58.9625 206.771 53.9319C209.026 48.9013 212.956 44.8084 217.891 42.3508C222.826 39.8933 228.461 39.2231 233.834 40.4546C239.208 41.6861 243.988 44.7429 247.361 49.1042C250.733 53.4655 252.488 58.8613 252.328 64.372C252.167 69.8826 250.101 75.1671 246.48 79.3247C242.86 83.4823 237.91 86.2558 232.474 87.1724C226.249 88.2233 219.861 86.7595 214.715 83.1028Z" fill="white"/>
</g>
<path d="M256.743 58.9626C255.542 51.9422 251.755 45.6265 246.127 41.2603C240.5 36.8941 233.442 34.7942 226.343 35.3746C219.244 35.9549 212.62 39.1735 207.777 44.3957C202.934 49.6179 200.222 56.465 200.177 63.5873C200.132 70.7096 202.757 77.5904 207.534 82.8734C212.311 88.1563 218.894 91.4582 225.984 92.1281C233.075 92.7981 240.16 90.7875 245.842 86.4927C251.524 82.1979 255.391 75.9305 256.68 68.9258C257.287 65.6343 257.308 62.2616 256.743 58.9626ZM247.897 77.5164C244.706 82.0089 240.055 85.2557 234.737 86.7032C229.42 88.1508 223.765 87.7096 218.736 85.4549C213.707 83.2002 209.616 79.2715 207.16 74.3382C204.703 69.405 204.033 63.7726 205.264 58.4008C206.495 53.029 209.551 48.2504 213.911 44.8792C218.27 41.508 223.664 39.7529 229.173 39.9129C234.681 40.073 239.964 42.1384 244.121 45.7571C248.277 49.3758 251.05 54.3239 251.967 59.758C253.017 65.9829 251.553 72.37 247.897 77.5164Z" fill="#263238"/>
<path opacity="0.3" d="M208.97 65.955C208.627 63.4301 208.818 60.8613 209.532 58.4151C209.877 57.1652 210.347 55.9531 210.934 54.7969C211.537 53.6326 212.248 52.5277 213.058 51.4968C214.726 49.4436 216.802 47.7592 219.155 46.5504C221.47 45.3571 223.986 44.6044 226.576 44.3306C224.212 45.1971 221.94 46.2977 219.795 47.6159C218.759 48.2767 217.778 49.019 216.861 49.8356C215.942 50.6309 215.101 51.5117 214.349 52.4661C212.831 54.3639 211.617 56.4856 210.749 58.7555C209.867 61.0745 209.269 63.492 208.97 65.955Z" fill="white"/>
<path opacity="0.3" d="M246.998 67.6272C246.639 70.1494 245.757 72.5689 244.408 74.7305C243.734 75.837 242.951 76.8731 242.07 77.8234C241.169 78.7795 240.178 79.6468 239.111 80.4132C236.946 81.9359 234.488 82.9894 231.893 83.5061C229.341 84.0155 226.716 84.0468 224.153 83.5986C226.664 83.4125 229.151 82.9737 231.574 82.2889C232.751 81.9372 233.898 81.4918 235.004 80.957C236.104 80.44 237.153 79.8207 238.138 79.1072C240.115 77.6924 241.863 75.9802 243.317 74.0313C244.797 72.0525 246.033 69.9022 246.998 67.6272Z" fill="white"/>
<path d="M274.613 134.957C269.544 135.612 264.032 130.999 247.761 118.915C245.511 117.243 252.862 97.5167 255.36 99.1778C258.504 101.272 270.251 110.073 271.028 110.828C277.587 117.173 278.05 134.513 274.613 134.957Z" fill="#AD6359"/>
<path d="M262.374 104.598C262.374 104.598 260.206 103.384 256.018 99.004C252.744 95.5818 242.666 89.8252 230.243 94.5903C225.481 96.4142 224.693 100.55 229.965 99.533C233.687 98.819 236.203 98.0014 237.483 98.1087C237.483 98.1087 233.709 102.511 234.523 105.774C235.238 108.624 236.154 111.419 237.265 114.139C237.808 114.049 238.346 113.926 238.874 113.769C239.308 115.031 240.09 116.143 241.129 116.979C242.169 117.814 243.424 118.338 244.749 118.49L251.853 119.9L262.374 104.598Z" fill="#AD6359"/>
<path d="M252.285 96.958C249.821 96.6732 244.586 96.1626 240.158 97.2355C235.237 98.4268 226.099 102.045 227.002 105.667C227.671 108.323 231.29 107.247 231.29 107.247C231.29 107.247 227.819 109.541 228.951 111.808C229.984 113.873 232.732 112.874 232.732 112.874C232.732 112.874 230.883 114.628 232.244 116.426C233.898 118.586 237.535 114.557 241.105 115.316C241.904 115.467 252.285 96.958 252.285 96.958Z" fill="#AD6359"/>
<path d="M242.281 102.211C239.917 102.326 234.619 103.961 231.316 107.136C231.242 107.206 231.256 107.302 231.338 107.25C234.773 105.148 238.452 103.472 242.292 102.26C242.297 102.257 242.301 102.252 242.303 102.247C242.305 102.242 242.306 102.237 242.304 102.231C242.303 102.226 242.3 102.221 242.296 102.218C242.292 102.214 242.287 102.212 242.281 102.211Z" fill="#263238"/>
<path d="M243.34 107.221C241.312 107.532 235.94 109.463 232.688 112.793C232.614 112.867 232.637 112.959 232.714 112.907C236.037 110.632 239.606 108.741 243.354 107.269C243.38 107.258 243.366 107.217 243.34 107.221Z" fill="#263238"/>
<path d="M262.456 102.896L254.535 126.629C254.535 126.629 269.659 136.248 274.75 135.138C278.079 134.399 278.179 116.681 270.399 110.221L262.456 102.896Z" fill="#F59C42"/>
<path d="M276.107 121.176C275.885 119.197 274.842 113.995 270.399 110.199C270.362 110.166 270.299 110.218 270.336 110.258C273.37 113.407 275.652 119.308 276.03 121.198C276.037 121.246 276.115 121.228 276.107 121.176Z" fill="#263238"/>
<path d="M260.173 128.257C261.153 125.727 261.997 123.152 262.833 120.577C263.669 118.002 264.513 115.427 265.282 112.83C265.719 111.35 266.166 109.899 266.551 108.42C266.551 108.383 266.496 108.357 266.481 108.397C265.5 110.921 264.631 113.495 263.795 116.059C262.959 118.623 262.112 121.213 261.309 123.803C260.857 125.264 260.428 126.733 260.043 128.213C260.025 128.283 260.143 128.331 260.173 128.257Z" fill="#263238"/>
<path d="M262.407 102.681C263.384 103.229 267.653 106.625 272.137 111.931C272.167 111.964 272.596 113.24 272.566 113.207C268.974 108.852 263.221 103.876 262.396 103.092C262.371 103.175 262.342 103.257 262.307 103.336C262.281 103.392 262.189 103.399 262.178 103.336C262.156 103.166 262.178 103.011 262.178 102.84C262.176 102.812 262.181 102.784 262.194 102.759C262.206 102.734 262.224 102.712 262.247 102.696C262.271 102.68 262.297 102.67 262.325 102.668C262.353 102.665 262.382 102.67 262.407 102.681Z" fill="#263238"/>
<path d="M255.086 124.964L254.575 126.629L254.557 126.577C259.071 129.267 263.728 131.86 268.686 133.607C270.51 134.184 272.434 134.809 274.339 134.513C277.376 133.773 279.167 130.162 280.499 127.558C282.763 122.826 284.199 117.717 285.445 112.604C286.687 107.478 287.588 102.276 288.142 97.032C287.86 102.321 287.14 107.578 285.989 112.748C284.857 117.928 283.399 123.063 281.18 127.894C279.774 130.669 277.78 134.435 274.476 135.186C272.43 135.486 270.406 134.846 268.508 134.188C263.532 132.304 258.941 129.604 254.527 126.674L254.501 126.655V126.622L255.093 124.979L255.086 124.964Z" fill="#263238"/>
<path d="M288.653 97.6313C288.72 98.5761 288.44 99.513 287.865 100.266C288.327 99.4599 288.597 98.5584 288.653 97.6313Z" fill="#263238"/>
<path d="M290.181 24.4893V46.2247H293.233V51.4967L298.505 46.2247H327.436V24.4893H290.181Z" fill="white"/>
<path d="M290.181 24.4892L290.236 35.381C290.268 38.9918 290.284 42.6064 290.284 46.2246L290.181 46.121H293.229H293.34V46.232V51.504L293.137 51.4189L298.424 46.1284L298.461 46.0877H298.52C307.029 46.0877 319.053 46.0359 327.451 46.047L327.273 46.2246L327.318 24.4892L327.451 24.6224C318.165 24.6224 299.482 24.5373 290.196 24.4892H290.181ZM290.181 24.4892C299.463 24.4411 318.154 24.3597 327.436 24.3523H327.569V24.4892L327.61 46.2246V46.4022H327.433C319.079 46.4244 306.981 46.3615 298.501 46.3578L298.594 46.3171L293.311 51.5817L293.107 51.7852V51.4966V46.2246L293.215 46.3319H290.062C290.04 39.9722 290.155 30.9303 290.166 24.504L290.181 24.4892Z" fill="#263238"/>
<path d="M306.356 39.2914L309.83 31.0227C309.913 30.8309 310.068 30.6798 310.263 30.6028C310.457 30.5258 310.674 30.5291 310.866 30.612C311.051 30.6932 311.197 30.8447 311.271 31.0334C311.346 31.222 311.342 31.4323 311.261 31.6183L307.787 39.9018C307.724 40.0436 307.619 40.1634 307.488 40.2463C307.356 40.3292 307.203 40.3716 307.047 40.368C306.951 40.3693 306.855 40.3504 306.766 40.3125C306.672 40.2734 306.586 40.2157 306.513 40.1428C306.441 40.07 306.384 39.9835 306.346 39.8884C306.308 39.7932 306.289 39.6914 306.291 39.5889C306.292 39.4864 306.314 39.3852 306.356 39.2914Z" fill="#F59C42"/>
<path d="M303.806 38.8364C303.932 38.961 304.018 39.1201 304.054 39.2936C304.089 39.4671 304.073 39.6472 304.006 39.8112C303.939 39.9751 303.825 40.1155 303.678 40.2147C303.531 40.3138 303.358 40.3672 303.181 40.3681C302.94 40.3692 302.707 40.2779 302.53 40.1128L298.546 36.0728C298.527 36.0667 298.511 36.0555 298.498 36.0404C298.486 36.0253 298.478 36.0071 298.475 35.9877C298.462 35.976 298.447 35.9661 298.431 35.9581C298.409 35.9233 298.395 35.8841 298.39 35.8434C298.379 35.8386 298.369 35.8311 298.361 35.8214C298.353 35.8117 298.348 35.8002 298.346 35.7879C298.346 35.7583 298.346 35.7176 298.32 35.7028C298.294 35.688 298.287 35.6473 298.287 35.6325V35.5327C298.287 35.5031 298.287 35.4883 298.287 35.4476C298.287 35.4069 298.287 35.3884 298.287 35.3773V35.2774C298.287 35.2478 298.32 35.233 298.32 35.2182C298.32 35.2034 298.32 35.1479 298.346 35.1072C298.372 35.0665 298.346 35.1072 298.346 35.0776C298.346 35.048 298.387 34.9777 298.416 34.9518C298.416 34.9479 298.417 34.9441 298.418 34.9405C298.42 34.9369 298.422 34.9336 298.425 34.9309C298.428 34.9281 298.431 34.926 298.434 34.9245C298.438 34.923 298.442 34.9222 298.446 34.9222C298.465 34.8821 298.494 34.8476 298.531 34.8223L302.53 30.7823C302.702 30.6183 302.931 30.5269 303.168 30.5269C303.406 30.5269 303.634 30.6183 303.806 30.7823C303.891 30.8659 303.958 30.9653 304.003 31.0748C304.049 31.1844 304.072 31.3018 304.072 31.4205C304.072 31.5392 304.049 31.6566 304.003 31.7662C303.958 31.8757 303.891 31.9751 303.806 32.0587L300.447 35.4476L303.806 38.8364Z" fill="#F59C42"/>
<path d="M319.186 35.9581C319.156 35.9941 319.122 36.0276 319.086 36.058L315.072 40.1128C314.9 40.2768 314.671 40.3683 314.434 40.3683C314.196 40.3683 313.968 40.2768 313.796 40.1128C313.711 40.0293 313.645 39.9298 313.599 39.8203C313.553 39.7108 313.53 39.5933 313.53 39.4746C313.53 39.356 313.553 39.2385 313.599 39.129C313.645 39.0194 313.711 38.92 313.796 38.8364L317.155 35.4476L313.796 32.0587C313.711 31.9751 313.645 31.8757 313.599 31.7662C313.553 31.6566 313.53 31.5392 313.53 31.4205C313.53 31.3018 313.553 31.1844 313.599 31.0748C313.645 30.9653 313.711 30.8659 313.796 30.7823C313.968 30.6183 314.196 30.5269 314.434 30.5269C314.671 30.5269 314.9 30.6183 315.072 30.7823L319.056 34.8223C319.093 34.8518 319.127 34.8853 319.156 34.9222V34.9518C319.156 34.9518 319.212 35.0369 319.227 35.0776C319.241 35.1183 319.227 35.0776 319.227 35.1072C319.237 35.15 319.251 35.192 319.267 35.233C319.267 35.233 319.267 35.233 319.267 35.2774V35.3773C319.267 35.3773 319.267 35.4328 319.267 35.4476C319.267 35.4624 319.267 35.5031 319.267 35.5179V35.6177C319.267 35.6177 319.267 35.6177 319.267 35.6436C319.267 35.6695 319.241 35.7435 319.227 35.7731C319.212 35.8027 319.227 35.7731 319.227 35.8138C319.227 35.8545 319.212 35.9026 319.186 35.9581Z" fill="#F59C42"/>
</svg>
