<svg width="420" height="200" viewBox="0 0 420 200" fill="none" xmlns="http://www.w3.org/2000/svg">
<rect width="420" height="200" rx="8" fill="#E4E8F6"/>
<path d="M305.951 175.043H290.054V175.163H305.951V175.043Z" fill="#EBEBEB"/>
<path d="M248.986 176.349H244.814V176.469H248.986V176.349Z" fill="#EBEBEB"/>
<path d="M289.574 170.589H280.363V170.709H289.574V170.589Z" fill="#EBEBEB"/>
<path d="M135.912 171.395H115.181V171.515H135.912V171.395Z" fill="#EBEBEB"/>
<path d="M143.227 171.395H140.188V171.515H143.227V171.395Z" fill="#EBEBEB"/>
<path d="M198.072 173.421H153.105V173.541H198.072V173.421Z" fill="#EBEBEB"/>
<path d="M204.432 145.912H111.744C111.017 145.912 110.32 145.623 109.806 145.109C109.292 144.595 109.003 143.898 109.003 143.171V12.885C109.009 12.1623 109.301 11.4713 109.814 10.9625C110.327 10.4537 111.021 10.1682 111.744 10.1682H204.432C204.792 10.1682 205.148 10.2391 205.481 10.3768C205.813 10.5146 206.115 10.7165 206.37 10.971C206.624 11.2255 206.826 11.5276 206.964 11.8602C207.102 12.1927 207.173 12.5491 207.173 12.909V143.171C207.173 143.531 207.102 143.888 206.964 144.22C206.826 144.553 206.624 144.855 206.37 145.109C206.115 145.364 205.813 145.566 205.481 145.704C205.148 145.841 204.792 145.912 204.432 145.912ZM111.744 10.2642C111.049 10.2655 110.383 10.542 109.892 11.0332C109.401 11.5244 109.124 12.1903 109.123 12.885V143.171C109.124 143.866 109.401 144.532 109.892 145.023C110.383 145.514 111.049 145.791 111.744 145.792H204.432C205.126 145.791 205.792 145.514 206.284 145.023C206.775 144.532 207.051 143.866 207.053 143.171V12.885C207.051 12.1903 206.775 11.5244 206.284 11.0332C205.792 10.542 205.126 10.2655 204.432 10.2642H111.744Z" fill="#EBEBEB"/>
<path d="M308.256 145.912H215.568C214.841 145.912 214.144 145.623 213.63 145.109C213.116 144.595 212.827 143.898 212.827 143.171V12.885C212.833 12.1623 213.125 11.4713 213.638 10.9625C214.152 10.4537 214.845 10.1682 215.568 10.1682H308.256C308.983 10.1682 309.68 10.457 310.194 10.971C310.708 11.485 310.997 12.1821 310.997 12.909V143.171C310.997 143.898 310.708 144.595 310.194 145.109C309.68 145.623 308.983 145.912 308.256 145.912ZM215.568 10.2642C214.873 10.2655 214.207 10.542 213.716 11.0332C213.225 11.5244 212.948 12.1903 212.947 12.885V143.171C212.948 143.866 213.225 144.532 213.716 145.023C214.207 145.514 214.873 145.791 215.568 145.792H308.256C308.951 145.791 309.617 145.514 310.108 145.023C310.599 144.532 310.875 143.866 310.877 143.171V12.885C310.875 12.1903 310.599 11.5244 310.108 11.0332C309.617 10.542 308.951 10.2655 308.256 10.2642H215.568Z" fill="#EBEBEB"/>
<path d="M330 167.32H90V167.44H330V167.32Z" fill="#EBEBEB"/>
<path d="M187.877 18.0259H153.677V134.047H187.877V18.0259Z" fill="#FAFAFA"/>
<path opacity="0.1" d="M187.809 18.0259H153.609V134.047H187.809V18.0259Z" fill="white"/>
<g opacity="0.3">
<path d="M184.469 18.0259H173.564L161.636 134.047H172.537L184.469 18.0259Z" fill="white"/>
</g>
<path d="M188.17 16.5571H153.394V19.4995H188.17V16.5571Z" fill="#E0E0E0"/>
<path d="M188.17 133.034H153.394V135.976H188.17V133.034Z" fill="#EBEBEB"/>
<path d="M189.519 138.487H151.819V13.6865H189.519V138.487ZM154.695 135.607H186.643V16.5665H154.695V135.607Z" fill="#EBEBEB"/>
<path d="M150.624 18.0259H116.424V134.047H150.624V18.0259Z" fill="#FAFAFA"/>
<path d="M145.468 67.1587H118.996V89.3731H145.468V67.1587Z" fill="#E6E6E6"/>
<path d="M124.08 69.9282H120.691V73.317H124.08V69.9282Z" fill="#FAFAFA"/>
<path d="M130.646 69.9282H127.257V73.317H130.646V69.9282Z" fill="#FAFAFA"/>
<path d="M137.213 69.9282H133.824V73.317H137.213V69.9282Z" fill="#FAFAFA"/>
<path d="M143.775 69.9282H140.386V73.317H143.775V69.9282Z" fill="#FAFAFA"/>
<path d="M124.08 76.0867H120.691V79.4755H124.08V76.0867Z" fill="#FAFAFA"/>
<path d="M130.646 76.0867H127.257V79.4755H130.646V76.0867Z" fill="#FAFAFA"/>
<path d="M137.213 76.0867H133.824V79.4755H137.213V76.0867Z" fill="#FAFAFA"/>
<path d="M143.775 76.0867H140.386V79.4755H143.775V76.0867Z" fill="#E6E6E6"/>
<path d="M124.08 82.2402H120.691V85.629H124.08V82.2402Z" fill="#E6E6E6"/>
<path d="M130.646 82.2402H127.257V85.629H130.646V82.2402Z" fill="#E6E6E6"/>
<path d="M137.213 82.2402H133.824V85.629H137.213V82.2402Z" fill="#FAFAFA"/>
<path d="M143.775 82.2402H140.386V85.629H143.775V82.2402Z" fill="#E6E6E6"/>
<path d="M145.468 89.0945H118.996V111.309H145.468V89.0945Z" fill="#E6E6E6"/>
<path d="M124.08 91.8594H120.691V95.2482H124.08V91.8594Z" fill="#FAFAFA"/>
<path d="M130.646 91.8594H127.257V95.2482H130.646V91.8594Z" fill="#FAFAFA"/>
<path d="M137.213 91.8594H133.824V95.2482H137.213V91.8594Z" fill="#FAFAFA"/>
<path d="M143.775 91.8594H140.386V95.2482H143.775V91.8594Z" fill="#FAFAFA"/>
<path d="M124.08 98.0178H120.691V101.407H124.08V98.0178Z" fill="#FAFAFA"/>
<path d="M130.646 98.0178H127.257V101.407H130.646V98.0178Z" fill="#FAFAFA"/>
<path d="M137.213 98.0178H133.824V101.407H137.213V98.0178Z" fill="#FAFAFA"/>
<path d="M143.775 98.0178H140.386V101.407H143.775V98.0178Z" fill="#E6E6E6"/>
<path d="M124.08 104.176H120.691V107.565H124.08V104.176Z" fill="#E6E6E6"/>
<path d="M130.646 104.176H127.257V107.565H130.646V104.176Z" fill="#E6E6E6"/>
<path d="M137.213 104.176H133.824V107.565H137.213V104.176Z" fill="#FAFAFA"/>
<path d="M143.775 104.176H140.386V107.565H143.775V104.176Z" fill="#E6E6E6"/>
<path d="M145.468 111.026H118.996V133.24H145.468V111.026Z" fill="#E6E6E6"/>
<path d="M124.08 113.795H120.691V117.184H124.08V113.795Z" fill="#FAFAFA"/>
<path d="M130.646 113.795H127.257V117.184H130.646V113.795Z" fill="#FAFAFA"/>
<path d="M137.213 113.795H133.824V117.184H137.213V113.795Z" fill="#FAFAFA"/>
<path d="M143.775 113.795H140.386V117.184H143.775V113.795Z" fill="#FAFAFA"/>
<path d="M124.08 119.954H120.691V123.343H124.08V119.954Z" fill="#FAFAFA"/>
<path d="M130.646 119.954H127.257V123.343H130.646V119.954Z" fill="#FAFAFA"/>
<path d="M137.213 119.954H133.824V123.343H137.213V119.954Z" fill="#FAFAFA"/>
<path d="M143.775 119.954H140.386V123.343H143.775V119.954Z" fill="#E6E6E6"/>
<path d="M124.08 126.112H120.691V129.501H124.08V126.112Z" fill="#E6E6E6"/>
<path d="M130.646 126.112H127.257V129.501H130.646V126.112Z" fill="#E6E6E6"/>
<path d="M137.213 126.112H133.824V129.501H137.213V126.112Z" fill="#FAFAFA"/>
<path d="M143.775 126.112H140.386V129.501H143.775V126.112Z" fill="#E6E6E6"/>
<path opacity="0.1" d="M150.173 18.0259H115.973V134.047H150.173V18.0259Z" fill="white"/>
<g opacity="0.3">
<path d="M147.215 18.0259H136.31L124.382 134.047H135.283L147.215 18.0259Z" fill="white"/>
</g>
<path d="M150.917 16.5571H116.141V19.4995H150.917V16.5571Z" fill="#E0E0E0"/>
<path d="M150.917 133.034H116.141V135.976H150.917V133.034Z" fill="#EBEBEB"/>
<path d="M152.266 138.487H114.566V13.6865H152.266V138.487ZM117.442 135.607H149.39V16.5665H117.442V135.607Z" fill="#EBEBEB"/>
<path d="M203.458 153.981L203.074 154.029C203.074 153.832 200.717 134.306 205.531 118.351C210.331 102.511 207.019 92.3827 206.971 92.2867L207.341 92.1619C207.375 92.2627 210.701 102.487 205.901 118.461C201.111 134.339 203.434 153.789 203.458 153.981Z" fill="#E0E0E0"/>
<path d="M207.672 94.4609C206.833 93.4624 205.695 92.7605 204.427 92.4593L204.518 92.0801C205.868 92.4006 207.078 93.148 207.969 94.2113L207.672 94.4609Z" fill="#E0E0E0"/>
<path d="M209.32 96.0754L208.213 96.7012L208.404 97.0397L209.512 96.4139L209.32 96.0754Z" fill="#E0E0E0"/>
<path d="M207.254 105.079C206.288 102.877 204.5 101.141 202.271 100.24L202.415 99.885C204.733 100.824 206.593 102.631 207.599 104.92L207.254 105.079Z" fill="#E0E0E0"/>
<path d="M206.217 117.275H205.829C205.816 116.49 205.629 115.717 205.282 115.013C204.936 114.308 204.437 113.689 203.822 113.2L204.062 112.898C204.722 113.423 205.258 114.088 205.63 114.845C206.003 115.602 206.203 116.432 206.217 117.275Z" fill="#E0E0E0"/>
<path d="M205.354 120.395L204.989 120.256C205.189 119.761 205.487 119.312 205.867 118.937C206.247 118.563 206.7 118.27 207.197 118.077L207.332 118.442C206.885 118.614 206.479 118.876 206.139 119.212C205.799 119.548 205.532 119.951 205.354 120.395Z" fill="#E0E0E0"/>
<path d="M202.843 140.186L202.541 139.941C203.021 139.37 203.371 137.205 203.563 136.043C203.607 135.765 203.645 135.53 203.679 135.357L204.063 135.429C204.029 135.597 203.991 135.832 203.943 136.106C203.659 137.848 203.338 139.586 202.843 140.186Z" fill="#E0E0E0"/>
<path d="M202.618 146.402C202.348 145.641 201.845 144.985 201.18 144.527C200.516 144.068 199.724 143.831 198.917 143.848V143.459C199.809 143.438 200.685 143.7 201.42 144.207C202.155 144.714 202.71 145.44 203.007 146.282L202.618 146.402Z" fill="#E0E0E0"/>
<path d="M205.577 150.462L202.846 153.519L203.136 153.778L205.867 150.722L205.577 150.462Z" fill="#E0E0E0"/>
<path d="M207.509 130.528C208.128 132.53 203.813 136.346 203.813 136.346C203.813 136.346 198.096 135.631 197.477 133.624C196.857 131.618 198.307 128.344 201.077 127.49C203.846 126.636 206.889 128.527 207.509 130.528Z" fill="#F0F0F0"/>
<path d="M212.299 106.221C211.751 108.347 207.662 109.859 207.662 109.859C207.662 109.859 204.811 106.562 205.358 104.435C205.905 102.309 208.166 99.9617 210.081 100.456C211.996 100.95 212.846 104.094 212.299 106.221Z" fill="#EBEBEB"/>
<path d="M195.898 138.007C198.461 139.01 200.035 143.546 200.035 143.546C200.035 143.546 195.806 145.826 193.238 144.827C190.67 143.829 187.958 140.987 188.688 139.13C189.418 137.272 193.33 137.008 195.898 138.007Z" fill="#F5F5F5"/>
<path d="M201.524 113.032C202.041 113.469 202.635 113.805 203.276 114.026C203.598 114.129 203.943 114.142 204.273 114.065C204.603 113.987 204.905 113.821 205.148 113.584C205.7 112.951 205.551 111.971 205.205 111.208C204.519 109.696 201.989 107.133 200.045 107.848C197.242 108.928 200.271 112.106 201.524 113.032Z" fill="#E6E6E6"/>
<path d="M207.264 116.887C206.895 117.343 206.506 117.914 206.707 118.466C206.822 118.7 207.011 118.889 207.244 119.004C207.478 119.119 207.744 119.152 207.999 119.099C208.506 118.981 208.98 118.75 209.386 118.423C210.375 117.731 212.405 116.291 211.109 114.943C209.813 113.594 208.037 115.922 207.264 116.887Z" fill="#EBEBEB"/>
<path d="M198.96 97.6865C198.747 97.6977 198.543 97.7762 198.377 97.9108C198.211 98.0453 198.093 98.229 198.038 98.4353C197.952 98.9153 198.36 99.3569 198.753 99.6593C199.713 100.418 202.689 102.462 203.352 100.49C203.995 98.6273 200.284 97.5281 198.96 97.6865Z" fill="#E0E0E0"/>
<path d="M204.427 91.1969C203.817 91.2545 203.208 91.0337 202.598 91.0721C201.988 91.1105 201.307 91.6001 201.446 92.2001C201.585 92.8001 202.257 92.9345 202.819 92.9729C203.784 93.0304 204.752 92.9627 205.699 92.7713C205.924 92.75 206.132 92.6456 206.284 92.4785C206.529 92.1137 206.136 91.6241 205.713 91.5185C205.278 91.4627 204.85 91.3613 204.436 91.2161L204.427 91.1969Z" fill="#E6E6E6"/>
<path d="M210.384 95.3923C210.998 95.3923 211.589 95.1475 212.203 95.1475C212.818 95.1475 213.523 95.5891 213.427 96.1939C213.331 96.7987 212.664 96.9859 212.102 97.0579C211.147 97.1846 210.178 97.1846 209.222 97.0579C208.996 97.0529 208.78 96.962 208.618 96.8035C208.349 96.4531 208.709 95.9443 209.098 95.7859C209.53 95.7022 209.951 95.5718 210.355 95.3971L210.384 95.3923Z" fill="#F0F0F0"/>
<path d="M209.784 140.493C209.921 140.348 210.104 140.256 210.302 140.234C210.433 140.249 210.555 140.307 210.649 140.399C210.743 140.491 210.803 140.612 210.821 140.743C210.849 141.004 210.816 141.269 210.725 141.515C210.307 142.903 205.651 152.959 204.576 151.154C203.942 150.083 205.502 146.551 205.963 145.547C206.849 143.602 208.154 141.876 209.784 140.493Z" fill="#F0F0F0"/>
<path d="M206.995 91.5762C207.295 90.715 207.812 89.946 208.498 89.3442C209.237 88.8114 210.418 88.773 210.946 89.5074C211.546 90.3282 210.946 91.5762 210.029 92.013C209.112 92.4498 208.042 92.3154 207.034 92.1762C207.034 92.0274 207.034 91.8786 207.034 91.7298L206.995 91.5762Z" fill="#E6E6E6"/>
<path d="M210.249 167.392C205.261 168.242 200.165 168.242 195.177 167.392L189.316 150.112H216.115L210.249 167.392Z" fill="#F0F0F0"/>
<path d="M301.474 75.0689C301.371 75.0541 301.269 75.0283 301.172 74.9921C299.199 74.3393 296.204 71.2577 293.65 67.0721C291.096 62.8865 289.748 58.7921 290.079 56.7329C290.117 56.3813 290.255 56.048 290.477 55.7729C290.486 55.7569 290.498 55.7424 290.511 55.7297C290.579 55.6468 290.662 55.5769 290.756 55.5233C290.855 55.4644 290.961 55.4192 291.072 55.3889C291.417 55.3179 291.776 55.3479 292.104 55.4753C292.531 55.6164 292.936 55.815 293.309 56.0657C293.588 56.2481 293.88 56.4641 294.183 56.7089C294.351 56.8481 294.528 56.9969 294.706 57.1553C298.536 60.9082 301.366 65.5599 302.938 70.6865C302.996 70.9169 303.048 71.1665 303.096 71.3729C303.181 71.7557 303.241 72.1438 303.274 72.5345C303.321 72.9729 303.305 73.4158 303.226 73.8497C303.177 74.2142 303.008 74.5521 302.746 74.8097C302.692 74.8737 302.627 74.9273 302.554 74.9681C302.489 75.009 302.417 75.0398 302.343 75.0593C302.06 75.1447 301.759 75.148 301.474 75.0689Z" fill="#EBEBEB"/>
<path d="M301.474 75.069L301.311 74.805L295.795 65.7282C295.651 65.4834 295.503 65.2482 295.368 65.0178L290.218 56.5458C290.252 56.2765 290.34 56.0169 290.477 55.7826C290.525 55.6989 290.583 55.6215 290.65 55.5522L291.211 55.2114L292.896 54.189L293.664 55.437L293.799 55.6626L294.322 56.5314L294.706 57.165L302.938 70.6962L303.235 71.1762L303.811 72.1362L303.946 72.357L304.714 73.6098L302.76 74.7954L302.357 75.045C302.071 75.1379 301.764 75.1462 301.474 75.069Z" fill="#EBEBEB"/>
<path d="M292.9 54.1793C291.24 55.1921 292.531 60.3617 295.78 65.7281C299.03 71.0945 303.033 74.6273 304.694 73.6193C306.355 72.6113 305.064 67.4369 301.814 62.0705C298.564 56.7041 294.561 53.1713 292.9 54.1793Z" fill="#EBEBEB"/>
<path d="M292.9 54.1793C291.24 55.1921 292.531 60.3617 295.78 65.7281C299.03 71.0945 303.033 74.6273 304.694 73.6193C306.355 72.6113 305.064 67.4369 301.814 62.0705C298.564 56.7041 294.561 53.1713 292.9 54.1793Z" fill="#FAFAFA"/>
<path d="M293.769 55.3457C293.664 55.4071 293.581 55.5015 293.534 55.6145C294.917 55.6145 297.816 58.6865 300.393 62.9297C302.971 67.1729 304.368 71.1761 303.725 72.3953C303.846 72.401 303.966 72.371 304.07 72.3089C305.198 71.6273 303.825 67.2641 300.979 62.5793C298.133 57.8945 294.893 54.6593 293.769 55.3457Z" fill="#EBEBEB"/>
<path opacity="0.4" d="M293.769 55.3457C293.664 55.4071 293.581 55.5015 293.534 55.6145C294.917 55.6145 297.816 58.6865 300.393 62.9297C302.971 67.1729 304.368 71.1761 303.725 72.3953C303.846 72.401 303.966 72.371 304.07 72.3089C305.198 71.6273 303.825 67.2641 300.979 62.5793C298.133 57.8945 294.893 54.6593 293.769 55.3457Z" fill="#EBEBEB"/>
<path d="M272.88 28.4753C272.857 28.5431 272.828 28.6089 272.794 28.6721C272.117 29.9249 269.674 31.5857 266.554 32.8097C263.434 34.0337 260.487 34.4609 259.133 33.9905C258.903 33.921 258.696 33.7879 258.538 33.6065C258.527 33.5996 258.519 33.5895 258.514 33.5777C258.466 33.5206 258.429 33.4556 258.404 33.3857C258.377 33.3113 258.359 33.2339 258.351 33.1553C258.346 32.9139 258.409 32.676 258.533 32.4689C258.678 32.1965 258.861 31.946 259.076 31.7249C259.246 31.5431 259.427 31.3716 259.618 31.2113C259.728 31.1153 259.853 31.0145 259.983 30.9137C261.462 29.8219 263.085 28.9414 264.807 28.2977C266.503 27.6061 268.289 27.1584 270.111 26.9681L270.591 26.9393C270.859 26.9219 271.129 26.9219 271.397 26.9393C271.699 26.9597 271.997 27.0244 272.28 27.1313C272.519 27.2051 272.726 27.3552 272.871 27.5585C272.907 27.6029 272.934 27.6533 272.952 27.7073C272.971 27.7566 272.982 27.8084 272.986 27.8609C273.016 28.0717 272.979 28.2866 272.88 28.4753Z" fill="#EBEBEB"/>
<path d="M272.881 28.4754L272.684 28.557L265.887 31.2018L265.354 31.4034L259.009 33.8754C258.833 33.8196 258.67 33.7299 258.529 33.6114C258.479 33.5681 258.434 33.5199 258.394 33.4674L258.231 33.045L257.751 31.7826L258.687 31.413L258.855 31.3506L259.508 31.101L259.988 30.9186L270.111 26.9682L270.485 26.8242L271.201 26.5458L271.364 26.4834L272.324 26.1138L272.881 27.573L272.996 27.8754C273.02 28.0824 272.98 28.2919 272.881 28.4754Z" fill="#EBEBEB"/>
<path d="M257.746 31.7682C258.226 33.0114 261.884 32.7282 265.906 31.1922C269.928 29.6562 272.789 27.3522 272.304 26.1042C271.82 24.8562 268.172 25.1154 264.144 26.6802C260.117 28.245 257.261 30.5298 257.746 31.7682Z" fill="#EBEBEB"/>
<path d="M257.746 31.7682C258.226 33.0114 261.884 32.7282 265.906 31.1922C269.928 29.6562 272.789 27.3522 272.304 26.1042C271.82 24.8562 268.172 25.1154 264.144 26.6802C260.117 28.245 257.261 30.5298 257.746 31.7682Z" fill="#FAFAFA"/>
<path d="M258.638 31.3314C258.668 31.4084 258.722 31.4739 258.792 31.5186C258.96 30.5874 261.379 28.989 264.552 27.7554C267.725 26.5218 270.605 26.0514 271.349 26.6322C271.375 26.5528 271.375 26.4669 271.349 26.3874C271.022 25.5426 267.907 25.9506 264.398 27.3186C260.889 28.6866 258.312 30.4866 258.638 31.3314Z" fill="#EBEBEB"/>
<path opacity="0.4" d="M258.638 31.3314C258.668 31.4084 258.722 31.4739 258.792 31.5186C258.96 30.5874 261.379 28.989 264.552 27.7554C267.725 26.5218 270.605 26.0514 271.349 26.6322C271.375 26.5528 271.375 26.4669 271.349 26.3874C271.022 25.5426 267.907 25.9506 264.398 27.3186C260.889 28.6866 258.312 30.4866 258.638 31.3314Z" fill="#EBEBEB"/>
<path d="M258.792 31.5185C259.546 32.0993 262.411 31.6385 265.594 30.4001C268.776 29.1617 271.2 27.5633 271.354 26.6321C270.61 26.0513 267.749 26.5121 264.557 27.7553C261.365 28.9985 258.96 30.5873 258.792 31.5185Z" fill="#FAFAFA"/>
<path d="M273.451 94.725C272.327 92.8251 271.791 90.6343 271.911 88.4298C272.031 86.2253 272.803 84.1059 274.127 82.3397C275.452 80.5734 277.271 79.2395 279.353 78.5066C281.436 77.7737 283.689 77.6748 285.828 78.2222C287.967 78.7697 289.895 79.939 291.37 81.5823C292.844 83.2257 293.798 85.2692 294.111 87.4547C294.424 89.6402 294.083 91.8695 293.129 93.8607C292.175 95.852 290.653 97.5158 288.754 98.6418C286.205 100.152 283.161 100.587 280.291 99.8525C277.422 99.118 274.961 97.2736 273.451 94.725Z" fill="#EBEBEB"/>
<path d="M272.299 95.4113C271.174 93.5117 270.636 91.321 270.756 89.116C270.875 86.9111 271.645 84.791 272.969 83.0239C274.294 81.2568 276.112 79.9221 278.195 79.1884C280.277 78.4548 282.531 78.3552 284.67 78.9023C286.809 79.4494 288.739 80.6185 290.213 82.2619C291.688 83.9054 292.643 85.9492 292.956 88.135C293.269 90.3208 292.927 92.5505 291.973 94.542C291.02 96.5335 289.497 98.1974 287.597 99.3233C285.049 100.832 282.007 101.267 279.138 100.534C276.27 99.8002 273.81 97.9578 272.299 95.4113Z" fill="#EBEBEB"/>
<path d="M272.299 95.4113C271.174 93.5117 270.636 91.321 270.756 89.116C270.875 86.9111 271.645 84.791 272.969 83.0239C274.294 81.2568 276.112 79.9221 278.195 79.1884C280.277 78.4548 282.531 78.3552 284.67 78.9023C286.809 79.4494 288.739 80.6185 290.213 82.2619C291.688 83.9054 292.643 85.9492 292.956 88.135C293.269 90.3208 292.927 92.5505 291.973 94.542C291.02 96.5335 289.497 98.1974 287.597 99.3233C285.049 100.832 282.007 101.267 279.138 100.534C276.27 99.8002 273.81 97.9578 272.299 95.4113Z" fill="#FAFAFA"/>
<path d="M286.161 96.909C285.895 97.0698 285.618 97.2109 285.331 97.3314C283.354 98.2009 281.117 98.2651 279.093 97.5105C277.07 96.7559 275.421 95.2419 274.496 93.2904C273.571 91.3389 273.444 89.1037 274.142 87.06C274.839 85.0163 276.306 83.3251 278.231 82.3461C280.156 81.367 282.387 81.1772 284.449 81.817C286.512 82.4568 288.243 83.8757 289.276 85.7722C290.309 87.6687 290.561 89.8932 289.98 91.9729C289.398 94.0526 288.028 95.8234 286.161 96.909Z" fill="#EBEBEB"/>
<path d="M277.843 90.0593C276.624 88.6193 277.085 86.9249 278.952 85.5905L278.208 84.2561L279.403 83.5505L280.147 84.8849C281.222 84.353 282.404 84.077 283.603 84.0785L283.939 85.8833C282.938 85.8436 281.941 86.041 281.031 86.4593L282.173 88.5089C283.541 88.1537 285.101 87.8273 286.21 89.1233C287.429 90.5633 286.954 92.2817 285.034 93.6161L285.778 94.9505L284.582 95.6561L283.829 94.3121C282.978 94.7237 282.052 94.9588 281.107 95.0033L280.694 93.2465C281.474 93.2501 282.245 93.0864 282.955 92.7665L281.76 90.6353C280.411 90.9761 278.899 91.2881 277.843 90.0593ZM283.152 90.2417L284.112 91.9889C284.688 91.4657 284.789 90.9089 284.453 90.4961C284.184 90.1601 283.718 90.1457 283.152 90.2417ZM279.543 88.6337C279.807 88.9457 280.248 88.9745 280.786 88.8641L279.826 87.2081C279.307 87.7073 279.192 88.2257 279.543 88.6337Z" fill="#FAFAFA"/>
<path d="M295.92 33.8754C297.84 37.7634 295.521 42.8082 290.769 45.1458C286.017 47.4834 280.613 46.2258 278.697 42.333C276.782 38.4402 279.096 33.4002 283.848 31.0626C288.6 28.725 294 29.9874 295.92 33.8754Z" fill="#EBEBEB"/>
<path d="M295.157 32.3251C297.077 36.2179 294.763 41.2627 290.006 43.6003C285.25 45.9379 279.85 44.6755 277.939 40.7875C276.029 36.8995 278.333 31.8499 283.09 29.5171C287.846 27.1843 293.246 28.4371 295.157 32.3251Z" fill="#EBEBEB"/>
<path d="M295.157 32.3251C297.077 36.2179 294.763 41.2627 290.006 43.6003C285.25 45.9379 279.85 44.6755 277.939 40.7875C276.029 36.8995 278.333 31.8499 283.09 29.5171C287.846 27.1843 293.246 28.4371 295.157 32.3251Z" fill="#FAFAFA"/>
<path d="M292.94 33.2611C293.031 33.4483 293.108 33.6403 293.18 33.8179C293.18 33.8179 293.18 33.8467 293.18 33.8611C294.116 36.6931 292.378 40.1011 289.066 41.7091C285.754 43.3171 282.005 42.6691 280.33 40.1731C280.33 40.1731 280.33 40.1395 280.306 40.1299C280.21 39.9667 280.105 39.7891 280.013 39.6019C278.573 36.6931 280.316 32.8819 283.882 31.1491C287.449 29.4163 291.51 30.3523 292.94 33.2611Z" fill="#EBEBEB"/>
<path d="M289.055 39.1939C288.494 40.6339 287.063 41.1139 285.355 40.4179L284.673 41.5123L283.689 41.0323L284.366 39.9331C283.56 39.4464 282.891 38.7625 282.422 37.9459L283.603 36.9235C283.971 37.6209 284.511 38.2125 285.172 38.6419L286.219 36.9571C285.422 36.1891 284.567 35.2771 285.076 33.9523C285.638 32.5123 287.092 32.0323 288.825 32.7619L289.507 31.6675L290.491 32.1475L289.809 33.2563C290.443 33.6447 290.981 34.1714 291.383 34.7971L290.26 35.8483C289.95 35.3201 289.521 34.8714 289.007 34.5379L287.918 36.2947C288.719 37.0483 289.54 37.9363 289.055 39.1939ZM287.102 35.5171L287.995 34.0771C287.385 33.9139 286.939 34.0771 286.766 34.5043C286.593 34.9315 286.799 35.1715 287.102 35.5171ZM287.347 38.6755C287.394 38.5016 287.389 38.3176 287.331 38.1468C287.274 37.9759 287.168 37.8258 287.025 37.7155L286.185 39.0787C286.761 39.2419 287.188 39.0883 287.347 38.6755Z" fill="#FAFAFA"/>
<path d="M246.255 32.9345C244.402 37.7345 237.471 38.9297 231.053 34.9121C224.636 30.8945 222.658 24.0881 226.109 20.3297C229.09 17.0705 235.201 17.2241 240.106 20.2961C245.012 23.3681 247.853 28.8113 246.255 32.9345Z" fill="#EBEBEB"/>
<path d="M246.917 31.2258C245.174 35.7234 238.517 36.765 232.31 32.8818C226.104 28.9986 224.098 22.533 227.347 18.9618C230.165 15.8754 236.064 16.0818 240.85 19.0866C245.635 22.0914 248.429 27.3234 246.917 31.2258Z" fill="#EBEBEB"/>
<path d="M246.917 31.2258C245.174 35.7234 238.517 36.765 232.31 32.8818C226.104 28.9986 224.098 22.533 227.347 18.9618C230.165 15.8754 236.064 16.0818 240.85 19.0866C245.635 22.0914 248.429 27.3234 246.917 31.2258Z" fill="#FAFAFA"/>
<path d="M244.526 29.5602C244.44 29.7491 244.344 29.9334 244.238 30.1122C244.238 30.1122 244.238 30.141 244.238 30.1554C242.482 32.8434 237.922 33.1794 233.765 30.5826C229.608 27.9858 227.88 23.709 229.507 20.9346C229.507 20.9346 229.546 20.9346 229.536 20.8962C229.65 20.7296 229.774 20.5694 229.906 20.4162C231.912 18.0162 236.4 18.0834 240.086 20.4162C243.773 22.749 245.794 26.6802 244.526 29.5602Z" fill="#EBEBEB"/>
<path d="M240.241 26.0321C241.085 27.3473 240.601 28.7633 239.045 29.7425L239.525 30.9377L238.541 31.4177L238.061 30.2225C237.192 30.5877 236.244 30.7264 235.306 30.6257L235.177 29.0609C235.956 29.1785 236.753 29.0925 237.49 28.8113L236.751 26.9729C235.657 27.1649 234.418 27.3137 233.645 26.1185C232.801 24.8081 233.3 23.3729 234.898 22.3937L234.418 21.1985L235.402 20.7185L235.882 21.9233C236.572 21.6438 237.314 21.5192 238.057 21.5585L238.244 23.0897C237.635 23.0269 237.02 23.1091 236.449 23.3297L237.221 25.2497C238.321 25.0481 239.506 24.8993 240.241 26.0321ZM236.113 25.4417L235.484 23.8769C235.004 24.2705 234.874 24.7409 235.109 25.1201C235.306 25.4273 235.666 25.4753 236.113 25.4417ZM238.801 27.1073C238.618 26.8193 238.277 26.7569 237.841 26.8049L238.445 28.2929C238.925 27.9281 239.05 27.4817 238.801 27.1073Z" fill="#FAFAFA"/>
<path d="M210 188.733C261.399 188.733 303.067 186.3 303.067 183.299C303.067 180.298 261.399 177.866 210 177.866C158.6 177.866 116.933 180.298 116.933 183.299C116.933 186.3 158.6 188.733 210 188.733Z" fill="#F5F5F5"/>
<path d="M199.604 183.357C199.4 183.358 199.198 183.318 199.01 183.24C198.822 183.162 198.651 183.048 198.506 182.904C198.362 182.76 198.248 182.589 198.17 182.401C198.093 182.212 198.053 182.01 198.054 181.806V180.256H201.155V181.806C201.155 182.218 200.991 182.612 200.7 182.903C200.41 183.194 200.015 183.357 199.604 183.357Z" fill="#263238"/>
<path d="M254.296 183.357C254.092 183.357 253.89 183.317 253.702 183.239C253.514 183.161 253.343 183.047 253.199 182.903C253.055 182.759 252.941 182.588 252.863 182.4C252.785 182.212 252.745 182.01 252.745 181.806V180.256H255.846V181.806C255.847 182.01 255.807 182.212 255.729 182.401C255.652 182.589 255.537 182.76 255.393 182.904C255.249 183.048 255.078 183.162 254.89 183.24C254.701 183.318 254.499 183.358 254.296 183.357Z" fill="#263238"/>
<path d="M282.539 183.357C282.335 183.357 282.133 183.317 281.945 183.239C281.757 183.161 281.586 183.047 281.442 182.903C281.298 182.759 281.184 182.588 281.106 182.4C281.028 182.212 280.988 182.01 280.988 181.806V180.256H284.089V181.806C284.09 182.01 284.05 182.212 283.972 182.401C283.895 182.589 283.78 182.76 283.636 182.904C283.492 183.048 283.321 183.162 283.133 183.24C282.944 183.318 282.742 183.358 282.539 183.357Z" fill="#263238"/>
<path d="M284.819 162.266H195.337V181.595H284.819V162.266Z" fill="#F59C42"/>
<path opacity="0.3" d="M284.819 162.266H195.337V181.595H284.819V162.266Z" fill="white"/>
<path opacity="0.2" d="M284.733 162.266H257.008V181.6H284.733V162.266Z" fill="black"/>
<path d="M290.33 114.155L285.942 153.616C285.65 156.386 282.904 158.527 279.578 158.623C279.498 158.627 279.418 158.627 279.338 158.623H224.027C220.139 158.623 217.082 155.858 217.422 152.651L221.805 113.191C222.102 110.354 224.973 108.175 228.414 108.175H283.979C287.762 108.309 290.642 111.016 290.33 114.155Z" fill="#F59C42"/>
<path opacity="0.5" d="M290.33 114.155L285.942 153.616C285.65 156.386 282.904 158.527 279.578 158.623C279.498 158.627 279.418 158.627 279.338 158.623H224.027C220.139 158.623 217.082 155.858 217.422 152.651L221.805 113.191C222.102 110.354 224.973 108.175 228.414 108.175H283.979C287.762 108.309 290.642 111.016 290.33 114.155Z" fill="white"/>
<path d="M293.367 114.155L288.98 153.616C288.687 156.386 285.947 158.527 282.615 158.623C278.852 158.507 275.939 155.795 276.27 152.661L280.652 113.2C280.945 110.431 283.686 108.29 287.017 108.189C290.785 108.309 293.699 111.016 293.367 114.155Z" fill="#F59C42"/>
<path opacity="0.3" d="M293.367 114.155L288.98 153.616C288.687 156.386 285.947 158.527 282.615 158.623C278.852 158.507 275.939 155.795 276.27 152.661L280.652 113.2C280.945 110.431 283.686 108.29 287.017 108.189C290.785 108.309 293.699 111.016 293.367 114.155Z" fill="white"/>
<path d="M282.284 147.904H243.779C239.911 147.904 236.775 151.039 236.775 154.907V159.4C236.775 163.268 239.911 166.403 243.779 166.403H282.284C286.152 166.403 289.287 163.268 289.287 159.4V154.907C289.287 151.039 286.152 147.904 282.284 147.904Z" fill="#F59C42"/>
<path opacity="0.3" d="M282.284 147.904H243.779C239.911 147.904 236.775 151.039 236.775 154.907V159.4C236.775 163.268 239.911 166.403 243.779 166.403H282.284C286.152 166.403 289.287 163.268 289.287 159.4V154.907C289.287 151.039 286.152 147.904 282.284 147.904Z" fill="white"/>
<path d="M257.492 147.904H197.555C193.766 147.904 190.695 150.975 190.695 154.763V159.544C190.695 163.332 193.766 166.403 197.555 166.403H257.492C261.28 166.403 264.351 163.332 264.351 159.544V154.763C264.351 150.975 261.28 147.904 257.492 147.904Z" fill="#F59C42"/>
<path opacity="0.6" d="M257.492 147.904H197.555C193.766 147.904 190.695 150.975 190.695 154.763V159.544C190.695 163.332 193.766 166.403 197.555 166.403H257.492C261.28 166.403 264.351 163.332 264.351 159.544V154.763C264.351 150.975 261.28 147.904 257.492 147.904Z" fill="white"/>
<path d="M204.097 167.699L200.9 177.952L197.219 177.712L199.916 164.181L204.097 167.699Z" fill="#FF8B7B"/>
<path d="M242.809 128.296C242.809 128.296 236.089 128.066 231.164 126.568C231.164 126.568 229.109 130.816 227.477 132.381L226.825 133.005C226.825 133.005 207.543 128.315 204.908 134.378C202.657 139.547 196.796 173.527 196.796 173.527H203.357C203.357 173.527 207.97 159.179 212.295 148.567C212.525 148.005 213.322 145.019 213.322 145.019C221.218 148.426 229.788 149.986 238.378 149.579C240.298 149.488 243.178 145.48 243.217 139.25C243.264 135.594 243.128 131.938 242.809 128.296Z" fill="#263238"/>
<path opacity="0.2" d="M228.318 146.008C222.927 143.498 215.502 136.768 212.055 134.253C211.254 133.647 210.34 133.205 209.367 132.952C212.406 132.352 216.279 132.472 219.606 132.76L227.454 136.408L240.058 142.298L241.546 146.815C240.956 149.215 239.43 149.546 238.066 149.613C232.761 149.824 227.452 149.314 222.284 148.096C222.913 148.149 233.521 148.408 228.318 146.008Z" fill="black"/>
<path d="M190.216 150.52L183.289 157.274L180.692 155.143L186.073 147.357L190.216 150.52Z" fill="#FF8B7B"/>
<path d="M181.201 154.211L184.22 156.611C184.285 156.661 184.33 156.732 184.348 156.812C184.367 156.891 184.357 156.975 184.321 157.048L182.708 160.37C182.64 160.511 182.518 160.62 182.37 160.673C182.222 160.726 182.059 160.719 181.916 160.653L181.806 160.586C180.572 159.573 179.516 158.618 177.966 157.384C176.123 155.944 176.415 156.515 174.231 154.83C172.911 153.813 173.852 152.142 174.462 152.507C177.241 154.197 178.561 153.995 180.255 153.866C180.602 153.863 180.938 153.986 181.201 154.211Z" fill="#263238"/>
<path d="M179.968 154.067C179.98 154.075 179.994 154.079 180.008 154.079C180.023 154.079 180.037 154.075 180.049 154.067C180.058 154.055 180.064 154.04 180.064 154.024C180.064 154.008 180.058 153.993 180.049 153.981C179.992 153.832 179.401 152.507 178.96 152.426C178.917 152.419 178.873 152.422 178.833 152.435C178.792 152.449 178.754 152.472 178.724 152.502C178.676 152.553 178.639 152.614 178.617 152.68C178.595 152.746 178.587 152.817 178.595 152.886C178.667 153.366 179.468 153.846 179.939 154.082L179.968 154.067ZM178.974 152.565C179.219 152.651 179.588 153.304 179.833 153.818C179.2 153.462 178.806 153.102 178.768 152.858C178.758 152.812 178.761 152.765 178.777 152.721C178.792 152.677 178.818 152.638 178.854 152.608C178.865 152.595 178.879 152.585 178.895 152.579C178.911 152.573 178.928 152.571 178.945 152.574L178.974 152.565Z" fill="#F59C42"/>
<path d="M179.967 154.067C179.981 154.069 179.996 154.067 180.008 154.061C180.021 154.055 180.032 154.046 180.039 154.034C180.314 153.661 180.463 153.21 180.466 152.747C180.452 152.672 180.423 152.601 180.381 152.538C180.339 152.474 180.285 152.42 180.222 152.378C180.171 152.335 180.106 152.311 180.039 152.311C179.973 152.311 179.908 152.335 179.857 152.378C179.564 152.632 179.718 153.659 179.905 154.043C179.913 154.051 179.923 154.058 179.934 154.062C179.944 154.066 179.956 154.068 179.967 154.067ZM180.078 152.474L180.14 152.522C180.188 152.552 180.229 152.592 180.26 152.639C180.292 152.686 180.313 152.739 180.322 152.795C180.322 153.168 180.21 153.533 180.001 153.842C179.847 153.4 179.799 152.646 179.967 152.493C179.982 152.483 180 152.478 180.018 152.478C180.036 152.478 180.053 152.483 180.068 152.493L180.078 152.474Z" fill="#F59C42"/>
<path d="M234.837 127.341C240.149 128.255 245.568 128.363 250.912 127.662C250.912 127.662 256.451 148.974 240.626 148.95C234.774 148.95 232.389 146.469 228.626 144.15C220.062 138.914 213.054 131.267 209.704 131.67C204.875 132.28 207.501 138.045 187.624 153.664L183.602 150.05C183.602 150.05 198.645 116.982 208.562 116.982C217.139 116.982 230.642 130.192 232.456 130.235C234.27 130.278 234.837 127.341 234.837 127.341Z" fill="#263238"/>
<path opacity="0.2" d="M206.996 132.899C205.781 133.423 204.865 134.147 204.428 135.155C204.085 136.076 203.84 137.03 203.698 138.002C203.127 138.794 202.46 139.672 201.663 140.642C202.321 134.2 206.996 132.899 206.996 132.899Z" fill="black"/>
<path d="M196.081 177.861C196.088 177.847 196.091 177.83 196.089 177.814C196.087 177.798 196.08 177.783 196.069 177.772C196.058 177.76 196.043 177.752 196.027 177.749C196.011 177.746 195.995 177.748 195.98 177.755C195.822 177.808 194.42 178.355 194.314 178.811C194.305 178.855 194.307 178.9 194.32 178.943C194.332 178.986 194.355 179.024 194.386 179.056C194.433 179.112 194.493 179.156 194.561 179.182C194.629 179.209 194.703 179.219 194.775 179.21C195.255 179.162 195.802 178.351 196.081 177.875V177.861ZM194.478 178.821C194.583 178.576 195.279 178.221 195.817 177.995C195.418 178.634 195.03 179.023 194.756 179.051C194.708 179.058 194.659 179.053 194.613 179.035C194.568 179.017 194.528 178.988 194.497 178.951C194.485 178.938 194.476 178.922 194.471 178.906C194.466 178.889 194.465 178.872 194.468 178.855L194.478 178.821Z" fill="#F59C42"/>
<path d="M196.081 177.861C196.084 177.846 196.082 177.831 196.076 177.818C196.07 177.804 196.06 177.792 196.048 177.784C195.673 177.489 195.214 177.321 194.737 177.304C194.659 177.314 194.583 177.34 194.514 177.381C194.446 177.421 194.386 177.475 194.339 177.539C194.291 177.589 194.262 177.653 194.257 177.721C194.251 177.79 194.27 177.858 194.31 177.914C194.56 178.231 195.63 178.115 196.038 177.943C196.053 177.935 196.065 177.923 196.072 177.908C196.08 177.894 196.083 177.877 196.081 177.861ZM194.435 177.674L194.493 177.611C194.525 177.563 194.567 177.522 194.617 177.491C194.667 177.46 194.723 177.441 194.781 177.434C195.168 177.449 195.541 177.582 195.851 177.813C195.371 177.952 194.603 177.971 194.454 177.784C194.443 177.769 194.437 177.75 194.437 177.731C194.437 177.712 194.443 177.694 194.454 177.679L194.435 177.674Z" fill="#F59C42"/>
<path d="M197.19 177.141L201.164 176.661C201.248 176.65 201.333 176.668 201.405 176.713C201.476 176.757 201.53 176.826 201.558 176.906L202.82 180.525C202.874 180.678 202.866 180.847 202.797 180.994C202.727 181.142 202.603 181.256 202.45 181.312C202.408 181.326 202.365 181.336 202.321 181.341C200.67 181.509 199.196 181.59 197.146 181.821C194.746 182.104 195.375 182.301 192.534 182.699C190.825 182.92 190.278 181.01 190.993 180.827C194.271 180.021 195.092 178.907 196.234 177.559C196.492 177.309 196.831 177.161 197.19 177.141Z" fill="#263238"/>
<path d="M213.707 88.2401C213.093 88.1489 213.03 87.6833 212.709 87.1457C212.709 87.1457 211.749 84.9953 212.517 84.6785C213.294 84.5943 214.077 84.5655 214.859 84.5921C215.402 84.6274 215.919 84.8364 216.334 85.1882C216.749 85.54 217.039 86.0159 217.163 86.5457C217.845 88.8881 213.707 88.2401 213.707 88.2401Z" fill="#FF8B7B"/>
<path d="M213.164 87.9282L210.404 85.8114C210.303 85.7343 210.219 85.638 210.155 85.528C210.092 85.418 210.051 85.2965 210.035 85.1707C210.019 85.0448 210.028 84.917 210.062 84.7946C210.095 84.6723 210.153 84.5578 210.231 84.4578L210.927 83.5698C211.06 83.3982 211.247 83.2768 211.458 83.2253C211.669 83.1739 211.892 83.1955 212.089 83.2866L214.858 84.573L213.164 87.9282Z" fill="#FF8B7B"/>
<path d="M215.056 88.0002L217.676 93.3762L221.017 92.7762L216.539 85.7202L215.056 88.0002Z" fill="#FF8B7B"/>
<path d="M236.329 100.053L234.505 106.379L226.374 103.768C221.017 102.381 215.176 90.2369 215.176 90.2369L218.819 88.7969L227.152 98.3969L236.329 100.053Z" fill="#F59C42"/>
<path d="M231.908 117.554C232.743 119.805 233.243 123.76 229.988 128.819C229.988 128.819 242.531 130.682 251.415 130.12C252.035 126.506 250.503 118.989 253.758 107.402C253.936 106.767 253.979 106.102 253.883 105.45C253.788 104.798 253.556 104.173 253.204 103.617C252.851 103.06 252.385 102.583 251.837 102.218C251.288 101.853 250.668 101.608 250.019 101.498C249.284 101.373 248.507 101.258 247.705 101.167C244.595 100.802 242.252 100.207 239.492 100.255C238.575 100.255 237.788 99.9425 236.881 100.01C234.884 100.154 232.446 104.138 231.361 107.997C230.532 111.161 230.723 114.505 231.908 117.554Z" fill="#F59C42"/>
<path opacity="0.4" d="M231.908 117.554C232.743 119.805 233.243 123.76 229.988 128.819C229.988 128.819 242.531 130.682 251.415 130.12C252.035 126.506 250.503 118.989 253.758 107.402C253.936 106.767 253.979 106.102 253.883 105.45C253.788 104.798 253.556 104.173 253.204 103.617C252.851 103.06 252.385 102.583 251.837 102.218C251.288 101.853 250.668 101.608 250.019 101.498C249.284 101.373 248.507 101.258 247.705 101.167C244.595 100.802 242.252 100.207 239.492 100.255C238.575 100.255 237.788 99.9425 236.881 100.01C234.884 100.154 232.446 104.138 231.361 107.997C230.532 111.161 230.723 114.505 231.908 117.554Z" fill="white"/>
<path d="M234.597 129.765C232.511 129.722 230.471 129.152 228.664 128.109C230.099 124.057 230.478 119.705 229.763 115.466C229.384 113.253 228.712 111.021 229.062 108.803C229.638 105.151 232.792 102.539 235.725 100.279C236.272 99.8562 236.882 100.135 237.563 100.01C234.362 107.546 234.362 117.271 234.597 129.765Z" fill="#F59C42"/>
<path d="M253.023 129.928C252.951 130.265 252.784 130.575 252.542 130.82C252.299 131.065 251.992 131.235 251.655 131.311C250.98 131.443 250.286 131.443 249.61 131.311C247.306 131.023 244.873 130.629 242.569 130.351C241.277 120.226 242.397 109.94 245.838 100.331C248.42 100.259 251.228 100.543 252.822 102.573C254.079 104.171 254.002 106.413 253.863 108.429C253.378 115.619 253.926 122.791 253.023 129.928Z" fill="#F59C42"/>
<path opacity="0.2" d="M246.611 113.421C247.271 110.062 248.27 106.778 249.592 103.619L249.827 105.755L250.528 106.648C249.361 110.191 255.376 116.08 248.608 124.279C248.447 124.473 248.228 124.609 247.983 124.669C247.739 124.729 247.481 124.708 247.249 124.61C244.379 123.448 241.201 119.738 241.201 119.738L242.689 115.931C244.715 116.877 246.064 116.301 246.611 113.421Z" fill="black"/>
<path d="M235.633 114.074L239.468 117.866L241.153 115.182L237.02 111.904L235.633 114.074Z" fill="#FF8B7B"/>
<path d="M235.959 116.238H224.482L223.172 101.262H234.649L235.959 116.238Z" fill="#263238"/>
<path opacity="0.5" d="M235.959 116.238H224.482L223.172 101.262H234.649L235.959 116.238Z" fill="white"/>
<path d="M235.551 116.162H224.074L222.769 101.19H234.241L235.551 116.162Z" fill="#263238"/>
<path opacity="0.8" d="M235.551 116.162H224.074L222.769 101.19H234.241L235.551 116.162Z" fill="white"/>
<path d="M231.001 102.122H226.172L226.009 100.254H230.838L231.001 102.122Z" fill="#263238"/>
<path d="M226.009 100.254L226.484 100.086H231.481L231.548 100.883L231.178 101.315L231.154 101.968L231.001 102.122L230.838 100.254H226.009Z" fill="#263238"/>
<path opacity="0.5" d="M226.009 100.254L226.484 100.086H231.481L231.548 100.883L231.178 101.315L231.154 101.968L231.001 102.122L230.838 100.254H226.009Z" fill="black"/>
<path d="M231.985 113.68L232.806 114.376C232.957 114.506 233.137 114.597 233.33 114.643C233.524 114.689 233.726 114.688 233.919 114.64L235.753 114.184C236.487 113.997 237.02 111.904 237.02 111.904C236.094 110.791 233.31 110.464 233.31 110.464C233.179 110.421 233.041 110.404 232.904 110.415C232.766 110.426 232.633 110.464 232.51 110.527C232.388 110.59 232.279 110.677 232.191 110.782C232.102 110.887 232.035 111.009 231.994 111.141L231.601 112.408C231.532 112.634 231.531 112.876 231.6 113.102C231.668 113.329 231.802 113.53 231.985 113.68Z" fill="#FF8B7B"/>
<path d="M253.901 110.008C254.309 107.795 254.381 103.288 252.034 102.448C249.303 101.464 248.573 105.587 247.988 109.307C247.402 113.027 246.245 117.688 245.353 117.208C243.5 116.248 240.245 114.117 240.245 114.117L238.282 117.16C238.282 117.16 245.132 124.461 248.247 122.757C251.761 120.846 253.383 112.826 253.901 110.008Z" fill="#F59C42"/>
<path d="M245.56 95.0561C245.155 96.8761 245.174 98.765 245.617 100.576C245.617 100.576 238.105 105.376 238.105 100.437C238.105 100.437 240.438 101.109 240.635 98.1137C240.745 96.4145 242.521 94.6913 245.56 95.0561Z" fill="#FF8B7B"/>
<path opacity="0.2" d="M240.635 98.1136C240.836 96.544 242.286 94.9456 244.916 95.0128L245.089 95.1712L245.276 95.5168C245.276 95.5168 243.582 99.8368 240.347 99.304C240.493 98.921 240.589 98.521 240.635 98.1136Z" fill="black"/>
<path d="M247.278 89.1761C246.692 93.2561 246.534 94.9985 244.292 96.9377C240.932 99.8561 236.036 98.2481 235.383 94.0577C234.803 90.2993 235.863 84.2609 239.996 82.9505C240.699 82.7233 241.44 82.637 242.176 82.6965C242.912 82.7559 243.629 82.9601 244.287 83.2971C244.944 83.6342 245.528 84.0976 246.006 84.6608C246.484 85.224 246.846 85.876 247.071 86.5793C247.341 87.4172 247.411 88.3062 247.278 89.1761Z" fill="#FF8B7B"/>
<path d="M244.561 96.6689C245.946 96.4283 247.291 95.9987 248.559 95.3921C249.14 93.5681 249.346 92.9921 249.797 91.3313C250.628 88.2545 249.956 84.3617 246.999 83.2001C245.977 82.7969 242.813 80.9393 241.676 82.5713C241.383 82.9841 247.181 89.8481 244.561 96.6689Z" fill="#263238"/>
<path d="M238.186 91.4226C237.828 92.1619 237.369 92.8483 236.823 93.4626C236.983 93.5983 237.171 93.6974 237.373 93.7529C237.576 93.8085 237.788 93.8192 237.994 93.7842L238.186 91.4226Z" fill="#FF5652"/>
<path d="M241.83 89.3681C241.857 89.3659 241.884 89.356 241.906 89.3393C241.923 89.3262 241.938 89.3098 241.949 89.291C241.959 89.2723 241.966 89.2516 241.969 89.2302C241.972 89.2087 241.97 89.187 241.964 89.1662C241.958 89.1454 241.949 89.1259 241.935 89.1089C241.754 88.861 241.516 88.6602 241.241 88.5232C240.967 88.3862 240.663 88.3171 240.356 88.3217C240.314 88.3277 240.275 88.3491 240.247 88.3819C240.22 88.4147 240.206 88.4566 240.207 88.4993C240.211 88.5418 240.231 88.5811 240.263 88.6089C240.296 88.6367 240.337 88.6508 240.38 88.6481C240.634 88.6477 240.884 88.7076 241.11 88.8227C241.336 88.9379 241.532 89.1051 241.681 89.3105C241.698 89.3325 241.721 89.3493 241.747 89.3595C241.774 89.3696 241.802 89.3726 241.83 89.3681Z" fill="#263238"/>
<path d="M235.772 88.5954C235.799 88.5918 235.826 88.5819 235.849 88.5666C236.051 88.4115 236.287 88.3071 236.537 88.262C236.788 88.2169 237.046 88.2325 237.289 88.3074C237.329 88.3232 237.374 88.3224 237.413 88.3053C237.453 88.2883 237.484 88.2562 237.5 88.2162C237.508 88.1961 237.511 88.1746 237.511 88.153C237.51 88.1314 237.505 88.1102 237.496 88.0906C237.487 88.0709 237.474 88.0533 237.459 88.0386C237.443 88.0239 237.424 88.0125 237.404 88.005C237.112 87.9122 236.801 87.8908 236.499 87.9426C236.197 87.9944 235.911 88.1178 235.666 88.3026C235.635 88.3231 235.612 88.3537 235.601 88.3892C235.589 88.4248 235.59 88.4631 235.604 88.4979C235.617 88.5328 235.642 88.5619 235.675 88.5805C235.707 88.5991 235.745 88.6061 235.782 88.6002L235.772 88.5954Z" fill="#263238"/>
<path d="M240.587 91.0626C240.563 91.3938 240.361 91.6482 240.14 91.6338C239.919 91.6194 239.771 91.3314 239.799 90.9954C239.828 90.6594 240.025 90.4098 240.241 90.4242C240.457 90.4386 240.611 90.7266 240.587 91.0626Z" fill="#263238"/>
<path d="M236.809 90.7601C236.785 91.0913 236.584 91.3457 236.368 91.3313C236.152 91.3169 235.998 91.0289 236.022 90.6929C236.046 90.3569 236.248 90.1073 236.464 90.1217C236.68 90.1361 236.843 90.4193 236.809 90.7601Z" fill="#263238"/>
<path d="M236.56 90.1457L235.777 89.8481C235.777 89.8481 236.137 90.5105 236.56 90.1457Z" fill="#263238"/>
<path d="M240.337 90.4529L239.55 90.1553C239.55 90.1553 239.915 90.8081 240.337 90.4529Z" fill="#263238"/>
<path d="M240.117 94.4034C240.208 94.3037 240.29 94.196 240.361 94.0818C240.375 94.0667 240.383 94.047 240.383 94.0266C240.383 94.0061 240.375 93.9864 240.361 93.9714C240.343 93.9619 240.321 93.9597 240.301 93.965C240.28 93.9703 240.263 93.9828 240.251 94.0002C240.072 94.2884 239.827 94.5302 239.537 94.7062C239.247 94.8822 238.919 94.9873 238.581 95.013C238.559 95.013 238.538 95.0216 238.523 95.0369C238.508 95.0522 238.499 95.0729 238.499 95.0946C238.5 95.1154 238.509 95.1349 238.525 95.1492C238.54 95.1635 238.56 95.1714 238.581 95.1714C238.875 95.1511 239.162 95.0728 239.425 94.941C239.689 94.8092 239.924 94.6265 240.117 94.4034Z" fill="#263238"/>
<path d="M247.984 92.4978C247.842 92.866 247.628 93.2024 247.356 93.4875C247.083 93.7726 246.756 94.0007 246.395 94.1586C245.435 94.5762 244.796 93.7458 244.955 92.7522C245.089 91.8642 245.761 90.573 246.793 90.573C247.154 90.5855 247.496 90.7405 247.743 91.004C247.991 91.2675 248.124 91.6182 248.113 91.9794C248.104 92.1589 248.06 92.335 247.984 92.4978Z" fill="#FF8B7B"/>
<path d="M239.564 82.1152C238.338 82.3709 237.255 83.0804 236.53 84.1014C235.805 85.1224 235.493 86.3795 235.657 87.6208C236.338 87.7312 237.025 87.9328 237.706 88.0384C237.613 87.6666 237.608 87.2782 237.692 86.9041C237.775 86.53 237.944 86.1805 238.186 85.8832C238.046 86.6659 238.095 87.4708 238.33 88.2304C238.844 88.288 239.497 88.3024 240.01 88.36C240.01 87.5344 240.053 87.0688 240.058 86.2432C240.404 87.064 240.793 87.88 241.143 88.7056C241.709 88.6917 242.266 88.849 242.741 89.1568C242.573 88.3552 242.401 87.472 242.233 86.6704C243.22 87.8775 243.761 89.3879 243.764 90.9472C244.245 90.1187 244.524 89.1887 244.579 88.2322C244.634 87.2758 244.463 86.3198 244.081 85.4416C243.303 83.6992 241.436 81.7264 239.564 82.1152Z" fill="#263238"/>
<path d="M245.276 99.5874C243.578 100.776 241.796 101.839 239.943 102.77C240.107 103.864 240.74 105.463 241.7 106.216C244.705 103.955 245.627 102.635 246.5 100.331C246.375 99.7218 245.795 99.237 245.276 99.5874Z" fill="#F59C42"/>
<path opacity="0.7" d="M245.276 99.5874C243.578 100.776 241.796 101.839 239.943 102.77C240.107 103.864 240.74 105.463 241.7 106.216C244.705 103.955 245.627 102.635 246.5 100.331C246.375 99.7218 245.795 99.237 245.276 99.5874Z" fill="white"/>
<path d="M237.635 100.072C236.641 101.752 236.814 103.744 237.611 105.53C238.355 104.57 239.252 103.768 240.011 102.808C238.921 101.848 239.204 101.042 239.382 100.134C238.841 99.9412 238.259 99.8899 237.692 99.9856L237.601 100.216C237.668 100.197 237.553 100.091 237.635 100.072Z" fill="#F59C42"/>
<path opacity="0.7" d="M237.635 100.072C236.641 101.752 236.814 103.744 237.611 105.53C238.355 104.57 239.252 103.768 240.011 102.808C238.921 101.848 239.204 101.042 239.382 100.134C238.841 99.9412 238.259 99.8899 237.692 99.9856L237.601 100.216C237.668 100.197 237.553 100.091 237.635 100.072Z" fill="white"/>
<path d="M262.589 75.5249H251.923C251.85 71.3545 250.143 67.3795 247.168 64.4559C244.193 61.5322 240.189 59.894 236.018 59.894C231.847 59.894 227.843 61.5322 224.868 64.4559C221.893 67.3795 220.186 71.3545 220.113 75.5249H209.448C209.4 72.0056 210.053 68.5119 211.367 65.2468C212.681 61.9816 214.63 59.0101 217.102 56.5047C219.574 53.9992 222.52 52.0098 225.767 50.652C229.014 49.2942 232.498 48.595 236.018 48.595C239.538 48.595 243.022 49.2942 246.27 50.652C249.517 52.0098 252.462 53.9992 254.934 56.5047C257.406 59.0101 259.355 61.9816 260.669 65.2468C261.983 68.5119 262.636 72.0056 262.589 75.5249Z" fill="#F59C42"/>
<path d="M249.786 67.576L259.031 62.2384C256.695 58.2015 253.342 54.847 249.306 52.5088L243.969 61.7536C246.385 63.1511 248.391 65.159 249.786 67.576Z" fill="#F59C42"/>
<path opacity="0.8" d="M213.004 62.2385C210.667 66.2761 209.44 70.8599 209.447 75.5249H220.113C220.109 72.7336 220.844 69.9911 222.244 67.5761L213.004 62.2385Z" fill="white"/>
<path opacity="0.2" d="M251.923 75.5249H262.589C262.595 70.86 261.368 66.2762 259.032 62.2385L249.787 67.5761C251.19 69.9898 251.928 72.7329 251.923 75.5249Z" fill="black"/>
<path opacity="0.6" d="M228.067 61.7536L222.73 52.5088C218.694 54.847 215.341 58.2015 213.005 62.2384L222.245 67.576C223.644 65.1597 225.651 63.1522 228.067 61.7536Z" fill="white"/>
<path opacity="0.4" d="M236.016 59.6082V48.9522C231.351 48.9462 226.767 50.1732 222.729 52.509L228.067 61.7538C230.481 60.3504 233.224 59.6102 236.016 59.6082Z" fill="white"/>
<path opacity="0.2" d="M243.969 61.7538L249.307 52.509C245.267 50.1726 240.682 48.9456 236.016 48.9522V59.6082C238.81 59.6094 241.554 60.3496 243.969 61.7538Z" fill="white"/>
<path d="M236.016 74.1904L249.681 59.248L250.939 60.352L238.065 76.24L236.016 74.1904Z" fill="#263238"/>
<path d="M238.474 76.2402C238.475 76.7264 238.331 77.202 238.062 77.6068C237.792 78.0116 237.409 78.3274 236.96 78.5141C236.511 78.7008 236.017 78.7502 235.54 78.6559C235.063 78.5616 234.624 78.3279 234.28 77.9844C233.936 77.6409 233.701 77.203 233.606 76.7262C233.511 76.2493 233.559 75.7549 233.745 75.3056C233.931 74.8562 234.246 74.4721 234.65 74.2019C235.055 73.9316 235.53 73.7874 236.016 73.7874C236.667 73.7874 237.292 74.0456 237.752 74.5055C238.213 74.9653 238.473 75.5892 238.474 76.2402Z" fill="#263238"/>
<path d="M167.535 181.614C173.903 181.29 178.802 175.866 178.478 169.499C178.155 163.131 172.73 158.232 166.363 158.556C159.996 158.879 155.096 164.303 155.42 170.671C155.744 177.038 161.168 181.937 167.535 181.614Z" fill="#F59C42"/>
<path d="M179.88 169.528C179.972 171.802 179.389 174.052 178.204 175.995C177.019 177.938 175.285 179.486 173.221 180.444C171.157 181.403 168.856 181.728 166.607 181.38C164.358 181.032 162.263 180.025 160.585 178.488C158.908 176.95 157.723 174.95 157.181 172.74C156.639 170.529 156.764 168.208 157.54 166.069C158.315 163.93 159.707 162.068 161.54 160.719C163.373 159.37 165.564 158.593 167.837 158.488C169.354 158.418 170.869 158.648 172.297 159.166C173.724 159.683 175.035 160.478 176.154 161.504C177.273 162.53 178.179 163.767 178.818 165.144C179.458 166.521 179.818 168.011 179.88 169.528Z" fill="#F59C42"/>
<path opacity="0.4" d="M179.88 169.528C179.972 171.802 179.389 174.052 178.204 175.995C177.019 177.938 175.285 179.486 173.221 180.444C171.157 181.403 168.856 181.728 166.607 181.38C164.358 181.032 162.263 180.025 160.585 178.488C158.908 176.95 157.723 174.95 157.181 172.74C156.639 170.529 156.764 168.208 157.54 166.069C158.315 163.93 159.707 162.068 161.54 160.719C163.373 159.37 165.564 158.593 167.837 158.488C169.354 158.418 170.869 158.648 172.297 159.166C173.724 159.683 175.035 160.478 176.154 161.504C177.273 162.53 178.179 163.767 178.818 165.144C179.458 166.521 179.818 168.011 179.88 169.528Z" fill="white"/>
<path d="M176.981 169.634C177.054 171.341 176.618 173.03 175.731 174.49C174.843 175.949 173.543 177.113 171.994 177.833C170.445 178.554 168.718 178.799 167.03 178.539C165.342 178.278 163.769 177.522 162.51 176.368C161.251 175.214 160.362 173.712 159.956 172.053C159.551 170.393 159.646 168.651 160.23 167.046C160.814 165.441 161.86 164.045 163.237 163.034C164.615 162.024 166.26 161.444 167.967 161.368C169.102 161.318 170.235 161.492 171.303 161.881C172.37 162.269 173.351 162.864 174.188 163.632C175.025 164.399 175.703 165.325 176.182 166.355C176.662 167.385 176.933 168.499 176.981 169.634Z" fill="#F59C42"/>
<g opacity="0.3">
<path d="M172.219 171.683C172.637 173.579 171.384 174.914 169.032 175.216L169.061 176.8L167.621 176.862L167.592 175.283C166.353 175.241 165.141 174.913 164.05 174.323L164.621 172.514C165.516 173.038 166.523 173.344 167.559 173.406L167.511 170.978C166.071 170.637 164.511 170.176 164.151 168.453C163.728 166.562 165.01 165.208 167.41 164.93L167.381 163.35L168.821 163.288L168.855 164.882C169.832 164.918 170.791 165.155 171.672 165.578L171.192 167.378C170.482 166.999 169.697 166.779 168.893 166.734L168.946 169.264C170.323 169.595 171.859 170.046 172.219 171.683ZM167.467 168.933L167.434 166.864C166.647 167.056 166.287 167.517 166.392 168.059C166.488 168.501 166.906 168.741 167.467 168.933ZM169.978 172.158C169.887 171.746 169.498 171.501 168.955 171.338L168.999 173.306C169.743 173.114 170.098 172.701 169.978 172.158Z" fill="white"/>
</g>
<path d="M137.957 179.786C137.88 181.576 143.549 183.271 150.619 183.568C157.69 183.866 163.483 182.661 163.579 180.871C163.675 179.08 157.982 177.386 150.917 177.083C143.851 176.781 138.034 177.995 137.957 179.786Z" fill="#F59C42"/>
<path d="M138.108 176.04L137.979 179.285L163.601 180.31L163.731 177.065L138.108 176.04Z" fill="#F59C42"/>
<path d="M138.096 176.541C138.02 178.331 143.688 180.026 150.759 180.328C157.829 180.631 163.623 179.421 163.719 177.631C163.815 175.84 158.127 174.141 151.056 173.843C143.986 173.546 138.173 174.751 138.096 176.541Z" fill="#F59C42"/>
<path opacity="0.4" d="M138.096 176.541C138.02 178.331 143.688 180.026 150.759 180.328C157.829 180.631 163.623 179.421 163.719 177.631C163.815 175.84 158.127 174.141 151.056 173.843C143.986 173.546 138.173 174.751 138.096 176.541Z" fill="white"/>
<path d="M139.729 176.483C139.725 176.6 139.764 176.715 139.839 176.805C140.694 175.754 145.374 175.135 150.966 175.365C156.558 175.595 161.185 176.618 161.934 177.736C162.016 177.654 162.065 177.545 162.073 177.429C162.121 176.215 157.167 175 150.994 174.741C144.822 174.482 139.782 175.288 139.729 176.483Z" fill="#F59C42"/>
<path opacity="0.4" d="M139.729 176.483C139.725 176.6 139.764 176.715 139.839 176.805C140.694 175.754 145.374 175.135 150.966 175.365C156.558 175.595 161.185 176.618 161.934 177.736C162.016 177.654 162.065 177.545 162.073 177.429C162.121 176.215 157.167 175 150.994 174.741C144.822 174.482 139.782 175.288 139.729 176.483Z" fill="#F59C42"/>
<path opacity="0.4" d="M139.839 176.805C140.602 177.928 145.21 178.941 150.807 179.176C156.404 179.411 161.093 178.797 161.933 177.736C161.184 176.618 156.576 175.605 150.965 175.365C145.354 175.125 140.693 175.768 139.839 176.805Z" fill="#F59C42"/>
<path d="M135.269 174.875C135.193 176.666 140.861 178.36 147.932 178.662C155.002 178.965 160.791 177.75 160.868 175.96C160.945 174.17 155.276 172.475 148.205 172.173C141.135 171.871 135.346 173.085 135.269 174.875Z" fill="#F59C42"/>
<path d="M135.407 171.633L135.27 174.875L160.874 175.962L161.011 172.72L135.407 171.633Z" fill="#F59C42"/>
<path d="M135.404 171.631C135.327 173.421 141.001 175.115 148.071 175.418C155.142 175.72 160.93 174.511 161.031 172.72C161.132 170.93 155.439 169.231 148.369 168.933C141.298 168.635 135.481 169.84 135.404 171.631Z" fill="#F59C42"/>
<path opacity="0.4" d="M135.404 171.631C135.327 173.421 141.001 175.115 148.071 175.418C155.142 175.72 160.93 174.511 161.031 172.72C161.132 170.93 155.439 169.231 148.369 168.933C141.298 168.635 135.481 169.84 135.404 171.631Z" fill="white"/>
<path d="M137.04 171.573C137.035 171.69 137.073 171.804 137.146 171.895C138.005 170.843 142.685 170.224 148.277 170.455C153.869 170.685 158.496 171.707 159.245 172.831C159.327 172.747 159.374 172.636 159.38 172.519C159.432 171.309 154.479 170.09 148.306 169.831C142.133 169.571 137.088 170.363 137.04 171.573Z" fill="#F59C42"/>
<path opacity="0.4" d="M137.04 171.573C137.035 171.69 137.073 171.804 137.146 171.895C138.005 170.843 142.685 170.224 148.277 170.455C153.869 170.685 158.496 171.707 159.245 172.831C159.327 172.747 159.374 172.636 159.38 172.519C159.432 171.309 154.479 170.09 148.306 169.831C142.133 169.571 137.088 170.363 137.04 171.573Z" fill="#F59C42"/>
<path opacity="0.4" d="M137.146 171.895C137.91 173.018 142.522 174.031 148.114 174.266C153.706 174.501 158.406 173.887 159.246 172.826C158.497 171.703 153.889 170.69 148.278 170.45C142.666 170.21 138.001 170.843 137.146 171.895Z" fill="#F59C42"/>
<path d="M135.6 168.957C135.524 170.752 141.197 172.447 148.263 172.744C155.328 173.042 161.127 171.837 161.223 170.047C161.319 168.256 155.631 166.562 148.56 166.259C141.49 165.957 135.692 167.167 135.6 168.957Z" fill="#F59C42"/>
<path d="M135.753 165.719L135.615 168.961L161.219 170.047L161.357 166.805L135.753 165.719Z" fill="#F59C42"/>
<path d="M135.754 165.717C135.677 167.508 141.346 169.202 148.416 169.504C155.486 169.807 161.28 168.597 161.376 166.802C161.472 165.007 155.779 163.317 148.709 163.02C141.638 162.722 135.831 163.927 135.754 165.717Z" fill="#F59C42"/>
<path opacity="0.4" d="M135.754 165.717C135.677 167.508 141.346 169.202 148.416 169.504C155.486 169.807 161.28 168.597 161.376 166.802C161.472 165.007 155.779 163.317 148.709 163.02C141.638 162.722 135.831 163.927 135.754 165.717Z" fill="white"/>
<path d="M137.386 165.659C137.382 165.776 137.422 165.891 137.496 165.981C138.351 164.925 143.031 164.311 148.628 164.541C154.224 164.771 158.847 165.794 159.596 166.912C159.676 166.829 159.724 166.72 159.73 166.605C159.783 165.391 154.824 164.176 148.652 163.912C142.479 163.648 137.439 164.45 137.386 165.659Z" fill="#F59C42"/>
<path opacity="0.4" d="M137.386 165.659C137.382 165.776 137.422 165.891 137.496 165.981C138.351 164.925 143.031 164.311 148.628 164.541C154.224 164.771 158.847 165.794 159.596 166.912C159.676 166.829 159.724 166.72 159.73 166.605C159.783 165.391 154.824 164.176 148.652 163.912C142.479 163.648 137.439 164.45 137.386 165.659Z" fill="#F59C42"/>
<path opacity="0.4" d="M137.521 165.981C138.284 167.099 142.897 168.112 148.489 168.352C154.081 168.592 158.775 167.973 159.62 166.912C158.871 165.794 154.258 164.781 148.652 164.541C143.045 164.301 138.351 164.925 137.521 165.981Z" fill="#F59C42"/>
<path d="M132.927 164.051C132.85 165.842 138.519 167.536 145.589 167.834C152.659 168.131 158.453 166.927 158.525 165.136C158.597 163.346 152.933 161.651 145.863 161.349C138.792 161.047 133.003 162.256 132.927 164.051Z" fill="#F59C42"/>
<path d="M133.061 160.795L132.924 164.037L158.523 165.123L158.661 161.881L133.061 160.795Z" fill="#F59C42"/>
<path d="M133.066 160.807C132.989 162.597 138.658 164.292 145.729 164.594C152.799 164.896 158.588 163.687 158.689 161.892C158.789 160.096 153.097 158.407 146.026 158.109C138.956 157.812 133.138 159.016 133.066 160.807Z" fill="#F59C42"/>
<path opacity="0.4" d="M133.066 160.807C132.989 162.597 138.658 164.292 145.729 164.594C152.799 164.896 158.588 163.687 158.689 161.892C158.789 160.096 153.097 158.407 146.026 158.109C138.956 157.812 133.138 159.016 133.066 160.807Z" fill="white"/>
<path d="M134.699 160.749C134.694 160.865 134.731 160.98 134.804 161.071C135.663 160.015 140.343 159.4 145.935 159.631C151.527 159.861 156.155 160.883 156.903 162.002C156.984 161.919 157.031 161.81 157.038 161.695C157.091 160.48 152.137 159.266 145.964 159.002C139.791 158.738 134.747 159.539 134.699 160.749Z" fill="#F59C42"/>
<path opacity="0.4" d="M134.699 160.749C134.694 160.865 134.731 160.98 134.804 161.071C135.663 160.015 140.343 159.4 145.935 159.631C151.527 159.861 156.155 160.883 156.903 162.002C156.984 161.919 157.031 161.81 157.038 161.695C157.091 160.48 152.137 159.266 145.964 159.002C139.791 158.738 134.747 159.539 134.699 160.749Z" fill="#F59C42"/>
<path opacity="0.4" d="M134.804 161.071C135.572 162.189 140.18 163.202 145.772 163.442C151.364 163.682 156.063 163.063 156.903 162.002C156.154 160.883 151.546 159.871 145.935 159.631C140.324 159.391 135.663 160.015 134.804 161.071Z" fill="#F59C42"/>
<path d="M137.041 159.89C136.964 161.68 142.633 163.375 149.703 163.672C156.774 163.97 162.562 162.765 162.639 160.975C162.716 159.184 157.047 157.49 149.977 157.187C142.906 156.885 137.108 158.095 137.041 159.89Z" fill="#F59C42"/>
<path d="M137.171 156.643L137.033 159.885L162.633 160.971L162.77 157.729L137.171 156.643Z" fill="#F59C42"/>
<path d="M137.17 156.645C137.093 158.435 142.762 160.13 149.832 160.432C156.903 160.735 162.696 159.525 162.792 157.73C162.888 155.935 157.2 154.245 150.13 153.947C143.059 153.65 137.247 154.855 137.17 156.645Z" fill="#F59C42"/>
<path opacity="0.4" d="M137.17 156.645C137.093 158.435 142.762 160.13 149.832 160.432C156.903 160.735 162.696 159.525 162.792 157.73C162.888 155.935 157.2 154.245 150.13 153.947C143.059 153.65 137.247 154.855 137.17 156.645Z" fill="white"/>
<path d="M138.802 156.568C138.798 156.685 138.838 156.8 138.912 156.89C139.767 155.834 144.452 155.219 150.044 155.45C155.636 155.68 160.263 156.703 161.012 157.821C161.092 157.738 161.14 157.629 161.146 157.514C161.199 156.299 156.245 155.085 150.068 154.821C143.89 154.557 138.855 155.378 138.802 156.568Z" fill="#F59C42"/>
<path opacity="0.4" d="M138.802 156.568C138.798 156.685 138.838 156.8 138.912 156.89C139.767 155.834 144.452 155.219 150.044 155.45C155.636 155.68 160.263 156.703 161.012 157.821C161.092 157.738 161.14 157.629 161.146 157.514C161.199 156.299 156.245 155.085 150.068 154.821C143.89 154.557 138.855 155.378 138.802 156.568Z" fill="#F59C42"/>
<path opacity="0.4" d="M138.913 156.909C139.676 158.027 144.289 159.04 149.881 159.28C155.473 159.52 160.172 158.901 161.012 157.84C160.263 156.722 155.651 155.709 150.044 155.469C144.438 155.229 139.767 155.853 138.913 156.909Z" fill="#F59C42"/>
<path d="M134.344 154.979C134.267 156.77 139.936 158.464 147.006 158.762C154.076 159.06 159.87 157.855 159.966 156.064C160.062 154.274 154.374 152.579 147.304 152.277C140.233 151.975 134.42 153.208 134.344 154.979Z" fill="#F59C42"/>
<path d="M134.478 151.728L134.341 154.97L159.94 156.056L160.078 152.814L134.478 151.728Z" fill="#F59C42"/>
<path d="M134.482 151.735C134.405 153.525 140.074 155.219 147.145 155.522C154.215 155.824 160.009 154.615 160.105 152.824C160.201 151.034 154.508 149.335 147.437 149.037C140.367 148.739 134.559 149.944 134.482 151.735Z" fill="#F59C42"/>
<path opacity="0.4" d="M134.482 151.735C134.405 153.525 140.074 155.219 147.145 155.522C154.215 155.824 160.009 154.615 160.105 152.824C160.201 151.034 154.508 149.335 147.437 149.037C140.367 148.739 134.559 149.944 134.482 151.735Z" fill="white"/>
<path d="M136.114 151.677C136.111 151.794 136.15 151.909 136.225 151.999C137.079 150.943 141.759 150.328 147.351 150.559C152.943 150.789 157.575 151.812 158.324 152.93C158.404 152.847 158.452 152.738 158.458 152.623C158.506 151.408 153.553 150.194 147.38 149.935C141.207 149.675 136.167 150.467 136.114 151.677Z" fill="#F59C42"/>
<path opacity="0.4" d="M136.114 151.677C136.111 151.794 136.15 151.909 136.225 151.999C137.079 150.943 141.759 150.328 147.351 150.559C152.943 150.789 157.575 151.812 158.324 152.93C158.404 152.847 158.452 152.738 158.458 152.623C158.506 151.408 153.553 150.194 147.38 149.935C141.207 149.675 136.167 150.467 136.114 151.677Z" fill="#F59C42"/>
<path opacity="0.4" d="M136.225 151.999C136.988 153.122 141.601 154.135 147.193 154.37C152.785 154.605 157.479 153.991 158.324 152.93C157.575 151.811 152.962 150.799 147.351 150.559C141.74 150.319 137.079 150.943 136.225 151.999Z" fill="#F59C42"/>
<path d="M162.625 151.49C162.701 153.285 157.033 154.979 149.962 155.277C142.892 155.575 137.098 154.37 137.002 152.579C136.906 150.789 142.594 149.095 149.665 148.792C156.735 148.49 162.548 149.699 162.625 151.49Z" fill="#F59C42"/>
<path d="M162.151 148.578L136.528 149.603L136.658 152.847L162.281 151.822L162.151 148.578Z" fill="#F59C42"/>
<path d="M162.48 148.25C162.557 150.04 156.888 151.735 149.818 152.037C142.747 152.339 136.954 151.13 136.882 149.335C136.81 147.539 142.474 145.85 149.544 145.552C156.614 145.255 162.408 146.459 162.48 148.25Z" fill="#F59C42"/>
<path opacity="0.4" d="M162.48 148.25C162.557 150.04 156.888 151.735 149.818 152.037C142.747 152.339 136.954 151.13 136.882 149.335C136.81 147.539 142.474 145.85 149.544 145.552C156.614 145.255 162.408 146.459 162.48 148.25Z" fill="white"/>
<path d="M160.853 148.192C160.857 148.309 160.818 148.424 160.743 148.514C159.888 147.458 155.208 146.843 149.616 147.074C144.024 147.304 139.392 148.327 138.648 149.445C138.566 149.363 138.517 149.254 138.509 149.138C138.461 147.923 143.415 146.709 149.588 146.445C155.76 146.181 160.8 146.968 160.853 148.192Z" fill="#F59C42"/>
<path opacity="0.4" d="M160.853 148.192C160.857 148.309 160.818 148.424 160.743 148.514C159.888 147.458 155.208 146.843 149.616 147.074C144.024 147.304 139.392 148.327 138.648 149.445C138.566 149.363 138.517 149.254 138.509 149.138C138.461 147.923 143.415 146.709 149.588 146.445C155.76 146.181 160.8 146.968 160.853 148.192Z" fill="#F59C42"/>
<path opacity="0.4" d="M160.743 148.514C159.98 149.632 155.372 150.645 149.775 150.885C144.178 151.125 139.488 150.506 138.648 149.445C139.392 148.327 144.005 147.314 149.616 147.074C155.228 146.834 159.888 147.448 160.743 148.514Z" fill="#F59C42"/>
<path d="M165.312 146.584C165.389 148.375 159.72 150.069 152.65 150.367C145.579 150.664 139.791 149.459 139.69 147.669C139.589 145.879 145.282 144.184 152.352 143.882C159.423 143.579 165.235 144.789 165.312 146.584Z" fill="#F59C42"/>
<path d="M165.184 143.34L139.58 144.427L139.718 147.669L165.322 146.582L165.184 143.34Z" fill="#F59C42"/>
<path d="M165.178 143.339C165.25 145.13 159.581 146.824 152.511 147.127C145.441 147.429 139.652 146.219 139.575 144.424C139.498 142.629 145.167 140.939 152.237 140.642C159.308 140.344 165.101 141.549 165.178 143.339Z" fill="#F59C42"/>
<path opacity="0.4" d="M165.178 143.339C165.25 145.13 159.581 146.824 152.511 147.127C145.441 147.429 139.652 146.219 139.575 144.424C139.498 142.629 145.167 140.939 152.237 140.642C159.308 140.344 165.101 141.549 165.178 143.339Z" fill="white"/>
<path d="M163.542 143.282C163.547 143.398 163.509 143.512 163.436 143.603C162.577 142.547 157.897 141.933 152.305 142.163C146.713 142.394 142.086 143.416 141.337 144.535C141.257 144.452 141.209 144.343 141.203 144.227C141.15 143.013 146.103 141.799 152.276 141.535C158.449 141.271 163.494 142.072 163.542 143.282Z" fill="#F59C42"/>
<path opacity="0.4" d="M163.542 143.282C163.547 143.398 163.509 143.512 163.436 143.603C162.577 142.547 157.897 141.933 152.305 142.163C146.713 142.394 142.086 143.416 141.337 144.535C141.257 144.452 141.209 144.343 141.203 144.227C141.15 143.013 146.103 141.799 152.276 141.535C158.449 141.271 163.494 142.072 163.542 143.282Z" fill="#F59C42"/>
<path opacity="0.4" d="M163.441 143.608C162.678 144.727 158.065 145.739 152.473 145.979C146.881 146.219 142.182 145.6 141.342 144.539C142.091 143.421 146.699 142.408 152.31 142.168C157.921 141.928 162.577 142.547 163.441 143.608Z" fill="#F59C42"/>
<path d="M164.967 140.666C165.044 142.456 159.371 144.155 152.305 144.453C145.239 144.751 139.441 143.546 139.345 141.755C139.249 139.965 144.937 138.266 152.007 137.968C159.078 137.671 164.881 138.875 164.967 140.666Z" fill="#F59C42"/>
<path d="M164.828 137.428L139.224 138.514L139.361 141.756L164.965 140.67L164.828 137.428Z" fill="#F59C42"/>
<path d="M164.828 137.426C164.904 139.216 159.236 140.911 152.165 141.213C145.095 141.515 139.301 140.301 139.205 138.511C139.109 136.72 144.802 135.026 151.868 134.723C158.933 134.421 164.751 135.635 164.828 137.426Z" fill="#F59C42"/>
<path opacity="0.4" d="M164.828 137.426C164.904 139.216 159.236 140.911 152.165 141.213C145.095 141.515 139.301 140.301 139.205 138.511C139.109 136.72 144.802 135.026 151.868 134.723C158.933 134.421 164.751 135.635 164.828 137.426Z" fill="white"/>
<path d="M163.196 137.368C163.197 137.485 163.158 137.598 163.086 137.69C162.231 136.634 157.551 136.015 151.954 136.25C146.358 136.485 141.735 137.503 140.986 138.621C140.908 138.537 140.861 138.428 140.852 138.314C140.799 137.099 145.758 135.885 151.93 135.621C158.103 135.357 163.143 136.154 163.196 137.368Z" fill="#F59C42"/>
<path opacity="0.4" d="M163.196 137.368C163.197 137.485 163.158 137.598 163.086 137.69C162.231 136.634 157.551 136.015 151.954 136.25C146.358 136.485 141.735 137.503 140.986 138.621C140.908 138.537 140.861 138.428 140.852 138.314C140.799 137.099 145.758 135.885 151.93 135.621C158.103 135.357 163.143 136.154 163.196 137.368Z" fill="#F59C42"/>
<path opacity="0.4" d="M163.086 137.69C162.322 138.808 157.71 139.821 152.118 140.061C146.526 140.301 141.831 139.682 140.986 138.621C141.735 137.503 146.348 136.485 151.954 136.25C157.561 136.015 162.231 136.634 163.086 137.69Z" fill="#F59C42"/>
<path d="M167.655 135.755C167.732 137.546 162.063 139.245 154.992 139.543C147.922 139.84 142.128 138.635 142.032 136.845C141.936 135.055 147.629 133.36 154.7 133.058C161.77 132.755 167.578 133.965 167.655 135.755Z" fill="#F59C42"/>
<path d="M167.507 132.518L141.907 133.605L142.045 136.847L167.644 135.76L167.507 132.518Z" fill="#F59C42"/>
<path d="M167.516 132.515C167.593 134.306 161.924 136 154.854 136.303C147.783 136.605 141.995 135.391 141.894 133.6C141.793 131.81 147.486 130.115 154.556 129.813C161.627 129.511 167.444 130.725 167.516 132.515Z" fill="#F59C42"/>
<path opacity="0.4" d="M167.516 132.515C167.593 134.306 161.924 136 154.854 136.303C147.783 136.605 141.995 135.391 141.894 133.6C141.793 131.81 147.486 130.115 154.556 129.813C161.627 129.511 167.444 130.725 167.516 132.515Z" fill="white"/>
<path d="M165.884 132.458C165.889 132.574 165.851 132.689 165.778 132.779C164.919 131.723 160.239 131.104 154.647 131.339C149.055 131.575 144.428 132.592 143.679 133.711C143.598 133.628 143.551 133.519 143.544 133.403C143.492 132.189 148.445 130.975 154.618 130.711C160.791 130.447 165.84 131.248 165.884 132.458Z" fill="#F59C42"/>
<path opacity="0.4" d="M165.884 132.458C165.889 132.574 165.851 132.689 165.778 132.779C164.919 131.723 160.239 131.104 154.647 131.339C149.055 131.575 144.428 132.592 143.679 133.711C143.598 133.628 143.551 133.519 143.544 133.403C143.492 132.189 148.445 130.975 154.618 130.711C160.791 130.447 165.84 131.248 165.884 132.458Z" fill="#F59C42"/>
<path opacity="0.4" d="M165.778 132.779C165.01 133.898 160.402 134.911 154.81 135.151C149.218 135.391 144.519 134.771 143.679 133.711C144.428 132.592 149.036 131.579 154.647 131.339C160.258 131.099 164.919 131.723 165.778 132.779Z" fill="#F59C42"/>
<path d="M163.546 131.608C163.623 133.399 157.954 135.098 150.884 135.395C143.814 135.693 138.025 134.488 137.948 132.698C137.871 130.907 143.54 129.213 150.61 128.911C157.681 128.608 163.474 129.803 163.546 131.608Z" fill="#F59C42"/>
<path d="M163.413 128.352L137.809 129.439L137.946 132.681L163.55 131.594L163.413 128.352Z" fill="#F59C42"/>
<path d="M163.412 128.354C163.488 130.144 157.815 131.839 150.749 132.141C143.684 132.443 137.885 131.229 137.789 129.439C137.693 127.648 143.381 125.954 150.452 125.651C157.522 125.349 163.335 126.563 163.412 128.354Z" fill="#F59C42"/>
<path opacity="0.4" d="M163.412 128.354C163.488 130.144 157.815 131.839 150.749 132.141C143.684 132.443 137.885 131.229 137.789 129.439C137.693 127.648 143.381 125.954 150.452 125.651C157.522 125.349 163.335 126.563 163.412 128.354Z" fill="white"/>
<path d="M161.78 128.296C161.779 128.413 161.74 128.525 161.67 128.618C160.81 127.562 156.13 126.943 150.538 127.178C144.946 127.413 140.319 128.431 139.57 129.549C139.49 129.466 139.442 129.357 139.436 129.242C139.383 128.027 144.337 126.813 150.514 126.549C156.692 126.285 161.727 127.087 161.78 128.296Z" fill="#F59C42"/>
<path opacity="0.4" d="M161.78 128.296C161.779 128.413 161.74 128.525 161.67 128.618C160.81 127.562 156.13 126.943 150.538 127.178C144.946 127.413 140.319 128.431 139.57 129.549C139.49 129.466 139.442 129.357 139.436 129.242C139.383 128.027 144.337 126.813 150.514 126.549C156.692 126.285 161.727 127.087 161.78 128.296Z" fill="#F59C42"/>
<path opacity="0.4" d="M161.67 128.618C160.906 129.736 156.294 130.749 150.702 130.989C145.11 131.229 140.41 130.61 139.57 129.549C140.319 128.43 144.932 127.418 150.538 127.178C156.145 126.938 160.81 127.562 161.67 128.618Z" fill="#F59C42"/>
<path d="M166.239 126.683C166.316 128.478 160.647 130.173 153.576 130.47C146.506 130.768 140.712 129.563 140.616 127.773C140.52 125.982 146.208 124.288 153.279 123.986C160.349 123.683 166.162 124.888 166.239 126.683Z" fill="#F59C42"/>
<path d="M166.092 123.448L140.492 124.534L140.63 127.776L166.229 126.689L166.092 123.448Z" fill="#F59C42"/>
<path d="M166.1 123.448C166.177 125.239 160.508 126.933 153.438 127.235C146.367 127.538 140.574 126.328 140.478 124.533C140.382 122.738 146.075 121.048 153.145 120.751C160.215 120.453 166.023 121.653 166.1 123.448Z" fill="#F59C42"/>
<path opacity="0.4" d="M166.1 123.448C166.177 125.239 160.508 126.933 153.438 127.235C146.367 127.538 140.574 126.328 140.478 124.533C140.382 122.738 146.075 121.048 153.145 120.751C160.215 120.453 166.023 121.653 166.1 123.448Z" fill="white"/>
<path d="M164.467 123.386C164.471 123.503 164.432 123.617 164.357 123.707C163.503 122.651 158.823 122.037 153.231 122.267C147.639 122.498 143.007 123.52 142.258 124.639C142.178 124.556 142.13 124.447 142.123 124.331C142.075 123.117 147.029 121.903 153.202 121.639C159.375 121.375 164.4 122.176 164.467 123.386Z" fill="#F59C42"/>
<path opacity="0.4" d="M164.467 123.386C164.471 123.503 164.432 123.617 164.357 123.707C163.503 122.651 158.823 122.037 153.231 122.267C147.639 122.498 143.007 123.52 142.258 124.639C142.178 124.556 142.13 124.447 142.123 124.331C142.075 123.117 147.029 121.903 153.202 121.639C159.375 121.375 164.4 122.176 164.467 123.386Z" fill="#F59C42"/>
<path opacity="0.4" d="M164.357 123.707C163.594 124.826 158.981 125.838 153.389 126.078C147.797 126.318 143.103 125.699 142.258 124.638C143.007 123.52 147.619 122.507 153.231 122.267C158.842 122.027 163.503 122.651 164.357 123.707Z" fill="#F59C42"/>
<path d="M195.149 106H132.096L127.512 18.5442H190.569L195.149 106Z" fill="#F59C42"/>
<g opacity="0.6">
<path d="M195.149 106H132.096L127.512 18.5442H190.569L195.149 106Z" fill="white"/>
</g>
<path d="M163.185 76.8353H137.745C137.667 76.8338 137.59 76.8485 137.518 76.8785C137.446 76.9085 137.381 76.9531 137.328 77.0096C137.274 77.066 137.233 77.133 137.206 77.2063C137.18 77.2796 137.169 77.3576 137.174 77.4353C137.184 77.5971 137.255 77.749 137.372 77.8605C137.49 77.9719 137.646 78.0344 137.808 78.0353H163.248C163.326 78.0368 163.403 78.0221 163.475 77.9921C163.547 77.9621 163.612 77.9175 163.665 77.861C163.719 77.8046 163.761 77.7376 163.787 77.6643C163.813 77.591 163.824 77.513 163.819 77.4353C163.809 77.2736 163.738 77.1216 163.621 77.0102C163.503 76.8987 163.347 76.8362 163.185 76.8353Z" fill="#263238"/>
<path d="M156.72 72.2083H137.486C137.408 72.2081 137.331 72.2239 137.26 72.2547C137.188 72.2855 137.123 72.3306 137.07 72.3872C137.016 72.4439 136.975 72.5109 136.948 72.5841C136.922 72.6574 136.91 72.7353 136.915 72.8131C136.926 72.9744 136.997 73.1257 137.115 73.2369C137.232 73.3481 137.387 73.411 137.549 73.4131H156.787C156.865 73.4138 156.942 73.3987 157.013 73.3684C157.085 73.3382 157.15 73.2935 157.203 73.2372C157.257 73.1809 157.298 73.1142 157.325 73.0413C157.351 72.9683 157.363 72.8906 157.358 72.8131C157.349 72.65 157.277 72.4968 157.159 72.3845C157.04 72.2722 156.883 72.2092 156.72 72.2083Z" fill="#263238"/>
<path d="M163.771 87.9761H138.331C138.253 87.9753 138.176 87.9905 138.105 88.0208C138.033 88.051 137.969 88.0957 137.915 88.1519C137.861 88.2082 137.82 88.2749 137.793 88.3479C137.767 88.4209 137.755 88.4985 137.76 88.5761C137.769 88.7383 137.84 88.8908 137.958 89.003C138.075 89.1152 138.231 89.1788 138.393 89.1809H163.833C163.912 89.1817 163.989 89.1664 164.061 89.1359C164.133 89.1053 164.198 89.0602 164.251 89.0034C164.305 88.9466 164.346 88.8793 164.373 88.8058C164.399 88.7323 164.41 88.6541 164.405 88.5761C164.394 88.4148 164.323 88.2634 164.205 88.1522C164.088 88.041 163.933 87.9782 163.771 87.9761Z" fill="#263238"/>
<path d="M157.31 83.3539H138.072C137.995 83.3557 137.921 83.3728 137.851 83.4042C137.782 83.4356 137.72 83.4806 137.668 83.5366C137.617 83.5926 137.577 83.6584 137.551 83.7301C137.526 83.8018 137.515 83.8779 137.52 83.9539C137.53 84.1152 137.602 84.2665 137.719 84.3777C137.836 84.4889 137.991 84.5518 138.153 84.5539H157.392C157.469 84.5547 157.546 84.5394 157.618 84.5092C157.689 84.4789 157.754 84.4343 157.808 84.378C157.861 84.3217 157.903 84.255 157.929 84.1821C157.956 84.1091 157.967 84.0314 157.963 83.9539C157.952 83.7892 157.878 83.6351 157.756 83.5234C157.635 83.4117 157.475 83.351 157.31 83.3539Z" fill="#263238"/>
<path d="M164.357 99.1169H138.917C138.839 99.1168 138.762 99.1326 138.69 99.1634C138.619 99.1942 138.554 99.2393 138.501 99.2959C138.447 99.3526 138.406 99.4196 138.379 99.4928C138.353 99.5661 138.341 99.644 138.346 99.7217C138.357 99.8831 138.428 100.034 138.545 100.146C138.663 100.257 138.818 100.32 138.979 100.322H164.419C164.497 100.323 164.574 100.307 164.646 100.277C164.717 100.247 164.782 100.202 164.835 100.146C164.889 100.09 164.93 100.023 164.957 99.95C164.984 99.877 164.995 99.7993 164.991 99.7217C164.98 99.5599 164.909 99.4081 164.791 99.2961C164.674 99.1841 164.519 99.1202 164.357 99.1169Z" fill="#263238"/>
<path d="M157.891 94.4947H138.653C138.575 94.4938 138.498 94.509 138.427 94.5393C138.356 94.5696 138.291 94.6144 138.238 94.6707C138.185 94.7271 138.144 94.7938 138.118 94.8668C138.092 94.9398 138.081 95.0173 138.086 95.0947C138.095 95.2573 138.165 95.4104 138.283 95.5229C138.401 95.6353 138.557 95.6985 138.72 95.6995H157.953C158.032 95.701 158.11 95.6862 158.182 95.6559C158.254 95.6256 158.319 95.5805 158.373 95.5236C158.427 95.4666 158.468 95.399 158.494 95.3252C158.52 95.2513 158.531 95.1728 158.525 95.0947C158.515 94.9329 158.444 94.7809 158.326 94.6695C158.209 94.5581 158.053 94.4956 157.891 94.4947Z" fill="#263238"/>
<path d="M186.874 77.1618H182.251C182.163 77.1608 182.079 77.1267 182.015 77.0662C181.951 77.0057 181.912 76.9233 181.906 76.8354L181.666 72.2082C181.663 72.1663 181.669 72.1243 181.683 72.0848C181.698 72.0453 181.72 72.0091 181.749 71.9785C181.777 71.9479 181.812 71.9235 181.851 71.9069C181.889 71.8903 181.931 71.8818 181.973 71.8818H186.6C186.688 71.8829 186.772 71.9172 186.835 71.9778C186.898 72.0384 186.936 72.1208 186.941 72.2082L187.186 76.8354C187.188 76.8778 187.182 76.9202 187.168 76.96C187.153 76.9999 187.13 77.0363 187.101 77.067C187.072 77.0976 187.036 77.1219 186.997 77.1382C186.958 77.1545 186.916 77.1626 186.874 77.1618ZM182.554 76.5042H186.523L186.317 72.5346H182.347L182.554 76.5042Z" fill="#F59C42"/>
<path d="M187.488 88.8882H182.865C182.777 88.8871 182.691 88.8523 182.627 88.7908C182.563 88.7293 182.525 88.6457 182.52 88.557L182.28 83.9346C182.277 83.8926 182.283 83.8506 182.298 83.8111C182.312 83.7716 182.334 83.7354 182.363 83.7048C182.392 83.6742 182.426 83.6499 182.465 83.6332C182.504 83.6166 182.545 83.6081 182.587 83.6082H187.214C187.302 83.6092 187.387 83.6433 187.451 83.7038C187.515 83.7643 187.554 83.8467 187.56 83.9346L187.8 88.557C187.803 88.5995 187.796 88.6422 187.782 88.6823C187.767 88.7224 187.745 88.7591 187.716 88.7901C187.686 88.8211 187.651 88.8458 187.612 88.8627C187.573 88.8796 187.531 88.8882 187.488 88.8882ZM183.168 88.2306H187.137L186.931 84.261H182.961L183.168 88.2306Z" fill="#F59C42"/>
<path d="M188.073 100.048H183.45C183.362 100.047 183.278 100.013 183.214 99.9524C183.15 99.8919 183.111 99.8096 183.105 99.7217L182.865 95.0945C182.862 95.0525 182.868 95.0105 182.882 94.971C182.897 94.9315 182.919 94.8953 182.948 94.8647C182.977 94.8341 183.011 94.8098 183.05 94.7931C183.088 94.7765 183.13 94.768 183.172 94.7681H187.799C187.887 94.7703 187.97 94.8049 188.033 94.8653C188.096 94.9257 188.134 95.0074 188.14 95.0945L188.385 99.7217C188.388 99.764 188.381 99.8064 188.367 99.8463C188.352 99.8861 188.33 99.9225 188.3 99.9532C188.271 99.9838 188.236 100.008 188.197 100.024C188.157 100.041 188.115 100.049 188.073 100.048ZM183.753 99.3953H187.722L187.516 95.4257H183.542L183.753 99.3953Z" fill="#F59C42"/>
<path d="M173.433 57.3857H152.102L150.825 32.9729H172.156L173.433 57.3857Z" fill="white"/>
<path d="M184.497 75.9283C184.314 75.9188 184.141 75.8378 184.017 75.7027L182.755 74.3155C182.699 74.2524 182.656 74.179 182.629 74.0994C182.601 74.0198 182.59 73.9356 182.595 73.8516C182.6 73.7676 182.622 73.6854 182.659 73.6098C182.695 73.5341 182.747 73.4664 182.81 73.4107C182.937 73.298 183.104 73.2405 183.274 73.2509C183.358 73.256 183.44 73.2776 183.516 73.3145C183.591 73.3514 183.659 73.4028 183.715 73.4659L184.478 74.2963L187.358 71.0899C187.478 70.9575 187.645 70.878 187.823 70.869C188.001 70.86 188.176 70.9222 188.308 71.0419C188.441 71.1615 188.52 71.3289 188.529 71.5071C188.538 71.6853 188.476 71.8599 188.356 71.9923L184.996 75.7219C184.934 75.7917 184.857 75.8466 184.77 75.8824C184.684 75.9181 184.591 75.9338 184.497 75.9283Z" fill="#F59C42"/>
<path d="M185.111 87.6545C184.928 87.6451 184.755 87.5641 184.631 87.4289L183.369 86.0465C183.313 85.9835 183.269 85.91 183.242 85.8303C183.214 85.7506 183.202 85.6662 183.207 85.582C183.212 85.4977 183.233 85.4153 183.27 85.3393C183.307 85.2634 183.358 85.1954 183.421 85.1393C183.484 85.0832 183.558 85.0401 183.638 85.0124C183.717 84.9846 183.802 84.9729 183.886 84.9778C183.97 84.9827 184.053 85.0042 184.129 85.0409C184.205 85.0777 184.273 85.1291 184.329 85.1921L185.039 86.0081L187.919 82.8017C188.04 82.6786 188.205 82.6071 188.377 82.6019C188.55 82.5967 188.718 82.6583 188.847 82.7738C188.975 82.8894 189.054 83.05 189.068 83.2224C189.081 83.3948 189.027 83.5656 188.917 83.6993L185.557 87.4337C185.502 87.4987 185.434 87.5518 185.357 87.5898C185.28 87.6277 185.196 87.6497 185.111 87.6545Z" fill="#F59C42"/>
<path d="M185.702 98.9681C185.612 98.9639 185.522 98.9418 185.44 98.9031C185.358 98.8644 185.284 98.8098 185.222 98.7425L183.96 97.3601C183.899 97.3001 183.85 97.2285 183.816 97.1493C183.783 97.0702 183.766 96.9852 183.766 96.8993C183.766 96.8134 183.783 96.7283 183.816 96.6492C183.85 96.57 183.899 96.4984 183.96 96.4385C184.092 96.3247 184.264 96.2679 184.437 96.2805C184.611 96.2931 184.772 96.3741 184.886 96.5057L185.65 97.3409L188.53 94.1345C188.651 94.0114 188.815 93.9398 188.988 93.9346C189.161 93.9294 189.329 93.991 189.457 94.1066C189.586 94.2222 189.665 94.3828 189.678 94.5552C189.691 94.7275 189.638 94.8983 189.528 95.0321L186.168 98.7665C186.109 98.8313 186.037 98.8828 185.957 98.9176C185.877 98.9523 185.79 98.9695 185.702 98.9681Z" fill="#F59C42"/>
<path d="M173.001 60.5681H152.88C152.802 60.5673 152.725 60.5826 152.654 60.6128C152.582 60.643 152.517 60.6877 152.464 60.744C152.41 60.8003 152.369 60.867 152.342 60.9399C152.315 61.0129 152.304 61.0906 152.309 61.1681C152.318 61.3303 152.389 61.4829 152.507 61.5951C152.624 61.7073 152.78 61.7708 152.942 61.7729H173.073C173.151 61.7731 173.228 61.7573 173.3 61.7265C173.372 61.6957 173.436 61.6506 173.49 61.5939C173.543 61.5373 173.585 61.4703 173.611 61.3971C173.638 61.3238 173.649 61.2459 173.645 61.1681C173.634 61.0052 173.561 60.8524 173.442 60.741C173.322 60.6296 173.165 60.5678 173.001 60.5681Z" fill="#263238"/>
<path d="M162.542 64.5667H153.081C153.003 64.5659 152.926 64.5811 152.855 64.6113C152.783 64.6416 152.719 64.6862 152.665 64.7425C152.611 64.7988 152.57 64.8655 152.543 64.9385C152.517 65.0114 152.505 65.0891 152.51 65.1667C152.521 65.3285 152.592 65.4804 152.709 65.5923C152.826 65.7043 152.981 65.7682 153.143 65.7715H162.604C162.682 65.7723 162.76 65.757 162.832 65.7264C162.904 65.6959 162.968 65.6508 163.022 65.594C163.076 65.5372 163.117 65.4699 163.143 65.3964C163.17 65.3228 163.181 65.2446 163.175 65.1667C163.166 65.0049 163.095 64.8529 162.977 64.7415C162.859 64.6301 162.704 64.5676 162.542 64.5667Z" fill="#263238"/>
<path d="M173.779 24.5681H148.339C148.261 24.5679 148.185 24.5838 148.113 24.6146C148.042 24.6454 147.978 24.6906 147.924 24.7473C147.871 24.8041 147.83 24.8711 147.804 24.9444C147.778 25.0176 147.768 25.0954 147.773 25.1729C147.783 25.3347 147.853 25.4866 147.971 25.5981C148.089 25.7095 148.244 25.772 148.406 25.7729H173.846C173.924 25.7744 174.002 25.7597 174.074 25.7297C174.145 25.6997 174.21 25.6551 174.264 25.5987C174.318 25.5422 174.359 25.4752 174.386 25.4019C174.412 25.3286 174.423 25.2506 174.418 25.1729C174.407 25.0103 174.335 24.8577 174.217 24.7456C174.098 24.6336 173.942 24.5702 173.779 24.5681Z" fill="#263238"/>
<path d="M165.319 48.0539C166.952 46.3771 166.843 43.6218 165.075 41.8996C163.307 40.1774 160.55 40.1406 158.916 41.8173C157.283 43.494 157.392 46.2494 159.16 47.9716C160.928 49.6937 163.685 49.7306 165.319 48.0539Z" fill="#F59C42"/>
<path d="M170.717 57.3859H154.8C154.751 56.3691 154.91 55.353 155.268 54.4C155.626 53.447 156.174 52.5772 156.881 51.8441C157.587 51.1109 158.435 50.5298 159.374 50.1366C160.313 49.7433 161.323 49.5461 162.341 49.5571C164.46 49.5809 166.494 50.3979 168.041 51.8471C169.588 53.2963 170.535 55.2724 170.697 57.3859H170.717Z" fill="#F59C42"/>
</svg>
