<svg width="420" height="200" viewBox="0 0 420 200" fill="none" xmlns="http://www.w3.org/2000/svg">
<rect width="420" height="200" rx="8" fill="#E4E8F6"/>
<path d="M98.6264 39.9673H108.38V35.8456H98.6264V39.9673Z" fill="#EBEBEB"/>
<path d="M104.067 30.6631L108.899 30.5599L111.356 30.5194C112.174 30.5194 112.999 30.5194 113.82 30.4973H113.982V30.6631V34.7847V34.9689H113.798L108.921 34.9431C107.297 34.9431 105.669 34.9026 104.045 34.8842H103.941V34.7847C103.941 34.0849 103.971 33.3887 103.989 32.7L104.067 30.6631ZM104.067 30.6631L104.118 32.7442C104.118 33.4293 104.159 34.1107 104.166 34.7847L104.067 34.6816C105.691 34.6632 107.319 34.6264 108.943 34.6227L113.82 34.6006L113.636 34.7847L113.654 30.6631L113.82 30.8251C113.017 30.8251 112.214 30.8251 111.408 30.8251L108.988 30.7846L104.067 30.6631Z" fill="#EBEBEB"/>
<path d="M93.1861 30.6631L98.0261 30.5489L100.479 30.5084C101.301 30.5084 102.126 30.5084 102.947 30.4863H103.109V30.6631L103.131 34.7848V34.969H102.947L98.0629 34.9321C96.4349 34.9321 94.8105 34.8916 93.1861 34.8732H93.083V34.7738C93.083 34.0739 93.1162 33.3778 93.1309 32.689L93.1861 30.6631ZM93.1861 30.6631L93.2377 32.7332C93.2377 33.4183 93.2782 34.0997 93.2856 34.7738L93.1861 34.6706C94.8105 34.6522 96.4349 34.6154 98.0629 34.6117L102.94 34.5896L102.755 34.7738V30.6521L102.921 30.8141C102.115 30.8141 101.315 30.8141 100.509 30.8141L98.085 30.7736L93.1861 30.6631Z" fill="#EBEBEB"/>
<path d="M301.48 65.4304L306.313 65.3272L308.766 65.2867C309.587 65.2683 310.412 65.2867 311.234 65.2683H311.396V65.4341L311.418 69.5557V69.7399H311.234L306.357 69.7068C304.732 69.7068 303.104 69.6626 301.48 69.6441H301.377V69.5447C301.377 68.8448 301.406 68.1487 301.425 67.4636L301.48 65.4304ZM301.48 65.4304L301.532 67.5115C301.532 68.2003 301.572 68.878 301.58 69.5521L301.48 69.4526C303.104 69.4342 304.732 69.3937 306.357 69.39L311.234 69.3679L311.049 69.5521V65.4304L311.215 65.5961C310.412 65.5961 309.609 65.5961 308.803 65.574L306.379 65.5335L301.48 65.4304Z" fill="#EBEBEB"/>
<path d="M306.92 64.3547H316.674V60.2331H306.92V64.3547Z" fill="#EBEBEB"/>
<path d="M213.34 105.457L218.177 105.354L220.63 105.314C221.447 105.314 222.273 105.314 223.094 105.292H223.26V105.457L223.278 109.579V109.763H223.09L218.214 109.737C216.589 109.737 214.965 109.697 213.337 109.678H213.237V109.579C213.237 108.879 213.27 108.183 213.285 107.494L213.34 105.457ZM213.34 105.457L213.392 107.538C213.41 108.223 213.436 108.905 213.444 109.579L213.34 109.476C214.968 109.457 216.593 109.421 218.217 109.417L223.094 109.395L222.91 109.579L222.932 105.457L223.094 105.619C222.291 105.619 221.492 105.619 220.685 105.601L218.261 105.56L213.34 105.457Z" fill="#EBEBEB"/>
<path d="M218.785 104.382H228.538V100.26H218.785V104.382Z" fill="#EBEBEB"/>
<path d="M296.04 60.233L300.872 60.1299L303.325 60.0894C304.147 60.0894 304.972 60.0894 305.793 60.0894H305.955V60.2551L305.977 64.3768V64.5609H305.793L300.916 64.5388C299.288 64.5388 297.664 64.4983 296.04 64.4762H295.937V64.3768C295.937 63.6769 295.97 62.9808 295.984 62.2957L296.04 60.233ZM296.04 60.233L296.091 62.3178C296.091 63.0029 296.132 63.6806 296.139 64.3547L296.04 64.2552C297.664 64.2552 299.288 64.1963 300.916 64.1926L305.793 64.1705L305.609 64.3547V60.233L305.775 60.3988C304.972 60.3988 304.169 60.3988 303.362 60.3767L300.939 60.3361L296.04 60.233Z" fill="#EBEBEB"/>
<path d="M312.626 30.6631L317.462 30.5599L319.915 30.5194C320.733 30.5194 321.558 30.5194 322.379 30.4973H322.545V30.6631L322.564 34.7847V34.9689H322.379L317.503 34.9431C315.878 34.9431 314.25 34.9026 312.626 34.8842H312.526V34.7847C312.526 34.0849 312.556 33.3887 312.574 32.7L312.626 30.6631ZM312.626 30.6631L312.677 32.7442C312.677 33.4293 312.722 34.1107 312.725 34.7847L312.626 34.6816C314.25 34.6632 315.878 34.6264 317.503 34.6227L322.379 34.6006L322.195 34.7847L322.217 30.6631L322.379 30.8251C321.576 30.8251 320.773 30.8251 319.97 30.8251L317.554 30.7551L312.626 30.6631Z" fill="#EBEBEB"/>
<path d="M177.672 60.7708L182.504 60.6677L184.957 60.6272C185.779 60.6272 186.604 60.6272 187.425 60.6272H187.587V60.7929L187.609 64.9146V65.0988H187.425L182.548 65.0767C180.92 65.0767 179.296 65.0362 177.672 65.0141H177.587V64.9146C177.587 64.2148 177.62 63.5186 177.635 62.8335L177.672 60.7708ZM177.672 60.7708L177.723 62.8556C177.723 63.5407 177.764 64.2185 177.771 64.8925L177.672 64.7931C179.296 64.7931 180.92 64.7341 182.548 64.7305L187.425 64.7083L187.241 64.8925L187.259 60.7708L187.425 60.9366C186.618 60.9366 185.819 60.9366 185.013 60.9145L182.589 60.874L177.672 60.7708Z" fill="#EBEBEB"/>
<path d="M99.1897 157.603L104.022 157.499L106.479 157.459C107.297 157.44 108.122 157.459 108.943 157.437H109.105V157.603V161.724V161.908H108.921L104.044 161.886C102.42 161.886 100.792 161.842 99.1676 161.824H99.0645V161.724C99.0645 161.024 99.0939 160.328 99.1123 159.643L99.1897 157.603ZM99.1897 157.603L99.2413 159.684C99.2413 160.372 99.2818 161.05 99.2891 161.724L99.1897 161.625C100.814 161.606 102.442 161.566 104.066 161.562L108.943 161.54L108.759 161.724V157.603L108.925 157.768C108.122 157.768 107.319 157.768 106.512 157.746L104.092 157.706L99.1897 157.603Z" fill="#EBEBEB"/>
<path d="M93.7494 156.527H103.503V152.405H93.7494V156.527Z" fill="#EBEBEB"/>
<path d="M317.064 161.72H326.817V157.599H317.064V161.72Z" fill="#EBEBEB"/>
<path d="M132.705 99.4939H101.688V131.476H132.705V99.4939Z" fill="#EBEBEB"/>
<path d="M148.72 99.4939H132.705V131.476H148.72V99.4939Z" fill="#DBDBDB"/>
<path d="M147.618 129.436C146.432 127.162 145.256 124.881 144.09 122.592L140.616 115.712L137.187 108.805C136.05 106.5 134.924 104.185 133.81 101.862C134.996 104.134 136.171 106.415 137.335 108.706L140.808 115.583L144.237 122.493C145.377 124.799 146.504 127.113 147.618 129.436Z" fill="#EBEBEB"/>
<path d="M147.618 101.862C146.504 104.183 145.377 106.497 144.237 108.805L140.808 115.712L137.335 122.592C136.171 124.883 134.996 127.164 133.81 129.436C134.922 127.115 136.048 124.801 137.187 122.493L140.616 115.583L144.09 108.706C145.254 106.415 146.43 104.134 147.618 101.862Z" fill="#EBEBEB"/>
<path d="M130.665 126.047H127.221V129.491H130.665V126.047Z" fill="white"/>
<path d="M130.668 79.6001H99.6504V99.4939H130.668V79.6001Z" fill="#DBDBDB"/>
<path d="M146.683 79.6001H130.668V99.4939H146.683V79.6001Z" fill="#C7C7C7"/>
<path d="M117.791 87.0257H117.135H116.642L116.362 86.4511L115.967 87.0257L115.43 85.8471L114.921 87.0257H113.47H112.807L112.568 86.2375L112.343 87.0257H111.912V79.6001H117.791V87.0257Z" fill="white"/>
<path d="M145.582 98.3115C144.396 96.8627 143.221 95.4127 142.057 93.9615L138.58 89.5967L135.151 85.2062C134.012 83.7328 132.886 82.2595 131.773 80.7861C132.959 82.23 134.134 83.68 135.298 85.1362L138.772 89.5083L142.205 93.8989C143.339 95.3648 144.465 96.8357 145.582 98.3115Z" fill="#DBDBDB"/>
<path d="M145.582 80.7861C144.465 82.2595 143.339 83.7328 142.205 85.2062L138.772 89.5967L135.298 93.9689C134.134 95.425 132.959 96.875 131.773 98.3189C132.891 96.8456 134.017 95.3722 135.151 93.8989L138.58 89.5083L142.057 85.1362C143.219 83.6898 144.394 82.2398 145.582 80.7861Z" fill="#DBDBDB"/>
<path d="M134.521 131.477H97.5654V167.275H134.521V131.477Z" fill="#DBDBDB"/>
<path d="M153.604 131.477H134.521V167.279H153.604V131.477Z" fill="#C7C7C7"/>
<path d="M119.18 140.32H118.399H117.809L117.474 139.643L117.003 140.32L116.365 138.921L115.761 140.32H114.03H113.242L112.955 139.388L112.689 140.32H112.174V131.477H119.18V140.32Z" fill="white"/>
<path d="M152.289 165.15C150.88 162.549 149.48 159.939 148.09 157.319L143.95 149.451L139.862 141.55C138.506 138.913 137.164 136.266 135.836 133.609C137.25 136.21 138.651 138.819 140.039 141.436L144.179 149.304L148.264 157.208C149.619 159.846 150.961 162.493 152.289 165.15Z" fill="#DBDBDB"/>
<path d="M152.289 133.609C150.961 136.264 149.619 138.911 148.264 141.55L144.179 149.451L140.039 157.323C138.654 159.938 137.253 162.547 135.836 165.15C137.164 162.495 138.506 159.848 139.862 157.208L143.95 149.304L148.09 141.436C149.475 138.819 150.875 136.21 152.289 133.609Z" fill="#DBDBDB"/>
<path d="M103.116 165.212H103.293V162.737H103.116V165.212Z" fill="white"/>
<path d="M102.692 165.212H102.869V162.737H102.692V165.212Z" fill="white"/>
<path d="M102.273 165.212H102.45V162.737H102.273V165.212Z" fill="white"/>
<path d="M101.853 165.212H102.03V162.737H101.853V165.212Z" fill="white"/>
<path d="M101.43 165.212H101.606V162.737H101.43V165.212Z" fill="white"/>
<path d="M101.01 165.212H101.187V162.737H101.01V165.212Z" fill="white"/>
<path d="M100.59 165.212H100.767V162.737H100.59V165.212Z" fill="white"/>
<path d="M100.17 165.212H100.347V162.737H100.17V165.212Z" fill="white"/>
<path d="M99.746 165.212H99.9229V162.737H99.746V165.212Z" fill="white"/>
<path d="M105.025 165.024L104.351 165.212H105.934L105.257 165.021V164.111C105.743 164.048 105.934 163.573 105.934 162.741H104.351C104.351 163.569 104.542 164.048 105.025 164.111V165.024Z" fill="white"/>
<path d="M106.291 164H106.704V165.212H107.764V164H108.177L107.234 162.741L106.291 164Z" fill="white"/>
<path d="M127.685 53.511H104.126V79.6002H127.685V53.511Z" fill="#EBEBEB"/>
<path d="M139.851 53.511H127.685V79.6039H139.851V53.511Z" fill="#DBDBDB"/>
<path d="M139.011 77.8102C138.112 75.9587 137.22 74.0986 136.333 72.2299L133.696 66.6165L131.088 60.9809C130.226 59.0999 129.367 57.2116 128.51 55.3159C129.409 57.1699 130.301 59.0312 131.188 60.8999L133.825 66.5096L136.433 72.1488C137.304 74.0224 138.164 75.9096 139.011 77.8102Z" fill="#EBEBEB"/>
<path d="M139.011 55.3083C138.164 57.2016 137.304 59.0899 136.433 60.9733L133.825 66.6089L131.188 72.2223C130.304 74.0885 129.411 75.9486 128.51 77.8026C129.357 75.9093 130.216 74.021 131.088 72.1376L133.696 66.5021L136.333 60.8923C137.217 59.0261 138.11 57.1648 139.011 55.3083Z" fill="#EBEBEB"/>
<path d="M104.082 168.409H99.3818V172.586H104.082V168.409Z" fill="#DBDBDB"/>
<path d="M104.082 169.33L99.3818 169.898V168.409H104.082V169.33Z" fill="#C7C7C7"/>
<path d="M128.661 168.409H123.961V172.586H128.661V168.409Z" fill="#DBDBDB"/>
<path d="M128.661 169.33L123.961 169.898V168.409H128.661V169.33Z" fill="#C7C7C7"/>
<path d="M153.24 168.409H148.54V172.586H153.24V168.409Z" fill="#DBDBDB"/>
<path d="M153.24 169.33L148.54 169.898V168.409H153.24V169.33Z" fill="#C7C7C7"/>
<path d="M155.829 167.279H96.792V168.41H155.829V167.279Z" fill="#DBDBDB"/>
<path d="M155.829 172.586H96.792V173.717H155.829V172.586Z" fill="#DBDBDB"/>
<path d="M199.237 132.931H168.22V167.279H199.237V132.931Z" fill="#EBEBEB"/>
<path d="M215.253 132.931H199.237V167.279H215.253V132.931Z" fill="#DBDBDB"/>
<path d="M214.148 164.914C212.962 162.473 211.787 160.018 210.623 157.547L207.149 150.159L203.717 142.74C202.58 140.26 201.454 137.774 200.339 135.281C201.525 137.722 202.701 140.178 203.868 142.648L207.341 150.037L210.77 157.455C211.91 159.933 213.035 162.419 214.148 164.914Z" fill="#EBEBEB"/>
<path d="M214.148 135.296C213.033 137.789 211.907 140.275 210.77 142.755L207.341 150.173L203.868 157.562C202.704 160.018 201.527 162.473 200.339 164.929C201.456 162.434 202.582 159.948 203.717 157.47L207.149 150.052L210.623 142.637C211.787 140.181 212.962 137.735 214.148 135.296Z" fill="#EBEBEB"/>
<path d="M200.946 89.3906H178.014V113.038H200.946V89.3906Z" fill="#EBEBEB"/>
<path d="M212.788 89.3906H200.946V113.038H212.788V89.3906Z" fill="#DBDBDB"/>
<path d="M191.428 94.8788H190.942H190.577L190.367 94.4552L190.076 94.8788L189.682 94.0095L189.307 94.8788H188.231H187.741L187.564 94.3005L187.399 94.8788H187.078V89.3906H191.428V94.8788Z" fill="#DBDBDB"/>
<path d="M211.974 111.531C211.098 109.849 210.228 108.162 209.366 106.47L206.788 101.384L204.25 96.2747C203.41 94.5706 202.578 92.859 201.753 91.1401C202.63 92.8222 203.499 94.5092 204.361 96.2011L206.939 101.288L209.477 106.397C210.317 108.103 211.149 109.815 211.974 111.531Z" fill="#EBEBEB"/>
<path d="M211.974 91.1401C211.149 92.859 210.317 94.5706 209.477 96.2747L206.939 101.384L204.361 106.47C203.499 108.16 202.63 109.847 201.753 111.531C202.578 109.812 203.41 108.101 204.25 106.397L206.788 101.288L209.366 96.2011C210.228 94.4994 211.098 92.8124 211.974 91.1401Z" fill="#EBEBEB"/>
<path d="M199.436 109.023H196.891V111.568H199.436V109.023Z" fill="white"/>
<path d="M181.944 111.738H182.073V109.907H181.944V111.738Z" fill="white"/>
<path d="M181.631 111.738H181.76V109.907H181.631V111.738Z" fill="white"/>
<path d="M181.321 111.738H181.45V109.907H181.321V111.738Z" fill="white"/>
<path d="M181.009 111.738H181.138V109.907H181.009V111.738Z" fill="white"/>
<path d="M180.699 111.738H180.828V109.907H180.699V111.738Z" fill="white"/>
<path d="M180.386 111.738H180.515V109.907H180.386V111.738Z" fill="white"/>
<path d="M180.076 111.738H180.205V109.907H180.076V111.738Z" fill="white"/>
<path d="M179.764 111.738H179.893V109.907H179.764V111.738Z" fill="white"/>
<path d="M179.454 111.738H179.583V109.907H179.454V111.738Z" fill="white"/>
<path d="M183.344 111.597L182.843 111.737H184.014L183.517 111.597V110.927C183.885 110.879 184.014 110.526 184.014 109.91H182.843C182.843 110.526 182.986 110.879 183.344 110.927V111.597Z" fill="white"/>
<path d="M184.286 110.842H184.592V111.737H185.376V110.842H185.686L184.986 109.91L184.286 110.842Z" fill="white"/>
<path d="M201.304 113.038H170.286V132.928H201.304V113.038Z" fill="#DBDBDB"/>
<path d="M217.319 113.038H201.304V132.931H217.319V113.038Z" fill="#C7C7C7"/>
<path d="M188.426 120.46H187.771H187.277L186.994 119.889L186.6 120.46L186.065 119.285L185.557 120.46H184.106H183.443L183.203 119.675L182.979 120.46H182.548V113.038H188.426V120.46Z" fill="white"/>
<path d="M216.214 131.749C215.028 130.3 213.853 128.85 212.689 127.399L209.216 123.027L205.783 118.636C204.648 117.163 203.523 115.69 202.405 114.216C203.591 115.66 204.768 117.109 205.934 118.563L209.407 122.935L212.837 127.325C213.976 128.796 215.102 130.271 216.214 131.749Z" fill="#DBDBDB"/>
<path d="M216.214 114.224C215.102 115.697 213.976 117.17 212.836 118.644L209.407 123.034L205.949 127.399C204.785 128.853 203.608 130.303 202.42 131.749C203.537 130.276 204.663 128.802 205.798 127.329L209.23 122.938L212.704 118.566C213.848 117.113 215.018 115.665 216.214 114.224Z" fill="#DBDBDB"/>
<path d="M172.165 168.409H167.465V172.586H172.165V168.409Z" fill="#DBDBDB"/>
<path d="M172.168 169.33L167.465 169.898V168.409H172.168V169.33Z" fill="#C7C7C7"/>
<path d="M196.744 168.409H192.044V172.586H196.744V168.409Z" fill="#DBDBDB"/>
<path d="M196.748 169.33L192.044 169.898V168.409H196.748V169.33Z" fill="#C7C7C7"/>
<path d="M221.323 168.409H216.623V172.586H221.323V168.409Z" fill="#DBDBDB"/>
<path d="M221.327 169.33L216.623 169.898V168.409H221.327V169.33Z" fill="#C7C7C7"/>
<path d="M223.912 167.279H164.875V168.41H223.912V167.279Z" fill="#DBDBDB"/>
<path d="M223.912 172.586H164.875V173.717H223.912V172.586Z" fill="#DBDBDB"/>
<path d="M244.558 43.6396H232.439V173.721H244.558V43.6396Z" fill="#C7C7C7"/>
<path d="M323.539 43.6396H311.421V173.721H323.539V43.6396Z" fill="#EBEBEB"/>
<path d="M311.421 56.3987H237.411V60.7671H311.421V56.3987Z" fill="#DBDBDB"/>
<path d="M311.421 84.6353H237.411V89.0037H311.421V84.6353Z" fill="#DBDBDB"/>
<path d="M311.421 112.875H237.411V117.244H311.421V112.875Z" fill="#DBDBDB"/>
<path d="M311.421 141.112H237.411V145.481H311.421V141.112Z" fill="#DBDBDB"/>
<path d="M311.421 169.353H237.411V173.721H311.421V169.353Z" fill="#DBDBDB"/>
<path d="M268.916 60.9846H245.979V84.6354H268.916V60.9846Z" fill="#EBEBEB"/>
<path d="M280.757 60.9846H268.915V84.6354H280.757V60.9846Z" fill="#DBDBDB"/>
<path d="M259.394 66.4728H258.908H258.543L258.337 66.0529L258.046 66.4728L257.648 65.6035L257.273 66.4728H256.201H255.711L255.53 65.8945L255.365 66.4728H255.048V60.9846H259.394V66.4728Z" fill="#DBDBDB"/>
<path d="M279.944 83.1252C279.067 81.4456 278.198 79.7586 277.336 78.0643L274.758 72.9776L272.249 67.8651C271.405 66.1609 270.572 64.4494 269.752 62.7305C270.629 64.4125 271.498 66.0995 272.36 67.7914L274.938 72.8781L277.476 77.9869C278.296 79.696 279.119 81.4088 279.944 83.1252Z" fill="#EBEBEB"/>
<path d="M279.943 62.7341C279.118 64.453 278.285 66.1646 277.446 67.8687L274.908 72.9775L272.329 78.0643C271.468 79.7586 270.598 81.4456 269.722 83.1252C270.547 81.4063 271.379 79.6947 272.219 77.9906L274.757 72.8818L277.335 67.7951C278.197 66.1056 279.066 64.4187 279.943 62.7341Z" fill="#EBEBEB"/>
<path d="M267.406 80.6204H264.86V83.1656H267.406V80.6204Z" fill="white"/>
<path d="M283.361 98.1643H260.425V112.876H283.361V98.1643Z" fill="#DBDBDB"/>
<path d="M295.203 98.1643H283.361V112.876H295.203V98.1643Z" fill="#C7C7C7"/>
<path d="M273.837 103.653H273.354H272.989L272.779 103.229L272.488 103.653L272.091 102.783L271.715 103.653H270.643H270.153L269.976 103.074L269.811 103.653H269.49V98.1643H273.837V103.653Z" fill="white"/>
<path d="M294.385 111.999C293.509 110.931 292.639 109.859 291.778 108.783L289.199 105.55L286.661 102.304C285.822 101.219 284.989 100.131 284.164 99.041C285.041 100.109 285.91 101.181 286.772 102.257L289.35 105.491L291.888 108.736C292.732 109.819 293.56 110.909 294.385 111.999Z" fill="#DBDBDB"/>
<path d="M294.385 99.041C293.56 100.146 292.732 101.218 291.888 102.301L289.35 105.55L286.772 108.783C285.91 109.859 285.041 110.931 284.164 111.999C284.989 110.909 285.822 109.821 286.661 108.736L289.199 105.491L291.778 102.257C292.639 101.183 293.509 100.112 294.385 99.041Z" fill="#DBDBDB"/>
<path d="M90 173.721L120.001 173.629L149.998 173.599L210 173.537L270.002 173.599L300.003 173.629L330 173.721L300.003 173.809L270.002 173.843L210 173.905L149.998 173.843L120.001 173.809L90 173.721Z" fill="#263238"/>
<path d="M246.24 42.6008H239.282V163.238H246.24V42.6008Z" fill="#37474F"/>
<path d="M243.213 47.1682H242.314V158.671H243.213V47.1682Z" fill="#263238"/>
<path d="M232.829 68.7821L239.282 70.6127V42.6008L232.829 44.4315V68.7821Z" fill="#263238"/>
<path d="M249.89 69.4932L246.24 72.2409V136.862L249.89 139.609V69.4932Z" fill="#263238"/>
<path d="M312.939 137.057H249.891V139.609L312.939 137.871V137.057Z" fill="#263238"/>
<path d="M232.741 164.877H106.575V132.206H137.836H163.037H167.715H222.693L232.741 141.44V164.877Z" fill="#F59C42"/>
<path opacity="0.2" d="M150.51 164.877H114.601C112.986 161.789 112.196 158.338 112.305 154.855C112.414 151.372 113.42 147.977 115.225 144.997C117.03 142.016 119.573 139.552 122.608 137.841C125.644 136.131 129.069 135.232 132.553 135.232C136.038 135.232 139.463 136.131 142.499 137.841C145.534 139.552 148.077 142.016 149.882 144.997C151.687 147.977 152.693 151.372 152.802 154.855C152.911 158.338 152.12 161.789 150.506 164.877H150.51Z" fill="black"/>
<path opacity="0.2" d="M232.741 141.436V164.877H210.125C208.612 161.97 207.827 158.739 207.838 155.461C207.849 152.184 208.654 148.958 210.185 146.061C211.717 143.163 213.928 140.68 216.63 138.825C219.332 136.97 222.444 135.798 225.698 135.41L226.122 135.366L232.741 141.436Z" fill="black"/>
<path opacity="0.2" d="M203.465 155.525H176.315L167.715 147.772V132.206H203.465V155.525Z" fill="black"/>
<path d="M222.692 132.206H239.282V136.213L232.741 141.436L222.692 132.206Z" fill="#37474F"/>
<g opacity="0.2">
<path d="M157.995 132.206H151.692L160.146 164.873H166.444L157.995 132.206Z" fill="white"/>
<path d="M162.341 132.206H160.565L169.019 164.873H170.794L162.341 132.206Z" fill="white"/>
</g>
<path d="M245.39 152.273L245.128 152.243L245.419 154.707L245.666 154.619C245.666 154.229 245.615 153.831 245.567 153.437C245.519 153.043 245.464 152.656 245.39 152.273ZM245.022 151.705L245.254 151.577C245.076 150.808 244.847 150.053 244.569 149.315H244.303L245.022 151.705ZM245.298 157.728L245.559 157.687C245.659 156.904 245.704 156.115 245.692 155.326L245.442 155.253L245.298 157.728ZM244.307 148.652C244.003 147.926 243.649 147.222 243.246 146.545L242.988 146.608L244.093 148.818L244.307 148.652ZM244.653 160.685H244.915C245.149 159.932 245.331 159.162 245.46 158.383L245.221 158.265L244.653 160.685ZM241.217 144.151L242.69 146.14L242.86 145.937C242.434 145.274 241.961 144.643 241.445 144.048L241.217 144.151ZM243.519 163.485L243.773 163.529C244.134 162.83 244.447 162.106 244.709 161.363L244.499 161.205L243.519 163.485ZM239.058 142.048L240.867 143.746L240.999 143.521C240.464 142.942 239.89 142.4 239.279 141.9L239.058 142.048ZM241.894 166.041L242.141 166.129C242.617 165.501 243.05 164.841 243.438 164.155L243.257 163.967L241.894 166.041ZM236.557 140.346L238.627 141.705L238.723 141.458C238.094 140.983 237.433 140.551 236.745 140.165L236.557 140.346ZM239.872 168.281L240.097 168.409C240.675 167.872 241.216 167.298 241.718 166.689L241.574 166.468L239.872 168.281ZM233.806 139.108L236.086 140.088L236.137 139.827C235.435 139.468 234.709 139.157 233.964 138.895L233.806 139.108ZM237.489 170.126L237.692 170.295C238.354 169.868 238.985 169.396 239.581 168.881L239.478 168.645L237.489 170.126ZM230.889 138.368L233.301 138.935V138.67C232.549 138.436 231.781 138.257 231.003 138.132L230.889 138.368ZM234.811 171.518L234.977 171.721C235.705 171.417 236.41 171.062 237.088 170.66L237.025 170.406L234.811 171.518ZM227.946 137.885L227.872 138.136L230.343 138.276L230.303 138.018C229.505 137.923 228.701 137.883 227.898 137.897L227.946 137.885ZM232.056 172.66C232.825 172.489 233.581 172.262 234.318 171.982L234.299 171.721L231.927 172.435L232.056 172.66ZM226.056 138.007C225.662 138.055 225.275 138.11 224.888 138.188L224.859 138.445L227.323 138.154L227.235 137.911C226.796 137.937 226.406 137.97 226.008 138.018L226.056 138.007ZM229.003 173.084C229.393 173.065 229.787 173.032 230.181 172.984C230.576 172.936 230.97 172.881 231.353 172.804L231.382 172.55L228.918 172.841L229.003 173.084ZM221.92 139.009L221.938 139.27L224.314 138.556L224.185 138.331C223.402 138.505 222.633 138.735 221.883 139.02L221.92 139.009ZM225.938 172.973C226.72 173.071 227.508 173.115 228.296 173.106L228.369 172.855L225.89 172.715L225.938 172.973ZM219.153 140.335L219.212 140.589L221.422 139.484L221.253 139.278C220.517 139.583 219.803 139.94 219.117 140.346L219.153 140.335ZM222.892 172.34C223.644 172.576 224.412 172.758 225.19 172.885L225.305 172.649L222.892 172.082V172.34ZM216.63 142.136L216.733 142.376L218.722 140.902L218.524 140.729C217.861 141.154 217.228 141.624 216.63 142.136ZM220.063 171.183C220.765 171.545 221.491 171.858 222.236 172.119L222.391 171.905L220.111 170.929L220.063 171.183ZM214.483 144.328L214.627 144.545L216.328 142.74L216.104 142.608C215.52 143.142 214.975 143.717 214.472 144.328H214.483ZM217.466 169.551C218.095 170.029 218.756 170.462 219.444 170.848L219.629 170.671L217.555 169.308L217.466 169.551ZM212.748 146.862L212.929 147.05L214.288 144.976L214.045 144.888C213.564 145.515 213.127 146.174 212.737 146.862H212.748ZM215.19 167.489C215.726 168.069 216.302 168.611 216.914 169.109L217.124 168.966L215.319 167.268L215.19 167.489ZM211.474 149.654L211.684 149.809L212.663 147.529L212.409 147.484C212.047 148.185 211.734 148.91 211.474 149.654ZM213.315 165.072C213.743 165.734 214.214 166.367 214.726 166.966L214.965 166.862L213.492 164.873L213.315 165.072ZM210.737 152.63L210.973 152.744L211.54 150.328H211.275C211.033 151.082 210.843 151.851 210.704 152.63H210.737ZM211.842 162.361C212.149 163.089 212.506 163.794 212.91 164.472L213.161 164.406L212.056 162.196L211.842 162.361ZM210.847 153.286L210.593 153.33C210.494 154.113 210.449 154.902 210.457 155.691L210.704 155.765L210.847 153.286ZM211.124 159.312L210.903 159.437C211.077 160.207 211.305 160.964 211.584 161.702L211.838 161.684L211.124 159.312ZM210.737 156.31L210.494 156.394C210.494 156.785 210.545 157.179 210.59 157.573C210.634 157.967 210.7 158.361 210.774 158.748L211.028 158.774L210.737 156.31Z" fill="#263238"/>
<path d="M245.419 154.707L245.666 154.619C245.666 154.855 245.688 155.09 245.688 155.326L245.438 155.253L245.294 157.728L245.556 157.687C245.53 157.923 245.493 158.155 245.456 158.387L245.217 158.269L244.649 160.685H244.911C244.845 160.911 244.771 161.136 244.69 161.36L244.48 161.201L243.519 163.485L243.773 163.529C243.67 163.739 243.555 163.953 243.438 164.155L243.257 163.967L241.894 166.041L242.141 166.129C242.001 166.317 241.85 166.498 241.703 166.689L241.559 166.468L239.835 168.281L240.06 168.409C239.891 168.568 239.71 168.726 239.53 168.881L239.426 168.645L237.437 170.119L237.64 170.288C237.441 170.417 237.242 170.546 237.036 170.656L236.973 170.402L234.763 171.507L234.929 171.71C234.712 171.806 234.494 171.89 234.27 171.971L234.251 171.71L231.879 172.424L232.008 172.649C231.78 172.704 231.548 172.748 231.316 172.793L231.345 172.539L228.881 172.83L228.966 173.073C228.72 173.073 228.484 173.08 228.259 173.095L228.332 172.844L225.853 172.704L225.901 172.962C225.665 172.936 225.433 172.903 225.198 172.863L225.312 172.627L222.892 172.082V172.34C222.667 172.27 222.439 172.2 222.218 172.119L222.373 171.905L220.093 170.929L220.045 171.183C219.835 171.08 219.632 170.966 219.426 170.848L219.61 170.671L217.536 169.308L217.448 169.551C217.26 169.408 217.08 169.264 216.895 169.113L217.105 168.969L215.3 167.271L215.172 167.492C215.009 167.319 214.851 167.146 214.696 166.966L214.936 166.862L213.462 164.873L213.297 165.072C213.164 164.873 213.043 164.675 212.928 164.472L213.179 164.406L212.074 162.196L211.871 162.365C211.783 162.148 211.691 161.93 211.613 161.706L211.868 161.687L211.153 159.315L210.932 159.441C210.88 159.212 210.833 158.984 210.792 158.752L211.046 158.778L210.755 156.313L210.512 156.398C210.512 156.166 210.49 155.93 210.486 155.695L210.733 155.768L210.877 153.289L210.623 153.334C210.648 153.098 210.682 152.866 210.722 152.634L210.958 152.748L211.525 150.332H211.26C211.33 150.107 211.407 149.882 211.485 149.658L211.694 149.812L212.674 147.532L212.42 147.488C212.527 147.278 212.641 147.068 212.755 146.866L212.936 147.053L214.295 144.98L214.052 144.891C214.192 144.703 214.339 144.523 214.49 144.331L214.634 144.549L216.335 142.744L216.111 142.611C216.28 142.449 216.457 142.294 216.638 142.14L216.741 142.379L218.73 140.906L218.531 140.733C218.726 140.604 218.929 140.479 219.135 140.364L219.194 140.619L221.404 139.514L221.234 139.307C221.455 139.212 221.676 139.127 221.897 139.046L221.916 139.307L224.292 138.593L224.163 138.368C224.391 138.313 224.623 138.265 224.855 138.224L224.826 138.482L227.29 138.191L227.201 137.948C227.441 137.93 227.677 137.926 227.912 137.922L227.839 138.173L230.31 138.313L230.27 138.055C230.505 138.081 230.737 138.114 230.973 138.158L230.855 138.394L233.268 138.961V138.696C233.493 138.766 233.721 138.84 233.942 138.921L233.784 139.134L236.064 140.114L236.115 139.852C236.325 139.963 236.531 140.073 236.738 140.191L236.55 140.372L238.62 141.731L238.716 141.484C238.903 141.631 239.084 141.775 239.272 141.926L239.051 142.073L240.859 143.772L240.992 143.547C241.154 143.716 241.312 143.893 241.463 144.074L241.224 144.177L242.697 146.166L242.867 145.963C242.999 146.162 243.122 146.365 243.235 146.571L242.977 146.633L244.082 148.844L244.285 148.674C244.381 148.891 244.469 149.112 244.546 149.337H244.281L244.999 151.713L245.231 151.584C245.279 151.816 245.331 152.044 245.371 152.28L245.11 152.251L245.419 154.707Z" fill="#263238"/>
<path d="M227.275 138.165L224.811 138.456L224.844 138.199L224.928 137.396L226.914 137.16L227.186 137.922L227.275 138.165Z" fill="#263238"/>
<path d="M224.277 138.567L221.901 139.282L221.883 139.02L221.831 138.221L223.746 137.643L224.148 138.342L224.277 138.567Z" fill="#263238"/>
<path d="M221.389 139.488L219.175 140.604L219.116 140.346L218.925 139.565L220.711 138.663L221.22 139.282L221.389 139.488Z" fill="#263238"/>
<path d="M218.711 140.887L216.722 142.376L216.615 142.136L216.295 141.396L217.897 140.202L218.512 140.718L218.711 140.887Z" fill="#263238"/>
<path d="M216.314 142.736L214.615 144.545L214.472 144.328L214.022 143.657L215.393 142.199L216.093 142.608L216.314 142.736Z" fill="#263238"/>
<path d="M214.276 144.976L212.917 147.05L212.737 146.862L212.177 146.28L213.274 144.608L214.033 144.888L214.276 144.976Z" fill="#263238"/>
<path d="M212.655 147.529L211.676 149.809L211.466 149.658L210.817 149.179L211.606 147.341L212.398 147.484L212.655 147.529Z" fill="#263238"/>
<path d="M211.506 150.328L210.939 152.744L210.703 152.63L209.978 152.273L210.438 150.324L211.245 150.328H211.506Z" fill="#263238"/>
<path d="M210.858 153.286L210.715 155.765L210.468 155.691L209.694 155.466L209.809 153.466L210.604 153.33L210.858 153.286Z" fill="#263238"/>
<path d="M210.737 156.31L211.028 158.774L210.774 158.748L209.963 158.656L209.731 156.674L210.494 156.395L210.737 156.31Z" fill="#263238"/>
<path d="M211.849 161.684L211.595 161.702L210.788 161.754L210.21 159.838L210.913 159.437L211.134 159.312L211.849 161.684Z" fill="#263238"/>
<path d="M213.172 164.41L212.921 164.472L212.133 164.664L211.234 162.877L211.853 162.362L212.056 162.192L213.172 164.41Z" fill="#263238"/>
<path d="M214.943 166.863L214.703 166.966L213.963 167.294L212.77 165.688L213.293 165.072L213.458 164.874L214.943 166.863Z" fill="#263238"/>
<path d="M217.113 168.97L216.903 169.113L216.225 169.563L214.771 168.192L215.179 167.492L215.308 167.271L217.113 168.97Z" fill="#263238"/>
<path d="M219.617 170.671L219.433 170.848L218.847 171.404L217.175 170.31L217.455 169.551L217.543 169.308L219.617 170.671Z" fill="#263238"/>
<path d="M222.38 171.905L222.225 172.119L221.75 172.771L219.908 171.975L220.052 171.183L220.1 170.929L222.38 171.905Z" fill="#263238"/>
<path d="M225.312 172.649L225.198 172.885L224.844 173.603L222.896 173.146L222.899 172.34V172.082L225.312 172.649Z" fill="#263238"/>
<path d="M228.332 172.866L228.259 173.117L228.034 173.894L226.038 173.78L225.901 172.984L225.854 172.726L228.332 172.866Z" fill="#263238"/>
<path d="M231.345 172.561L231.315 172.815L231.227 173.621L229.242 173.857L228.965 173.095L228.877 172.852L231.345 172.561Z" fill="#263238"/>
<path d="M234.251 171.732L234.269 171.993L234.325 172.796L232.409 173.375L232.008 172.671L231.879 172.447L234.251 171.732Z" fill="#263238"/>
<path d="M237.232 171.452L235.445 172.351L234.929 171.732L234.764 171.529L236.977 170.417L237.04 170.671L237.232 171.452Z" fill="#263238"/>
<path d="M239.861 169.618L238.259 170.815L237.644 170.295L237.441 170.126L239.43 168.645L239.534 168.881L239.861 169.618Z" fill="#263238"/>
<path d="M242.134 167.36L240.76 168.815L240.064 168.41L239.839 168.281L241.541 166.469L241.684 166.689L242.134 167.36Z" fill="#263238"/>
<path d="M243.975 164.737L242.882 166.41L242.123 166.13L241.876 166.041L243.239 163.968L243.419 164.155L243.975 164.737Z" fill="#263238"/>
<path d="M245.338 161.838L244.546 163.676L243.754 163.529L243.496 163.485L244.48 161.205L244.689 161.363L245.338 161.838Z" fill="#263238"/>
<path d="M246.171 158.744L245.718 160.693L244.915 160.689L244.649 160.686L245.217 158.269L245.456 158.387L246.171 158.744Z" fill="#263238"/>
<path d="M246.462 155.551L246.347 157.551L245.555 157.687L245.294 157.728L245.434 155.253L245.688 155.326L246.462 155.551Z" fill="#263238"/>
<path d="M246.189 152.361L246.424 154.346L245.666 154.619L245.419 154.707L245.128 152.243L245.389 152.273L246.189 152.361Z" fill="#263238"/>
<path d="M245.946 151.179L245.25 151.577L245.018 151.709L244.3 149.33L244.565 149.315L245.368 149.263L245.946 151.179Z" fill="#263238"/>
<path d="M244.918 148.14L244.303 148.652L244.1 148.821L242.984 146.608L243.242 146.545L244.023 146.354L244.918 148.14Z" fill="#263238"/>
<path d="M243.386 145.33L242.867 145.937L242.697 146.14L241.213 144.155L241.452 144.048L242.185 143.724L243.386 145.33Z" fill="#263238"/>
<path d="M241.382 142.825L240.98 143.521L240.848 143.746L239.039 142.048L239.26 141.901L239.93 141.455L241.382 142.825Z" fill="#263238"/>
<path d="M238.98 140.707L238.704 141.458L238.612 141.705L236.538 140.346L236.726 140.166L237.308 139.609L238.98 140.707Z" fill="#263238"/>
<path d="M236.244 139.039L236.104 139.827L236.052 140.088L233.772 139.108L233.931 138.895L234.406 138.247L236.244 139.039Z" fill="#263238"/>
<path d="M233.261 137.871L233.257 138.67L233.253 138.935L230.841 138.368L230.955 138.129L231.312 137.41L233.261 137.871Z" fill="#263238"/>
<path d="M230.299 138.287L227.824 138.147L227.898 137.897L228.123 137.127L230.119 137.241L230.255 138.029L230.299 138.287Z" fill="#263238"/>
<path d="M242.2 153.838C242.53 156.631 242.025 159.46 240.747 161.966C239.47 164.472 237.479 166.542 235.024 167.917C232.57 169.291 229.764 169.906 226.96 169.685C224.156 169.464 221.48 168.417 219.272 166.675C217.063 164.934 215.42 162.576 214.551 159.901C213.682 157.226 213.626 154.353 214.39 151.646C215.153 148.939 216.702 146.52 218.841 144.693C220.98 142.867 223.613 141.715 226.406 141.385C228.261 141.165 230.14 141.313 231.938 141.82C233.736 142.327 235.416 143.184 236.882 144.34C238.349 145.496 239.573 146.93 240.486 148.56C241.398 150.19 241.981 151.983 242.2 153.838Z" fill="#37474F"/>
<path d="M237.168 154.424C237.382 156.222 237.057 158.042 236.235 159.655C235.414 161.269 234.132 162.602 232.553 163.487C230.974 164.372 229.167 164.769 227.363 164.627C225.558 164.485 223.836 163.812 222.414 162.691C220.992 161.571 219.934 160.054 219.374 158.332C218.815 156.61 218.778 154.761 219.269 153.019C219.76 151.276 220.757 149.719 222.134 148.543C223.51 147.367 225.204 146.625 227.002 146.412C229.413 146.127 231.838 146.811 233.744 148.313C235.651 149.815 236.882 152.013 237.168 154.424Z" fill="#455A64"/>
<path d="M232.1 155.032C232.193 155.827 232.048 156.633 231.683 157.346C231.318 158.059 230.75 158.649 230.051 159.039C229.351 159.43 228.551 159.604 227.753 159.54C226.954 159.476 226.192 159.177 225.564 158.68C224.935 158.183 224.468 157.511 224.221 156.749C223.975 155.987 223.959 155.168 224.178 154.397C224.396 153.626 224.838 152.938 225.448 152.418C226.057 151.898 226.807 151.571 227.603 151.477C228.132 151.415 228.668 151.458 229.18 151.603C229.692 151.748 230.171 151.992 230.588 152.322C231.006 152.652 231.355 153.062 231.614 153.527C231.873 153.991 232.039 154.503 232.1 155.032Z" fill="#263238"/>
<path d="M228.696 160.748C227.66 160.871 226.61 160.683 225.68 160.209C224.75 159.735 223.981 158.995 223.471 158.084C222.961 157.173 222.733 156.131 222.815 155.091C222.897 154.05 223.286 153.057 223.933 152.237C224.579 151.418 225.455 150.808 226.448 150.486C227.441 150.164 228.507 150.143 229.512 150.427C230.516 150.71 231.414 151.286 232.092 152.08C232.77 152.874 233.197 153.851 233.319 154.888C233.482 156.278 233.087 157.676 232.22 158.774C231.353 159.873 230.086 160.583 228.696 160.748ZM227.514 150.74C226.574 150.852 225.689 151.24 224.969 151.855C224.25 152.47 223.728 153.284 223.472 154.195C223.215 155.106 223.233 156.073 223.525 156.973C223.817 157.873 224.37 158.667 225.113 159.253C225.855 159.84 226.755 160.193 227.699 160.268C228.642 160.344 229.587 160.138 230.413 159.677C231.24 159.215 231.911 158.52 232.342 157.677C232.774 156.835 232.946 155.883 232.836 154.943C232.684 153.682 232.039 152.532 231.042 151.744C230.045 150.957 228.776 150.596 227.514 150.74Z" fill="#263238"/>
<path d="M228.086 148.258C228.108 148.427 228.081 148.598 228.006 148.751C227.931 148.904 227.812 149.031 227.665 149.116C227.517 149.201 227.348 149.241 227.178 149.229C227.008 149.218 226.845 149.156 226.711 149.052C226.576 148.948 226.475 148.807 226.421 148.645C226.367 148.484 226.363 148.31 226.408 148.146C226.453 147.981 226.546 147.834 226.675 147.723C226.804 147.612 226.963 147.542 227.132 147.521C227.356 147.494 227.581 147.556 227.76 147.694C227.938 147.832 228.055 148.034 228.086 148.258Z" fill="#263238"/>
<path d="M224.461 149.227C224.562 149.363 224.621 149.525 224.629 149.695C224.638 149.864 224.597 150.032 224.51 150.178C224.423 150.324 224.295 150.44 224.142 150.513C223.989 150.587 223.818 150.613 223.65 150.589C223.482 150.564 223.325 150.491 223.199 150.378C223.073 150.265 222.983 150.117 222.941 149.952C222.899 149.788 222.906 149.615 222.962 149.455C223.018 149.295 223.121 149.155 223.256 149.053C223.347 148.985 223.449 148.936 223.559 148.908C223.668 148.88 223.782 148.873 223.894 148.89C224.006 148.906 224.114 148.944 224.211 149.002C224.308 149.059 224.393 149.136 224.461 149.227Z" fill="#263238"/>
<path d="M221.806 151.879C221.961 151.946 222.093 152.058 222.185 152.201C222.277 152.343 222.324 152.51 222.322 152.679C222.319 152.849 222.266 153.014 222.17 153.153C222.074 153.293 221.938 153.401 221.781 153.463C221.623 153.526 221.45 153.541 221.285 153.505C221.119 153.47 220.967 153.386 220.849 153.265C220.731 153.143 220.651 152.989 220.62 152.823C220.589 152.656 220.608 152.484 220.675 152.328C220.719 152.224 220.784 152.13 220.865 152.051C220.946 151.972 221.042 151.91 221.147 151.868C221.252 151.827 221.364 151.806 221.477 151.808C221.59 151.81 221.702 151.834 221.806 151.879Z" fill="#263238"/>
<path d="M220.829 155.499C220.998 155.477 221.17 155.504 221.323 155.579C221.476 155.654 221.603 155.773 221.688 155.921C221.773 156.068 221.812 156.237 221.801 156.407C221.79 156.577 221.728 156.74 221.624 156.874C221.52 157.009 221.378 157.11 221.217 157.164C221.055 157.218 220.881 157.223 220.717 157.177C220.553 157.132 220.406 157.039 220.295 156.91C220.184 156.782 220.113 156.622 220.093 156.453C220.067 156.23 220.129 156.005 220.267 155.826C220.404 155.648 220.606 155.531 220.829 155.499Z" fill="#263238"/>
<path d="M221.787 159.124C221.923 159.022 222.085 158.964 222.255 158.955C222.424 158.946 222.592 158.988 222.738 159.075C222.884 159.161 223 159.289 223.074 159.442C223.147 159.595 223.173 159.766 223.149 159.934C223.125 160.102 223.051 160.259 222.938 160.385C222.825 160.511 222.677 160.601 222.512 160.643C222.348 160.686 222.175 160.678 222.015 160.622C221.855 160.566 221.715 160.464 221.613 160.328C221.477 160.145 221.419 159.916 221.451 159.69C221.484 159.464 221.604 159.261 221.787 159.124Z" fill="#263238"/>
<path d="M224.446 161.79C224.513 161.634 224.625 161.502 224.768 161.409C224.91 161.317 225.077 161.269 225.246 161.271C225.416 161.273 225.581 161.326 225.721 161.422C225.861 161.518 225.969 161.654 226.032 161.811C226.095 161.969 226.11 162.142 226.074 162.308C226.039 162.474 225.955 162.626 225.834 162.744C225.712 162.863 225.558 162.942 225.391 162.973C225.224 163.004 225.052 162.985 224.896 162.918C224.687 162.827 224.523 162.658 224.439 162.447C224.355 162.235 224.358 162 224.446 161.79Z" fill="#263238"/>
<path d="M228.07 162.755C228.047 162.587 228.075 162.415 228.15 162.262C228.225 162.109 228.344 161.982 228.491 161.897C228.639 161.812 228.808 161.773 228.978 161.784C229.148 161.795 229.311 161.857 229.445 161.961C229.58 162.065 229.681 162.207 229.735 162.368C229.789 162.53 229.793 162.704 229.748 162.868C229.703 163.032 229.61 163.179 229.481 163.29C229.352 163.401 229.193 163.472 229.024 163.492C228.8 163.519 228.575 163.457 228.396 163.319C228.218 163.182 228.101 162.979 228.07 162.755Z" fill="#263238"/>
<path d="M231.695 161.791C231.593 161.655 231.534 161.492 231.525 161.322C231.516 161.153 231.557 160.984 231.644 160.838C231.73 160.692 231.858 160.575 232.011 160.502C232.165 160.429 232.336 160.403 232.504 160.427C232.672 160.451 232.829 160.524 232.955 160.638C233.082 160.752 233.171 160.9 233.213 161.064C233.255 161.229 233.247 161.402 233.191 161.562C233.134 161.722 233.031 161.862 232.895 161.964C232.713 162.099 232.484 162.157 232.259 162.124C232.035 162.092 231.832 161.972 231.695 161.791Z" fill="#263238"/>
<path d="M234.351 159.138C234.195 159.071 234.062 158.96 233.969 158.817C233.877 158.675 233.829 158.508 233.831 158.339C233.833 158.169 233.886 158.004 233.982 157.864C234.078 157.724 234.214 157.616 234.371 157.553C234.529 157.49 234.702 157.475 234.868 157.511C235.034 157.546 235.186 157.63 235.304 157.751C235.423 157.873 235.502 158.027 235.533 158.194C235.564 158.361 235.545 158.533 235.478 158.689C235.388 158.898 235.218 159.063 235.007 159.147C234.796 159.231 234.56 159.228 234.351 159.138Z" fill="#263238"/>
<path d="M235.327 155.529C235.158 155.552 234.987 155.524 234.834 155.449C234.681 155.374 234.554 155.255 234.469 155.108C234.383 154.96 234.344 154.791 234.355 154.621C234.367 154.451 234.428 154.289 234.532 154.154C234.637 154.019 234.778 153.918 234.94 153.864C235.101 153.81 235.275 153.806 235.439 153.851C235.603 153.896 235.75 153.989 235.862 154.118C235.973 154.247 236.043 154.406 236.064 154.575C236.092 154.799 236.03 155.025 235.892 155.204C235.754 155.383 235.551 155.499 235.327 155.529Z" fill="#263238"/>
<path d="M234.358 151.89C234.222 151.991 234.059 152.051 233.889 152.06C233.72 152.069 233.552 152.027 233.406 151.941C233.26 151.854 233.143 151.726 233.069 151.573C232.996 151.42 232.97 151.248 232.994 151.08C233.018 150.912 233.092 150.755 233.205 150.629C233.319 150.503 233.467 150.413 233.632 150.371C233.796 150.329 233.97 150.337 234.13 150.394C234.29 150.45 234.429 150.553 234.531 150.689C234.667 150.871 234.725 151.1 234.693 151.325C234.661 151.55 234.54 151.753 234.358 151.89Z" fill="#263238"/>
<path d="M231.71 149.234C231.643 149.39 231.532 149.523 231.39 149.615C231.247 149.708 231.081 149.757 230.911 149.755C230.742 149.753 230.576 149.701 230.436 149.605C230.296 149.509 230.188 149.374 230.124 149.217C230.061 149.059 230.046 148.887 230.081 148.72C230.116 148.554 230.199 148.402 230.32 148.284C230.441 148.165 230.595 148.085 230.762 148.053C230.928 148.022 231.101 148.04 231.257 148.107C231.466 148.197 231.631 148.366 231.716 148.577C231.8 148.788 231.798 149.024 231.71 149.234Z" fill="#263238"/>
<path d="M149.869 152.273L149.612 152.243L149.903 154.707L150.146 154.619C150.146 154.229 150.098 153.831 150.05 153.437C150.002 153.043 149.962 152.656 149.869 152.273ZM149.501 151.706L149.733 151.577C149.558 150.808 149.33 150.052 149.052 149.315H148.787L149.501 151.706ZM149.777 157.739L150.039 157.698C150.137 156.915 150.181 156.126 150.172 155.337L149.917 155.264L149.777 157.739ZM148.787 148.663C148.483 147.937 148.128 147.233 147.726 146.556L147.468 146.619L148.573 148.829L148.787 148.663ZM149.133 160.697H149.394C149.629 159.943 149.811 159.174 149.939 158.395L149.7 158.277L149.133 160.697ZM145.693 144.162L147.166 146.151L147.335 145.948C146.907 145.286 146.433 144.655 145.917 144.059L145.693 144.162ZM147.98 163.496L148.238 163.54C148.598 162.84 148.91 162.116 149.173 161.374L148.96 161.216L147.98 163.496ZM143.523 142.059L145.332 143.757L145.464 143.532C144.929 142.953 144.354 142.411 143.744 141.912L143.523 142.059ZM146.359 166.052L146.606 166.141C147.082 165.513 147.514 164.853 147.899 164.166L147.722 163.978L146.359 166.052ZM141.018 140.357L143.092 141.716L143.184 141.469C142.555 140.994 141.894 140.562 141.206 140.177L141.018 140.357ZM144.333 168.292L144.558 168.421C145.135 167.885 145.676 167.31 146.175 166.7L146.031 166.479L144.333 168.292ZM138.267 139.12L140.547 140.099L140.595 139.838C139.894 139.478 139.169 139.167 138.425 138.906L138.267 139.12ZM141.95 170.137L142.153 170.306C142.814 169.879 143.446 169.406 144.042 168.892L143.939 168.656L141.95 170.137ZM135.346 138.379L137.762 138.946V138.681C137.009 138.447 136.239 138.268 135.46 138.143L135.346 138.379ZM139.269 171.529L139.438 171.732C140.165 171.427 140.871 171.073 141.549 170.671L141.486 170.417L139.269 171.529ZM132.403 137.897L132.329 138.147L134.805 138.287L134.764 138.029C133.972 137.932 133.175 137.888 132.377 137.897H132.403ZM136.517 172.671C137.286 172.499 138.042 172.272 138.779 171.993V171.732L136.407 172.447L136.517 172.671ZM130.517 138.018C130.123 138.066 129.733 138.121 129.35 138.199L129.32 138.457L131.784 138.166L131.696 137.922C131.28 137.937 130.885 137.97 130.491 138.018H130.517ZM133.464 173.095C133.854 173.076 134.252 173.043 134.646 172.995C135.04 172.947 135.434 172.892 135.818 172.815L135.843 172.561L133.379 172.852L133.464 173.095ZM126.384 139.02V139.282L128.76 138.567L128.631 138.342C127.861 138.514 127.104 138.741 126.366 139.02H126.384ZM130.399 172.984C131.182 173.082 131.971 173.127 132.76 173.117L132.834 172.866L130.355 172.726L130.399 172.984ZM123.615 140.346L123.677 140.6L125.887 139.495L125.718 139.289C124.987 139.593 124.278 139.946 123.596 140.346H123.615ZM127.397 172.34C128.151 172.576 128.92 172.758 129.699 172.885L129.814 172.649L127.397 172.082V172.34ZM121.117 142.136L121.22 142.376L123.209 140.902L123.01 140.729C122.343 141.155 121.704 141.625 121.099 142.136H121.117ZM124.546 171.183C125.247 171.545 125.972 171.858 126.716 172.119L126.871 171.905L124.591 170.929L124.546 171.183ZM118.966 144.328L119.11 144.545L120.808 142.74L120.583 142.608C120 143.142 119.456 143.716 118.955 144.328H118.966ZM121.95 169.551C122.578 170.03 123.239 170.463 123.928 170.848L124.112 170.671L122.038 169.308L121.95 169.551ZM117.231 146.862L117.408 147.05L118.767 144.976L118.524 144.888C118.044 145.515 117.609 146.174 117.22 146.862H117.231ZM119.67 167.489C120.205 168.069 120.781 168.611 121.393 169.109L121.607 168.966L119.802 167.268L119.67 167.489ZM115.957 149.65L116.17 149.805L117.15 147.525L116.892 147.481C116.528 148.183 116.212 148.909 115.946 149.654L115.957 149.65ZM117.799 165.069C118.227 165.731 118.7 166.363 119.213 166.962L119.452 166.859L117.979 164.87L117.799 165.069ZM115.22 152.626L115.452 152.741L116.019 150.324H115.758C115.513 151.078 115.322 151.849 115.187 152.63L115.22 152.626ZM116.369 162.358C116.677 163.084 117.032 163.789 117.434 164.468L117.684 164.402L116.579 162.192L116.369 162.358ZM115.338 153.286L115.084 153.33C114.988 154.113 114.943 154.902 114.948 155.691L115.198 155.765L115.338 153.286ZM115.618 159.312L115.397 159.437C115.57 160.207 115.797 160.964 116.075 161.702L116.333 161.684L115.618 159.312ZM115.216 156.31L114.977 156.394C114.977 156.785 115.025 157.179 115.073 157.573C115.121 157.967 115.18 158.361 115.253 158.748L115.507 158.774L115.216 156.31Z" fill="#263238"/>
<path d="M149.902 154.708L150.146 154.619C150.146 154.855 150.168 155.091 150.171 155.326L149.917 155.253L149.777 157.739L150.039 157.698C150.013 157.934 149.976 158.166 149.939 158.398L149.7 158.28L149.133 160.686H149.394C149.324 160.91 149.254 161.135 149.173 161.36L148.96 161.201L147.98 163.481L148.238 163.526C148.131 163.735 148.02 163.949 147.899 164.152L147.722 163.964L146.359 166.038L146.606 166.126C146.462 166.314 146.315 166.494 146.164 166.686L146.02 166.465L144.322 168.277L144.547 168.406C144.377 168.564 144.179 168.723 144.016 168.877L143.913 168.642L141.924 170.115L142.127 170.284C141.928 170.413 141.725 170.542 141.523 170.653L141.46 170.399L139.25 171.504L139.42 171.706C139.202 171.802 138.985 171.887 138.76 171.968V171.706L136.388 172.421L136.517 172.645C136.285 172.701 136.057 172.745 135.825 172.789L135.85 172.535L133.386 172.826L133.471 173.069C133.239 173.069 133.003 173.087 132.768 173.091L132.841 172.841L130.362 172.701L130.406 172.959C130.171 172.933 129.939 172.9 129.707 172.859L129.821 172.623L127.405 172.056V172.314C127.18 172.244 126.955 172.174 126.731 172.093L126.885 171.879L124.605 170.903L124.561 171.157C124.351 171.054 124.145 170.94 123.942 170.822L124.126 170.645L122.053 169.283L121.964 169.526C121.776 169.382 121.596 169.238 121.408 169.087L121.622 168.944L119.817 167.246L119.684 167.467C119.522 167.294 119.367 167.12 119.213 166.94L119.452 166.837L117.979 164.848L117.813 165.047C117.684 164.848 117.563 164.649 117.445 164.446L117.695 164.38L116.59 162.17L116.388 162.339C116.296 162.122 116.207 161.905 116.126 161.68L116.384 161.662L115.669 159.29L115.448 159.415C115.393 159.187 115.349 158.958 115.305 158.726L115.559 158.752L115.268 156.288L115.028 156.372C115.028 156.14 115.006 155.905 114.999 155.669L115.249 155.743L115.389 153.264L115.135 153.308C115.161 153.072 115.194 152.84 115.238 152.608L115.47 152.722L116.038 150.306H115.776C115.845 150.08 115.919 149.855 115.997 149.632L116.211 149.787L117.191 147.507L116.933 147.462C117.043 147.252 117.154 147.042 117.272 146.84L117.448 147.028L118.808 144.954L118.565 144.866C118.708 144.678 118.852 144.497 119.007 144.306L119.15 144.523L120.848 142.718L120.624 142.586C120.797 142.424 120.97 142.269 121.15 142.114L121.253 142.354L123.242 140.88L123.043 140.707C123.242 140.578 123.445 140.453 123.648 140.339L123.71 140.593L125.92 139.488L125.751 139.282C125.968 139.186 126.189 139.101 126.414 139.02V139.282L128.79 138.567L128.661 138.342C128.893 138.287 129.121 138.239 129.357 138.199L129.327 138.457L131.791 138.166L131.703 137.923C131.939 137.904 132.175 137.9 132.41 137.897L132.337 138.147L134.812 138.287L134.771 138.029C135.007 138.055 135.239 138.088 135.471 138.132L135.353 138.368L137.77 138.935V138.67C137.994 138.74 138.219 138.814 138.444 138.895L138.285 139.109L140.565 140.088L140.613 139.827C140.823 139.937 141.033 140.048 141.236 140.166L141.048 140.346L143.121 141.705L143.214 141.459C143.401 141.606 143.582 141.75 143.773 141.901L143.552 142.048L145.361 143.746L145.494 143.521C145.656 143.691 145.81 143.867 145.961 144.048L145.722 144.151L147.195 146.14L147.365 145.937C147.494 146.136 147.622 146.339 147.733 146.545L147.475 146.608L148.58 148.818L148.786 148.648C148.882 148.866 148.967 149.087 149.048 149.311H148.783L149.497 151.687L149.729 151.558C149.781 151.79 149.833 152.019 149.869 152.254L149.612 152.225L149.902 154.708Z" fill="#263238"/>
<path d="M131.758 138.165L129.294 138.456L129.323 138.199L129.412 137.396L131.393 137.16L131.67 137.922L131.758 138.165Z" fill="#263238"/>
<path d="M128.757 138.567L126.381 139.282L126.366 139.02L126.314 138.221L128.23 137.643L128.628 138.342L128.757 138.567Z" fill="#263238"/>
<path d="M125.872 139.488L123.658 140.604L123.596 140.346L123.404 139.565L125.191 138.663L125.703 139.282L125.872 139.488Z" fill="#263238"/>
<path d="M123.191 140.887L121.205 142.376L121.099 142.136L120.774 141.396L122.38 140.202L122.992 140.718L123.191 140.887Z" fill="#263238"/>
<path d="M120.797 142.736L119.099 144.545L118.955 144.328L118.506 143.657L119.876 142.199L120.572 142.608L120.797 142.736Z" fill="#263238"/>
<path d="M118.756 144.976L117.397 147.05L117.22 146.862L116.66 146.28L117.758 144.608L118.513 144.888L118.756 144.976Z" fill="#263238"/>
<path d="M117.139 147.529L116.159 149.809L115.945 149.658L115.297 149.179L116.089 147.341L116.881 147.484L117.139 147.529Z" fill="#263238"/>
<path d="M115.986 150.328L115.419 152.744L115.187 152.63L114.461 152.273L114.921 150.324L115.724 150.328H115.986Z" fill="#263238"/>
<path d="M115.338 153.286L115.198 155.765L114.947 155.691L114.174 155.466L114.292 153.466L115.084 153.33L115.338 153.286Z" fill="#263238"/>
<path d="M115.216 156.31L115.507 158.774L115.253 158.748L114.447 158.656L114.211 156.674L114.977 156.395L115.216 156.31Z" fill="#263238"/>
<path d="M116.332 161.684L116.075 161.702L115.272 161.754L114.693 159.838L115.397 159.437L115.618 159.312L116.332 161.684Z" fill="#263238"/>
<path d="M117.651 164.41L117.401 164.472L116.616 164.664L115.714 162.877L116.336 162.362L116.539 162.192L117.651 164.41Z" fill="#263238"/>
<path d="M119.422 166.863L119.187 166.966L118.446 167.294L117.253 165.688L117.772 165.072L117.938 164.874L119.422 166.863Z" fill="#263238"/>
<path d="M121.596 168.97L121.383 169.113L120.709 169.563L119.25 168.192L119.659 167.492L119.791 167.271L121.596 168.97Z" fill="#263238"/>
<path d="M124.1 170.671L123.916 170.848L123.33 171.404L121.658 170.31L121.938 169.551L122.027 169.308L124.1 170.671Z" fill="#263238"/>
<path d="M126.859 171.905L126.705 172.119L126.23 172.771L124.392 171.975L124.535 171.183L124.579 170.929L126.859 171.905Z" fill="#263238"/>
<path d="M129.795 172.649L129.681 172.885L129.323 173.603L127.375 173.146L127.379 172.34V172.082L129.795 172.649Z" fill="#263238"/>
<path d="M132.815 172.866L132.741 173.117L132.516 173.894L130.516 173.78L130.38 172.984L130.336 172.726L132.815 172.866Z" fill="#263238"/>
<path d="M135.825 172.561L135.799 172.815L135.707 173.621L133.725 173.857L133.445 173.095L133.36 172.852L135.825 172.561Z" fill="#263238"/>
<path d="M138.734 171.732L138.753 171.993L138.808 172.796L136.889 173.375L136.491 172.671L136.362 172.447L138.734 171.732Z" fill="#263238"/>
<path d="M141.715 171.452L139.928 172.351L139.413 171.732L139.243 171.529L141.457 170.417L141.523 170.671L141.715 171.452Z" fill="#263238"/>
<path d="M144.345 169.618L142.743 170.815L142.127 170.295L141.925 170.126L143.914 168.645L144.017 168.881L144.345 169.618Z" fill="#263238"/>
<path d="M146.613 167.36L145.243 168.815L144.547 168.41L144.322 168.281L146.02 166.469L146.164 166.689L146.613 167.36Z" fill="#263238"/>
<path d="M148.455 164.737L147.361 166.41L146.606 166.13L146.359 166.041L147.722 163.968L147.899 164.155L148.455 164.737Z" fill="#263238"/>
<path d="M149.821 161.838L149.029 163.676L148.237 163.529L147.979 163.485L148.959 161.205L149.173 161.363L149.821 161.838Z" fill="#263238"/>
<path d="M150.654 158.744L150.197 160.693L149.394 160.689L149.133 160.686L149.7 158.269L149.939 158.387L150.654 158.744Z" fill="#263238"/>
<path d="M150.945 155.551L150.831 157.551L150.039 157.687L149.777 157.728L149.917 155.253L150.171 155.326L150.945 155.551Z" fill="#263238"/>
<path d="M150.672 152.361L150.908 154.346L150.145 154.619L149.902 154.707L149.611 152.243L149.869 152.273L150.672 152.361Z" fill="#263238"/>
<path d="M150.425 151.179L149.729 151.577L149.497 151.709L148.782 149.33L149.047 149.315L149.847 149.263L150.425 151.179Z" fill="#263238"/>
<path d="M149.402 148.14L148.786 148.652L148.58 148.821L147.468 146.608L147.726 146.545L148.503 146.354L149.402 148.14Z" fill="#263238"/>
<path d="M147.866 145.33L147.35 145.937L147.18 146.14L145.692 144.155L145.932 144.048L146.668 143.724L147.866 145.33Z" fill="#263238"/>
<path d="M145.866 142.825L145.464 143.521L145.332 143.746L143.52 142.048L143.744 141.901L144.411 141.455L145.866 142.825Z" fill="#263238"/>
<path d="M143.46 140.707L143.183 141.458L143.091 141.705L141.018 140.346L141.205 140.166L141.787 139.609L143.46 140.707Z" fill="#263238"/>
<path d="M140.727 139.039L140.584 139.827L140.536 140.088L138.256 139.108L138.414 138.895L138.889 138.247L140.727 139.039Z" fill="#263238"/>
<path d="M137.744 137.871L137.74 138.67L137.737 138.935L135.32 138.368L135.438 138.129L135.795 137.41L137.744 137.871Z" fill="#263238"/>
<path d="M134.779 138.287L132.304 138.147L132.377 137.897L132.602 137.127L134.602 137.241L134.738 138.029L134.779 138.287Z" fill="#263238"/>
<path d="M146.679 153.838C147.01 156.632 146.504 159.46 145.227 161.966C143.95 164.472 141.958 166.543 139.503 167.917C137.049 169.291 134.242 169.907 131.438 169.686C128.634 169.464 125.958 168.417 123.75 166.675C121.541 164.933 119.899 162.575 119.03 159.9C118.161 157.225 118.106 154.352 118.87 151.645C119.634 148.938 121.184 146.518 123.323 144.692C125.463 142.865 128.095 141.715 130.889 141.385C132.743 141.165 134.623 141.313 136.42 141.821C138.218 142.328 139.898 143.184 141.364 144.34C142.83 145.497 144.055 146.931 144.967 148.561C145.879 150.19 146.461 151.984 146.679 153.838Z" fill="#37474F"/>
<path d="M141.648 154.424C141.861 156.222 141.537 158.043 140.715 159.656C139.893 161.269 138.612 162.603 137.032 163.488C135.453 164.373 133.646 164.769 131.841 164.628C130.036 164.486 128.314 163.812 126.892 162.691C125.47 161.57 124.412 160.052 123.853 158.33C123.294 156.608 123.258 154.759 123.749 153.017C124.241 151.274 125.238 149.717 126.616 148.541C127.993 147.366 129.687 146.625 131.485 146.413C133.895 146.128 136.319 146.812 138.225 148.314C140.131 149.817 141.362 152.014 141.648 154.424Z" fill="#455A64"/>
<path d="M136.583 155.032C136.676 155.827 136.531 156.632 136.166 157.346C135.801 158.059 135.233 158.648 134.534 159.038C133.834 159.429 133.035 159.603 132.236 159.54C131.438 159.476 130.676 159.177 130.047 158.68C129.419 158.184 128.951 157.512 128.704 156.75C128.457 155.988 128.442 155.17 128.659 154.399C128.877 153.629 129.318 152.94 129.928 152.419C130.537 151.899 131.286 151.571 132.082 151.477C132.611 151.414 133.147 151.457 133.66 151.601C134.172 151.746 134.651 151.991 135.07 152.321C135.488 152.651 135.836 153.06 136.096 153.526C136.356 153.991 136.521 154.502 136.583 155.032Z" fill="#263238"/>
<path d="M133.18 160.748C132.143 160.87 131.094 160.682 130.164 160.207C129.234 159.732 128.466 158.993 127.957 158.081C127.448 157.17 127.22 156.129 127.303 155.088C127.385 154.047 127.775 153.055 128.422 152.235C129.068 151.416 129.944 150.807 130.936 150.485C131.929 150.163 132.996 150.143 134 150.427C135.004 150.711 135.902 151.286 136.58 152.08C137.257 152.874 137.684 153.851 137.806 154.888C137.968 156.278 137.572 157.676 136.705 158.775C135.838 159.873 134.57 160.583 133.18 160.748ZM131.994 150.741C131.055 150.855 130.172 151.245 129.454 151.861C128.737 152.477 128.218 153.292 127.963 154.203C127.708 155.113 127.728 156.079 128.022 156.978C128.315 157.877 128.867 158.669 129.61 159.254C130.353 159.84 131.252 160.192 132.195 160.267C133.137 160.342 134.081 160.136 134.907 159.675C135.733 159.215 136.404 158.52 136.835 157.678C137.267 156.837 137.439 155.886 137.331 154.947C137.259 154.319 137.063 153.712 136.756 153.161C136.448 152.609 136.034 152.124 135.538 151.733C135.042 151.342 134.473 151.053 133.865 150.883C133.257 150.712 132.621 150.664 131.994 150.741Z" fill="#263238"/>
<path d="M132.565 148.258C132.588 148.427 132.56 148.598 132.485 148.751C132.41 148.904 132.291 149.031 132.144 149.116C131.997 149.202 131.827 149.241 131.657 149.23C131.488 149.218 131.325 149.157 131.19 149.053C131.055 148.949 130.955 148.807 130.901 148.645C130.847 148.484 130.842 148.31 130.887 148.146C130.932 147.982 131.025 147.835 131.154 147.723C131.283 147.612 131.442 147.542 131.611 147.521C131.835 147.493 132.061 147.555 132.24 147.693C132.419 147.831 132.536 148.034 132.565 148.258Z" fill="#263238"/>
<path d="M128.941 149.227C129.042 149.363 129.102 149.526 129.111 149.695C129.12 149.865 129.078 150.033 128.992 150.179C128.905 150.325 128.777 150.442 128.624 150.515C128.471 150.589 128.299 150.615 128.131 150.59C127.963 150.566 127.806 150.493 127.68 150.379C127.554 150.266 127.464 150.117 127.422 149.953C127.38 149.788 127.388 149.615 127.445 149.455C127.501 149.295 127.604 149.155 127.74 149.054C127.922 148.917 128.151 148.859 128.376 148.892C128.601 148.924 128.804 149.045 128.941 149.227Z" fill="#263238"/>
<path d="M126.285 151.879C126.441 151.946 126.573 152.058 126.666 152.2C126.758 152.342 126.807 152.509 126.804 152.679C126.802 152.848 126.749 153.014 126.653 153.154C126.557 153.293 126.422 153.402 126.264 153.465C126.106 153.527 125.933 153.542 125.767 153.507C125.601 153.471 125.45 153.388 125.331 153.266C125.213 153.144 125.133 152.99 125.102 152.823C125.071 152.656 125.091 152.484 125.158 152.328C125.248 152.119 125.417 151.954 125.628 151.87C125.84 151.786 126.076 151.789 126.285 151.879Z" fill="#263238"/>
<path d="M125.309 155.499C125.478 155.477 125.649 155.504 125.802 155.579C125.955 155.654 126.082 155.773 126.167 155.921C126.252 156.068 126.292 156.237 126.281 156.407C126.269 156.577 126.208 156.74 126.103 156.874C125.999 157.009 125.858 157.11 125.696 157.164C125.535 157.218 125.361 157.223 125.197 157.177C125.033 157.132 124.886 157.039 124.774 156.91C124.663 156.782 124.593 156.622 124.572 156.453C124.546 156.23 124.608 156.005 124.746 155.826C124.884 155.648 125.086 155.531 125.309 155.499Z" fill="#263238"/>
<path d="M126.277 159.124C126.413 159.022 126.576 158.964 126.746 158.955C126.915 158.946 127.083 158.988 127.229 159.075C127.374 159.161 127.491 159.289 127.564 159.442C127.637 159.595 127.663 159.766 127.639 159.934C127.615 160.102 127.542 160.259 127.429 160.385C127.316 160.511 127.167 160.601 127.003 160.643C126.839 160.686 126.666 160.678 126.506 160.622C126.346 160.566 126.206 160.464 126.104 160.328C126.036 160.238 125.987 160.135 125.959 160.025C125.93 159.916 125.924 159.802 125.94 159.69C125.956 159.578 125.995 159.47 126.052 159.373C126.11 159.276 126.187 159.191 126.277 159.124Z" fill="#263238"/>
<path d="M128.929 161.79C128.996 161.634 129.108 161.502 129.25 161.409C129.393 161.317 129.559 161.269 129.729 161.271C129.899 161.273 130.064 161.326 130.204 161.422C130.344 161.518 130.452 161.654 130.515 161.811C130.578 161.969 130.592 162.142 130.557 162.308C130.522 162.474 130.438 162.626 130.316 162.744C130.195 162.863 130.041 162.942 129.874 162.973C129.707 163.004 129.534 162.985 129.378 162.918C129.169 162.828 129.005 162.658 128.92 162.447C128.836 162.236 128.839 162 128.929 161.79Z" fill="#263238"/>
<path d="M132.55 162.755C132.527 162.587 132.555 162.415 132.63 162.262C132.705 162.109 132.823 161.982 132.971 161.897C133.118 161.812 133.288 161.773 133.457 161.784C133.627 161.795 133.79 161.857 133.925 161.961C134.059 162.065 134.16 162.207 134.214 162.368C134.268 162.53 134.273 162.704 134.228 162.868C134.183 163.032 134.09 163.179 133.961 163.29C133.832 163.401 133.673 163.472 133.504 163.492C133.28 163.518 133.055 163.456 132.877 163.318C132.698 163.181 132.581 162.979 132.55 162.755Z" fill="#263238"/>
<path d="M136.175 161.79C136.074 161.654 136.015 161.492 136.006 161.322C135.997 161.153 136.039 160.985 136.126 160.839C136.212 160.693 136.34 160.577 136.493 160.503C136.646 160.43 136.817 160.404 136.985 160.428C137.153 160.453 137.31 160.526 137.436 160.639C137.562 160.752 137.652 160.9 137.694 161.065C137.737 161.229 137.729 161.402 137.673 161.562C137.617 161.722 137.515 161.862 137.379 161.964C137.196 162.1 136.967 162.158 136.741 162.126C136.515 162.093 136.312 161.973 136.175 161.79Z" fill="#263238"/>
<path d="M138.834 159.138C138.678 159.071 138.545 158.96 138.453 158.817C138.36 158.675 138.312 158.508 138.315 158.339C138.317 158.169 138.369 158.004 138.465 157.864C138.562 157.724 138.697 157.616 138.855 157.553C139.013 157.49 139.185 157.475 139.351 157.511C139.517 157.546 139.669 157.63 139.788 157.751C139.906 157.873 139.986 158.027 140.017 158.194C140.047 158.361 140.028 158.533 139.961 158.689C139.87 158.897 139.701 159.062 139.49 159.146C139.279 159.23 139.043 159.227 138.834 159.138Z" fill="#263238"/>
<path d="M139.807 155.529C139.695 155.542 139.581 155.533 139.473 155.502C139.364 155.471 139.263 155.419 139.174 155.349C139.086 155.279 139.012 155.193 138.957 155.094C138.902 154.996 138.867 154.888 138.854 154.776C138.841 154.664 138.85 154.55 138.881 154.442C138.912 154.333 138.964 154.232 139.034 154.143C139.104 154.055 139.19 153.981 139.289 153.926C139.387 153.871 139.496 153.836 139.608 153.823C139.72 153.81 139.833 153.819 139.942 153.85C140.05 153.881 140.151 153.933 140.24 154.003C140.328 154.073 140.402 154.159 140.457 154.258C140.512 154.356 140.547 154.465 140.56 154.577C140.573 154.689 140.564 154.802 140.533 154.911C140.502 155.019 140.45 155.12 140.38 155.209C140.31 155.297 140.224 155.371 140.125 155.426C140.027 155.481 139.919 155.516 139.807 155.529Z" fill="#263238"/>
<path d="M138.841 151.89C138.705 151.991 138.542 152.051 138.373 152.06C138.203 152.069 138.035 152.027 137.889 151.941C137.743 151.854 137.626 151.726 137.553 151.573C137.479 151.42 137.453 151.248 137.478 151.08C137.502 150.912 137.575 150.755 137.689 150.629C137.802 150.503 137.951 150.413 138.115 150.371C138.28 150.329 138.453 150.337 138.613 150.394C138.773 150.45 138.913 150.553 139.014 150.689C139.15 150.872 139.207 151.1 139.175 151.325C139.142 151.55 139.023 151.753 138.841 151.89Z" fill="#263238"/>
<path d="M136.19 149.234C136.123 149.39 136.011 149.523 135.869 149.615C135.726 149.708 135.56 149.756 135.39 149.753C135.22 149.751 135.055 149.699 134.915 149.603C134.775 149.506 134.667 149.371 134.604 149.213C134.541 149.055 134.526 148.883 134.562 148.717C134.597 148.551 134.681 148.399 134.803 148.28C134.924 148.162 135.078 148.082 135.245 148.051C135.412 148.021 135.584 148.04 135.74 148.107C135.949 148.197 136.114 148.366 136.198 148.577C136.283 148.789 136.28 149.025 136.19 149.234Z" fill="#263238"/>
<path d="M154.418 155.529H152.131C152.06 150.385 149.967 145.475 146.304 141.862C142.642 138.25 137.704 136.224 132.559 136.224C127.414 136.224 122.477 138.25 118.814 141.862C115.151 145.475 113.058 150.385 112.988 155.529H110.7C110.775 149.781 113.111 144.293 117.202 140.255C121.293 136.216 126.81 133.952 132.559 133.952C138.308 133.952 143.825 136.216 147.916 140.255C152.007 144.293 154.343 149.781 154.418 155.529Z" fill="#F59C42"/>
<path opacity="0.2" d="M154.418 155.529H152.131C152.06 150.385 149.967 145.475 146.304 141.862C142.642 138.25 137.704 136.224 132.559 136.224C127.414 136.224 122.477 138.25 118.814 141.862C115.151 145.475 113.058 150.385 112.988 155.529H110.7C110.775 149.781 113.111 144.293 117.202 140.255C121.293 136.216 126.81 133.952 132.559 133.952C138.308 133.952 143.825 136.216 147.916 140.255C152.007 144.293 154.343 149.781 154.418 155.529Z" fill="white"/>
<path d="M208.526 155.529H206.235C206.243 149.734 208.549 144.178 212.647 140.081C216.745 135.984 222.301 133.679 228.096 133.672V135.959C222.908 135.965 217.933 138.029 214.265 141.698C210.596 145.366 208.532 150.34 208.526 155.529Z" fill="#F59C42"/>
<path opacity="0.2" d="M208.526 155.529H206.235C206.243 149.734 208.549 144.178 212.647 140.081C216.745 135.984 222.301 133.679 228.096 133.672V135.959C222.908 135.965 217.933 138.029 214.265 141.698C210.596 145.366 208.532 150.34 208.526 155.529Z" fill="white"/>
<path d="M137.932 126.066H109.367L106.575 132.206H137.932V126.066Z" fill="#F59C42"/>
<path opacity="0.1" d="M137.932 126.066H109.367L106.575 132.206H137.932V126.066Z" fill="black"/>
<path d="M137.932 105.21H109.367V126.062H137.932V105.21Z" fill="#F59C42"/>
<g opacity="0.1">
<path d="M135.372 107.369H123.217V108.588H135.372V107.369Z" fill="black"/>
<path d="M135.372 109.955H123.217V111.174H135.372V109.955Z" fill="black"/>
<path d="M135.372 112.544H123.217V113.763H135.372V112.544Z" fill="black"/>
<path d="M135.372 115.13H123.217V116.349H135.372V115.13Z" fill="black"/>
<path d="M135.372 117.719H123.217V118.938H135.372V117.719Z" fill="black"/>
</g>
<path d="M213.452 67.7066H203.068V66.9294H213.127L214.785 65.2719V49.8018H206.84L198.523 55.2569L198.096 54.6086L206.608 49.0247H215.562V65.5961L213.452 67.7066Z" fill="#263238"/>
<path d="M213.536 50.8701H207.447V65.0731H213.536V50.8701Z" fill="#263238"/>
<path d="M215.172 62.373H213.536V63.1502H215.172V62.373Z" fill="#263238"/>
<path d="M215.172 53.5811H213.536V54.3582H215.172V53.5811Z" fill="#263238"/>
<path d="M199.86 77.7016L184.36 93.2012L186.405 95.2457L201.904 79.7462L199.86 77.7016Z" fill="#263238"/>
<path d="M199.44 90.1235L196.707 92.8565L192.055 89.5968L196.092 85.5598L199.44 90.1235Z" fill="#37474F"/>
<path d="M198.725 90.8356L197.488 92.0728L205.026 99.6102L206.263 98.3731L198.725 90.8356Z" fill="#263238"/>
<path d="M216.531 132.206L208.589 94.1015L190.32 40.4756H138.388L137.932 105.211H132.687L135.644 37.7278H192.154L213.131 92.6576L222.693 132.206H216.531Z" fill="#37474F"/>
<path d="M208.589 94.1016L201.738 102.953V114.216L194.585 132.206H216.53L208.589 94.1016Z" fill="#263238"/>
<path d="M177.027 132.206H137.932V104.975H167.642L177.027 132.206Z" fill="#37474F"/>
<path d="M173.642 98.9856H142.576V104.978H173.642V98.9856Z" fill="#263238"/>
<path d="M138.326 70.9665L142.577 98.9858H151.104L143.829 69.541L138.326 70.9665Z" fill="#263238"/>
<path d="M163.501 56.5939C162.374 56.104 159.181 56.3508 157.862 57.7247C156.543 59.0986 156.131 61.6585 156.602 62.0084C157.074 62.3584 159.357 62.6051 161.059 62.0563C162.761 61.5075 164.057 56.8333 163.501 56.5939Z" fill="#263238"/>
<path d="M163.505 56.6012C163.546 56.6012 163.564 56.5349 163.505 56.5239C162.481 56.2992 161.295 56.4281 160.271 56.5239C159.421 56.5495 158.587 56.7541 157.822 57.1243C157.463 57.3178 157.151 57.5871 156.906 57.9134C156.662 58.2396 156.492 58.6151 156.407 59.0138C156.159 59.9716 156.159 60.977 156.407 61.9347C156.407 61.9605 156.462 61.9605 156.462 61.9347C156.322 60.1262 156.315 57.9493 158.253 57.1095C159.906 56.3913 161.774 56.6344 163.505 56.6012Z" fill="#263238"/>
<path d="M156.86 61.6033C155.803 61.537 152.746 62.9735 151.914 64.8446C151.081 66.7158 152.105 69.9203 152.569 70.2297C153.033 70.5391 155.674 69.1026 156.687 67.8687C157.361 67.0473 157.181 65.8944 157.166 64.782C157.14 63.1282 157.026 61.6033 156.86 61.6033Z" fill="#263238"/>
<path d="M157.354 67.7324C158.05 65.7986 157.306 63.5996 156.985 61.6659C156.985 61.661 156.983 61.6563 156.98 61.6529C156.976 61.6494 156.972 61.6475 156.967 61.6475C156.962 61.6475 156.957 61.6494 156.954 61.6529C156.95 61.6563 156.948 61.661 156.948 61.6659C156.985 63.467 157.722 65.224 157.398 67.0399C157.326 67.5759 157.127 68.0869 156.816 68.5293C156.505 68.9717 156.092 69.3326 155.611 69.5814C154.735 70.0013 153.722 70.075 152.772 70.2149C152.709 70.2149 152.731 70.3181 152.772 70.3107C154.668 70.075 156.635 69.7324 157.354 67.7324Z" fill="#263238"/>
<path d="M156.592 61.7358C156.647 61.7358 156.628 61.629 156.573 61.6437C154.971 62.0526 153.011 62.7193 151.936 64.049C150.776 65.4892 151.295 67.3382 151.766 68.9368C151.766 68.9589 151.807 68.9368 151.8 68.9368C151.343 67.3198 150.912 65.3381 152.168 63.9606C153.277 62.7708 155.089 62.141 156.592 61.7358Z" fill="#263238"/>
<path d="M152.816 70.0051C153.438 70.484 154.23 71.8468 154.208 73.2759C154.171 75.7143 155.151 75.4123 157.622 76.5099C159.711 77.4418 159.733 79.9723 158.359 80.9705C158.359 80.9705 159.309 79.5855 157.991 78.5763C156.389 77.3718 152.027 78.4916 150.469 75.6296C148.425 71.9463 152.816 70.0051 152.816 70.0051Z" fill="#263238"/>
<path d="M153.546 71.2684C153.524 71.2316 153.586 71.1911 153.612 71.2279C153.857 71.5788 154.034 71.9723 154.135 72.3882C154.268 72.9296 154.179 73.4711 154.271 74.0162C154.507 75.4011 156.083 75.6406 157.218 75.9315C158.724 76.2999 159.796 77.4712 159.583 79.0919C159.583 79.0967 159.581 79.1014 159.577 79.1049C159.574 79.1083 159.569 79.1103 159.564 79.1103C159.559 79.1103 159.555 79.1083 159.551 79.1049C159.548 79.1014 159.546 79.0967 159.546 79.0919C159.602 78.591 159.52 78.0843 159.309 77.6266C159.098 77.1688 158.766 76.7776 158.349 76.4951C157.524 75.9573 156.485 75.9721 155.601 75.5816C154.993 75.3127 154.411 74.9297 154.231 74.2593C154.162 73.884 154.133 73.5025 154.146 73.1211C154.108 72.4623 153.901 71.8244 153.546 71.2684Z" fill="#263238"/>
<path d="M152.363 70.2188C152.363 70.2188 152.396 70.2188 152.363 70.2445C151.343 70.9407 150.271 71.6295 149.785 72.8229C149.273 74.1157 149.722 75.5854 150.628 76.5873C151.645 77.6923 152.989 77.5044 154.356 77.486C155.343 77.486 156.337 77.5376 157.214 78.0348C157.24 78.0348 157.214 78.0938 157.188 78.0827C155.744 77.4602 154.282 77.6554 152.768 77.626C152.199 77.6286 151.642 77.4706 151.159 77.1702C150.676 76.8698 150.288 76.4392 150.039 75.9279C148.716 73.5522 150.201 71.3753 152.363 70.2188Z" fill="#263238"/>
<path d="M162.809 55.3415C162.757 55.2438 162.668 55.1707 162.563 55.1383C162.457 55.1058 162.343 55.1166 162.245 55.1684C162.147 55.2202 162.074 55.3086 162.042 55.4143C162.009 55.52 162.02 55.6343 162.072 55.732C162.124 55.8296 162.212 55.9028 162.318 55.9352C162.424 55.9677 162.538 55.9569 162.636 55.9051C162.733 55.8533 162.806 55.7648 162.839 55.6592C162.871 55.5535 162.86 55.4392 162.809 55.3415Z" fill="#F59C42"/>
<path d="M162.993 56.0783C162.935 55.9921 162.847 55.9305 162.746 55.9054C162.645 55.8804 162.538 55.8937 162.446 55.9427C162.355 55.9918 162.285 56.0731 162.249 56.171C162.214 56.2688 162.217 56.3763 162.256 56.4725C162.314 56.5587 162.402 56.6203 162.503 56.6454C162.604 56.6704 162.711 56.6571 162.802 56.6081C162.894 56.559 162.964 56.4777 162.999 56.3798C163.035 56.282 163.032 56.1745 162.993 56.0783Z" fill="#F59C42"/>
<path d="M163.307 56.8149C163.248 56.7307 163.161 56.6708 163.061 56.6466C162.961 56.6224 162.856 56.6356 162.765 56.6837C162.675 56.7317 162.605 56.8113 162.569 56.9075C162.533 57.0036 162.533 57.1096 162.57 57.2054C162.629 57.2897 162.716 57.3495 162.816 57.3737C162.916 57.3979 163.021 57.3847 163.111 57.3367C163.202 57.2886 163.272 57.209 163.308 57.1129C163.344 57.0167 163.343 56.9107 163.307 56.8149Z" fill="#F59C42"/>
<path d="M163.7 57.4705C163.642 57.3862 163.554 57.3263 163.454 57.3021C163.355 57.2779 163.25 57.2911 163.159 57.3392C163.068 57.3872 162.998 57.4669 162.962 57.563C162.926 57.6591 162.927 57.7651 162.964 57.8609C163.022 57.9452 163.11 58.0051 163.209 58.0293C163.309 58.0534 163.414 58.0403 163.505 57.9922C163.596 57.9441 163.666 57.8645 163.702 57.7684C163.738 57.6722 163.737 57.5663 163.7 57.4705Z" fill="#F59C42"/>
<path d="M164.212 58.0598C164.153 57.9755 164.066 57.9157 163.966 57.8915C163.866 57.8673 163.761 57.8805 163.671 57.9285C163.58 57.9766 163.51 58.0562 163.474 58.1523C163.438 58.2485 163.438 58.3545 163.475 58.4503C163.534 58.5345 163.621 58.5944 163.721 58.6186C163.821 58.6428 163.926 58.6296 164.017 58.5815C164.107 58.5335 164.177 58.4539 164.213 58.3577C164.249 58.2616 164.249 58.1556 164.212 58.0598Z" fill="#F59C42"/>
<path d="M164.802 58.5315C164.743 58.4472 164.656 58.3873 164.556 58.3631C164.456 58.339 164.351 58.3521 164.26 58.4002C164.17 58.4483 164.1 58.5279 164.064 58.624C164.028 58.7202 164.028 58.8261 164.065 58.9219C164.124 59.0062 164.211 59.0661 164.311 59.0903C164.411 59.1145 164.516 59.1013 164.606 59.0532C164.697 59.0052 164.767 58.9255 164.803 58.8294C164.839 58.7333 164.839 58.6273 164.802 58.5315Z" fill="#F59C42"/>
<path d="M196.644 131.992C195.874 132.265 173.575 131.926 172.724 131.399C172.625 131.34 172.12 127.067 172.12 127.067L174.293 110.54L188.927 110.375L186.448 124.5C186.448 124.5 189.704 125.904 192.397 127.134C193.573 127.632 194.718 128.2 195.826 128.835C196.699 129.513 197.41 131.723 196.644 131.992Z" fill="#D3766A"/>
<path d="M196.644 131.992C195.878 132.265 173.571 131.926 172.728 131.403C172.625 131.34 172.12 127.067 172.12 127.067L172.798 121.973L186.846 122.279L186.456 124.489C186.456 124.489 189.712 125.892 192.404 127.123C193.582 127.62 194.728 128.188 195.837 128.824C196.699 129.517 197.41 131.727 196.644 131.992Z" fill="#EBEBEB"/>
<path d="M196.633 132.022C195.848 132.287 173.428 132.313 172.555 131.771C172.227 131.572 172.032 128.301 171.91 124.346V124.22L186.386 124.04V124.287C186.386 124.287 194.979 128.117 195.859 128.813C196.74 129.51 197.417 131.756 196.633 132.022Z" fill="#F59C42"/>
<path d="M196.372 131.149C192.589 131.06 177.322 131.064 173.576 131.263C173.546 131.263 173.546 131.285 173.576 131.289C177.325 131.458 192.589 131.333 196.372 131.211C196.457 131.219 196.457 131.152 196.372 131.149Z" fill="#263238"/>
<path d="M187.597 124.327C186.106 124.051 184.282 124.283 183.152 125.344C183.107 125.384 183.152 125.447 183.214 125.432C184.636 124.972 186.103 124.665 187.59 124.515C187.612 124.512 187.632 124.501 187.647 124.484C187.662 124.467 187.67 124.446 187.671 124.424C187.672 124.402 187.665 124.38 187.652 124.362C187.638 124.345 187.619 124.332 187.597 124.327Z" fill="#263238"/>
<path d="M188.67 124.975C187.197 124.699 185.355 124.927 184.228 125.992C184.184 126.032 184.228 126.095 184.29 126.08C185.711 125.617 187.179 125.309 188.666 125.163C188.688 125.159 188.708 125.148 188.722 125.131C188.737 125.114 188.745 125.093 188.745 125.071C188.746 125.049 188.738 125.027 188.725 125.01C188.711 124.992 188.692 124.98 188.67 124.975Z" fill="#263238"/>
<path d="M189.741 125.62C188.268 125.344 186.426 125.576 185.299 126.637C185.255 126.677 185.299 126.74 185.362 126.725C186.785 126.264 188.253 125.957 189.741 125.808C189.763 125.804 189.783 125.792 189.797 125.775C189.811 125.758 189.818 125.736 189.818 125.714C189.818 125.692 189.811 125.67 189.797 125.653C189.783 125.636 189.763 125.624 189.741 125.62Z" fill="#263238"/>
<path d="M187.554 122.784L171.911 122.868C171.911 122.868 176.629 99.0519 176.051 98.2932C175.425 97.4718 156.614 102.017 151.597 95.6411C148.179 91.2911 150.363 82.3037 150.363 82.3037L168.865 82.5431C168.865 82.5431 168.891 82.9778 168.905 85.1215C168.905 85.1215 177.134 84.138 183.558 84.9668C188.799 85.6408 191.477 89.862 191.458 92.6061C191.377 104.721 187.554 122.784 187.554 122.784Z" fill="#455A64"/>
<path d="M187.289 120.014C185.484 119.885 183.679 119.852 181.867 119.822C180.055 119.793 178.254 119.789 176.445 119.822C175.425 119.844 174.408 119.918 173.388 119.94C173.38 119.94 173.373 119.943 173.367 119.949C173.362 119.954 173.358 119.962 173.358 119.97C173.358 119.977 173.362 119.985 173.367 119.991C173.373 119.996 173.38 119.999 173.388 119.999C174.298 119.999 175.204 120.076 176.114 120.095C177.023 120.113 177.907 120.128 178.806 120.135C180.615 120.135 182.423 120.135 184.228 120.135C185.248 120.135 186.265 120.11 187.285 120.069C187.329 120.088 187.329 120.018 187.289 120.014Z" fill="#263238"/>
<path d="M162.644 83.8988C162.621 83.9652 162.593 84.0293 162.559 84.0903C162.555 84.0955 162.552 84.102 162.552 84.1087C162.552 84.1154 162.555 84.1219 162.559 84.1271C162.345 84.7165 162.246 85.35 162.043 85.9394C161.848 86.5732 161.439 87.1198 160.887 87.4864C159.73 88.223 158.36 88.5508 157.034 88.8345C156.99 88.8345 157.004 88.9045 157.034 88.9081C157.795 88.9353 158.555 88.8434 159.288 88.6356C159.974 88.4688 160.626 88.1807 161.211 87.7847C161.76 87.3969 162.161 86.8328 162.345 86.1861C162.439 85.842 162.513 85.4927 162.566 85.1401C162.655 84.7363 162.713 84.3262 162.739 83.9135C162.735 83.9049 162.729 83.8975 162.721 83.8919C162.714 83.8862 162.705 83.8825 162.695 83.8811C162.686 83.8796 162.676 83.8805 162.667 83.8836C162.658 83.8866 162.65 83.8919 162.644 83.8988Z" fill="#263238"/>
<path d="M174.488 118.555C175.678 112.717 178.754 97.0962 178.242 96.3116C177.999 96.1643 176.113 96.3448 173.929 96.551C168.083 97.1035 158.293 98.0244 154.521 95.3392C150.55 92.5104 151.979 83.8324 152.042 83.4641C152.042 83.383 152.215 83.2283 152.2 83.4641C152.2 83.5561 150.871 92.3667 154.69 95.0924C158.374 97.7186 168.094 96.7978 173.903 96.249C176.717 95.9838 178.083 95.8622 178.415 96.0685C179.31 96.6247 175.505 114.968 174.621 118.688C174.603 118.765 174.415 118.92 174.488 118.555Z" fill="#263238"/>
<path d="M169.52 74.9186L170.352 85.372C170.352 85.372 153.461 84.5248 149.291 83.9539C149.291 83.9539 154.481 67.1099 159.302 62.5131C161.715 60.2147 164.349 60.5683 165.932 62.3878C166.33 62.8483 170.249 68.5243 170.618 71.1284C170.711 71.8019 170.661 72.4874 170.472 73.1404C170.283 73.7934 169.959 74.3993 169.52 74.9186Z" fill="#EBEBEB"/>
<path d="M170.356 85.3719L169.52 74.9185C169.959 74.3992 170.284 73.7935 170.475 73.1406C170.665 72.4878 170.716 71.8023 170.625 71.1284C170.257 68.5205 166.338 62.8482 165.94 62.3878C165.792 62.2155 165.631 62.0553 165.457 61.9089L167.962 69.7729L161.21 61.2349C160.489 61.5128 159.838 61.9482 159.306 62.5093C154.481 67.1024 149.291 83.9501 149.291 83.9501C153.461 84.5247 170.356 85.3719 170.356 85.3719Z" fill="#F59C42"/>
<path d="M151.029 78.3921L169.906 79.7586L169.778 78.0901L151.567 76.7788C151.398 77.3387 151.177 77.8765 151.029 78.3921Z" fill="#EBEBEB"/>
<path d="M150.108 81.2393L170.142 82.6832L170.006 81.0146L150.628 79.6187C150.458 80.208 150.245 80.7568 150.108 81.2393Z" fill="#EBEBEB"/>
<path d="M162.253 61.5443C162.279 61.8868 163.509 64.2663 165.019 64.432C165.513 64.4873 165.925 61.8132 165.925 61.8132L166.003 61.6216L167.06 58.9549L164.142 56.3544L163.715 55.9861C163.715 55.9861 163.476 56.7228 163.185 57.6694L163.141 57.802C163.141 57.8572 163.107 57.9051 163.093 57.953C163.049 58.093 163.001 58.2366 162.96 58.3803C162.92 58.5239 162.894 58.5939 162.864 58.7081C162.835 58.8223 162.802 58.9365 162.769 59.0506C162.54 59.8691 162.368 60.7023 162.253 61.5443Z" fill="#D3766A"/>
<path d="M163.185 57.6878C163.34 58.5088 163.673 59.286 164.16 59.9653C164.646 60.6447 165.275 61.2099 166.002 61.6216L167.059 58.9549L164.142 56.3544L163.715 55.9861C163.715 55.9861 163.476 56.7522 163.185 57.6878Z" fill="#263238"/>
<path d="M172.006 55.2128C171.804 60.2443 168.769 60.6899 167.686 60.6457C166.699 60.6089 163.35 60.3437 163.03 55.3196C162.709 50.2955 165.111 48.7964 167.369 48.7706C169.627 48.7448 172.205 50.185 172.006 55.2128Z" fill="#D3766A"/>
<path d="M170.997 53.7172C170.881 53.705 170.767 53.6853 170.654 53.6582C170.53 53.6554 170.411 53.6113 170.315 53.533C170.29 53.5016 170.276 53.4627 170.276 53.4225C170.276 53.3823 170.29 53.3434 170.315 53.312C170.371 53.2562 170.441 53.2159 170.517 53.1952C170.593 53.1746 170.673 53.1742 170.75 53.1941C170.91 53.2117 171.058 53.2878 171.166 53.4078C171.189 53.4373 171.203 53.473 171.207 53.5105C171.21 53.548 171.202 53.5856 171.184 53.6186C171.166 53.6516 171.138 53.6785 171.105 53.6961C171.072 53.7136 171.034 53.7209 170.997 53.7172Z" fill="#263238"/>
<path d="M167.524 53.6619C167.641 53.6619 167.748 53.6288 167.866 53.6104C167.99 53.6078 168.11 53.5665 168.209 53.4925C168.233 53.4606 168.246 53.4218 168.246 53.382C168.246 53.3421 168.233 53.3034 168.209 53.2715C168.155 53.214 168.086 53.1719 168.011 53.1492C167.935 53.1266 167.855 53.1243 167.778 53.1426C167.616 53.1571 167.465 53.2305 167.354 53.3488C167.33 53.3783 167.314 53.4144 167.311 53.4525C167.307 53.4907 167.314 53.5291 167.333 53.5629C167.351 53.5966 167.379 53.6241 167.413 53.6417C167.447 53.6594 167.486 53.6664 167.524 53.6619Z" fill="#263238"/>
<path d="M168.219 54.9954C168.219 54.9954 168.194 54.9954 168.194 55.0248C168.194 55.3674 168.131 55.7615 167.825 55.861C168.197 55.8425 168.275 55.3195 168.219 54.9954Z" fill="#263238"/>
<path d="M167.929 54.6234C167.38 54.5644 167.295 55.6658 167.804 55.7284C168.312 55.791 168.378 54.6786 167.929 54.6234Z" fill="#263238"/>
<path d="M167.708 54.6674C167.605 54.7227 167.502 54.8258 167.384 54.8258C167.266 54.8258 167.159 54.708 167.078 54.5901H167.06C167.038 54.8 167.104 55.0247 167.329 55.0726C167.553 55.1205 167.697 54.94 167.763 54.7337C167.778 54.7043 167.748 54.6453 167.708 54.6674Z" fill="#263238"/>
<path d="M170.22 55.0654C170.22 55.0654 170.246 55.0654 170.242 55.0986C170.202 55.4374 170.216 55.8353 170.515 55.9752C170.124 55.9089 170.113 55.3822 170.22 55.0654Z" fill="#263238"/>
<path d="M170.541 54.7339C171.093 54.7339 171.042 55.8389 170.541 55.8389C170.04 55.8389 170.077 54.7302 170.541 54.7339Z" fill="#263238"/>
<path d="M170.765 54.8185C170.85 54.8811 170.935 54.9916 171.038 55.0027C171.141 55.0137 171.252 54.8996 171.336 54.7891C171.336 55.0027 171.255 55.22 171.049 55.2495C170.843 55.2789 170.732 55.0911 170.681 54.8811C170.699 54.8517 170.732 54.7927 170.765 54.8185Z" fill="#263238"/>
<path d="M169.634 56.5976C169.655 56.85 169.662 57.1033 169.656 57.3564C169.656 57.3785 169.597 57.3859 169.516 57.3859C169.307 57.4094 169.095 57.3751 168.903 57.2868C168.712 57.1985 168.548 57.0596 168.43 56.8849C168.43 56.8592 168.448 56.8371 168.47 56.8518C168.764 57.0831 169.124 57.2125 169.498 57.2201C169.516 57.1538 169.402 56.3398 169.439 56.3398C169.626 56.3681 169.808 56.4214 169.98 56.4982C169.932 55.4226 169.715 54.3618 169.682 53.29C169.682 53.2812 169.686 53.2728 169.692 53.2665C169.698 53.2603 169.706 53.2568 169.715 53.2568C169.724 53.2568 169.732 53.2603 169.739 53.2665C169.745 53.2728 169.748 53.2812 169.748 53.29C170.016 54.4187 170.171 55.571 170.212 56.7302C170.22 56.8592 169.73 56.6455 169.634 56.5976Z" fill="#263238"/>
<path d="M163.814 55.7393C163.814 55.7393 162.923 54.0413 162.164 54.3396C161.405 54.638 161.939 57.0027 162.731 57.4189C162.829 57.4785 162.939 57.5178 163.052 57.5343C163.166 57.5509 163.282 57.5443 163.393 57.5151C163.504 57.4859 163.608 57.4346 163.699 57.3642C163.789 57.2939 163.865 57.206 163.921 57.1058L163.814 55.7393Z" fill="#D3766A"/>
<path d="M162.333 55.0137C162.333 55.0137 162.315 55.0137 162.333 55.0358C162.584 55.2023 162.796 55.4195 162.957 55.6733C163.118 55.9271 163.225 56.2118 163.269 56.5091C163.242 56.4466 163.203 56.3905 163.153 56.3448C163.102 56.299 163.043 56.2646 162.978 56.244C162.913 56.2233 162.845 56.2169 162.778 56.2252C162.71 56.2334 162.645 56.2562 162.588 56.2918V56.3249C162.694 56.3041 162.805 56.3175 162.903 56.3631C163.002 56.4088 163.083 56.4843 163.136 56.5791C163.226 56.7362 163.298 56.903 163.35 57.0763C163.372 57.1316 163.472 57.1169 163.457 57.0543C163.567 56.3028 163.122 55.1905 162.333 55.0137Z" fill="#263238"/>
<path d="M163.255 55.1869C163.8 55.1869 165.339 53.824 165.601 51.2052C165.601 51.2052 165.203 53.5404 164.997 53.8719C164.791 54.2034 165.859 53.0984 166.102 50.9879C166.728 51.5205 167.428 51.9608 168.179 52.2954C169.152 52.6638 169.767 52.6969 169.844 52.6306C169.921 52.5643 168.489 51.9824 168.131 51.4888C168.131 51.4888 170.684 52.9621 171.899 53.1426C172.039 53.1647 172.452 50.2659 170.662 48.8736C168.872 47.4813 165.763 48.5642 164.894 49.2751C164.894 49.2751 163.936 49.3303 162.79 50.6453C161.645 51.9603 162.669 55.1721 163.255 55.1869Z" fill="#263238"/>
<path d="M172.43 52.0634C172.43 52.0634 171.851 46.3947 166.79 46.8698C161.73 47.345 162.216 53.0174 162.216 53.0174L172.43 52.0634Z" fill="#F59C42"/>
<path d="M161.877 53.4435L172.843 52.4243L172.768 51.6211L161.802 52.6403L161.877 53.4435Z" fill="#F59C42"/>
<path d="M167.362 52.1297L169.646 51.9161L168.592 46.4058L166.309 46.6194L167.362 52.1297Z" fill="#F59C42"/>
<path opacity="0.1" d="M167.362 52.1297L169.646 51.9161L168.592 46.4058L166.309 46.6194L167.362 52.1297Z" fill="black"/>
<path d="M159.465 66.9037C160.33 72.7455 163.66 82.3738 165.317 83.2652C168.415 84.9669 177.756 86.0314 180.942 85.9467C182.316 85.9098 183.278 77.3829 182.489 76.1416C182.025 75.4049 169.833 75.8027 169.575 75.5927C169.178 75.2723 165.384 68.6754 163.034 65.784C159.56 61.5223 158.986 63.6513 159.465 66.9037Z" fill="#D3766A"/>
<path d="M180.732 75.9684C180.732 75.9684 185.038 75.6479 187.693 75.6001C189.167 75.5743 191.719 75.7548 192.817 76.2299C194.46 76.9445 200.872 80.9851 199.926 82.5616C199.068 83.987 194.003 79.8175 194.003 79.8175C194.003 79.8175 199.487 83.5708 198.139 85.0994C196.791 86.628 191.693 81.1546 191.693 81.1546C191.693 81.1546 197.244 85.1399 195.605 86.4954C194.368 87.5194 189.472 82.8121 189.472 82.8121C189.472 82.8121 194.217 86.2707 192.99 87.3794C191.635 88.606 186.839 84.5543 186.839 84.5543C183.248 86.8453 180.596 86.4659 178.735 85.9724C178.297 85.8619 180.732 75.9684 180.732 75.9684Z" fill="#D3766A"/>
<path d="M192.188 78.3921C192.847 78.812 193.521 79.2282 194.14 79.7034C194.759 80.1785 195.367 80.6758 195.941 81.2062C196.704 81.8865 197.388 82.6514 197.978 83.4862C196.822 82.0791 194.626 80.3443 194.004 79.8691C193.381 79.394 192.788 78.893 192.162 78.4179L192.188 78.3921Z" fill="#263238"/>
<path d="M190.431 80.6058C191.252 81.173 192.088 81.7108 192.884 82.3149C193.679 82.9189 194.357 83.5598 195.12 84.2192C195.175 84.267 195.12 84.2818 195.072 84.2192C194.298 83.593 193.536 83.0736 192.755 82.4585C191.974 81.8434 191.215 81.1951 190.416 80.6168C190.405 80.6131 190.42 80.5947 190.431 80.6058Z" fill="#263238"/>
<path d="M188.585 82.23C189.863 83.0745 191.05 84.0484 192.129 85.1361C192.184 85.1877 192.129 85.1988 192.062 85.1361C190.902 84.1453 190 83.3645 188.556 82.2594C188.534 82.2594 188.556 82.23 188.585 82.23Z" fill="#263238"/>
<path d="M166.904 70.4949L160.396 74.2741C160.396 74.2741 158.709 68.4175 159.015 65.0657C159.32 61.7138 160.856 62.3326 162.444 64.2111C164.031 66.0897 166.904 70.4949 166.904 70.4949Z" fill="#EBEBEB"/>
<path d="M165.774 69.7067C165.815 69.6809 165.848 69.7067 165.808 69.7325C164.05 70.8939 162.222 71.9445 160.334 72.8781C160.334 72.8781 160.312 72.8781 160.334 72.856C161.152 72.2188 165.31 69.9793 165.774 69.7067Z" fill="#263238"/>
<path d="M163.656 65.7101C164.79 67.2793 165.936 68.9662 166.997 70.5317C167.015 70.5611 166.709 70.6753 166.591 70.7306C166.544 70.7527 166.536 70.6974 166.591 70.6716C166.673 70.6256 166.749 70.5713 166.82 70.5096C165.744 68.9257 164.676 67.3382 163.652 65.7212C163.63 65.7101 163.648 65.6991 163.656 65.7101Z" fill="#263238"/>
<path d="M313.874 109.391H251.283V135.797H313.874V109.391Z" fill="#F59C42"/>
<path opacity="0.1" d="M313.874 109.391H251.283V135.797H313.874V109.391Z" fill="#263238"/>
<path opacity="0.2" d="M313.871 109.391H286.153V135.797H313.871V109.391Z" fill="black"/>
<path d="M312.508 133.978C310.369 132.099 308.248 130.216 306.147 128.327L299.885 122.648L293.697 116.942C291.644 115.039 289.613 113.128 287.604 111.211C289.743 113.084 291.869 114.965 293.98 116.854L300.242 122.533L306.43 128.235C308.473 130.143 310.499 132.057 312.508 133.978Z" fill="#F59C42"/>
<path d="M312.508 111.211C310.496 113.126 308.466 115.036 306.415 116.942L300.242 122.648L293.98 128.327C291.881 130.216 289.76 132.099 287.619 133.978C289.63 132.057 291.661 130.146 293.711 128.243L299.874 122.541L306.135 116.854C308.242 114.97 310.366 113.089 312.508 111.211Z" fill="#F59C42"/>
<path opacity="0.7" d="M266.035 113.391H266.529L266.927 113.06L267.295 113.391H267.52H267.759H268.102L268.23 113.273L268.396 113.391H268.809H268.912H269.048L269.107 113.307L269.229 113.391L269.405 113.244L269.601 113.391H269.881V109.391H266.035V113.391Z" fill="white"/>
<path d="M256.694 134.073H256.878V131.462H256.694V134.073Z" fill="white"/>
<path d="M256.248 134.073H256.433V131.462H256.248V134.073Z" fill="white"/>
<path d="M255.802 134.073H255.986V131.462H255.802V134.073Z" fill="white"/>
<path d="M255.357 134.073H255.541V131.462H255.357V134.073Z" fill="white"/>
<path d="M254.914 134.073H255.099V131.462H254.914V134.073Z" fill="white"/>
<path d="M254.473 134.073H254.657V131.462H254.473V134.073Z" fill="white"/>
<path d="M254.028 134.073H254.212V131.462H254.028V134.073Z" fill="white"/>
<path d="M253.585 134.073H253.77V131.462H253.585V134.073Z" fill="white"/>
<path d="M253.139 134.073H253.323V131.462H253.139V134.073Z" fill="white"/>
<path d="M258.694 133.874L257.979 134.069H259.652L258.941 133.871V132.913C259.449 132.843 259.652 132.342 259.652 131.462H257.979C257.979 132.338 258.182 132.843 258.694 132.913V133.874Z" fill="white"/>
<path d="M260.042 132.791H260.477V134.069H261.596V132.791H262.035L261.037 131.462L260.042 132.791Z" fill="white"/>
<path opacity="0.1" d="M251.283 135.797V134.788L286.154 132.489V135.793L251.283 135.797Z" fill="black"/>
<path d="M289.288 82.9851H252.097V109.391H289.288V82.9851Z" fill="#F59C42"/>
<path opacity="0.1" d="M289.288 82.9851H252.097V109.391H289.288V82.9851Z" fill="#263238"/>
<path opacity="0.2" d="M289.284 82.9851H276.621V109.391H289.284V82.9851Z" fill="black"/>
<path d="M288.412 107.571C287.476 105.693 286.547 103.809 285.623 101.921L282.876 96.2266L280.165 90.5211C279.266 88.6156 278.376 86.7051 277.494 84.7898C278.432 86.6634 279.362 88.5468 280.282 90.4401L283.03 96.1198L285.741 101.825C286.64 103.741 287.53 105.656 288.412 107.571Z" fill="#F59C42"/>
<path d="M288.412 84.8083C287.533 86.7237 286.642 88.6341 285.741 90.5396L283.03 96.2267L280.282 101.906C279.362 103.795 278.432 105.678 277.494 107.557C278.376 105.641 279.266 103.73 280.165 101.822L282.876 96.1199L285.623 90.4402C286.544 88.5617 287.474 86.6844 288.412 84.8083Z" fill="#F59C42"/>
<path opacity="0.7" d="M261.877 88.3996H262.371L262.768 87.9466L263.137 88.3996H263.365H263.601H263.943L264.072 88.2376L264.238 88.3996H264.654H264.754H264.89L264.949 88.2855L265.074 88.3996L265.247 88.1971L265.442 88.3996H265.722V82.9851H261.877V88.3996Z" fill="white"/>
<path d="M257.504 107.667H257.688V105.056H257.504V107.667Z" fill="white"/>
<path d="M257.062 107.667H257.246V105.056H257.062V107.667Z" fill="white"/>
<path d="M256.617 107.667H256.801V105.056H256.617V107.667Z" fill="white"/>
<path d="M256.171 107.667H256.355V105.056H256.171V107.667Z" fill="white"/>
<path d="M255.729 107.667H255.913V105.056H255.729V107.667Z" fill="white"/>
<path d="M255.284 107.667H255.468V105.056H255.284V107.667Z" fill="white"/>
<path d="M254.841 107.667H255.025V105.056H254.841V107.667Z" fill="white"/>
<path d="M254.396 107.667H254.58V105.056H254.396V107.667Z" fill="white"/>
<path d="M253.954 107.667H254.138V105.056H253.954V107.667Z" fill="white"/>
<path d="M259.505 107.468L258.794 107.663H260.462L259.748 107.465V106.507C260.26 106.437 260.462 105.936 260.462 105.056H258.79C258.79 105.932 258.993 106.437 259.501 106.507L259.505 107.468Z" fill="white"/>
<path d="M260.853 106.389H261.291V107.667H262.407V106.389H262.845L261.847 105.056L260.853 106.389Z" fill="white"/>
<path opacity="0.1" d="M252.097 109.391V108.382L276.62 106.083V109.387L252.097 109.391Z" fill="black"/>
<path d="M315.727 82.9851H278.536V109.391H315.727V82.9851Z" fill="#F59C42"/>
<path opacity="0.1" d="M315.727 82.9851H278.536V109.391H315.727V82.9851Z" fill="#263238"/>
<path opacity="0.2" d="M315.723 82.9851H303.06V109.391H315.723V82.9851Z" fill="black"/>
<path d="M314.851 107.571C313.915 105.693 312.987 103.81 312.066 101.921L309.318 96.2267L306.604 90.5212C305.705 88.628 304.812 86.7237 303.926 84.8083C304.866 86.6819 305.796 88.5654 306.714 90.4586L309.462 96.1383L312.173 101.844C313.076 103.747 313.969 105.656 314.851 107.571Z" fill="#F59C42"/>
<path d="M314.85 84.8083C313.971 86.7237 313.081 88.6341 312.18 90.5396L309.469 96.2267L306.721 101.906C305.8 103.795 304.871 105.678 303.933 107.557C304.817 105.641 305.707 103.73 306.603 101.822L309.318 96.1199L312.065 90.4402C312.984 88.5617 313.912 86.6844 314.85 84.8083Z" fill="#F59C42"/>
<path opacity="0.7" d="M288.315 88.3996H288.809L289.207 87.9466L289.579 88.3996H289.803H290.043H290.382L290.514 88.2376L290.68 88.3996H291.093H291.192H291.332L291.391 88.2855L291.513 88.3996L291.686 88.1971L291.885 88.3996H292.161V82.9851H288.315V88.3996Z" fill="white"/>
<path d="M283.944 107.667H284.128V105.056H283.944V107.667Z" fill="white"/>
<path d="M283.501 107.667H283.686V105.056H283.501V107.667Z" fill="white"/>
<path d="M283.056 107.667H283.24V105.056H283.056V107.667Z" fill="white"/>
<path d="M282.614 107.667H282.798V105.056H282.614V107.667Z" fill="white"/>
<path d="M282.168 107.667H282.353V105.056H282.168V107.667Z" fill="white"/>
<path d="M281.726 107.667H281.91V105.056H281.726V107.667Z" fill="white"/>
<path d="M281.277 107.667H281.461V105.056H281.277V107.667Z" fill="white"/>
<path d="M280.834 107.667H281.019V105.056H280.834V107.667Z" fill="white"/>
<path d="M280.393 107.667H280.577V105.056H280.393V107.667Z" fill="white"/>
<path d="M285.943 107.468L285.232 107.663H286.905L286.19 107.465V106.507C286.702 106.437 286.905 105.936 286.905 105.056H285.232C285.232 105.932 285.435 106.437 285.943 106.507V107.468Z" fill="white"/>
<path d="M287.295 106.389H287.73V107.667H288.846V106.389H289.284L288.289 105.056L287.295 106.389Z" fill="white"/>
<path opacity="0.1" d="M278.536 109.391V108.382L303.06 106.083V109.387L278.536 109.391Z" fill="black"/>
<path d="M302.467 56.5791H257.504V82.9851H302.467V56.5791Z" fill="#F59C42"/>
<path opacity="0.1" d="M302.467 56.5791H257.504V82.9851H302.467V56.5791Z" fill="#263238"/>
<path opacity="0.2" d="M302.467 56.5791H289.804V82.9851H302.467V56.5791Z" fill="black"/>
<path d="M301.594 81.1655C300.656 79.287 299.727 77.4036 298.806 75.5152L296.058 69.8355L293.347 64.13C292.446 62.2245 291.556 60.314 290.677 58.3987C291.612 60.2772 292.541 62.1606 293.461 64.0489L296.209 69.7287L298.924 75.4342C299.823 77.3397 300.713 79.2502 301.594 81.1655Z" fill="#F59C42"/>
<path d="M301.594 58.3987C300.71 60.314 299.82 62.2245 298.924 64.13L296.209 69.8355L293.461 75.5152C292.543 77.4036 291.615 79.287 290.677 81.1655C291.558 79.2502 292.448 77.3397 293.347 75.4342L296.058 69.7287L298.806 64.0489C299.727 62.1606 300.656 60.2772 301.594 58.3987Z" fill="#F59C42"/>
<path opacity="0.7" d="M271.729 61.9936H272.227L272.625 61.5443L272.993 61.9936H273.218H273.457H273.796L273.928 61.8316L274.094 61.9936H274.507H274.61H274.746L274.805 61.8794L274.927 61.9936L275.103 61.791L275.299 61.9936H275.575V56.5791H271.729V61.9936Z" fill="white"/>
<path d="M262.912 81.2612H263.096V78.6497H262.912V81.2612Z" fill="white"/>
<path d="M262.469 81.2612H262.653V78.6497H262.469V81.2612Z" fill="white"/>
<path d="M262.024 81.2612H262.208V78.6497H262.024V81.2612Z" fill="white"/>
<path d="M261.581 81.2612H261.766V78.6497H261.581V81.2612Z" fill="white"/>
<path d="M261.132 81.2612H261.316V78.6497H261.132V81.2612Z" fill="white"/>
<path d="M260.691 81.2612H260.875V78.6497H260.691V81.2612Z" fill="white"/>
<path d="M260.248 81.2612H260.433V78.6497H260.248V81.2612Z" fill="white"/>
<path d="M259.802 81.2612H259.986V78.6497H259.802V81.2612Z" fill="white"/>
<path d="M259.361 81.2612H259.545V78.6497H259.361V81.2612Z" fill="white"/>
<path d="M264.911 81.0623L264.2 81.2612H265.872L265.158 81.0586V80.1009C265.67 80.0346 265.872 79.53 265.872 78.6497H264.2C264.2 79.5263 264.403 80.0346 264.911 80.1009V81.0623Z" fill="white"/>
<path d="M266.26 79.983H266.698V81.2612H267.814V79.983H268.252L267.258 78.6497L266.26 79.983Z" fill="white"/>
<path opacity="0.1" d="M257.504 82.9851V81.9796L289.803 79.6775V82.9815L257.504 82.9851Z" fill="black"/>
<path d="M259.136 136.99H254.175V141.399H259.136V136.99Z" fill="#F59C42"/>
<path opacity="0.3" d="M259.136 136.99H254.175V141.399H259.136V136.99Z" fill="black"/>
<path opacity="0.3" d="M259.133 137.963L254.175 138.563V136.99H259.133V137.963Z" fill="black"/>
<path d="M285.071 136.99H280.109V141.399H285.071V136.99Z" fill="#F59C42"/>
<path opacity="0.3" d="M285.071 136.99H280.109V141.399H285.071V136.99Z" fill="black"/>
<path opacity="0.3" d="M285.071 137.963L280.109 138.563V136.99H285.071V137.963Z" fill="black"/>
<path d="M311.008 136.99H306.047V141.399H311.008V136.99Z" fill="#F59C42"/>
<path opacity="0.3" d="M311.008 136.99H306.047V141.399H311.008V136.99Z" fill="black"/>
<path opacity="0.3" d="M311.008 137.963L306.047 138.563V136.99H311.008V137.963Z" fill="black"/>
<path d="M313.742 135.797H251.441V136.99H313.742V135.797Z" fill="#F59C42"/>
<path opacity="0.3" d="M313.742 135.797H251.441V136.99H313.742V135.797Z" fill="black"/>
<path d="M313.742 141.399H251.441V142.593H313.742V141.399Z" fill="#F59C42"/>
<path opacity="0.3" d="M313.742 141.399H251.441V142.593H313.742V141.399Z" fill="black"/>
</svg>
