<svg width="420" height="200" viewBox="0 0 420 200" fill="none" xmlns="http://www.w3.org/2000/svg">
<rect width="420" height="200" rx="8" fill="#E4E8F6"/>
<path d="M98.6273 39.9673H108.381V35.8456H98.6273V39.9673Z" fill="#EBEBEB"/>
<path d="M104.066 30.6631L108.898 30.5599L111.355 30.5194C112.173 30.5194 112.998 30.5194 113.819 30.4973H113.981V30.6631V34.7847V34.9689H113.797L108.92 34.9431C107.296 34.9431 105.668 34.9026 104.044 34.8842H103.94V34.7847C103.94 34.0849 103.97 33.3887 103.988 32.7L104.066 30.6631ZM104.066 30.6631L104.117 32.7442C104.117 33.4293 104.158 34.1107 104.165 34.7847L104.066 34.6816C105.69 34.6632 107.318 34.6264 108.942 34.6227L113.819 34.6006L113.635 34.7847L113.653 30.6631L113.819 30.8251C113.016 30.8251 112.213 30.8251 111.407 30.8251L108.987 30.7846L104.066 30.6631Z" fill="#EBEBEB"/>
<path d="M93.1861 30.6631L98.0261 30.5489L100.479 30.5084C101.301 30.5084 102.126 30.5084 102.947 30.4863H103.109V30.6631L103.131 34.7848V34.969H102.947L98.0629 34.9321C96.4349 34.9321 94.8105 34.8916 93.1861 34.8732H93.083V34.7738C93.083 34.0739 93.1162 33.3778 93.1309 32.689L93.1861 30.6631ZM93.1861 30.6631L93.2377 32.7332C93.2377 33.4183 93.2782 34.0997 93.2856 34.7738L93.1861 34.6706C94.8105 34.6522 96.4349 34.6154 98.0629 34.6117L102.94 34.5896L102.755 34.7738V30.6521L102.921 30.8141C102.115 30.8141 101.315 30.8141 100.509 30.8141L98.085 30.7736L93.1861 30.6631Z" fill="#EBEBEB"/>
<path d="M301.48 65.4304L306.313 65.3272L308.766 65.2867C309.587 65.2683 310.412 65.2867 311.234 65.2683H311.396V65.4341L311.418 69.5557V69.7399H311.234L306.357 69.7068C304.732 69.7068 303.104 69.6626 301.48 69.6441H301.377V69.5447C301.377 68.8448 301.406 68.1487 301.425 67.4636L301.48 65.4304ZM301.48 65.4304L301.532 67.5115C301.532 68.2003 301.572 68.878 301.58 69.5521L301.48 69.4526C303.104 69.4342 304.732 69.3937 306.357 69.39L311.234 69.3679L311.049 69.5521V65.4304L311.215 65.5961C310.412 65.5961 309.609 65.5961 308.803 65.574L306.379 65.5335L301.48 65.4304Z" fill="#EBEBEB"/>
<path d="M306.919 64.3547H316.673V60.2331H306.919V64.3547Z" fill="#EBEBEB"/>
<path d="M213.341 105.457L218.178 105.354L220.631 105.314C221.448 105.314 222.274 105.314 223.095 105.292H223.261V105.457L223.279 109.579V109.763H223.091L218.214 109.737C216.59 109.737 214.966 109.697 213.338 109.678H213.238V109.579C213.238 108.879 213.271 108.183 213.286 107.494L213.341 105.457ZM213.341 105.457L213.393 107.538C213.411 108.223 213.437 108.905 213.445 109.579L213.341 109.476C214.969 109.457 216.594 109.421 218.218 109.417L223.095 109.395L222.911 109.579L222.933 105.457L223.095 105.619C222.292 105.619 221.493 105.619 220.686 105.601L218.262 105.56L213.341 105.457Z" fill="#EBEBEB"/>
<path d="M218.785 104.382H228.538V100.26H218.785V104.382Z" fill="#EBEBEB"/>
<path d="M296.04 60.233L300.873 60.1299L303.326 60.0894C304.147 60.0894 304.972 60.0894 305.794 60.0894H305.956V60.2551L305.978 64.3768V64.5609H305.794L300.917 64.5388C299.289 64.5388 297.665 64.4983 296.04 64.4762H295.937V64.3768C295.937 63.6769 295.97 62.9808 295.985 62.2957L296.04 60.233ZM296.04 60.233L296.092 62.3178C296.092 63.0029 296.132 63.6806 296.14 64.3547L296.04 64.2552C297.665 64.2552 299.289 64.1963 300.917 64.1926L305.794 64.1705L305.61 64.3547V60.233L305.775 60.3988C304.972 60.3988 304.169 60.3988 303.363 60.3767L300.939 60.3361L296.04 60.233Z" fill="#EBEBEB"/>
<path d="M312.625 30.6631L317.462 30.5599L319.915 30.5194C320.732 30.5194 321.557 30.5194 322.379 30.4973H322.545V30.6631L322.563 34.7847V34.9689H322.379L317.502 34.9431C315.878 34.9431 314.25 34.9026 312.625 34.8842H312.526V34.7847C312.526 34.0849 312.555 33.3887 312.574 32.7L312.625 30.6631ZM312.625 30.6631L312.677 32.7442C312.677 33.4293 312.721 34.1107 312.725 34.7847L312.625 34.6816C314.25 34.6632 315.878 34.6264 317.502 34.6227L322.379 34.6006L322.195 34.7847L322.217 30.6631L322.379 30.8251C321.576 30.8251 320.773 30.8251 319.97 30.8251L317.554 30.7551L312.625 30.6631Z" fill="#EBEBEB"/>
<path d="M177.672 60.7708L182.504 60.6677L184.957 60.6272C185.779 60.6272 186.604 60.6272 187.425 60.6272H187.587V60.7929L187.609 64.9146V65.0988H187.425L182.548 65.0767C180.92 65.0767 179.296 65.0362 177.672 65.0141H177.587V64.9146C177.587 64.2148 177.62 63.5186 177.635 62.8335L177.672 60.7708ZM177.672 60.7708L177.723 62.8556C177.723 63.5407 177.764 64.2185 177.771 64.8925L177.672 64.7931C179.296 64.7931 180.92 64.7341 182.548 64.7305L187.425 64.7083L187.241 64.8925L187.259 60.7708L187.425 60.9366C186.618 60.9366 185.819 60.9366 185.013 60.9145L182.589 60.874L177.672 60.7708Z" fill="#EBEBEB"/>
<path d="M99.1897 157.603L104.022 157.499L106.479 157.459C107.297 157.44 108.122 157.459 108.943 157.437H109.105V157.603V161.724V161.908H108.921L104.044 161.886C102.42 161.886 100.792 161.842 99.1676 161.824H99.0645V161.724C99.0645 161.024 99.0939 160.328 99.1123 159.643L99.1897 157.603ZM99.1897 157.603L99.2413 159.684C99.2413 160.372 99.2818 161.05 99.2891 161.724L99.1897 161.625C100.814 161.606 102.442 161.566 104.066 161.562L108.943 161.54L108.759 161.724V157.603L108.925 157.768C108.122 157.768 107.319 157.768 106.512 157.746L104.092 157.706L99.1897 157.603Z" fill="#EBEBEB"/>
<path d="M93.7504 156.527H103.504V152.405H93.7504V156.527Z" fill="#EBEBEB"/>
<path d="M317.065 161.72H326.818V157.599H317.065V161.72Z" fill="#EBEBEB"/>
<path d="M132.706 99.4939H101.688V131.476H132.706V99.4939Z" fill="#EBEBEB"/>
<path d="M148.72 99.4939H132.705V131.476H148.72V99.4939Z" fill="#DBDBDB"/>
<path d="M147.619 129.436C146.433 127.162 145.257 124.881 144.091 122.592L140.617 115.712L137.188 108.805C136.051 106.5 134.925 104.185 133.811 101.862C134.997 104.134 136.172 106.415 137.336 108.706L140.809 115.583L144.238 122.493C145.378 124.799 146.505 127.113 147.619 129.436Z" fill="#EBEBEB"/>
<path d="M147.619 101.862C146.505 104.183 145.378 106.497 144.238 108.805L140.809 115.712L137.336 122.592C136.172 124.883 134.997 127.164 133.811 129.436C134.923 127.115 136.049 124.801 137.188 122.493L140.617 115.583L144.091 108.706C145.255 106.415 146.431 104.134 147.619 101.862Z" fill="#EBEBEB"/>
<path d="M130.665 126.047H127.221V129.491H130.665V126.047Z" fill="white"/>
<path d="M130.668 79.6001H99.6504V99.4939H130.668V79.6001Z" fill="#DBDBDB"/>
<path d="M146.684 79.6001H130.669V99.4939H146.684V79.6001Z" fill="#C7C7C7"/>
<path d="M117.791 87.0257H117.135H116.642L116.362 86.4511L115.967 87.0257L115.43 85.8471L114.921 87.0257H113.47H112.807L112.568 86.2375L112.343 87.0257H111.912V79.6001H117.791V87.0257Z" fill="white"/>
<path d="M145.58 98.3115C144.394 96.8627 143.219 95.4127 142.055 93.9615L138.578 89.5967L135.149 85.2062C134.01 83.7328 132.884 82.2595 131.771 80.7861C132.958 82.23 134.133 83.68 135.296 85.1362L138.77 89.5083L142.203 93.8989C143.337 95.3648 144.463 96.8357 145.58 98.3115Z" fill="#DBDBDB"/>
<path d="M145.58 80.7861C144.463 82.2595 143.337 83.7328 142.203 85.2062L138.77 89.5967L135.296 93.9689C134.133 95.425 132.958 96.875 131.771 98.3189C132.889 96.8456 134.015 95.3722 135.149 93.8989L138.578 89.5083L142.055 85.1362C143.217 83.6898 144.392 82.2398 145.58 80.7861Z" fill="#DBDBDB"/>
<path d="M134.52 131.477H97.5645V167.275H134.52V131.477Z" fill="#DBDBDB"/>
<path d="M153.604 131.477H134.521V167.279H153.604V131.477Z" fill="#C7C7C7"/>
<path d="M119.18 140.32H118.399H117.809L117.474 139.643L117.003 140.32L116.365 138.921L115.761 140.32H114.03H113.242L112.955 139.388L112.689 140.32H112.174V131.477H119.18V140.32Z" fill="white"/>
<path d="M152.29 165.15C150.88 162.549 149.481 159.939 148.091 157.319L143.951 149.451L139.862 141.55C138.507 138.913 137.165 136.266 135.836 133.609C137.251 136.21 138.652 138.819 140.039 141.436L144.179 149.304L148.264 157.208C149.62 159.846 150.962 162.493 152.29 165.15Z" fill="#DBDBDB"/>
<path d="M152.29 133.609C150.962 136.264 149.62 138.911 148.264 141.55L144.179 149.451L140.039 157.323C138.654 159.938 137.253 162.547 135.836 165.15C137.165 162.495 138.507 159.848 139.862 157.208L143.951 149.304L148.091 141.436C149.476 138.819 150.876 136.21 152.29 133.609Z" fill="#DBDBDB"/>
<path d="M103.117 165.212H103.294V162.737H103.117V165.212Z" fill="white"/>
<path d="M102.693 165.212H102.87V162.737H102.693V165.212Z" fill="white"/>
<path d="M102.273 165.212H102.45V162.737H102.273V165.212Z" fill="white"/>
<path d="M101.852 165.212H102.029V162.737H101.852V165.212Z" fill="white"/>
<path d="M101.431 165.212H101.607V162.737H101.431V165.212Z" fill="white"/>
<path d="M101.009 165.212H101.186V162.737H101.009V165.212Z" fill="white"/>
<path d="M100.589 165.212H100.766V162.737H100.589V165.212Z" fill="white"/>
<path d="M100.169 165.212H100.346V162.737H100.169V165.212Z" fill="white"/>
<path d="M99.7451 165.212H99.9219V162.737H99.7451V165.212Z" fill="white"/>
<path d="M105.024 165.024L104.35 165.212H105.933L105.256 165.021V164.111C105.742 164.048 105.933 163.573 105.933 162.741H104.35C104.35 163.569 104.541 164.048 105.024 164.111V165.024Z" fill="white"/>
<path d="M106.292 164H106.705V165.212H107.765V164H108.178L107.235 162.741L106.292 164Z" fill="white"/>
<path d="M127.685 53.511H104.126V79.6002H127.685V53.511Z" fill="#EBEBEB"/>
<path d="M139.85 53.511H127.684V79.6039H139.85V53.511Z" fill="#DBDBDB"/>
<path d="M139.011 77.8099C138.112 75.9584 137.22 74.0983 136.333 72.2296L133.696 66.6162L131.088 60.9807C130.226 59.0997 129.367 57.2114 128.51 55.3157C129.409 57.1696 130.301 59.0309 131.188 60.8996L133.825 66.5094L136.433 72.1486C137.304 74.0222 138.164 75.9093 139.011 77.8099Z" fill="#EBEBEB"/>
<path d="M139.011 55.3083C138.164 57.2016 137.304 59.0899 136.433 60.9733L133.825 66.6089L131.188 72.2223C130.304 74.0885 129.411 75.9486 128.51 77.8026C129.357 75.9093 130.216 74.021 131.088 72.1376L133.696 66.5021L136.333 60.8923C137.217 59.0261 138.11 57.1648 139.011 55.3083Z" fill="#EBEBEB"/>
<path d="M104.081 168.409H99.3809V172.586H104.081V168.409Z" fill="#DBDBDB"/>
<path d="M104.081 169.33L99.3809 169.898V168.409H104.081V169.33Z" fill="#C7C7C7"/>
<path d="M128.66 168.409H123.96V172.586H128.66V168.409Z" fill="#DBDBDB"/>
<path d="M128.66 169.33L123.96 169.898V168.409H128.66V169.33Z" fill="#C7C7C7"/>
<path d="M153.24 168.409H148.54V172.586H153.24V168.409Z" fill="#DBDBDB"/>
<path d="M153.24 169.33L148.54 169.898V168.409H153.24V169.33Z" fill="#C7C7C7"/>
<path d="M155.828 167.279H96.791V168.409H155.828V167.279Z" fill="#DBDBDB"/>
<path d="M155.828 172.586H96.791V173.717H155.828V172.586Z" fill="#DBDBDB"/>
<path d="M199.236 132.931H168.219V167.279H199.236V132.931Z" fill="#EBEBEB"/>
<path d="M215.252 132.931H199.236V167.279H215.252V132.931Z" fill="#DBDBDB"/>
<path d="M214.147 164.914C212.961 162.473 211.786 160.017 210.622 157.547L207.148 150.158L203.716 142.74C202.579 140.26 201.453 137.774 200.338 135.281C201.524 137.722 202.7 140.178 203.867 142.648L207.34 150.037L210.769 157.455C211.909 159.933 213.034 162.419 214.147 164.914Z" fill="#EBEBEB"/>
<path d="M214.147 135.296C213.032 137.789 211.906 140.275 210.769 142.755L207.34 150.173L203.867 157.562C202.703 160.018 201.526 162.473 200.338 164.929C201.455 162.434 202.581 159.948 203.716 157.47L207.148 150.052L210.622 142.637C211.786 140.181 212.961 137.735 214.147 135.296Z" fill="#EBEBEB"/>
<path d="M200.946 89.3904H178.014V113.038H200.946V89.3904Z" fill="#EBEBEB"/>
<path d="M212.789 89.3904H200.947V113.038H212.789V89.3904Z" fill="#DBDBDB"/>
<path d="M191.429 94.8786H190.942H190.578L190.368 94.455L190.077 94.8786L189.683 94.0093L189.307 94.8786H188.232H187.742L187.565 94.3003L187.399 94.8786H187.079V89.3904H191.429V94.8786Z" fill="#DBDBDB"/>
<path d="M211.975 111.531C211.099 109.849 210.229 108.162 209.367 106.47L206.789 101.384L204.251 96.2747C203.411 94.5706 202.579 92.859 201.754 91.1401C202.631 92.8222 203.5 94.5092 204.362 96.2011L206.94 101.288L209.478 106.397C210.318 108.103 211.15 109.815 211.975 111.531Z" fill="#EBEBEB"/>
<path d="M211.975 91.1401C211.15 92.859 210.318 94.5706 209.478 96.2747L206.94 101.384L204.362 106.47C203.5 108.16 202.631 109.847 201.754 111.531C202.579 109.812 203.411 108.101 204.251 106.397L206.789 101.288L209.367 96.2011C210.229 94.4994 211.099 92.8124 211.975 91.1401Z" fill="#EBEBEB"/>
<path d="M199.437 109.023H196.892V111.568H199.437V109.023Z" fill="white"/>
<path d="M181.943 111.737H182.072V109.907H181.943V111.737Z" fill="white"/>
<path d="M181.631 111.737H181.76V109.907H181.631V111.737Z" fill="white"/>
<path d="M181.32 111.737H181.449V109.907H181.32V111.737Z" fill="white"/>
<path d="M181.009 111.737H181.138V109.907H181.009V111.737Z" fill="white"/>
<path d="M180.698 111.737H180.827V109.907H180.698V111.737Z" fill="white"/>
<path d="M180.385 111.737H180.514V109.907H180.385V111.737Z" fill="white"/>
<path d="M180.076 111.737H180.205V109.907H180.076V111.737Z" fill="white"/>
<path d="M179.763 111.737H179.892V109.907H179.763V111.737Z" fill="white"/>
<path d="M179.455 111.737H179.584V109.907H179.455V111.737Z" fill="white"/>
<path d="M183.343 111.597L182.842 111.737H184.013L183.516 111.597V110.927C183.884 110.879 184.013 110.526 184.013 109.91H182.842C182.842 110.526 182.985 110.879 183.343 110.927V111.597Z" fill="white"/>
<path d="M184.286 110.842H184.591V111.737H185.376V110.842H185.685L184.985 109.91L184.286 110.842Z" fill="white"/>
<path d="M201.304 113.038H170.286V132.928H201.304V113.038Z" fill="#DBDBDB"/>
<path d="M217.318 113.038H201.303V132.931H217.318V113.038Z" fill="#C7C7C7"/>
<path d="M188.427 120.46H187.772H187.278L186.995 119.889L186.601 120.46L186.066 119.285L185.558 120.46H184.107H183.444L183.204 119.675L182.98 120.46H182.549V113.038H188.427V120.46Z" fill="white"/>
<path d="M216.213 131.749C215.027 130.3 213.852 128.85 212.688 127.399L209.215 123.027L205.782 118.636C204.647 117.163 203.522 115.69 202.404 114.216C203.59 115.66 204.767 117.109 205.933 118.563L209.406 122.935L212.836 127.325C213.975 128.796 215.101 130.271 216.213 131.749Z" fill="#DBDBDB"/>
<path d="M216.214 114.224C215.102 115.697 213.976 117.17 212.836 118.644L209.407 123.034L205.949 127.399C204.785 128.853 203.608 130.303 202.42 131.749C203.537 130.276 204.663 128.802 205.798 127.329L209.23 122.938L212.704 118.566C213.848 117.113 215.018 115.665 216.214 114.224Z" fill="#DBDBDB"/>
<path d="M172.165 168.409H167.465V172.586H172.165V168.409Z" fill="#DBDBDB"/>
<path d="M172.169 169.33L167.465 169.898V168.409H172.169V169.33Z" fill="#C7C7C7"/>
<path d="M196.742 168.409H192.042V172.586H196.742V168.409Z" fill="#DBDBDB"/>
<path d="M196.746 169.33L192.042 169.898V168.409H196.746V169.33Z" fill="#C7C7C7"/>
<path d="M221.323 168.409H216.623V172.586H221.323V168.409Z" fill="#DBDBDB"/>
<path d="M221.327 169.33L216.623 169.898V168.409H221.327V169.33Z" fill="#C7C7C7"/>
<path d="M223.913 167.279H164.876V168.409H223.913V167.279Z" fill="#DBDBDB"/>
<path d="M223.913 172.586H164.876V173.717H223.913V172.586Z" fill="#DBDBDB"/>
<path d="M244.557 43.6394H232.438V173.721H244.557V43.6394Z" fill="#C7C7C7"/>
<path d="M323.538 43.6394H311.42V173.721H323.538V43.6394Z" fill="#EBEBEB"/>
<path d="M311.421 56.3987H237.412V60.7671H311.421V56.3987Z" fill="#DBDBDB"/>
<path d="M311.421 84.6353H237.412V89.0037H311.421V84.6353Z" fill="#DBDBDB"/>
<path d="M311.421 112.875H237.412V117.244H311.421V112.875Z" fill="#DBDBDB"/>
<path d="M311.421 141.112H237.412V145.481H311.421V141.112Z" fill="#DBDBDB"/>
<path d="M311.421 169.353H237.412V173.721H311.421V169.353Z" fill="#DBDBDB"/>
<path d="M268.916 60.9844H245.979V84.6352H268.916V60.9844Z" fill="#EBEBEB"/>
<path d="M280.758 60.9844H268.916V84.6352H280.758V60.9844Z" fill="#DBDBDB"/>
<path d="M259.394 66.4726H258.908H258.543L258.337 66.0527L258.046 66.4726L257.648 65.6033L257.273 66.4726H256.201H255.711L255.53 65.8943L255.365 66.4726H255.048V60.9844H259.394V66.4726Z" fill="#DBDBDB"/>
<path d="M279.942 83.1252C279.066 81.4456 278.196 79.7586 277.335 78.0643L274.756 72.9776L272.248 67.8651C271.403 66.1609 270.571 64.4494 269.75 62.7305C270.627 64.4125 271.496 66.0995 272.358 67.7914L274.937 72.8781L277.474 77.9869C278.295 79.696 279.117 81.4088 279.942 83.1252Z" fill="#EBEBEB"/>
<path d="M279.944 62.7341C279.119 64.453 278.286 66.1646 277.447 67.8687L274.909 72.9775L272.33 78.0642C271.469 79.7586 270.599 81.4456 269.723 83.1252C270.548 81.4063 271.38 79.6947 272.22 77.9906L274.758 72.8818L277.336 67.7951C278.198 66.1056 279.067 64.4187 279.944 62.7341Z" fill="#EBEBEB"/>
<path d="M267.406 80.6204H264.86V83.1656H267.406V80.6204Z" fill="white"/>
<path d="M283.361 98.1643H260.425V112.876H283.361V98.1643Z" fill="#DBDBDB"/>
<path d="M295.203 98.1643H283.361V112.876H295.203V98.1643Z" fill="#C7C7C7"/>
<path d="M273.837 103.653H273.354H272.989L272.779 103.229L272.488 103.653L272.091 102.783L271.715 103.653H270.643H270.153L269.976 103.074L269.811 103.653H269.49V98.1643H273.837V103.653Z" fill="white"/>
<path d="M294.385 111.999C293.508 110.931 292.639 109.859 291.777 108.783L289.199 105.549L286.661 102.304C285.821 101.219 284.989 100.131 284.164 99.0408C285.04 100.109 285.909 101.181 286.771 102.256L289.35 105.49L291.888 108.735C292.731 109.818 293.56 110.909 294.385 111.999Z" fill="#DBDBDB"/>
<path d="M294.385 99.0408C293.56 100.146 292.731 101.218 291.888 102.301L289.35 105.549L286.771 108.783C285.909 109.859 285.04 110.931 284.164 111.999C284.989 110.909 285.821 109.821 286.661 108.735L289.199 105.49L291.777 102.256C292.639 101.183 293.508 100.111 294.385 99.0408Z" fill="#DBDBDB"/>
<path d="M90 173.721L120.001 173.629L149.998 173.599L210 173.537L270.002 173.599L300.003 173.629L330 173.721L300.003 173.809L270.002 173.843L210 173.905L149.998 173.843L120.001 173.809L90 173.721Z" fill="#263238"/>
<path d="M246.241 42.6008H239.283V163.238H246.241V42.6008Z" fill="#37474F"/>
<path d="M243.213 47.1682H242.314V158.671H243.213V47.1682Z" fill="#263238"/>
<path d="M232.83 68.7821L239.283 70.6127V42.6008L232.83 44.4315V68.7821Z" fill="#263238"/>
<path d="M249.89 69.4929L246.24 72.2407V136.861L249.89 139.609V69.4929Z" fill="#263238"/>
<path d="M312.939 137.057H249.891V139.609L312.939 137.871V137.057Z" fill="#263238"/>
<path d="M232.742 164.877H106.576V132.206H137.837H163.038H167.716H222.694L232.742 141.44V164.877Z" fill="#F59C42"/>
<path opacity="0.2" d="M150.51 164.877H114.601C112.986 161.789 112.196 158.338 112.305 154.855C112.414 151.372 113.42 147.977 115.225 144.997C117.03 142.016 119.573 139.552 122.608 137.841C125.644 136.131 129.069 135.232 132.553 135.232C136.038 135.232 139.463 136.131 142.499 137.841C145.534 139.552 148.077 142.016 149.882 144.997C151.687 147.977 152.693 151.372 152.802 154.855C152.911 158.338 152.12 161.789 150.506 164.877H150.51Z" fill="black"/>
<path opacity="0.2" d="M232.741 141.436V164.877H210.125C208.612 161.97 207.827 158.739 207.838 155.461C207.849 152.184 208.654 148.958 210.185 146.06C211.717 143.163 213.928 140.68 216.63 138.825C219.332 136.97 222.444 135.798 225.698 135.41L226.122 135.366L232.741 141.436Z" fill="black"/>
<path opacity="0.2" d="M203.465 155.525H176.315L167.715 147.772V132.206H203.465V155.525Z" fill="black"/>
<path d="M222.693 132.206H239.283V136.213L232.742 141.436L222.693 132.206Z" fill="#37474F"/>
<g opacity="0.2">
<path d="M157.996 132.206H151.694L160.147 164.873H166.446L157.996 132.206Z" fill="white"/>
<path d="M162.341 132.206H160.566L169.019 164.873H170.795L162.341 132.206Z" fill="white"/>
</g>
<path d="M245.39 152.273L245.128 152.243L245.419 154.707L245.666 154.619C245.666 154.229 245.615 153.831 245.567 153.437C245.519 153.042 245.464 152.656 245.39 152.273ZM245.022 151.705L245.254 151.577C245.076 150.808 244.847 150.053 244.569 149.315H244.303L245.022 151.705ZM245.298 157.728L245.559 157.687C245.659 156.904 245.704 156.115 245.692 155.326L245.442 155.253L245.298 157.728ZM244.307 148.652C244.003 147.926 243.649 147.222 243.246 146.545L242.988 146.608L244.093 148.818L244.307 148.652ZM244.653 160.685H244.915C245.149 159.932 245.331 159.162 245.46 158.383L245.221 158.265L244.653 160.685ZM241.217 144.151L242.69 146.14L242.86 145.937C242.434 145.274 241.961 144.643 241.445 144.048L241.217 144.151ZM243.519 163.485L243.773 163.529C244.134 162.83 244.447 162.106 244.709 161.363L244.499 161.205L243.519 163.485ZM239.058 142.048L240.867 143.746L240.999 143.521C240.464 142.942 239.89 142.4 239.279 141.9L239.058 142.048ZM241.894 166.041L242.141 166.129C242.617 165.501 243.05 164.841 243.438 164.155L243.257 163.967L241.894 166.041ZM236.557 140.346L238.627 141.705L238.723 141.458C238.094 140.983 237.433 140.551 236.745 140.165L236.557 140.346ZM239.872 168.281L240.097 168.409C240.675 167.872 241.216 167.298 241.718 166.689L241.574 166.468L239.872 168.281ZM233.806 139.108L236.086 140.088L236.137 139.827C235.435 139.468 234.709 139.157 233.964 138.895L233.806 139.108ZM237.489 170.126L237.692 170.295C238.354 169.868 238.985 169.396 239.581 168.881L239.478 168.645L237.489 170.126ZM230.889 138.368L233.301 138.935V138.67C232.549 138.436 231.781 138.257 231.003 138.132L230.889 138.368ZM234.811 171.518L234.977 171.721C235.705 171.417 236.41 171.062 237.088 170.66L237.025 170.406L234.811 171.518ZM227.946 137.885L227.872 138.136L230.343 138.276L230.303 138.018C229.505 137.923 228.701 137.883 227.898 137.897L227.946 137.885ZM232.056 172.66C232.825 172.489 233.581 172.262 234.318 171.982L234.299 171.721L231.927 172.435L232.056 172.66ZM226.056 138.007C225.662 138.055 225.275 138.11 224.888 138.188L224.859 138.445L227.323 138.154L227.235 137.911C226.796 137.937 226.406 137.97 226.008 138.018L226.056 138.007ZM229.003 173.084C229.393 173.065 229.787 173.032 230.181 172.984C230.576 172.936 230.97 172.881 231.353 172.804L231.382 172.55L228.918 172.841L229.003 173.084ZM221.92 139.009L221.938 139.27L224.314 138.556L224.185 138.331C223.402 138.505 222.633 138.735 221.883 139.02L221.92 139.009ZM225.938 172.973C226.72 173.071 227.508 173.115 228.296 173.106L228.369 172.855L225.89 172.715L225.938 172.973ZM219.153 140.335L219.212 140.589L221.422 139.484L221.253 139.278C220.517 139.583 219.803 139.94 219.117 140.346L219.153 140.335ZM222.892 172.34C223.644 172.576 224.412 172.758 225.19 172.885L225.305 172.649L222.892 172.082V172.34ZM216.63 142.136L216.733 142.376L218.722 140.902L218.524 140.729C217.861 141.154 217.228 141.624 216.63 142.136ZM220.063 171.183C220.765 171.545 221.491 171.858 222.236 172.119L222.391 171.905L220.111 170.929L220.063 171.183ZM214.483 144.328L214.627 144.545L216.328 142.74L216.104 142.608C215.52 143.142 214.975 143.717 214.472 144.328H214.483ZM217.466 169.551C218.095 170.029 218.756 170.462 219.444 170.848L219.629 170.671L217.555 169.308L217.466 169.551ZM212.748 146.862L212.929 147.05L214.288 144.976L214.045 144.888C213.564 145.515 213.127 146.174 212.737 146.862H212.748ZM215.19 167.489C215.726 168.069 216.302 168.611 216.914 169.109L217.124 168.966L215.319 167.268L215.19 167.489ZM211.474 149.654L211.684 149.809L212.663 147.529L212.409 147.484C212.047 148.185 211.734 148.91 211.474 149.654ZM213.315 165.072C213.743 165.734 214.214 166.367 214.726 166.966L214.965 166.862L213.492 164.873L213.315 165.072ZM210.737 152.63L210.973 152.744L211.54 150.328H211.275C211.033 151.082 210.843 151.851 210.704 152.63H210.737ZM211.842 162.361C212.149 163.089 212.506 163.794 212.91 164.472L213.161 164.406L212.056 162.196L211.842 162.361ZM210.847 153.286L210.593 153.33C210.494 154.113 210.449 154.902 210.457 155.691L210.704 155.764L210.847 153.286ZM211.124 159.312L210.903 159.437C211.077 160.207 211.305 160.964 211.584 161.702L211.838 161.684L211.124 159.312ZM210.737 156.31L210.494 156.394C210.494 156.785 210.545 157.179 210.59 157.573C210.634 157.967 210.7 158.361 210.774 158.748L211.028 158.774L210.737 156.31Z" fill="#263238"/>
<path d="M245.419 154.707L245.666 154.619C245.666 154.855 245.688 155.09 245.688 155.326L245.438 155.253L245.294 157.728L245.556 157.687C245.53 157.923 245.493 158.155 245.456 158.387L245.217 158.269L244.649 160.685H244.911C244.845 160.911 244.771 161.136 244.69 161.36L244.48 161.201L243.519 163.485L243.773 163.529C243.67 163.739 243.555 163.953 243.438 164.155L243.257 163.967L241.894 166.041L242.141 166.129C242.001 166.317 241.85 166.498 241.703 166.689L241.559 166.468L239.835 168.281L240.06 168.409C239.891 168.568 239.71 168.726 239.53 168.881L239.426 168.645L237.437 170.119L237.64 170.288C237.441 170.417 237.242 170.546 237.036 170.656L236.973 170.402L234.763 171.507L234.929 171.71C234.712 171.806 234.494 171.89 234.27 171.971L234.251 171.71L231.879 172.424L232.008 172.649C231.78 172.704 231.548 172.748 231.316 172.793L231.345 172.539L228.881 172.83L228.966 173.073C228.72 173.073 228.484 173.08 228.259 173.095L228.332 172.844L225.853 172.704L225.901 172.962C225.665 172.936 225.433 172.903 225.198 172.863L225.312 172.627L222.892 172.082V172.34C222.667 172.27 222.439 172.2 222.218 172.119L222.373 171.905L220.093 170.929L220.045 171.183C219.835 171.08 219.632 170.966 219.426 170.848L219.61 170.671L217.536 169.308L217.448 169.551C217.26 169.408 217.08 169.264 216.895 169.113L217.105 168.969L215.3 167.271L215.172 167.492C215.009 167.319 214.851 167.146 214.696 166.966L214.936 166.862L213.462 164.873L213.297 165.072C213.164 164.873 213.043 164.675 212.928 164.472L213.179 164.406L212.074 162.196L211.871 162.365C211.783 162.148 211.691 161.93 211.613 161.706L211.868 161.687L211.153 159.315L210.932 159.441C210.88 159.212 210.833 158.984 210.792 158.752L211.046 158.778L210.755 156.313L210.512 156.398C210.512 156.166 210.49 155.93 210.486 155.695L210.733 155.768L210.877 153.289L210.623 153.334C210.648 153.098 210.682 152.866 210.722 152.634L210.958 152.748L211.525 150.332H211.26C211.33 150.107 211.407 149.882 211.485 149.658L211.694 149.812L212.674 147.532L212.42 147.488C212.527 147.278 212.641 147.068 212.755 146.866L212.936 147.053L214.295 144.98L214.052 144.891C214.192 144.703 214.339 144.523 214.49 144.331L214.634 144.549L216.335 142.744L216.111 142.611C216.28 142.449 216.457 142.294 216.638 142.14L216.741 142.379L218.73 140.906L218.531 140.733C218.726 140.604 218.929 140.479 219.135 140.364L219.194 140.619L221.404 139.514L221.234 139.307C221.455 139.212 221.676 139.127 221.897 139.046L221.916 139.307L224.292 138.593L224.163 138.368C224.391 138.313 224.623 138.265 224.855 138.224L224.826 138.482L227.29 138.191L227.201 137.948C227.441 137.93 227.677 137.926 227.912 137.922L227.839 138.173L230.31 138.313L230.27 138.055C230.505 138.081 230.737 138.114 230.973 138.158L230.855 138.394L233.268 138.961V138.696C233.493 138.766 233.721 138.84 233.942 138.921L233.784 139.134L236.064 140.114L236.115 139.852C236.325 139.963 236.531 140.073 236.738 140.191L236.55 140.372L238.62 141.731L238.716 141.484C238.903 141.631 239.084 141.775 239.272 141.926L239.051 142.074L240.859 143.772L240.992 143.547C241.154 143.716 241.312 143.893 241.463 144.074L241.224 144.177L242.697 146.166L242.867 145.963C242.999 146.162 243.122 146.365 243.235 146.571L242.977 146.633L244.082 148.844L244.285 148.674C244.381 148.891 244.469 149.112 244.546 149.337H244.281L244.999 151.713L245.231 151.584C245.279 151.816 245.331 152.044 245.371 152.28L245.11 152.251L245.419 154.707Z" fill="#263238"/>
<path d="M227.275 138.165L224.811 138.456L224.844 138.199L224.929 137.396L226.914 137.16L227.187 137.922L227.275 138.165Z" fill="#263238"/>
<path d="M224.276 138.567L221.901 139.281L221.882 139.02L221.831 138.221L223.746 137.642L224.147 138.342L224.276 138.567Z" fill="#263238"/>
<path d="M221.388 139.488L219.175 140.604L219.116 140.346L218.924 139.565L220.711 138.663L221.219 139.281L221.388 139.488Z" fill="#263238"/>
<path d="M218.712 140.887L216.723 142.376L216.616 142.136L216.295 141.396L217.898 140.202L218.513 140.718L218.712 140.887Z" fill="#263238"/>
<path d="M216.314 142.736L214.616 144.545L214.473 144.328L214.023 143.657L215.394 142.199L216.093 142.608L216.314 142.736Z" fill="#263238"/>
<path d="M214.276 144.976L212.917 147.05L212.737 146.862L212.177 146.28L213.274 144.608L214.033 144.888L214.276 144.976Z" fill="#263238"/>
<path d="M212.656 147.528L211.676 149.808L211.466 149.657L210.818 149.179L211.606 147.341L212.398 147.484L212.656 147.528Z" fill="#263238"/>
<path d="M211.507 150.328L210.94 152.744L210.704 152.63L209.979 152.273L210.439 150.324L211.246 150.328H211.507Z" fill="#263238"/>
<path d="M210.859 153.286L210.715 155.765L210.468 155.691L209.695 155.466L209.809 153.466L210.605 153.33L210.859 153.286Z" fill="#263238"/>
<path d="M210.737 156.31L211.028 158.774L210.774 158.748L209.963 158.656L209.731 156.674L210.494 156.394L210.737 156.31Z" fill="#263238"/>
<path d="M211.85 161.684L211.595 161.702L210.789 161.754L210.21 159.838L210.914 159.437L211.135 159.312L211.85 161.684Z" fill="#263238"/>
<path d="M213.172 164.409L212.922 164.472L212.134 164.663L211.235 162.877L211.854 162.361L212.056 162.192L213.172 164.409Z" fill="#263238"/>
<path d="M214.944 166.863L214.705 166.966L213.964 167.294L212.771 165.688L213.294 165.072L213.46 164.874L214.944 166.863Z" fill="#263238"/>
<path d="M217.113 168.969L216.903 169.113L216.225 169.562L214.771 168.192L215.179 167.492L215.308 167.271L217.113 168.969Z" fill="#263238"/>
<path d="M219.618 170.671L219.434 170.848L218.849 171.404L217.176 170.31L217.456 169.551L217.545 169.308L219.618 170.671Z" fill="#263238"/>
<path d="M222.38 171.905L222.225 172.119L221.75 172.771L219.908 171.975L220.052 171.183L220.1 170.929L222.38 171.905Z" fill="#263238"/>
<path d="M225.313 172.649L225.199 172.885L224.845 173.603L222.896 173.146L222.9 172.34V172.082L225.313 172.649Z" fill="#263238"/>
<path d="M228.332 172.866L228.258 173.117L228.034 173.894L226.037 173.78L225.901 172.984L225.853 172.726L228.332 172.866Z" fill="#263238"/>
<path d="M231.345 172.561L231.316 172.815L231.227 173.621L229.242 173.857L228.966 173.095L228.877 172.852L231.345 172.561Z" fill="#263238"/>
<path d="M234.251 171.732L234.27 171.993L234.325 172.796L232.41 173.375L232.008 172.671L231.879 172.447L234.251 171.732Z" fill="#263238"/>
<path d="M237.232 171.452L235.445 172.351L234.929 171.732L234.764 171.529L236.977 170.417L237.04 170.671L237.232 171.452Z" fill="#263238"/>
<path d="M239.861 169.618L238.259 170.815L237.643 170.295L237.441 170.126L239.43 168.645L239.533 168.881L239.861 169.618Z" fill="#263238"/>
<path d="M242.135 167.36L240.761 168.815L240.065 168.409L239.84 168.28L241.542 166.468L241.685 166.689L242.135 167.36Z" fill="#263238"/>
<path d="M243.975 164.737L242.882 166.409L242.123 166.129L241.876 166.041L243.239 163.967L243.419 164.155L243.975 164.737Z" fill="#263238"/>
<path d="M245.339 161.838L244.547 163.676L243.755 163.529L243.498 163.485L244.481 161.205L244.691 161.363L245.339 161.838Z" fill="#263238"/>
<path d="M246.17 158.744L245.717 160.693L244.914 160.689L244.649 160.685L245.216 158.269L245.456 158.387L246.17 158.744Z" fill="#263238"/>
<path d="M246.461 155.551L246.347 157.551L245.555 157.687L245.293 157.728L245.433 155.252L245.688 155.326L246.461 155.551Z" fill="#263238"/>
<path d="M246.188 152.361L246.424 154.346L245.665 154.619L245.418 154.707L245.127 152.243L245.389 152.273L246.188 152.361Z" fill="#263238"/>
<path d="M245.946 151.179L245.25 151.577L245.018 151.709L244.3 149.33L244.565 149.315L245.368 149.263L245.946 151.179Z" fill="#263238"/>
<path d="M244.918 148.14L244.303 148.652L244.1 148.821L242.984 146.608L243.242 146.545L244.023 146.354L244.918 148.14Z" fill="#263238"/>
<path d="M243.386 145.33L242.867 145.937L242.697 146.14L241.213 144.155L241.452 144.048L242.185 143.724L243.386 145.33Z" fill="#263238"/>
<path d="M241.383 142.825L240.981 143.521L240.849 143.746L239.04 142.048L239.261 141.9L239.931 141.455L241.383 142.825Z" fill="#263238"/>
<path d="M238.981 140.707L238.704 141.458L238.612 141.705L236.539 140.346L236.726 140.166L237.308 139.609L238.981 140.707Z" fill="#263238"/>
<path d="M236.244 139.039L236.104 139.827L236.052 140.088L233.772 139.108L233.93 138.895L234.406 138.247L236.244 139.039Z" fill="#263238"/>
<path d="M233.262 137.871L233.258 138.67L233.254 138.935L230.842 138.368L230.956 138.129L231.313 137.41L233.262 137.871Z" fill="#263238"/>
<path d="M230.299 138.287L227.824 138.147L227.898 137.897L228.123 137.127L230.119 137.241L230.255 138.029L230.299 138.287Z" fill="#263238"/>
<path d="M242.2 153.838C242.531 156.631 242.025 159.46 240.748 161.966C239.471 164.472 237.479 166.542 235.025 167.917C232.571 169.291 229.764 169.906 226.96 169.685C224.156 169.464 221.481 168.417 219.272 166.675C217.063 164.934 215.421 162.576 214.552 159.901C213.683 157.226 213.626 154.353 214.39 151.646C215.154 148.939 216.703 146.52 218.842 144.693C220.981 142.867 223.613 141.715 226.406 141.385C228.261 141.165 230.141 141.313 231.938 141.82C233.736 142.327 235.416 143.184 236.883 144.34C238.349 145.496 239.574 146.93 240.486 148.56C241.399 150.19 241.981 151.983 242.2 153.838Z" fill="#37474F"/>
<path d="M237.168 154.424C237.382 156.222 237.057 158.042 236.235 159.655C235.414 161.269 234.132 162.602 232.553 163.487C230.974 164.372 229.167 164.769 227.363 164.627C225.558 164.485 223.836 163.812 222.414 162.691C220.992 161.571 219.934 160.054 219.374 158.332C218.815 156.61 218.778 154.761 219.269 153.019C219.76 151.276 220.757 149.719 222.134 148.543C223.51 147.367 225.204 146.625 227.002 146.412C229.413 146.127 231.838 146.811 233.744 148.313C235.651 149.815 236.882 152.013 237.168 154.424Z" fill="#455A64"/>
<path d="M232.1 155.032C232.193 155.827 232.048 156.633 231.683 157.346C231.318 158.059 230.75 158.649 230.05 159.039C229.351 159.43 228.551 159.604 227.752 159.54C226.954 159.476 226.192 159.177 225.563 158.68C224.935 158.183 224.468 157.511 224.221 156.749C223.974 155.987 223.959 155.168 224.177 154.397C224.395 153.626 224.837 152.938 225.447 152.418C226.057 151.898 226.807 151.571 227.603 151.477C228.131 151.415 228.667 151.458 229.179 151.603C229.692 151.748 230.17 151.992 230.588 152.322C231.006 152.652 231.354 153.062 231.614 153.527C231.873 153.991 232.038 154.503 232.1 155.032Z" fill="#263238"/>
<path d="M228.697 160.748C227.661 160.871 226.611 160.683 225.681 160.209C224.751 159.735 223.982 158.995 223.472 158.084C222.962 157.173 222.734 156.131 222.816 155.091C222.898 154.05 223.287 153.057 223.934 152.237C224.58 151.418 225.456 150.808 226.449 150.486C227.442 150.164 228.508 150.143 229.512 150.427C230.517 150.71 231.415 151.286 232.093 152.08C232.771 152.874 233.198 153.851 233.32 154.888C233.483 156.278 233.088 157.676 232.221 158.774C231.354 159.873 230.087 160.583 228.697 160.748ZM227.515 150.74C226.575 150.852 225.69 151.24 224.97 151.855C224.251 152.47 223.729 153.284 223.472 154.195C223.216 155.106 223.234 156.073 223.526 156.973C223.818 157.873 224.371 158.667 225.114 159.253C225.856 159.84 226.756 160.193 227.7 160.268C228.643 160.344 229.588 160.138 230.414 159.677C231.241 159.215 231.912 158.52 232.343 157.677C232.775 156.835 232.947 155.883 232.837 154.943C232.685 153.682 232.04 152.532 231.043 151.744C230.046 150.957 228.777 150.596 227.515 150.74Z" fill="#263238"/>
<path d="M228.086 148.258C228.108 148.427 228.081 148.598 228.006 148.751C227.931 148.904 227.812 149.031 227.665 149.116C227.517 149.201 227.348 149.241 227.178 149.229C227.008 149.218 226.845 149.156 226.711 149.052C226.576 148.948 226.475 148.807 226.421 148.645C226.367 148.484 226.363 148.31 226.408 148.146C226.453 147.981 226.546 147.834 226.675 147.723C226.804 147.612 226.963 147.542 227.132 147.521C227.356 147.494 227.581 147.556 227.76 147.694C227.938 147.832 228.055 148.034 228.086 148.258Z" fill="#263238"/>
<path d="M224.462 149.227C224.563 149.363 224.622 149.525 224.63 149.695C224.639 149.864 224.597 150.032 224.511 150.178C224.424 150.324 224.296 150.44 224.143 150.513C223.99 150.587 223.819 150.613 223.651 150.589C223.483 150.564 223.326 150.491 223.2 150.378C223.074 150.265 222.984 150.117 222.942 149.952C222.9 149.788 222.907 149.615 222.963 149.455C223.019 149.295 223.122 149.155 223.257 149.053C223.347 148.985 223.45 148.936 223.56 148.908C223.669 148.88 223.783 148.873 223.895 148.89C224.007 148.906 224.115 148.944 224.212 149.002C224.309 149.059 224.394 149.136 224.462 149.227Z" fill="#263238"/>
<path d="M221.806 151.879C221.962 151.946 222.094 152.058 222.185 152.201C222.277 152.343 222.325 152.51 222.322 152.679C222.32 152.849 222.267 153.014 222.17 153.153C222.074 153.293 221.939 153.401 221.781 153.463C221.624 153.526 221.451 153.541 221.285 153.505C221.119 153.47 220.968 153.386 220.849 153.265C220.731 153.143 220.651 152.989 220.62 152.823C220.589 152.656 220.609 152.484 220.675 152.328C220.72 152.224 220.784 152.13 220.865 152.051C220.946 151.972 221.042 151.91 221.147 151.868C221.252 151.827 221.365 151.806 221.478 151.808C221.591 151.81 221.702 151.834 221.806 151.879Z" fill="#263238"/>
<path d="M220.829 155.499C220.998 155.476 221.169 155.504 221.322 155.579C221.475 155.654 221.602 155.773 221.687 155.92C221.773 156.068 221.812 156.237 221.801 156.407C221.789 156.577 221.728 156.739 221.624 156.874C221.519 157.009 221.378 157.11 221.216 157.164C221.055 157.218 220.881 157.222 220.717 157.177C220.553 157.132 220.406 157.039 220.294 156.91C220.183 156.781 220.113 156.622 220.092 156.453C220.066 156.229 220.128 156.004 220.266 155.826C220.404 155.648 220.606 155.53 220.829 155.499Z" fill="#263238"/>
<path d="M221.788 159.124C221.924 159.022 222.086 158.964 222.256 158.955C222.425 158.946 222.593 158.988 222.739 159.075C222.885 159.161 223.001 159.289 223.075 159.442C223.148 159.595 223.174 159.766 223.15 159.934C223.125 160.102 223.052 160.259 222.939 160.385C222.826 160.511 222.678 160.601 222.513 160.643C222.349 160.686 222.176 160.678 222.016 160.622C221.856 160.566 221.716 160.464 221.614 160.328C221.478 160.145 221.42 159.916 221.452 159.69C221.485 159.464 221.605 159.261 221.788 159.124Z" fill="#263238"/>
<path d="M224.446 161.79C224.513 161.634 224.625 161.502 224.768 161.409C224.91 161.317 225.077 161.269 225.246 161.271C225.416 161.273 225.581 161.326 225.721 161.422C225.861 161.518 225.969 161.654 226.032 161.811C226.095 161.969 226.11 162.142 226.074 162.308C226.039 162.474 225.955 162.626 225.834 162.744C225.712 162.863 225.558 162.942 225.391 162.973C225.224 163.004 225.052 162.985 224.896 162.918C224.687 162.827 224.523 162.658 224.439 162.446C224.355 162.235 224.358 162 224.446 161.79Z" fill="#263238"/>
<path d="M228.071 162.755C228.048 162.587 228.076 162.415 228.151 162.262C228.226 162.109 228.345 161.982 228.492 161.897C228.64 161.812 228.809 161.773 228.979 161.784C229.149 161.795 229.311 161.857 229.446 161.961C229.581 162.065 229.682 162.207 229.736 162.368C229.79 162.53 229.794 162.704 229.749 162.868C229.704 163.032 229.611 163.179 229.482 163.29C229.353 163.401 229.194 163.472 229.025 163.492C228.801 163.519 228.576 163.457 228.397 163.319C228.219 163.182 228.102 162.979 228.071 162.755Z" fill="#263238"/>
<path d="M231.695 161.791C231.593 161.655 231.534 161.492 231.525 161.322C231.516 161.153 231.557 160.984 231.644 160.838C231.73 160.692 231.858 160.575 232.011 160.502C232.165 160.429 232.336 160.403 232.504 160.427C232.672 160.451 232.829 160.524 232.955 160.638C233.082 160.752 233.171 160.9 233.213 161.064C233.255 161.229 233.247 161.402 233.191 161.562C233.134 161.722 233.031 161.862 232.895 161.964C232.713 162.099 232.484 162.157 232.259 162.124C232.035 162.092 231.832 161.972 231.695 161.791Z" fill="#263238"/>
<path d="M234.35 159.138C234.194 159.071 234.061 158.96 233.969 158.817C233.877 158.675 233.828 158.508 233.831 158.339C233.833 158.169 233.885 158.004 233.982 157.864C234.078 157.724 234.213 157.616 234.371 157.553C234.529 157.49 234.701 157.475 234.867 157.511C235.034 157.546 235.185 157.63 235.304 157.751C235.422 157.873 235.502 158.027 235.533 158.194C235.564 158.361 235.544 158.533 235.477 158.689C235.387 158.898 235.218 159.063 235.007 159.147C234.795 159.231 234.559 159.228 234.35 159.138Z" fill="#263238"/>
<path d="M235.327 155.529C235.158 155.552 234.987 155.524 234.834 155.449C234.681 155.374 234.554 155.255 234.469 155.108C234.383 154.96 234.344 154.791 234.355 154.621C234.367 154.451 234.428 154.289 234.532 154.154C234.637 154.019 234.778 153.918 234.94 153.864C235.101 153.81 235.275 153.806 235.439 153.851C235.603 153.896 235.75 153.989 235.862 154.118C235.973 154.247 236.043 154.406 236.064 154.575C236.092 154.799 236.03 155.025 235.892 155.204C235.754 155.383 235.551 155.499 235.327 155.529Z" fill="#263238"/>
<path d="M234.359 151.89C234.223 151.991 234.06 152.051 233.89 152.06C233.721 152.069 233.552 152.027 233.406 151.941C233.261 151.854 233.143 151.726 233.07 151.573C232.997 151.42 232.971 151.248 232.995 151.08C233.019 150.912 233.093 150.755 233.206 150.629C233.32 150.503 233.468 150.413 233.633 150.371C233.797 150.329 233.971 150.337 234.131 150.394C234.291 150.45 234.43 150.553 234.532 150.689C234.668 150.871 234.726 151.1 234.694 151.325C234.662 151.55 234.541 151.753 234.359 151.89Z" fill="#263238"/>
<path d="M231.71 149.234C231.643 149.39 231.532 149.523 231.39 149.615C231.247 149.708 231.081 149.757 230.911 149.755C230.742 149.753 230.576 149.701 230.436 149.605C230.296 149.509 230.188 149.374 230.124 149.217C230.061 149.059 230.046 148.887 230.081 148.72C230.116 148.554 230.199 148.402 230.32 148.284C230.441 148.165 230.595 148.085 230.762 148.053C230.928 148.022 231.101 148.04 231.257 148.107C231.466 148.197 231.631 148.366 231.716 148.577C231.8 148.788 231.798 149.024 231.71 149.234Z" fill="#263238"/>
<path d="M149.869 152.273L149.612 152.243L149.903 154.707L150.146 154.619C150.146 154.229 150.098 153.831 150.05 153.437C150.002 153.043 149.962 152.656 149.869 152.273ZM149.501 151.706L149.733 151.577C149.558 150.808 149.33 150.052 149.052 149.315H148.787L149.501 151.706ZM149.777 157.739L150.039 157.698C150.137 156.915 150.181 156.126 150.172 155.337L149.917 155.264L149.777 157.739ZM148.787 148.663C148.483 147.937 148.128 147.233 147.726 146.556L147.468 146.619L148.573 148.829L148.787 148.663ZM149.133 160.697H149.394C149.629 159.943 149.811 159.174 149.939 158.395L149.7 158.277L149.133 160.697ZM145.693 144.162L147.166 146.151L147.335 145.948C146.907 145.286 146.433 144.655 145.917 144.059L145.693 144.162ZM147.98 163.496L148.238 163.54C148.598 162.84 148.91 162.116 149.173 161.374L148.96 161.216L147.98 163.496ZM143.523 142.059L145.332 143.757L145.464 143.532C144.929 142.953 144.354 142.411 143.744 141.912L143.523 142.059ZM146.359 166.052L146.606 166.141C147.082 165.513 147.514 164.853 147.899 164.166L147.722 163.978L146.359 166.052ZM141.018 140.357L143.092 141.716L143.184 141.469C142.555 140.994 141.894 140.562 141.206 140.177L141.018 140.357ZM144.333 168.292L144.558 168.421C145.135 167.885 145.676 167.31 146.175 166.7L146.031 166.479L144.333 168.292ZM138.267 139.12L140.547 140.099L140.595 139.838C139.894 139.478 139.169 139.167 138.425 138.906L138.267 139.12ZM141.95 170.137L142.153 170.306C142.814 169.879 143.446 169.406 144.042 168.892L143.939 168.656L141.95 170.137ZM135.346 138.379L137.762 138.946V138.681C137.009 138.447 136.239 138.268 135.46 138.143L135.346 138.379ZM139.269 171.529L139.438 171.732C140.165 171.427 140.871 171.073 141.549 170.671L141.486 170.417L139.269 171.529ZM132.403 137.897L132.329 138.147L134.805 138.287L134.764 138.029C133.972 137.932 133.175 137.888 132.377 137.897H132.403ZM136.517 172.671C137.286 172.499 138.042 172.272 138.779 171.993V171.732L136.407 172.447L136.517 172.671ZM130.517 138.018C130.123 138.066 129.733 138.121 129.35 138.199L129.32 138.457L131.784 138.166L131.696 137.922C131.28 137.937 130.885 137.97 130.491 138.018H130.517ZM133.464 173.095C133.854 173.076 134.252 173.043 134.646 172.995C135.04 172.947 135.434 172.892 135.818 172.815L135.843 172.561L133.379 172.852L133.464 173.095ZM126.384 139.02V139.282L128.76 138.567L128.631 138.342C127.861 138.514 127.104 138.741 126.366 139.02H126.384ZM130.399 172.984C131.182 173.082 131.971 173.127 132.76 173.117L132.834 172.866L130.355 172.726L130.399 172.984ZM123.615 140.346L123.677 140.6L125.887 139.495L125.718 139.289C124.987 139.593 124.278 139.946 123.596 140.346H123.615ZM127.397 172.34C128.151 172.576 128.92 172.758 129.699 172.885L129.814 172.649L127.397 172.082V172.34ZM121.117 142.136L121.22 142.376L123.209 140.902L123.01 140.729C122.343 141.155 121.704 141.625 121.099 142.136H121.117ZM124.546 171.183C125.247 171.545 125.972 171.858 126.716 172.119L126.871 171.905L124.591 170.929L124.546 171.183ZM118.966 144.328L119.11 144.545L120.808 142.74L120.583 142.608C120 143.142 119.456 143.716 118.955 144.328H118.966ZM121.95 169.551C122.578 170.03 123.239 170.463 123.928 170.848L124.112 170.671L122.038 169.308L121.95 169.551ZM117.231 146.862L117.408 147.05L118.767 144.976L118.524 144.888C118.044 145.515 117.609 146.174 117.22 146.862H117.231ZM119.67 167.489C120.205 168.069 120.781 168.611 121.393 169.109L121.607 168.966L119.802 167.268L119.67 167.489ZM115.957 149.65L116.17 149.805L117.15 147.525L116.892 147.481C116.528 148.183 116.212 148.909 115.946 149.654L115.957 149.65ZM117.799 165.069C118.227 165.731 118.7 166.363 119.213 166.962L119.452 166.859L117.979 164.87L117.799 165.069ZM115.22 152.626L115.452 152.741L116.019 150.324H115.758C115.513 151.078 115.322 151.849 115.187 152.63L115.22 152.626ZM116.369 162.358C116.677 163.084 117.032 163.789 117.434 164.468L117.684 164.402L116.579 162.192L116.369 162.358ZM115.338 153.286L115.084 153.33C114.988 154.113 114.943 154.902 114.948 155.691L115.198 155.765L115.338 153.286ZM115.618 159.312L115.397 159.437C115.57 160.207 115.797 160.964 116.075 161.702L116.333 161.684L115.618 159.312ZM115.216 156.31L114.977 156.394C114.977 156.785 115.025 157.179 115.073 157.573C115.121 157.967 115.18 158.361 115.253 158.748L115.507 158.774L115.216 156.31Z" fill="#263238"/>
<path d="M149.903 154.707L150.147 154.619C150.147 154.855 150.169 155.09 150.172 155.326L149.918 155.252L149.778 157.739L150.04 157.698C150.014 157.934 149.977 158.166 149.94 158.398L149.701 158.28L149.134 160.685H149.395C149.325 160.91 149.255 161.135 149.174 161.359L148.961 161.201L147.981 163.481L148.239 163.525C148.132 163.735 148.021 163.949 147.9 164.151L147.723 163.964L146.36 166.037L146.607 166.126C146.463 166.314 146.316 166.494 146.165 166.686L146.021 166.465L144.323 168.277L144.548 168.406C144.378 168.564 144.18 168.722 144.017 168.877L143.914 168.641L141.925 170.115L142.128 170.284C141.929 170.413 141.726 170.542 141.524 170.653L141.461 170.398L139.251 171.503L139.421 171.706C139.203 171.802 138.986 171.886 138.761 171.967V171.706L136.389 172.421L136.518 172.645C136.286 172.7 136.058 172.745 135.826 172.789L135.851 172.535L133.387 172.826L133.472 173.069C133.24 173.069 133.004 173.087 132.769 173.091L132.842 172.84L130.363 172.7L130.407 172.958C130.172 172.933 129.94 172.899 129.708 172.859L129.822 172.623L127.406 172.056V172.314C127.181 172.244 126.956 172.174 126.731 172.093L126.886 171.879L124.606 170.903L124.562 171.157C124.352 171.054 124.146 170.94 123.943 170.822L124.127 170.645L122.054 169.282L121.965 169.525C121.777 169.382 121.597 169.238 121.409 169.087L121.623 168.943L119.818 167.245L119.685 167.466C119.523 167.293 119.368 167.12 119.214 166.94L119.453 166.837L117.98 164.848L117.814 165.046C117.685 164.848 117.564 164.649 117.446 164.446L117.696 164.38L116.591 162.17L116.389 162.339C116.297 162.122 116.208 161.905 116.127 161.68L116.385 161.661L115.67 159.289L115.449 159.415C115.394 159.186 115.35 158.958 115.306 158.726L115.56 158.752L115.269 156.287L115.029 156.372C115.029 156.14 115.007 155.904 115 155.669L115.25 155.742L115.39 153.263L115.136 153.308C115.162 153.072 115.195 152.84 115.239 152.608L115.471 152.722L116.039 150.306H115.777C115.846 150.08 115.92 149.855 115.998 149.632L116.212 149.786L117.192 147.506L116.934 147.462C117.044 147.252 117.155 147.042 117.273 146.84L117.449 147.028L118.809 144.954L118.565 144.865C118.709 144.678 118.853 144.497 119.007 144.306L119.151 144.523L120.849 142.718L120.624 142.585C120.798 142.423 120.971 142.269 121.151 142.114L121.254 142.353L123.243 140.88L123.044 140.707C123.243 140.578 123.446 140.453 123.649 140.339L123.711 140.593L125.921 139.488L125.752 139.281C125.969 139.186 126.19 139.101 126.415 139.02V139.281L128.79 138.567L128.662 138.342C128.894 138.287 129.122 138.239 129.358 138.199L129.328 138.456L131.792 138.165L131.704 137.922C131.94 137.904 132.175 137.9 132.411 137.896L132.338 138.147L134.813 138.287L134.772 138.029C135.008 138.055 135.24 138.088 135.472 138.132L135.354 138.368L137.77 138.935V138.67C137.995 138.74 138.22 138.814 138.445 138.895L138.286 139.108L140.566 140.088L140.614 139.827C140.824 139.937 141.034 140.048 141.237 140.165L141.049 140.346L143.122 141.705L143.214 141.458C143.402 141.606 143.583 141.749 143.774 141.9L143.553 142.048L145.362 143.746L145.494 143.521C145.657 143.69 145.811 143.867 145.962 144.048L145.723 144.151L147.196 146.14L147.366 145.937C147.495 146.136 147.623 146.339 147.734 146.545L147.476 146.608L148.581 148.818L148.787 148.648C148.883 148.866 148.968 149.087 149.049 149.311H148.784L149.498 151.687L149.73 151.558C149.782 151.79 149.833 152.018 149.87 152.254L149.612 152.225L149.903 154.707Z" fill="#263238"/>
<path d="M131.759 138.165L129.294 138.456L129.324 138.199L129.412 137.396L131.394 137.16L131.67 137.922L131.759 138.165Z" fill="#263238"/>
<path d="M128.757 138.567L126.381 139.281L126.366 139.02L126.314 138.221L128.23 137.642L128.628 138.342L128.757 138.567Z" fill="#263238"/>
<path d="M125.872 139.488L123.658 140.604L123.596 140.346L123.404 139.565L125.191 138.663L125.703 139.281L125.872 139.488Z" fill="#263238"/>
<path d="M123.191 140.887L121.206 142.376L121.099 142.136L120.775 141.396L122.381 140.202L122.992 140.718L123.191 140.887Z" fill="#263238"/>
<path d="M120.797 142.736L119.099 144.545L118.955 144.328L118.506 143.657L119.876 142.199L120.572 142.608L120.797 142.736Z" fill="#263238"/>
<path d="M118.756 144.976L117.397 147.05L117.221 146.862L116.661 146.28L117.758 144.608L118.513 144.888L118.756 144.976Z" fill="#263238"/>
<path d="M117.139 147.528L116.159 149.808L115.945 149.657L115.297 149.179L116.089 147.341L116.881 147.484L117.139 147.528Z" fill="#263238"/>
<path d="M115.987 150.328L115.42 152.744L115.188 152.63L114.462 152.273L114.922 150.324L115.725 150.328H115.987Z" fill="#263238"/>
<path d="M115.338 153.286L115.198 155.765L114.948 155.691L114.174 155.466L114.292 153.466L115.084 153.33L115.338 153.286Z" fill="#263238"/>
<path d="M115.216 156.31L115.507 158.774L115.253 158.748L114.447 158.656L114.211 156.674L114.977 156.394L115.216 156.31Z" fill="#263238"/>
<path d="M116.332 161.684L116.075 161.702L115.272 161.754L114.693 159.838L115.397 159.437L115.618 159.312L116.332 161.684Z" fill="#263238"/>
<path d="M117.652 164.409L117.402 164.472L116.617 164.663L115.715 162.877L116.337 162.361L116.54 162.192L117.652 164.409Z" fill="#263238"/>
<path d="M119.422 166.863L119.186 166.966L118.446 167.294L117.252 165.688L117.772 165.072L117.938 164.874L119.422 166.863Z" fill="#263238"/>
<path d="M121.596 168.969L121.382 169.113L120.708 169.562L119.25 168.192L119.658 167.492L119.791 167.271L121.596 168.969Z" fill="#263238"/>
<path d="M124.1 170.671L123.916 170.848L123.33 171.404L121.658 170.31L121.938 169.551L122.027 169.308L124.1 170.671Z" fill="#263238"/>
<path d="M126.859 171.905L126.704 172.119L126.229 172.771L124.391 171.975L124.535 171.183L124.579 170.929L126.859 171.905Z" fill="#263238"/>
<path d="M129.796 172.649L129.682 172.885L129.324 173.603L127.376 173.146L127.38 172.34V172.082L129.796 172.649Z" fill="#263238"/>
<path d="M132.816 172.866L132.742 173.117L132.517 173.894L130.517 173.78L130.381 172.984L130.337 172.726L132.816 172.866Z" fill="#263238"/>
<path d="M135.825 172.561L135.799 172.815L135.707 173.621L133.725 173.857L133.446 173.095L133.361 172.852L135.825 172.561Z" fill="#263238"/>
<path d="M138.735 171.732L138.754 171.993L138.809 172.796L136.89 173.375L136.492 172.671L136.363 172.447L138.735 171.732Z" fill="#263238"/>
<path d="M141.715 171.452L139.928 172.351L139.413 171.732L139.243 171.529L141.457 170.417L141.523 170.671L141.715 171.452Z" fill="#263238"/>
<path d="M144.344 169.618L142.742 170.815L142.127 170.295L141.924 170.126L143.913 168.645L144.016 168.881L144.344 169.618Z" fill="#263238"/>
<path d="M146.613 167.36L145.243 168.815L144.547 168.409L144.322 168.28L146.02 166.468L146.164 166.689L146.613 167.36Z" fill="#263238"/>
<path d="M148.456 164.737L147.362 166.409L146.607 166.129L146.36 166.041L147.723 163.967L147.9 164.155L148.456 164.737Z" fill="#263238"/>
<path d="M149.821 161.838L149.029 163.676L148.237 163.529L147.979 163.485L148.959 161.205L149.172 161.363L149.821 161.838Z" fill="#263238"/>
<path d="M150.654 158.744L150.197 160.693L149.394 160.689L149.133 160.685L149.7 158.269L149.939 158.387L150.654 158.744Z" fill="#263238"/>
<path d="M150.945 155.551L150.831 157.551L150.039 157.687L149.778 157.728L149.918 155.252L150.172 155.326L150.945 155.551Z" fill="#263238"/>
<path d="M150.673 152.361L150.908 154.346L150.146 154.619L149.903 154.707L149.612 152.243L149.87 152.273L150.673 152.361Z" fill="#263238"/>
<path d="M150.426 151.179L149.73 151.577L149.498 151.709L148.783 149.33L149.048 149.315L149.848 149.263L150.426 151.179Z" fill="#263238"/>
<path d="M149.402 148.14L148.787 148.652L148.581 148.821L147.468 146.608L147.726 146.545L148.503 146.354L149.402 148.14Z" fill="#263238"/>
<path d="M147.867 145.33L147.351 145.937L147.181 146.14L145.693 144.155L145.933 144.048L146.669 143.724L147.867 145.33Z" fill="#263238"/>
<path d="M145.866 142.825L145.464 143.521L145.332 143.746L143.52 142.048L143.744 141.9L144.411 141.455L145.866 142.825Z" fill="#263238"/>
<path d="M143.46 140.707L143.183 141.458L143.091 141.705L141.018 140.346L141.205 140.166L141.787 139.609L143.46 140.707Z" fill="#263238"/>
<path d="M140.727 139.039L140.584 139.827L140.536 140.088L138.256 139.108L138.414 138.895L138.889 138.247L140.727 139.039Z" fill="#263238"/>
<path d="M137.745 137.871L137.741 138.67L137.738 138.935L135.321 138.368L135.439 138.129L135.796 137.41L137.745 137.871Z" fill="#263238"/>
<path d="M134.779 138.287L132.304 138.147L132.377 137.897L132.602 137.127L134.602 137.241L134.738 138.029L134.779 138.287Z" fill="#263238"/>
<path d="M146.68 153.838C147.01 156.631 146.505 159.46 145.227 161.966C143.95 164.472 141.958 166.543 139.504 167.917C137.049 169.291 134.243 169.907 131.439 169.685C128.634 169.464 125.959 168.416 123.75 166.675C121.542 164.933 119.899 162.575 119.031 159.9C118.162 157.224 118.106 154.351 118.87 151.644C119.635 148.937 121.184 146.518 123.324 144.691C125.463 142.865 128.096 141.714 130.889 141.385C132.744 141.165 134.624 141.313 136.421 141.82C138.218 142.327 139.898 143.184 141.364 144.34C142.831 145.497 144.055 146.931 144.967 148.56C145.879 150.19 146.461 151.983 146.68 153.838Z" fill="#37474F"/>
<path d="M141.647 154.424C141.861 156.222 141.536 158.043 140.714 159.656C139.893 161.269 138.611 162.603 137.032 163.488C135.452 164.373 133.646 164.769 131.841 164.628C130.036 164.486 128.313 163.812 126.891 162.691C125.469 161.57 124.412 160.052 123.853 158.33C123.293 156.608 123.257 154.759 123.749 153.017C124.241 151.274 125.238 149.717 126.615 148.541C127.992 147.366 129.687 146.625 131.485 146.413C133.895 146.128 136.319 146.812 138.225 148.314C140.13 149.817 141.361 152.014 141.647 154.424Z" fill="#455A64"/>
<path d="M136.583 155.032C136.676 155.827 136.531 156.632 136.166 157.346C135.802 158.059 135.234 158.648 134.534 159.038C133.835 159.429 133.035 159.603 132.237 159.54C131.438 159.476 130.677 159.177 130.048 158.68C129.419 158.184 128.952 157.512 128.705 156.75C128.458 155.988 128.442 155.17 128.66 154.399C128.878 153.629 129.319 152.94 129.928 152.419C130.537 151.899 131.287 151.571 132.082 151.477C132.611 151.414 133.148 151.457 133.66 151.601C134.173 151.746 134.652 151.991 135.07 152.321C135.488 152.651 135.837 153.06 136.097 153.526C136.356 153.991 136.522 154.502 136.583 155.032Z" fill="#263238"/>
<path d="M133.18 160.748C132.143 160.87 131.093 160.681 130.164 160.207C129.234 159.732 128.466 158.992 127.957 158.081C127.447 157.17 127.22 156.128 127.302 155.088C127.385 154.047 127.774 153.055 128.421 152.235C129.068 151.416 129.943 150.807 130.936 150.485C131.929 150.163 132.995 150.143 134 150.427C135.004 150.71 135.902 151.286 136.579 152.08C137.257 152.874 137.684 153.851 137.806 154.888C137.968 156.278 137.572 157.676 136.704 158.774C135.837 159.873 134.569 160.583 133.18 160.748ZM131.994 150.74C131.055 150.855 130.171 151.245 129.454 151.861C128.736 152.477 128.218 153.292 127.963 154.202C127.708 155.113 127.728 156.079 128.021 156.978C128.314 157.877 128.867 158.669 129.61 159.254C130.352 159.84 131.252 160.192 132.194 160.267C133.137 160.342 134.081 160.136 134.907 159.675C135.732 159.214 136.403 158.519 136.835 157.678C137.266 156.837 137.439 155.886 137.331 154.947C137.259 154.319 137.063 153.712 136.755 153.161C136.448 152.609 136.034 152.124 135.538 151.733C135.042 151.342 134.473 151.053 133.865 150.882C133.256 150.712 132.621 150.664 131.994 150.74Z" fill="#263238"/>
<path d="M132.566 148.258C132.589 148.426 132.561 148.598 132.486 148.751C132.411 148.904 132.292 149.031 132.145 149.116C131.998 149.201 131.828 149.241 131.658 149.229C131.489 149.218 131.326 149.156 131.191 149.052C131.056 148.948 130.956 148.806 130.902 148.645C130.848 148.484 130.843 148.31 130.888 148.146C130.933 147.981 131.026 147.834 131.155 147.723C131.284 147.612 131.443 147.542 131.612 147.521C131.836 147.493 132.062 147.555 132.241 147.693C132.42 147.831 132.537 148.034 132.566 148.258Z" fill="#263238"/>
<path d="M128.941 149.226C129.042 149.362 129.102 149.525 129.111 149.695C129.12 149.864 129.078 150.033 128.992 150.179C128.905 150.325 128.777 150.442 128.624 150.515C128.471 150.588 128.299 150.614 128.131 150.59C127.963 150.566 127.806 150.492 127.68 150.379C127.554 150.265 127.464 150.117 127.422 149.953C127.38 149.788 127.388 149.615 127.445 149.455C127.501 149.295 127.604 149.155 127.74 149.053C127.922 148.917 128.151 148.859 128.376 148.891C128.601 148.924 128.804 149.044 128.941 149.226Z" fill="#263238"/>
<path d="M126.285 151.879C126.441 151.946 126.573 152.057 126.666 152.2C126.758 152.342 126.807 152.509 126.804 152.678C126.802 152.848 126.749 153.013 126.653 153.153C126.557 153.293 126.422 153.401 126.264 153.464C126.106 153.527 125.933 153.542 125.767 153.506C125.601 153.471 125.45 153.387 125.331 153.266C125.213 153.144 125.133 152.99 125.102 152.823C125.071 152.656 125.091 152.484 125.158 152.328C125.248 152.119 125.417 151.954 125.628 151.87C125.84 151.786 126.076 151.789 126.285 151.879Z" fill="#263238"/>
<path d="M125.308 155.499C125.477 155.476 125.649 155.504 125.802 155.579C125.955 155.654 126.082 155.773 126.167 155.92C126.252 156.068 126.291 156.237 126.28 156.407C126.269 156.577 126.207 156.739 126.103 156.874C125.999 157.009 125.857 157.11 125.696 157.164C125.534 157.218 125.36 157.222 125.196 157.177C125.032 157.132 124.885 157.039 124.774 156.91C124.663 156.781 124.592 156.622 124.572 156.453C124.546 156.229 124.608 156.004 124.746 155.826C124.883 155.648 125.085 155.53 125.308 155.499Z" fill="#263238"/>
<path d="M126.278 159.124C126.414 159.022 126.577 158.964 126.747 158.955C126.916 158.946 127.084 158.988 127.23 159.075C127.375 159.161 127.492 159.289 127.565 159.442C127.638 159.595 127.664 159.766 127.64 159.934C127.616 160.102 127.543 160.259 127.43 160.385C127.316 160.511 127.168 160.601 127.004 160.643C126.84 160.686 126.667 160.678 126.507 160.622C126.347 160.566 126.207 160.464 126.105 160.328C126.037 160.238 125.988 160.135 125.96 160.025C125.931 159.916 125.925 159.802 125.941 159.69C125.957 159.578 125.995 159.47 126.053 159.373C126.111 159.276 126.188 159.191 126.278 159.124Z" fill="#263238"/>
<path d="M128.93 161.79C128.997 161.634 129.109 161.502 129.251 161.409C129.394 161.317 129.56 161.269 129.73 161.271C129.9 161.273 130.065 161.326 130.205 161.422C130.345 161.518 130.453 161.654 130.516 161.811C130.579 161.969 130.593 162.142 130.558 162.308C130.523 162.474 130.439 162.626 130.317 162.744C130.196 162.863 130.042 162.942 129.875 162.973C129.708 163.004 129.535 162.985 129.379 162.918C129.17 162.828 129.006 162.658 128.921 162.447C128.837 162.236 128.84 162 128.93 161.79Z" fill="#263238"/>
<path d="M132.551 162.755C132.528 162.587 132.556 162.415 132.631 162.262C132.706 162.109 132.825 161.982 132.972 161.897C133.12 161.812 133.289 161.773 133.459 161.784C133.629 161.795 133.791 161.857 133.926 161.961C134.061 162.065 134.162 162.207 134.216 162.368C134.27 162.53 134.274 162.704 134.229 162.868C134.184 163.032 134.091 163.179 133.962 163.29C133.833 163.401 133.674 163.472 133.505 163.492C133.281 163.518 133.056 163.456 132.878 163.318C132.7 163.181 132.582 162.979 132.551 162.755Z" fill="#263238"/>
<path d="M136.174 161.79C136.073 161.654 136.014 161.492 136.006 161.322C135.997 161.153 136.038 160.985 136.125 160.839C136.212 160.693 136.34 160.577 136.493 160.503C136.646 160.43 136.817 160.404 136.985 160.428C137.153 160.453 137.309 160.526 137.436 160.639C137.562 160.752 137.652 160.9 137.694 161.065C137.736 161.229 137.729 161.402 137.673 161.562C137.616 161.722 137.514 161.862 137.379 161.964C137.196 162.1 136.966 162.158 136.741 162.126C136.515 162.093 136.311 161.973 136.174 161.79Z" fill="#263238"/>
<path d="M138.834 159.138C138.678 159.071 138.546 158.96 138.453 158.817C138.361 158.675 138.313 158.508 138.315 158.339C138.317 158.169 138.37 158.004 138.466 157.864C138.562 157.724 138.698 157.616 138.855 157.553C139.013 157.49 139.186 157.475 139.352 157.511C139.518 157.546 139.67 157.63 139.788 157.751C139.907 157.873 139.986 158.027 140.017 158.194C140.048 158.361 140.029 158.533 139.962 158.689C139.871 158.897 139.702 159.062 139.49 159.146C139.279 159.23 139.044 159.227 138.834 159.138Z" fill="#263238"/>
<path d="M139.808 155.529C139.696 155.542 139.582 155.533 139.474 155.502C139.365 155.471 139.264 155.419 139.175 155.349C139.087 155.279 139.013 155.193 138.958 155.094C138.903 154.996 138.868 154.888 138.855 154.776C138.842 154.664 138.851 154.55 138.882 154.442C138.913 154.333 138.965 154.232 139.035 154.143C139.105 154.055 139.191 153.981 139.29 153.926C139.388 153.871 139.497 153.836 139.609 153.823C139.721 153.81 139.834 153.819 139.943 153.85C140.051 153.881 140.152 153.933 140.241 154.003C140.329 154.073 140.403 154.159 140.458 154.258C140.513 154.356 140.548 154.465 140.561 154.577C140.574 154.689 140.565 154.802 140.534 154.911C140.503 155.019 140.451 155.12 140.381 155.209C140.311 155.297 140.225 155.371 140.126 155.426C140.028 155.481 139.92 155.516 139.808 155.529Z" fill="#263238"/>
<path d="M138.841 151.89C138.705 151.991 138.542 152.051 138.372 152.06C138.203 152.069 138.034 152.027 137.888 151.941C137.742 151.854 137.625 151.726 137.552 151.573C137.479 151.42 137.453 151.248 137.477 151.08C137.501 150.912 137.575 150.755 137.688 150.629C137.802 150.503 137.95 150.413 138.115 150.371C138.279 150.329 138.453 150.337 138.613 150.394C138.773 150.45 138.912 150.553 139.014 150.689C139.149 150.872 139.207 151.1 139.174 151.325C139.142 151.55 139.022 151.753 138.841 151.89Z" fill="#263238"/>
<path d="M136.19 149.234C136.123 149.39 136.011 149.522 135.869 149.615C135.726 149.707 135.56 149.755 135.39 149.753C135.22 149.751 135.055 149.698 134.915 149.602C134.775 149.506 134.667 149.371 134.604 149.213C134.541 149.055 134.526 148.882 134.562 148.716C134.597 148.55 134.681 148.399 134.803 148.28C134.924 148.162 135.078 148.082 135.245 148.051C135.412 148.02 135.584 148.04 135.74 148.107C135.949 148.197 136.114 148.366 136.198 148.577C136.283 148.789 136.28 149.025 136.19 149.234Z" fill="#263238"/>
<path d="M154.419 155.529H152.132C152.061 150.385 149.968 145.475 146.305 141.862C142.643 138.25 137.705 136.224 132.56 136.224C127.415 136.224 122.478 138.25 118.815 141.862C115.152 145.475 113.059 150.385 112.989 155.529H110.701C110.776 149.781 113.112 144.293 117.203 140.255C121.294 136.216 126.811 133.952 132.56 133.952C138.309 133.952 143.826 136.216 147.917 140.255C152.008 144.293 154.344 149.781 154.419 155.529Z" fill="#F59C42"/>
<path opacity="0.2" d="M154.419 155.529H152.132C152.061 150.385 149.968 145.475 146.305 141.862C142.643 138.25 137.705 136.224 132.56 136.224C127.415 136.224 122.478 138.25 118.815 141.862C115.152 145.475 113.059 150.385 112.989 155.529H110.701C110.776 149.781 113.112 144.293 117.203 140.255C121.294 136.216 126.811 133.952 132.56 133.952C138.309 133.952 143.826 136.216 147.917 140.255C152.008 144.293 154.344 149.781 154.419 155.529Z" fill="white"/>
<path d="M208.527 155.529H206.236C206.244 149.734 208.549 144.178 212.648 140.081C216.746 135.984 222.301 133.679 228.097 133.672V135.959C222.908 135.965 217.934 138.029 214.265 141.698C210.596 145.366 208.533 150.34 208.527 155.529Z" fill="#F59C42"/>
<path opacity="0.2" d="M208.527 155.529H206.236C206.244 149.734 208.549 144.178 212.648 140.081C216.746 135.984 222.301 133.679 228.097 133.672V135.959C222.908 135.965 217.934 138.029 214.265 141.698C210.596 145.366 208.533 150.34 208.527 155.529Z" fill="white"/>
<path d="M137.933 126.066H109.368L106.576 132.206H137.933V126.066Z" fill="#F59C42"/>
<path opacity="0.1" d="M137.933 126.066H109.368L106.576 132.206H137.933V126.066Z" fill="black"/>
<path d="M137.931 105.21H109.367V126.062H137.931V105.21Z" fill="#F59C42"/>
<g opacity="0.1">
<path d="M135.372 107.369H123.217V108.588H135.372V107.369Z" fill="black"/>
<path d="M135.372 109.955H123.217V111.174H135.372V109.955Z" fill="black"/>
<path d="M135.372 112.544H123.217V113.763H135.372V112.544Z" fill="black"/>
<path d="M135.372 115.13H123.217V116.349H135.372V115.13Z" fill="black"/>
<path d="M135.372 117.719H123.217V118.938H135.372V117.719Z" fill="black"/>
</g>
<path d="M213.452 67.7066H203.068V66.9294H213.127L214.785 65.2719V49.8018H206.84L198.523 55.2569L198.096 54.6086L206.608 49.0247H215.562V65.5961L213.452 67.7066Z" fill="#263238"/>
<path d="M213.537 50.8699H207.448V65.0729H213.537V50.8699Z" fill="#263238"/>
<path d="M215.171 62.373H213.536V63.1502H215.171V62.373Z" fill="#263238"/>
<path d="M215.171 53.5808H213.536V54.358H215.171V53.5808Z" fill="#263238"/>
<path d="M199.861 77.7014L184.361 93.2009L186.406 95.2455L201.905 79.746L199.861 77.7014Z" fill="#263238"/>
<path d="M199.44 90.1235L196.707 92.8565L192.055 89.5968L196.092 85.5598L199.44 90.1235Z" fill="#37474F"/>
<path d="M198.727 90.8356L197.49 92.0728L205.027 99.6102L206.264 98.3731L198.727 90.8356Z" fill="#263238"/>
<path d="M216.53 132.206L208.589 94.1015L190.319 40.4756H138.388L137.931 105.211H132.686L135.644 37.7278H192.154L213.131 92.6576L222.692 132.206H216.53Z" fill="#37474F"/>
<path d="M208.589 94.1016L201.738 102.953V114.216L194.584 132.206H216.53L208.589 94.1016Z" fill="#263238"/>
<path d="M177.027 132.206H137.932V104.975H167.642L177.027 132.206Z" fill="#37474F"/>
<path d="M173.642 98.9856H142.576V104.978H173.642V98.9856Z" fill="#263238"/>
<path d="M138.326 70.9662L142.576 98.9855H151.103L143.829 69.5408L138.326 70.9662Z" fill="#263238"/>
<path d="M163.501 56.5939C162.374 56.104 159.181 56.3508 157.862 57.7247C156.543 59.0986 156.131 61.6585 156.602 62.0084C157.074 62.3584 159.357 62.6051 161.059 62.0563C162.761 61.5075 164.057 56.8333 163.501 56.5939Z" fill="#263238"/>
<path d="M163.505 56.6012C163.546 56.6012 163.564 56.5349 163.505 56.5239C162.482 56.2992 161.295 56.4281 160.272 56.5239C159.422 56.5495 158.587 56.7541 157.822 57.1243C157.463 57.3178 157.151 57.5871 156.907 57.9134C156.663 58.2396 156.492 58.6151 156.408 59.0138C156.159 59.9716 156.159 60.977 156.408 61.9347C156.408 61.9605 156.463 61.9605 156.463 61.9347C156.323 60.1262 156.316 57.9493 158.253 57.1095C159.907 56.3913 161.774 56.6344 163.505 56.6012Z" fill="#263238"/>
<path d="M156.86 61.6033C155.803 61.537 152.746 62.9735 151.914 64.8446C151.081 66.7158 152.105 69.9203 152.569 70.2297C153.033 70.5391 155.674 69.1026 156.687 67.8687C157.361 67.0473 157.181 65.8944 157.166 64.782C157.14 63.1282 157.026 61.6033 156.86 61.6033Z" fill="#263238"/>
<path d="M157.353 67.7324C158.049 65.7986 157.305 63.5996 156.985 61.6659C156.985 61.661 156.983 61.6563 156.979 61.6529C156.976 61.6494 156.971 61.6475 156.966 61.6475C156.961 61.6475 156.957 61.6494 156.953 61.6529C156.95 61.6563 156.948 61.661 156.948 61.6659C156.985 63.467 157.721 65.224 157.397 67.0399C157.326 67.5759 157.126 68.0869 156.815 68.5293C156.504 68.9717 156.091 69.3326 155.611 69.5814C154.734 70.0013 153.721 70.075 152.771 70.2149C152.708 70.2149 152.731 70.3181 152.771 70.3107C154.668 70.075 156.635 69.7324 157.353 67.7324Z" fill="#263238"/>
<path d="M156.591 61.7358C156.646 61.7358 156.627 61.629 156.572 61.6437C154.97 62.0526 153.01 62.7193 151.935 64.049C150.775 65.4892 151.294 67.3382 151.765 68.9368C151.765 68.9589 151.806 68.9368 151.799 68.9368C151.342 67.3198 150.911 65.3381 152.167 63.9606C153.276 62.7708 155.088 62.141 156.591 61.7358Z" fill="#263238"/>
<path d="M152.816 70.0051C153.438 70.484 154.23 71.8468 154.208 73.2759C154.171 75.7143 155.151 75.4123 157.622 76.5099C159.711 77.4418 159.733 79.9723 158.359 80.9705C158.359 80.9705 159.309 79.5855 157.991 78.5763C156.389 77.3718 152.027 78.4916 150.469 75.6296C148.425 71.9463 152.816 70.0051 152.816 70.0051Z" fill="#263238"/>
<path d="M153.545 71.2684C153.523 71.2316 153.585 71.1911 153.611 71.2279C153.856 71.5788 154.033 71.9723 154.134 72.3882C154.267 72.9296 154.178 73.4711 154.27 74.0162C154.506 75.4011 156.083 75.6406 157.217 75.9315C158.723 76.2999 159.795 77.4712 159.582 79.0919C159.582 79.0967 159.58 79.1014 159.576 79.1049C159.573 79.1083 159.568 79.1103 159.563 79.1103C159.558 79.1103 159.554 79.1083 159.55 79.1049C159.547 79.1014 159.545 79.0967 159.545 79.0919C159.601 78.591 159.519 78.0843 159.308 77.6266C159.097 77.1688 158.765 76.7775 158.348 76.4951C157.523 75.9573 156.484 75.9721 155.6 75.5816C154.992 75.3127 154.41 74.9297 154.23 74.2593C154.161 73.884 154.133 73.5025 154.145 73.1211C154.107 72.4623 153.9 71.8244 153.545 71.2684Z" fill="#263238"/>
<path d="M152.362 70.2188C152.362 70.2188 152.396 70.2188 152.362 70.2445C151.342 70.9407 150.27 71.6295 149.784 72.8229C149.272 74.1157 149.721 75.5854 150.628 76.5873C151.644 77.6923 152.989 77.5044 154.355 77.486C155.342 77.486 156.337 77.5376 157.213 78.0348C157.239 78.0348 157.213 78.0938 157.188 78.0827C155.744 77.4602 154.281 77.6554 152.768 77.626C152.199 77.6286 151.641 77.4706 151.158 77.1702C150.675 76.8698 150.287 76.4392 150.038 75.9279C148.716 73.5522 150.2 71.3753 152.362 70.2188Z" fill="#263238"/>
<path d="M162.809 55.3415C162.757 55.2438 162.668 55.1707 162.563 55.1383C162.457 55.1058 162.343 55.1166 162.245 55.1684C162.147 55.2202 162.074 55.3086 162.042 55.4143C162.009 55.52 162.02 55.6343 162.072 55.732C162.124 55.8296 162.212 55.9028 162.318 55.9352C162.424 55.9677 162.538 55.9569 162.636 55.9051C162.733 55.8533 162.806 55.7648 162.839 55.6592C162.871 55.5535 162.86 55.4392 162.809 55.3415Z" fill="#F59C42"/>
<path d="M162.993 56.0783C162.935 55.9921 162.847 55.9305 162.746 55.9054C162.645 55.8804 162.538 55.8937 162.446 55.9427C162.355 55.9918 162.285 56.0731 162.249 56.171C162.214 56.2688 162.217 56.3763 162.256 56.4725C162.314 56.5587 162.402 56.6203 162.503 56.6454C162.604 56.6704 162.711 56.6571 162.802 56.6081C162.894 56.559 162.964 56.4777 162.999 56.3798C163.035 56.282 163.032 56.1745 162.993 56.0783Z" fill="#F59C42"/>
<path d="M163.306 56.8149C163.247 56.7307 163.16 56.6708 163.06 56.6466C162.96 56.6224 162.855 56.6356 162.764 56.6837C162.674 56.7317 162.604 56.8113 162.568 56.9075C162.532 57.0036 162.532 57.1096 162.569 57.2054C162.628 57.2897 162.715 57.3495 162.815 57.3737C162.915 57.3979 163.02 57.3847 163.11 57.3367C163.201 57.2886 163.271 57.209 163.307 57.1129C163.343 57.0167 163.343 56.9107 163.306 56.8149Z" fill="#F59C42"/>
<path d="M163.701 57.4707C163.642 57.3864 163.555 57.3265 163.455 57.3024C163.355 57.2782 163.25 57.2913 163.159 57.3394C163.069 57.3875 162.999 57.4671 162.963 57.5632C162.927 57.6594 162.927 57.7653 162.964 57.8611C163.023 57.9454 163.11 58.0053 163.21 58.0295C163.31 58.0537 163.415 58.0405 163.505 57.9924C163.596 57.9444 163.666 57.8647 163.702 57.7686C163.738 57.6725 163.738 57.5665 163.701 57.4707Z" fill="#F59C42"/>
<path d="M164.212 58.0598C164.153 57.9755 164.066 57.9157 163.966 57.8915C163.866 57.8673 163.761 57.8805 163.671 57.9285C163.58 57.9766 163.51 58.0562 163.474 58.1523C163.438 58.2485 163.438 58.3545 163.475 58.4503C163.534 58.5345 163.621 58.5944 163.721 58.6186C163.821 58.6428 163.926 58.6296 164.017 58.5815C164.107 58.5335 164.177 58.4539 164.213 58.3577C164.249 58.2616 164.249 58.1556 164.212 58.0598Z" fill="#F59C42"/>
<path d="M164.801 58.5315C164.743 58.4472 164.655 58.3873 164.555 58.3631C164.456 58.339 164.351 58.3521 164.26 58.4002C164.169 58.4483 164.099 58.5279 164.063 58.624C164.027 58.7202 164.028 58.8261 164.065 58.9219C164.123 59.0062 164.211 59.0661 164.31 59.0903C164.41 59.1145 164.515 59.1013 164.606 59.0532C164.697 59.0052 164.767 58.9255 164.803 58.8294C164.839 58.7333 164.838 58.6273 164.801 58.5315Z" fill="#F59C42"/>
<path d="M196.643 131.992C195.874 132.265 173.575 131.926 172.724 131.399C172.624 131.34 172.12 127.067 172.12 127.067L174.293 110.54L188.927 110.375L186.448 124.5C186.448 124.5 189.704 125.904 192.396 127.134C193.573 127.632 194.718 128.2 195.826 128.835C196.699 129.513 197.41 131.723 196.643 131.992Z" fill="#D3766A"/>
<path d="M196.643 131.992C195.877 132.265 173.571 131.926 172.727 131.403C172.624 131.34 172.12 127.067 172.12 127.067L172.797 121.973L186.846 122.279L186.455 124.489C186.455 124.489 189.711 125.892 192.404 127.123C193.582 127.62 194.728 128.188 195.837 128.824C196.699 129.517 197.41 131.727 196.643 131.992Z" fill="#EBEBEB"/>
<path d="M196.633 132.022C195.848 132.287 173.428 132.313 172.555 131.771C172.227 131.572 172.032 128.301 171.91 124.346V124.22L186.386 124.04V124.287C186.386 124.287 194.979 128.117 195.859 128.813C196.74 129.51 197.417 131.756 196.633 132.022Z" fill="#F59C42"/>
<path d="M196.372 131.149C192.589 131.06 177.321 131.064 173.575 131.263C173.546 131.263 173.546 131.285 173.575 131.289C177.325 131.458 192.589 131.333 196.372 131.211C196.456 131.219 196.456 131.152 196.372 131.149Z" fill="#263238"/>
<path d="M187.598 124.327C186.107 124.051 184.283 124.283 183.153 125.344C183.108 125.384 183.153 125.447 183.215 125.432C184.637 124.972 186.104 124.665 187.591 124.515C187.613 124.512 187.633 124.501 187.648 124.484C187.663 124.467 187.671 124.446 187.672 124.424C187.673 124.402 187.666 124.38 187.653 124.362C187.639 124.345 187.62 124.332 187.598 124.327Z" fill="#263238"/>
<path d="M188.669 124.975C187.196 124.699 185.354 124.927 184.227 125.992C184.183 126.032 184.227 126.095 184.29 126.08C185.711 125.617 187.178 125.309 188.666 125.163C188.688 125.159 188.707 125.148 188.722 125.131C188.736 125.114 188.744 125.093 188.745 125.071C188.745 125.049 188.738 125.027 188.724 125.01C188.71 124.992 188.691 124.98 188.669 124.975Z" fill="#263238"/>
<path d="M189.741 125.62C188.268 125.344 186.426 125.576 185.299 126.637C185.255 126.677 185.299 126.74 185.362 126.725C186.785 126.264 188.253 125.957 189.741 125.808C189.763 125.804 189.783 125.792 189.797 125.775C189.811 125.758 189.818 125.736 189.818 125.714C189.818 125.692 189.811 125.67 189.797 125.653C189.783 125.636 189.763 125.624 189.741 125.62Z" fill="#263238"/>
<path d="M187.554 122.784L171.91 122.868C171.91 122.868 176.629 99.0519 176.05 98.2932C175.424 97.4718 156.613 102.017 151.597 95.6411C148.179 91.2911 150.363 82.3037 150.363 82.3037L168.864 82.5431C168.864 82.5431 168.89 82.9778 168.905 85.1215C168.905 85.1215 177.133 84.138 183.557 84.9668C188.799 85.6408 191.476 89.862 191.458 92.6061C191.377 104.721 187.554 122.784 187.554 122.784Z" fill="#455A64"/>
<path d="M187.288 120.014C185.483 119.885 183.678 119.852 181.866 119.822C180.054 119.793 178.253 119.789 176.444 119.822C175.424 119.844 174.407 119.918 173.387 119.94C173.379 119.94 173.372 119.943 173.366 119.949C173.361 119.954 173.357 119.962 173.357 119.97C173.357 119.977 173.361 119.985 173.366 119.991C173.372 119.996 173.379 119.999 173.387 119.999C174.297 119.999 175.203 120.076 176.113 120.095C177.022 120.113 177.906 120.128 178.805 120.135C180.614 120.135 182.422 120.135 184.227 120.135C185.247 120.135 186.264 120.11 187.284 120.069C187.328 120.088 187.328 120.018 187.288 120.014Z" fill="#263238"/>
<path d="M162.643 83.8988C162.621 83.9652 162.593 84.0293 162.558 84.0903C162.554 84.0955 162.552 84.102 162.552 84.1087C162.552 84.1154 162.554 84.1219 162.558 84.1271C162.345 84.7165 162.245 85.35 162.043 85.9394C161.847 86.5732 161.439 87.1198 160.886 87.4864C159.729 88.223 158.359 88.5508 157.033 88.8345C156.989 88.8345 157.004 88.9045 157.033 88.9081C157.794 88.9353 158.555 88.8434 159.287 88.6356C159.974 88.4688 160.625 88.1807 161.21 87.7847C161.76 87.3969 162.16 86.8328 162.345 86.1861C162.438 85.842 162.512 85.4927 162.566 85.1401C162.655 84.7363 162.713 84.3262 162.739 83.9135C162.735 83.9049 162.728 83.8975 162.721 83.8919C162.713 83.8862 162.704 83.8825 162.695 83.8811C162.685 83.8796 162.676 83.8805 162.667 83.8836C162.658 83.8866 162.65 83.8919 162.643 83.8988Z" fill="#263238"/>
<path d="M174.488 118.555C175.678 112.717 178.753 97.0962 178.241 96.3116C177.998 96.1643 176.112 96.3448 173.928 96.551C168.083 97.1035 158.292 98.0244 154.521 95.3392C150.55 92.5104 151.979 83.8324 152.042 83.4641C152.042 83.383 152.215 83.2283 152.2 83.4641C152.2 83.5561 150.87 92.3667 154.69 95.0924C158.373 97.7186 168.094 96.7978 173.902 96.249C176.716 95.9838 178.083 95.8622 178.414 96.0685C179.309 96.6247 175.505 114.968 174.621 118.688C174.602 118.765 174.414 118.92 174.488 118.555Z" fill="#263238"/>
<path d="M169.52 74.9186L170.352 85.372C170.352 85.372 153.461 84.5248 149.291 83.9539C149.291 83.9539 154.481 67.1099 159.302 62.5131C161.715 60.2147 164.349 60.5683 165.932 62.3878C166.33 62.8483 170.249 68.5243 170.618 71.1284C170.711 71.8019 170.661 72.4874 170.472 73.1404C170.283 73.7934 169.959 74.3993 169.52 74.9186Z" fill="#EBEBEB"/>
<path d="M170.356 85.3719L169.52 74.9185C169.959 74.3992 170.284 73.7935 170.475 73.1406C170.665 72.4878 170.716 71.8023 170.625 71.1284C170.257 68.5205 166.338 62.8482 165.94 62.3878C165.792 62.2155 165.631 62.0553 165.457 61.9089L167.962 69.7729L161.21 61.2349C160.489 61.5128 159.838 61.9482 159.306 62.5093C154.481 67.1024 149.291 83.9501 149.291 83.9501C153.461 84.5247 170.356 85.3719 170.356 85.3719Z" fill="#F59C42"/>
<path d="M151.03 78.3921L169.907 79.7586L169.778 78.0901L151.568 76.7788C151.398 77.3387 151.177 77.8764 151.03 78.3921Z" fill="#EBEBEB"/>
<path d="M150.108 81.2393L170.142 82.6832L170.006 81.0146L150.628 79.6187C150.458 80.208 150.245 80.7568 150.108 81.2393Z" fill="#EBEBEB"/>
<path d="M162.252 61.5443C162.278 61.8868 163.508 64.2663 165.018 64.432C165.512 64.4873 165.924 61.8132 165.924 61.8132L166.002 61.6216L167.059 58.9549L164.142 56.3544L163.714 55.9861C163.714 55.9861 163.475 56.7228 163.184 57.6694L163.14 57.802C163.14 57.8572 163.106 57.9051 163.092 57.953C163.048 58.093 163 58.2366 162.959 58.3803C162.919 58.5239 162.893 58.5939 162.863 58.7081C162.834 58.8223 162.801 58.9365 162.768 59.0506C162.539 59.8691 162.367 60.7023 162.252 61.5443Z" fill="#D3766A"/>
<path d="M163.184 57.6878C163.34 58.5088 163.673 59.286 164.159 59.9653C164.646 60.6447 165.275 61.2099 166.002 61.6216L167.059 58.9549L164.142 56.3544L163.714 55.9861C163.714 55.9861 163.475 56.7522 163.184 57.6878Z" fill="#263238"/>
<path d="M172.006 55.2128C171.804 60.2443 168.769 60.6899 167.686 60.6457C166.699 60.6089 163.35 60.3437 163.03 55.3196C162.709 50.2955 165.111 48.7964 167.369 48.7706C169.627 48.7448 172.205 50.185 172.006 55.2128Z" fill="#D3766A"/>
<path d="M170.997 53.7172C170.881 53.705 170.767 53.6853 170.654 53.6582C170.53 53.6554 170.411 53.6113 170.315 53.533C170.29 53.5016 170.276 53.4627 170.276 53.4225C170.276 53.3823 170.29 53.3434 170.315 53.312C170.371 53.2562 170.441 53.2159 170.517 53.1952C170.593 53.1746 170.673 53.1742 170.75 53.1941C170.91 53.2117 171.058 53.2878 171.166 53.4078C171.189 53.4373 171.203 53.473 171.207 53.5105C171.21 53.548 171.202 53.5856 171.184 53.6186C171.166 53.6516 171.138 53.6785 171.105 53.6961C171.072 53.7136 171.034 53.7209 170.997 53.7172Z" fill="#263238"/>
<path d="M167.523 53.6619C167.641 53.6619 167.747 53.6288 167.865 53.6104C167.989 53.6078 168.109 53.5665 168.208 53.4925C168.232 53.4606 168.245 53.4218 168.245 53.382C168.245 53.3421 168.232 53.3034 168.208 53.2715C168.154 53.214 168.085 53.1719 168.01 53.1492C167.934 53.1266 167.854 53.1243 167.777 53.1426C167.615 53.1571 167.464 53.2305 167.353 53.3488C167.329 53.3783 167.313 53.4144 167.31 53.4525C167.306 53.4907 167.313 53.5291 167.332 53.5629C167.35 53.5966 167.378 53.6241 167.412 53.6417C167.446 53.6594 167.485 53.6664 167.523 53.6619Z" fill="#263238"/>
<path d="M168.219 54.9954C168.219 54.9954 168.194 54.9954 168.194 55.0248C168.194 55.3674 168.131 55.7615 167.825 55.861C168.197 55.8425 168.275 55.3195 168.219 54.9954Z" fill="#263238"/>
<path d="M167.929 54.6234C167.38 54.5644 167.295 55.6658 167.804 55.7284C168.312 55.791 168.378 54.6786 167.929 54.6234Z" fill="#263238"/>
<path d="M167.708 54.6674C167.605 54.7227 167.502 54.8258 167.384 54.8258C167.266 54.8258 167.159 54.708 167.078 54.5901H167.06C167.038 54.8 167.104 55.0247 167.329 55.0726C167.553 55.1205 167.697 54.94 167.763 54.7337C167.778 54.7043 167.748 54.6453 167.708 54.6674Z" fill="#263238"/>
<path d="M170.22 55.0654C170.22 55.0654 170.246 55.0654 170.242 55.0986C170.202 55.4374 170.216 55.8353 170.515 55.9752C170.124 55.9089 170.113 55.3822 170.22 55.0654Z" fill="#263238"/>
<path d="M170.54 54.7339C171.093 54.7339 171.041 55.8389 170.54 55.8389C170.039 55.8389 170.076 54.7302 170.54 54.7339Z" fill="#263238"/>
<path d="M170.764 54.8185C170.849 54.8811 170.934 54.9916 171.037 55.0027C171.14 55.0137 171.251 54.8996 171.335 54.7891C171.335 55.0027 171.254 55.22 171.048 55.2495C170.842 55.2789 170.731 55.0911 170.68 54.8811C170.698 54.8517 170.731 54.7927 170.764 54.8185Z" fill="#263238"/>
<path d="M169.634 56.5976C169.655 56.85 169.662 57.1033 169.656 57.3564C169.656 57.3785 169.597 57.3859 169.516 57.3859C169.306 57.4094 169.094 57.3751 168.903 57.2868C168.711 57.1985 168.547 57.0596 168.429 56.8849C168.429 56.8592 168.448 56.8371 168.47 56.8518C168.763 57.0831 169.124 57.2125 169.497 57.2201C169.516 57.1538 169.402 56.3398 169.438 56.3398C169.625 56.3681 169.807 56.4214 169.98 56.4982C169.932 55.4226 169.715 54.3618 169.682 53.29C169.682 53.2812 169.685 53.2728 169.691 53.2665C169.697 53.2603 169.706 53.2568 169.715 53.2568C169.723 53.2568 169.732 53.2603 169.738 53.2665C169.744 53.2728 169.748 53.2812 169.748 53.29C170.015 54.4187 170.171 55.571 170.212 56.7302C170.219 56.8592 169.729 56.6455 169.634 56.5976Z" fill="#263238"/>
<path d="M163.814 55.7393C163.814 55.7393 162.922 54.0413 162.164 54.3396C161.405 54.638 161.939 57.0027 162.731 57.4189C162.829 57.4785 162.938 57.5178 163.052 57.5343C163.165 57.5509 163.281 57.5443 163.392 57.5151C163.503 57.4859 163.607 57.4346 163.698 57.3642C163.789 57.2939 163.865 57.206 163.921 57.1058L163.814 55.7393Z" fill="#D3766A"/>
<path d="M162.333 55.0137C162.333 55.0137 162.315 55.0137 162.333 55.0358C162.584 55.2023 162.796 55.4195 162.957 55.6733C163.118 55.9271 163.225 56.2118 163.269 56.5091C163.242 56.4466 163.203 56.3905 163.153 56.3448C163.102 56.299 163.043 56.2646 162.978 56.244C162.913 56.2233 162.845 56.2169 162.778 56.2252C162.71 56.2334 162.645 56.2562 162.588 56.2918V56.3249C162.694 56.3041 162.805 56.3175 162.903 56.3631C163.002 56.4087 163.083 56.4843 163.136 56.5791C163.226 56.7362 163.298 56.903 163.35 57.0763C163.372 57.1316 163.472 57.1169 163.457 57.0543C163.567 56.3028 163.122 55.1905 162.333 55.0137Z" fill="#263238"/>
<path d="M163.254 55.1869C163.799 55.1869 165.338 53.824 165.6 51.2052C165.6 51.2052 165.202 53.5404 164.996 53.8719C164.79 54.2034 165.858 53.0984 166.101 50.9879C166.727 51.5205 167.427 51.9608 168.178 52.2954C169.151 52.6638 169.766 52.6969 169.843 52.6306C169.921 52.5643 168.488 51.9824 168.13 51.4888C168.13 51.4888 170.683 52.9621 171.898 53.1426C172.038 53.1647 172.451 50.2659 170.661 48.8736C168.871 47.4813 165.762 48.5642 164.893 49.2751C164.893 49.2751 163.935 49.3303 162.79 50.6453C161.644 51.9603 162.668 55.1721 163.254 55.1869Z" fill="#263238"/>
<path d="M172.43 52.0634C172.43 52.0634 171.851 46.3947 166.79 46.8698C161.73 47.345 162.216 53.0174 162.216 53.0174L172.43 52.0634Z" fill="#F59C42"/>
<path d="M161.876 53.4435L172.842 52.4243L172.767 51.6211L161.801 52.6403L161.876 53.4435Z" fill="#F59C42"/>
<path d="M167.361 52.1297L169.644 51.9161L168.591 46.4058L166.307 46.6194L167.361 52.1297Z" fill="#F59C42"/>
<path opacity="0.1" d="M167.361 52.1297L169.644 51.9161L168.591 46.4058L166.307 46.6194L167.361 52.1297Z" fill="black"/>
<path d="M159.464 66.9037C160.329 72.7455 163.659 82.3738 165.317 83.2652C168.414 84.9669 177.755 86.0314 180.941 85.9467C182.315 85.9098 183.277 77.3829 182.488 76.1416C182.024 75.4049 169.832 75.8027 169.574 75.5927C169.177 75.2723 165.383 68.6754 163.033 65.784C159.559 61.5223 158.985 63.6513 159.464 66.9037Z" fill="#D3766A"/>
<path d="M180.731 75.9684C180.731 75.9684 185.037 75.6479 187.693 75.6001C189.166 75.5743 191.719 75.7548 192.816 76.2299C194.459 76.9445 200.872 80.9851 199.925 82.5616C199.067 83.987 194.002 79.8175 194.002 79.8175C194.002 79.8175 199.487 83.5708 198.139 85.0994C196.791 86.628 191.693 81.1546 191.693 81.1546C191.693 81.1546 197.244 85.1399 195.605 86.4954C194.367 87.5194 189.472 82.8121 189.472 82.8121C189.472 82.8121 194.216 86.2707 192.99 87.3794C191.634 88.606 186.838 84.5543 186.838 84.5543C183.247 86.8453 180.595 86.4659 178.735 85.9724C178.297 85.8619 180.731 75.9684 180.731 75.9684Z" fill="#D3766A"/>
<path d="M192.187 78.3921C192.846 78.812 193.52 79.2282 194.139 79.7034C194.758 80.1785 195.366 80.6758 195.94 81.2062C196.703 81.8864 197.387 82.6514 197.977 83.4862C196.821 82.0791 194.625 80.3443 194.003 79.8691C193.38 79.394 192.787 78.893 192.161 78.4179L192.187 78.3921Z" fill="#263238"/>
<path d="M190.431 80.6058C191.252 81.173 192.088 81.7108 192.884 82.3149C193.679 82.9189 194.357 83.5598 195.12 84.2192C195.175 84.267 195.12 84.2818 195.072 84.2192C194.298 83.593 193.536 83.0736 192.755 82.4585C191.974 81.8434 191.215 81.1951 190.416 80.6168C190.405 80.6131 190.42 80.5947 190.431 80.6058Z" fill="#263238"/>
<path d="M188.585 82.23C189.863 83.0745 191.05 84.0484 192.128 85.1361C192.183 85.1877 192.128 85.1988 192.062 85.1361C190.902 84.1453 189.999 83.3645 188.555 82.2594C188.533 82.2594 188.555 82.23 188.585 82.23Z" fill="#263238"/>
<path d="M166.904 70.4949L160.395 74.2741C160.395 74.2741 158.708 68.4175 159.014 65.0657C159.32 61.7138 160.856 62.3326 162.443 64.2111C164.031 66.0897 166.904 70.4949 166.904 70.4949Z" fill="#EBEBEB"/>
<path d="M165.774 69.7067C165.814 69.6809 165.848 69.7067 165.807 69.7325C164.05 70.8939 162.222 71.9445 160.334 72.8781C160.334 72.8781 160.311 72.8781 160.334 72.856C161.151 72.2188 165.31 69.9793 165.774 69.7067Z" fill="#263238"/>
<path d="M163.655 65.7101C164.79 67.2793 165.935 68.9662 166.996 70.5317C167.015 70.5611 166.709 70.6753 166.591 70.7306C166.543 70.7527 166.536 70.6974 166.591 70.6716C166.672 70.6256 166.749 70.5713 166.819 70.5096C165.744 68.9257 164.676 67.3382 163.652 65.7212C163.63 65.7101 163.648 65.6991 163.655 65.7101Z" fill="#263238"/>
<path d="M313.874 109.391H251.283V135.797H313.874V109.391Z" fill="#F59C42"/>
<path opacity="0.1" d="M313.874 109.391H251.283V135.797H313.874V109.391Z" fill="#263238"/>
<path opacity="0.2" d="M313.872 109.391H286.154V135.797H313.872V109.391Z" fill="black"/>
<path d="M312.509 133.978C310.37 132.099 308.249 130.216 306.147 128.327L299.886 122.648L293.698 116.942C291.645 115.039 289.614 113.128 287.605 111.211C289.744 113.084 291.87 114.965 293.981 116.854L300.243 122.533L306.431 128.235C308.474 130.143 310.5 132.057 312.509 133.978Z" fill="#F59C42"/>
<path d="M312.508 111.211C310.496 113.126 308.466 115.036 306.415 116.942L300.242 122.648L293.98 128.327C291.881 130.216 289.76 132.099 287.619 133.978C289.63 132.057 291.661 130.146 293.711 128.243L299.874 122.541L306.135 116.854C308.242 114.97 310.366 113.089 312.508 111.211Z" fill="#F59C42"/>
<path opacity="0.7" d="M266.034 113.391H266.528L266.926 113.06L267.294 113.391H267.519H267.758H268.101L268.229 113.273L268.395 113.391H268.808H268.911H269.047L269.106 113.307L269.228 113.391L269.404 113.244L269.6 113.391H269.88V109.391H266.034V113.391Z" fill="white"/>
<path d="M256.695 134.073H256.879V131.462H256.695V134.073Z" fill="white"/>
<path d="M256.249 134.073H256.434V131.462H256.249V134.073Z" fill="white"/>
<path d="M255.803 134.073H255.987V131.462H255.803V134.073Z" fill="white"/>
<path d="M255.357 134.073H255.542V131.462H255.357V134.073Z" fill="white"/>
<path d="M254.915 134.073H255.1V131.462H254.915V134.073Z" fill="white"/>
<path d="M254.472 134.073H254.656V131.462H254.472V134.073Z" fill="white"/>
<path d="M254.026 134.073H254.21V131.462H254.026V134.073Z" fill="white"/>
<path d="M253.585 134.073H253.77V131.462H253.585V134.073Z" fill="white"/>
<path d="M253.139 134.073H253.323V131.462H253.139V134.073Z" fill="white"/>
<path d="M258.695 133.874L257.98 134.069H259.653L258.942 133.871V132.913C259.45 132.843 259.653 132.342 259.653 131.462H257.98C257.98 132.338 258.183 132.843 258.695 132.913V133.874Z" fill="white"/>
<path d="M260.043 132.791H260.478V134.069H261.597V132.791H262.036L261.037 131.462L260.043 132.791Z" fill="white"/>
<path opacity="0.1" d="M251.283 135.797V134.788L286.153 132.489V135.793L251.283 135.797Z" fill="black"/>
<path d="M289.289 82.9851H252.098V109.391H289.289V82.9851Z" fill="#F59C42"/>
<path opacity="0.1" d="M289.289 82.9851H252.098V109.391H289.289V82.9851Z" fill="#263238"/>
<path opacity="0.2" d="M289.284 82.9851H276.621V109.391H289.284V82.9851Z" fill="black"/>
<path d="M288.412 107.572C287.476 105.693 286.547 103.81 285.623 101.921L282.876 96.2269L280.165 90.5213C279.266 88.6158 278.376 86.7054 277.494 84.79C278.432 86.6636 279.362 88.5471 280.282 90.4403L283.03 96.12L285.741 101.826C286.64 103.741 287.53 105.656 288.412 107.572Z" fill="#F59C42"/>
<path d="M288.412 84.8083C287.533 86.7237 286.642 88.6341 285.741 90.5396L283.03 96.2267L280.282 101.906C279.362 103.795 278.432 105.678 277.494 107.557C278.376 105.641 279.266 103.73 280.165 101.822L282.876 96.1199L285.623 90.4402C286.544 88.5617 287.474 86.6844 288.412 84.8083Z" fill="#F59C42"/>
<path opacity="0.7" d="M261.876 88.3996H262.37L262.767 87.9466L263.136 88.3996H263.364H263.6H263.942L264.071 88.2376L264.237 88.3996H264.653H264.753H264.889L264.948 88.2855L265.073 88.3996L265.246 88.1971L265.441 88.3996H265.721V82.9851H261.876V88.3996Z" fill="white"/>
<path d="M257.505 107.667H257.689V105.056H257.505V107.667Z" fill="white"/>
<path d="M257.061 107.667H257.246V105.056H257.061V107.667Z" fill="white"/>
<path d="M256.616 107.667H256.8V105.056H256.616V107.667Z" fill="white"/>
<path d="M256.17 107.667H256.354V105.056H256.17V107.667Z" fill="white"/>
<path d="M255.728 107.667H255.913V105.056H255.728V107.667Z" fill="white"/>
<path d="M255.283 107.667H255.467V105.056H255.283V107.667Z" fill="white"/>
<path d="M254.841 107.667H255.025V105.056H254.841V107.667Z" fill="white"/>
<path d="M254.396 107.667H254.58V105.056H254.396V107.667Z" fill="white"/>
<path d="M253.955 107.667H254.139V105.056H253.955V107.667Z" fill="white"/>
<path d="M259.506 107.468L258.795 107.663H260.463L259.749 107.465V106.507C260.261 106.437 260.463 105.936 260.463 105.056H258.791C258.791 105.932 258.994 106.437 259.502 106.507L259.506 107.468Z" fill="white"/>
<path d="M260.854 106.389H261.292V107.667H262.408V106.389H262.846L261.848 105.056L260.854 106.389Z" fill="white"/>
<path opacity="0.1" d="M252.098 109.391V108.382L276.622 106.083V109.387L252.098 109.391Z" fill="black"/>
<path d="M315.728 82.9851H278.537V109.391H315.728V82.9851Z" fill="#F59C42"/>
<path opacity="0.1" d="M315.728 82.9851H278.537V109.391H315.728V82.9851Z" fill="#263238"/>
<path opacity="0.2" d="M315.724 82.9851H303.061V109.391H315.724V82.9851Z" fill="black"/>
<path d="M314.85 107.571C313.915 105.693 312.986 103.81 312.065 101.921L309.318 96.2267L306.603 90.5212C305.704 88.628 304.812 86.7237 303.925 84.8083C304.866 86.6819 305.795 88.5654 306.714 90.4586L309.461 96.1383L312.172 101.844C313.076 103.747 313.969 105.656 314.85 107.571Z" fill="#F59C42"/>
<path d="M314.849 84.8083C313.97 86.7237 313.08 88.6341 312.179 90.5396L309.468 96.2267L306.72 101.906C305.799 103.795 304.87 105.678 303.932 107.557C304.816 105.641 305.706 103.73 306.602 101.822L309.317 96.1199L312.064 90.4402C312.983 88.5617 313.911 86.6844 314.849 84.8083Z" fill="#F59C42"/>
<path opacity="0.7" d="M288.315 88.3996H288.809L289.207 87.9466L289.579 88.3996H289.803H290.043H290.382L290.514 88.2376L290.68 88.3996H291.093H291.192H291.332L291.391 88.2855L291.513 88.3996L291.686 88.1971L291.885 88.3996H292.161V82.9851H288.315V88.3996Z" fill="white"/>
<path d="M283.943 107.667H284.127V105.056H283.943V107.667Z" fill="white"/>
<path d="M283.501 107.667H283.686V105.056H283.501V107.667Z" fill="white"/>
<path d="M283.055 107.667H283.239V105.056H283.055V107.667Z" fill="white"/>
<path d="M282.614 107.667H282.798V105.056H282.614V107.667Z" fill="white"/>
<path d="M282.168 107.667H282.353V105.056H282.168V107.667Z" fill="white"/>
<path d="M281.727 107.667H281.911V105.056H281.727V107.667Z" fill="white"/>
<path d="M281.277 107.667H281.461V105.056H281.277V107.667Z" fill="white"/>
<path d="M280.835 107.667H281.02V105.056H280.835V107.667Z" fill="white"/>
<path d="M280.392 107.667H280.576V105.056H280.392V107.667Z" fill="white"/>
<path d="M285.943 107.468L285.232 107.663H286.905L286.19 107.465V106.507C286.702 106.437 286.905 105.936 286.905 105.056H285.232C285.232 105.932 285.435 106.437 285.943 106.507V107.468Z" fill="white"/>
<path d="M287.295 106.389H287.73V107.667H288.846V106.389H289.284L288.289 105.056L287.295 106.389Z" fill="white"/>
<path opacity="0.1" d="M278.537 109.391V108.382L303.061 106.083V109.387L278.537 109.391Z" fill="black"/>
<path d="M302.466 56.5791H257.503V82.9851H302.466V56.5791Z" fill="#F59C42"/>
<path opacity="0.1" d="M302.466 56.5791H257.503V82.9851H302.466V56.5791Z" fill="#263238"/>
<path opacity="0.2" d="M302.467 56.5791H289.803V82.9851H302.467V56.5791Z" fill="black"/>
<path d="M301.595 81.1655C300.657 79.287 299.728 77.4036 298.807 75.5152L296.059 69.8355L293.348 64.13C292.447 62.2245 291.557 60.314 290.678 58.3987C291.613 60.2772 292.542 62.1606 293.462 64.0489L296.21 69.7287L298.925 75.4342C299.823 77.3397 300.714 79.2502 301.595 81.1655Z" fill="#F59C42"/>
<path d="M301.595 58.3987C300.711 60.314 299.821 62.2245 298.925 64.13L296.21 69.8355L293.462 75.5152C292.544 77.4036 291.616 79.287 290.678 81.1655C291.559 79.2502 292.449 77.3397 293.348 75.4342L296.059 69.7287L298.807 64.0489C299.728 62.1606 300.657 60.2772 301.595 58.3987Z" fill="#F59C42"/>
<path opacity="0.7" d="M271.729 61.9936H272.226L272.624 61.5443L272.992 61.9936H273.217H273.456H273.795L273.927 61.8316L274.093 61.9936H274.506H274.609H274.745L274.804 61.8794L274.926 61.9936L275.102 61.791L275.298 61.9936H275.574V56.5791H271.729V61.9936Z" fill="white"/>
<path d="M262.911 81.2612H263.095V78.6497H262.911V81.2612Z" fill="white"/>
<path d="M262.47 81.2612H262.654V78.6497H262.47V81.2612Z" fill="white"/>
<path d="M262.024 81.2612H262.208V78.6497H262.024V81.2612Z" fill="white"/>
<path d="M261.582 81.2612H261.767V78.6497H261.582V81.2612Z" fill="white"/>
<path d="M261.132 81.2612H261.316V78.6497H261.132V81.2612Z" fill="white"/>
<path d="M260.691 81.2612H260.875V78.6497H260.691V81.2612Z" fill="white"/>
<path d="M260.247 81.2612H260.432V78.6497H260.247V81.2612Z" fill="white"/>
<path d="M259.802 81.2612H259.986V78.6497H259.802V81.2612Z" fill="white"/>
<path d="M259.36 81.2612H259.544V78.6497H259.36V81.2612Z" fill="white"/>
<path d="M264.912 81.0625L264.201 81.2614H265.873L265.159 81.0588V80.1011C265.671 80.0348 265.873 79.5302 265.873 78.6499H264.201C264.201 79.5265 264.404 80.0348 264.912 80.1011V81.0625Z" fill="white"/>
<path d="M266.259 79.9833H266.697V81.2614H267.813V79.9833H268.251L267.257 78.6499L266.259 79.9833Z" fill="white"/>
<path opacity="0.1" d="M257.503 82.9851V81.9796L289.803 79.6775V82.9815L257.503 82.9851Z" fill="black"/>
<path d="M259.135 136.99H254.174V141.399H259.135V136.99Z" fill="#F59C42"/>
<path opacity="0.3" d="M259.135 136.99H254.174V141.399H259.135V136.99Z" fill="black"/>
<path opacity="0.3" d="M259.132 137.963L254.174 138.563V136.99H259.132V137.963Z" fill="black"/>
<path d="M285.07 136.99H280.108V141.399H285.07V136.99Z" fill="#F59C42"/>
<path opacity="0.3" d="M285.07 136.99H280.108V141.399H285.07V136.99Z" fill="black"/>
<path opacity="0.3" d="M285.07 137.963L280.108 138.563V136.99H285.07V137.963Z" fill="black"/>
<path d="M311.009 136.99H306.047V141.399H311.009V136.99Z" fill="#F59C42"/>
<path opacity="0.3" d="M311.009 136.99H306.047V141.399H311.009V136.99Z" fill="black"/>
<path opacity="0.3" d="M311.009 137.963L306.047 138.563V136.99H311.009V137.963Z" fill="black"/>
<path d="M313.743 135.797H251.442V136.991H313.743V135.797Z" fill="#F59C42"/>
<path opacity="0.3" d="M313.743 135.797H251.442V136.991H313.743V135.797Z" fill="black"/>
<path d="M313.743 141.399H251.442V142.593H313.743V141.399Z" fill="#F59C42"/>
<path opacity="0.3" d="M313.743 141.399H251.442V142.593H313.743V141.399Z" fill="black"/>
</svg>
