<svg xmlns="http://www.w3.org/2000/svg" width="20" height="20" fill="none" xmlns:v="https://vecta.io/nano"><path d="M14.2 19H4.931c-.606 0-.909 0-1.049-.12a.5.5 0 0 1-.174-.419c.014-.184.229-.398.657-.826l8.503-8.503c.396-.396.594-.594.822-.668a1 1 0 0 1 .618 0c.228.074.426.272.822.668L19 13v1.2M14.2 19c1.68 0 2.52 0 3.162-.327a3 3 0 0 0 1.311-1.311C19 16.72 19 15.88 19 14.2M14.2 19H5.8c-1.68 0-2.52 0-3.162-.327a3 3 0 0 1-1.311-1.311C1 16.72 1 15.88 1 14.2V5.8c0-1.68 0-2.52.327-3.162a3 3 0 0 1 1.311-1.311C3.28 1 4.12 1 5.8 1h8.4c1.68 0 2.52 0 3.162.327a3 3 0 0 1 1.311 1.311C19 3.28 19 4.12 19 5.8v8.4M8.5 6.5a2 2 0 1 1-4 0 2 2 0 1 1 4 0z" stroke="#475467" stroke-width="2" stroke-linecap="round" stroke-linejoin="round"/></svg>