<svg width="56" height="17" viewBox="0 0 56 17" fill="none" xmlns="http://www.w3.org/2000/svg">
<path d="M2.16469 6.68773C1.95435 6.69407 4.84551 7.19218 5.08745 7.2209C6.31835 7.29842 7.13346 7.31296 8.75309 7.29665C11.2091 7.7806 12.6406 8.04977 15.3287 8.52581C16.068 8.741 16.3693 8.87234 16.8899 9.03084C17.4105 9.18934 18.8749 9.30824 18.8749 9.30824C19.7893 9.46467 20.313 9.55859 21.3794 9.80322C23.7694 10.7822 23.3844 10.6453 23.4563 10.703C24.3475 11.0351 24.89 11.1863 25.8505 11.4617C27.1874 11.8446 27.7199 12.0831 28.5528 12.5221C29.071 12.8356 29.3968 13.068 29.999 13.5271L33.337 14.2461L34.5828 14.8037L36.06 14.3024C36.4491 13.7268 36.8085 13.5792 37.3467 12.8811C37.885 12.1831 37.894 12.001 38.4215 11.5737L39.2783 10.6754L40.1516 8.9797C40.4673 8.18056 40.6676 7.75431 41.0303 7.01816C41.1799 6.67611 41.2847 6.50826 41.5686 6.32014C42.4518 6.10092 42.9011 6.04173 43.6712 5.97947L47.1354 5.66694C49.0477 5.226 49.756 4.9601 50.7225 4.47052L53.375 2.87066C54.0889 2.34419 54.4022 2.17716 54.9674 1.86939" stroke="#3A54B4" stroke-width="3"/>
</svg>
