<svg width="24" height="24" viewBox="0 0 24 24" fill="none" xmlns="http://www.w3.org/2000/svg">
<path d="M22 11.752C22.0003 12.1134 21.9293 12.4713 21.7911 12.8052C21.653 13.1392 21.4504 13.4426 21.1949 13.6982C20.9394 13.9538 20.636 14.1565 20.3021 14.2948C19.9683 14.433 19.6104 14.5041 19.249 14.504H4.749C4.3876 14.5039 4.02976 14.4327 3.69589 14.2943C3.36203 14.156 3.05869 13.9532 2.80319 13.6976C2.54769 13.442 2.34503 13.1386 2.20679 12.8047C2.06855 12.4708 1.99743 12.1129 1.9975 11.7515C1.99757 11.3901 2.06881 11.0323 2.20717 10.6984C2.34554 10.3645 2.5483 10.0612 2.8039 9.80569C3.05949 9.55019 3.3629 9.34753 3.69682 9.20929C4.03073 9.07105 4.3886 8.99994 4.75 9H19.25C19.6113 9 19.9691 9.0712 20.3028 9.20952C20.6366 9.34785 20.9399 9.55059 21.1953 9.80616C21.4506 10.0617 21.6532 10.3651 21.7912 10.699C21.9293 11.0329 22.0003 11.3907 22 11.752ZM17 18.752C17.0003 19.1134 16.9293 19.4713 16.7911 19.8052C16.653 20.1392 16.4504 20.4426 16.1949 20.6982C15.9394 20.9538 15.636 21.1565 15.3021 21.2948C14.9683 21.433 14.6104 21.5041 14.249 21.504H4.749C4.01912 21.504 3.31914 21.2141 2.80304 20.698C2.28694 20.1819 1.997 19.4819 1.997 18.752C1.997 18.0221 2.28694 17.3221 2.80304 16.806C3.31914 16.2899 4.01912 16 4.749 16H14.249C14.6104 15.9999 14.9683 16.071 15.3021 16.2092C15.636 16.3475 15.9394 16.5502 16.1949 16.8058C16.4504 17.0614 16.653 17.3648 16.7911 17.6988C16.9293 18.0327 17.0003 18.3906 17 18.752ZM12 4.752C12.0003 5.11347 11.9293 5.47145 11.7911 5.80546C11.6528 6.13946 11.4501 6.44295 11.1945 6.69855C10.9389 6.95414 10.6355 7.15685 10.3015 7.29505C9.96745 7.43326 9.60947 7.50426 9.248 7.504H4.75C4.02012 7.504 3.32014 7.21406 2.80404 6.69796C2.28794 6.18186 1.998 5.48188 1.998 4.752C1.998 4.02212 2.28794 3.32214 2.80404 2.80604C3.32014 2.28994 4.02012 2 4.75 2H9.248C9.60947 1.99974 9.96745 2.07074 10.3015 2.20895C10.6355 2.34716 10.9389 2.54986 11.1945 2.80546C11.4501 3.06106 11.6528 3.36454 11.7911 3.69854C11.9293 4.03255 12.0003 4.39053 12 4.752Z" fill="#344054"/>
</svg>
