<svg width="41" height="40" viewBox="0 0 41 40" fill="none" xmlns="http://www.w3.org/2000/svg">
<rect x="0.333374" width="40" height="40" rx="8" fill="#F2F4F7"/>
<path d="M27.3334 18V12M24.3334 15H30.3334M24.3334 29V27.8C24.3334 26.1198 24.3334 25.2798 24.0064 24.638C23.7188 24.0735 23.2598 23.6146 22.6953 23.327C22.0536 23 21.2135 23 19.5334 23H15.1334C13.4532 23 12.6131 23 11.9714 23.327C11.4069 23.6146 10.948 24.0735 10.6604 24.638C10.3334 25.2798 10.3334 26.1198 10.3334 27.8V29M20.8334 15.5C20.8334 17.433 19.2664 19 17.3334 19C15.4004 19 13.8334 17.433 13.8334 15.5C13.8334 13.567 15.4004 12 17.3334 12C19.2664 12 20.8334 13.567 20.8334 15.5Z" stroke="#101828" stroke-width="2" stroke-linecap="round" stroke-linejoin="round"/>
</svg>
