<svg width="41" height="40" viewBox="0 0 41 40" fill="none" xmlns="http://www.w3.org/2000/svg">
<rect x="0.333374" width="40" height="40" rx="8" fill="#F2F4F7"/>
<path d="M24.3334 11.4678C25.8151 12.2041 26.8334 13.7331 26.8334 15.5C26.8334 17.2669 25.8151 18.7959 24.3334 19.5322M26.3334 24.7664C27.8448 25.4503 29.2059 26.565 30.3334 28M10.3334 28C12.2799 25.5226 14.9226 24 17.8334 24C20.7442 24 23.3869 25.5226 25.3334 28M22.3334 15.5C22.3334 17.9853 20.3187 20 17.8334 20C15.3481 20 13.3334 17.9853 13.3334 15.5C13.3334 13.0147 15.3481 11 17.8334 11C20.3187 11 22.3334 13.0147 22.3334 15.5Z" stroke="#101828" stroke-width="2" stroke-linecap="round" stroke-linejoin="round"/>
</svg>
