<svg width="41" height="40" viewBox="0 0 41 40" fill="none" xmlns="http://www.w3.org/2000/svg">
<rect x="0.333374" width="40" height="40" rx="8" fill="#F2F4F7"/>
<path d="M16.8334 22.6667C16.8334 23.9553 17.878 25 19.1667 25H21.3334C22.7141 25 23.8334 23.8807 23.8334 22.5C23.8334 21.1193 22.7141 20 21.3334 20H19.3334C17.9527 20 16.8334 18.8807 16.8334 17.5C16.8334 16.1193 17.9527 15 19.3334 15H21.5C22.7887 15 23.8334 16.0447 23.8334 17.3333M20.3334 13.5V15M20.3334 25V26.5M30.3334 20C30.3334 25.5228 25.8562 30 20.3334 30C14.8105 30 10.3334 25.5228 10.3334 20C10.3334 14.4772 14.8105 10 20.3334 10C25.8562 10 30.3334 14.4772 30.3334 20Z" stroke="#101828" stroke-width="2" stroke-linecap="round" stroke-linejoin="round"/>
</svg>
