<svg width="25" height="25" viewBox="0 0 25 25" fill="none" xmlns="http://www.w3.org/2000/svg">
<g clip-path="url(#clip0_2028_416)">
<path d="M0.833984 0.5V7.7C0.833984 8.54869 1.18517 9.36263 1.8103 9.96274C2.43542 10.5629 3.28326 10.9 4.16732 10.9C5.05137 10.9 5.89922 10.5629 6.52434 9.96274C7.14946 9.36263 7.50065 8.54869 7.50065 7.7V2.9C7.50065 2.47565 7.32506 2.06869 7.0125 1.76863C6.69993 1.46857 6.27601 1.3 5.83398 1.3C5.39196 1.3 4.96803 1.46857 4.65547 1.76863C4.34291 2.06869 4.16732 2.47565 4.16732 2.9V8.5M10.0007 1.3H20.834C21.276 1.3 21.6999 1.46857 22.0125 1.76863C22.3251 2.06869 22.5007 2.47565 22.5007 2.9V22.1C22.5007 22.5243 22.3251 22.9313 22.0125 23.2314C21.6999 23.5314 21.276 23.7 20.834 23.7H4.16732C3.72529 23.7 3.30137 23.5314 2.98881 23.2314C2.67625 22.9313 2.50065 22.5243 2.50065 22.1V13.3M18.334 7.7H11.6673M18.334 12.5H11.6673M18.334 17.3H6.66732" stroke="black"/>
</g>
<defs>
<clipPath id="clip0_2028_416">
<rect width="25" height="24" fill="white" transform="translate(0 0.5)"/>
</clipPath>
</defs>
</svg>
