<svg width="24" height="24" viewBox="0 0 24 24" fill="none" xmlns="http://www.w3.org/2000/svg">
<path d="M5.04348 10.9565C4.46719 10.9565 4 11.4237 4 12C4 12.5763 4.46719 13.0435 5.04348 13.0435V10.9565ZM12 13.0435C12.5763 13.0435 13.0435 12.5763 13.0435 12C13.0435 11.4237 12.5763 10.9565 12 10.9565V13.0435ZM12 10.9565C11.4237 10.9565 10.9565 11.4237 10.9565 12C10.9565 12.5763 11.4237 13.0435 12 13.0435V10.9565ZM18.9565 13.0435C19.5328 13.0435 20 12.5763 20 12C20 11.4237 19.5328 10.9565 18.9565 10.9565V13.0435ZM13.0435 12C13.0435 11.4237 12.5763 10.9565 12 10.9565C11.4237 10.9565 10.9565 11.4237 10.9565 12H13.0435ZM10.9565 18.9565C10.9565 19.5328 11.4237 20 12 20C12.5763 20 13.0435 19.5328 13.0435 18.9565H10.9565ZM10.9565 12C10.9565 12.5763 11.4237 13.0435 12 13.0435C12.5763 13.0435 13.0435 12.5763 13.0435 12H10.9565ZM13.0435 5.04348C13.0435 4.46719 12.5763 4 12 4C11.4237 4 10.9565 4.46719 10.9565 5.04348H13.0435ZM5.04348 13.0435H12V10.9565H5.04348V13.0435ZM12 13.0435H18.9565V10.9565H12V13.0435ZM12 12H10.9565V12.0014C10.9565 12.0015 10.9565 12.0031 10.9565 12.0031C10.9565 12.0029 10.9565 12.0032 10.9565 12.0031C10.9565 12.0031 10.9565 12.0046 10.9565 12.0047C10.9565 12.0046 10.9565 12.0049 10.9565 12.0047C10.9565 12.0049 10.9565 12.006 10.9565 12.0061C10.9565 12.0063 10.9565 12.0075 10.9565 12.0077C10.9565 12.0078 10.9565 12.0089 10.9565 12.009C10.9565 12.0092 10.9565 12.0104 10.9565 12.0107C10.9565 12.0109 10.9565 12.0121 10.9565 12.0124C10.9565 12.0125 10.9565 12.0141 10.9565 12.0142C10.9565 12.0139 10.9565 12.0145 10.9565 12.0142C10.9565 12.0145 10.9565 12.0153 10.9565 12.0156C10.9565 12.0153 10.9565 12.0159 10.9565 12.0156C10.9565 12.0159 10.9565 12.0168 10.9565 12.017C10.9565 12.0167 10.9565 12.0173 10.9565 12.017C10.9565 12.0173 10.9565 12.0182 10.9565 12.0185C10.9565 12.0182 10.9565 12.0188 10.9565 12.0185C10.9565 12.0188 10.9565 12.0199 10.9565 12.0202C10.9565 12.0199 10.9565 12.0205 10.9565 12.0202C10.9565 12.0205 10.9565 12.0216 10.9565 12.0218C10.9565 12.0214 10.9565 12.0221 10.9565 12.0218C10.9565 12.0221 10.9565 12.0234 10.9565 12.0237C10.9565 12.0234 10.9565 12.0239 10.9565 12.0237C10.9565 12.0239 10.9565 12.0252 10.9565 12.0256C10.9565 12.0252 10.9565 12.0259 10.9565 12.0256C10.9565 12.0259 10.9565 12.0273 10.9565 12.0275C10.9565 12.0273 10.9565 12.0278 10.9565 12.0275C10.9565 12.028 10.9565 12.0292 10.9565 12.0296C10.9565 12.0292 10.9565 12.0301 10.9565 12.0296C10.9565 12.0299 10.9565 12.0314 10.9565 12.0319C10.9565 12.0314 10.9565 12.0321 10.9565 12.0319C10.9565 12.0323 10.9565 12.0337 10.9565 12.0341C10.9565 12.0337 10.9565 12.0345 10.9565 12.0341C10.9565 12.0345 10.9565 12.0362 10.9565 12.0366C10.9565 12.0362 10.9565 12.037 10.9565 12.0366C10.9565 12.037 10.9565 12.0387 10.9565 12.0391C10.9565 12.0387 10.9565 12.0395 10.9565 12.0391C10.9565 12.0395 10.9565 12.0412 10.9565 12.0417C10.9565 12.0413 10.9565 12.0422 10.9565 12.0417C10.9565 12.0423 10.9565 12.044 10.9565 12.0444C10.9565 12.0449 10.9565 12.0454 10.9565 12.0459C10.9565 12.0463 10.9565 12.0467 10.9565 12.0473C10.9565 12.0479 10.9565 12.0483 10.9565 12.0488C10.9565 12.0493 10.9565 12.0498 10.9565 12.0502C10.9565 12.0508 10.9565 12.0513 10.9565 12.0519C10.9565 12.0523 10.9565 12.0529 10.9565 12.0534C10.9565 12.054 10.9565 12.0544 10.9565 12.055C10.9565 12.0555 10.9565 12.0561 10.9565 12.0566C10.9565 12.0572 10.9565 12.0577 10.9565 12.0583C10.9565 12.0589 10.9565 12.0594 10.9565 12.06C10.9565 12.0605 10.9565 12.0612 10.9565 12.0618C10.9565 12.0623 10.9565 12.0629 10.9565 12.0634C10.9565 12.0641 10.9565 12.0647 10.9565 12.0653C10.9565 12.0659 10.9565 12.0665 10.9565 12.0671C10.9565 12.0678 10.9565 12.0683 10.9565 12.069C10.9565 12.0696 10.9565 12.0703 10.9565 12.0708C10.9565 12.0715 10.9565 12.0722 10.9565 12.0728C10.9565 12.0735 10.9565 12.0742 10.9565 12.0749C10.9565 12.0754 10.9565 12.0761 10.9565 12.0768C10.9565 12.0775 10.9565 12.0782 10.9565 12.0789C10.9565 12.0794 10.9565 12.0801 10.9565 12.0808C10.9565 12.0815 10.9565 12.0824 10.9565 12.0831C10.9565 12.0838 10.9565 12.0845 10.9565 12.0851C10.9565 12.0858 10.9565 12.0865 10.9565 12.0874C10.9565 12.0881 10.9565 12.0888 10.9565 12.0896C10.9565 12.0903 10.9565 12.0911 10.9565 12.0918C10.9565 12.0925 10.9565 12.0934 10.9565 12.0941C10.9565 12.0949 10.9565 12.0957 10.9565 12.0964C10.9565 12.0973 10.9565 12.0981 10.9565 12.0988C10.9565 12.0996 10.9565 12.1005 10.9565 12.1013C10.9565 12.102 10.9565 12.1028 10.9565 12.1037C10.9565 12.1045 10.9565 12.1053 10.9565 12.1062C10.9565 12.107 10.9565 12.1078 10.9565 12.1087C10.9565 12.1095 10.9565 12.1105 10.9565 12.1113C10.9565 12.1121 10.9565 12.113 10.9565 12.1138C10.9565 12.1148 10.9565 12.1156 10.9565 12.1165C10.9565 12.1174 10.9565 12.1183 10.9565 12.1192C10.9565 12.1201 10.9565 12.121 10.9565 12.1219C10.9565 12.1229 10.9565 12.1238 10.9565 12.1247C10.9565 12.1256 10.9565 12.1266 10.9565 12.1276C10.9565 12.1284 10.9565 12.1294 10.9565 12.1304C10.9565 12.1313 10.9565 12.1323 10.9565 12.1333C10.9565 12.1343 10.9565 12.1352 10.9565 12.1362C10.9565 12.1372 10.9565 12.1382 10.9565 12.1391C10.9565 12.1402 10.9565 12.1412 10.9565 12.1422C10.9565 12.1433 10.9565 12.1443 10.9565 12.1453C10.9565 12.1464 10.9565 12.1473 10.9565 12.1485C10.9565 12.1494 10.9565 12.1505 10.9565 12.1515C10.9565 12.1526 10.9565 12.1537 10.9565 12.1547C10.9565 12.1558 10.9565 12.1569 10.9565 12.1581C10.9565 12.1592 10.9565 12.1601 10.9565 12.1613C10.9565 12.1624 10.9565 12.1635 10.9565 12.1646C10.9565 12.1657 10.9565 12.167 10.9565 12.1681C10.9565 12.1692 10.9565 12.1703 10.9565 12.1714C10.9565 12.1727 10.9565 12.1738 10.9565 12.1749C10.9565 12.1761 10.9565 12.1773 10.9565 12.1785C10.9565 12.1796 10.9565 12.1809 10.9565 12.182C10.9565 12.1832 10.9565 12.1845 10.9565 12.1856C10.9565 12.1869 10.9565 12.1881 10.9565 12.1894C10.9565 12.1905 10.9565 12.1917 10.9565 12.193C10.9565 12.1942 10.9565 12.1955 10.9565 12.1967C10.9565 12.198 10.9565 12.1992 10.9565 12.2006C10.9565 12.2019 10.9565 12.2031 10.9565 12.2044C10.9565 12.2058 10.9565 12.207 10.9565 12.2083C10.9565 12.2097 10.9565 12.2109 10.9565 12.2123C10.9565 12.2136 10.9565 12.215 10.9565 12.2163C10.9565 12.2176 10.9565 12.219 10.9565 12.2204C10.9565 12.2218 10.9565 12.223 10.9565 12.2244C10.9565 12.2258 10.9565 12.2272 10.9565 12.2286C10.9565 12.23 10.9565 12.2314 10.9565 12.2328C10.9565 12.2343 10.9565 12.2357 10.9565 12.2371C10.9565 12.2385 10.9565 12.24 10.9565 12.2414C10.9565 12.2428 10.9565 12.2443 10.9565 12.2457C10.9565 12.2472 10.9565 12.2486 10.9565 12.2502C10.9565 12.2517 10.9565 12.2531 10.9565 12.2546C10.9565 12.2561 10.9565 12.2577 10.9565 12.2592C10.9565 12.2607 10.9565 12.2623 10.9565 12.2638C10.9565 12.2653 10.9565 12.2669 10.9565 12.2684C10.9565 12.2699 10.9565 12.2714 10.9565 12.273C10.9565 12.2746 10.9565 12.2762 10.9565 12.2778C10.9565 12.2794 10.9565 12.2809 10.9565 12.2826C10.9565 12.2841 10.9565 12.2858 10.9565 12.2874C10.9565 12.289 10.9565 12.2906 10.9565 12.2923C10.9565 12.294 10.9565 12.2957 10.9565 12.2973C10.9565 12.299 10.9565 12.3007 10.9565 12.3023C10.9565 12.304 10.9565 12.3057 10.9565 12.3073C10.9565 12.309 10.9565 12.3107 10.9565 12.3125C10.9565 12.3142 10.9565 12.316 10.9565 12.3176C10.9565 12.3194 10.9565 12.3211 10.9565 12.3229C10.9565 12.3246 10.9565 12.3264 10.9565 12.3282C10.9565 12.3299 10.9565 12.3317 10.9565 12.3335C10.9565 12.3353 10.9565 12.3371 10.9565 12.3389C10.9565 12.3407 10.9565 12.3425 10.9565 12.3443C10.9565 12.3462 10.9565 12.3481 10.9565 12.3499C10.9565 12.3517 10.9565 12.3537 10.9565 12.3555C10.9565 12.3574 10.9565 12.3592 10.9565 12.3612C10.9565 12.363 10.9565 12.3649 10.9565 12.3669C10.9565 12.3687 10.9565 12.3706 10.9565 12.3726C10.9565 12.3745 10.9565 12.3765 10.9565 12.3784C10.9565 12.3804 10.9565 12.3823 10.9565 12.3843C10.9565 12.3862 10.9565 12.3883 10.9565 12.3903C10.9565 12.3922 10.9565 12.3943 10.9565 12.3962C10.9565 12.3983 10.9565 12.4003 10.9565 12.4024C10.9565 12.4043 10.9565 12.4064 10.9565 12.4085C10.9565 12.4106 10.9565 12.4125 10.9565 12.4146C10.9565 12.4167 10.9565 12.4188 10.9565 12.4209C10.9565 12.423 10.9565 12.425 10.9565 12.4273C10.9565 12.4294 10.9565 12.4314 10.9565 12.4335C10.9565 12.4358 10.9565 12.4378 10.9565 12.4401C10.9565 12.4422 10.9565 12.4444 10.9565 12.4465C10.9565 12.4487 10.9565 12.4509 10.9565 12.4531C10.9565 12.4552 10.9565 12.4575 10.9565 12.4597C10.9565 12.4619 10.9565 12.4641 10.9565 12.4664C10.9565 12.4686 10.9565 12.471 10.9565 12.4732C10.9565 12.4754 10.9565 12.4778 10.9565 12.48C10.9565 12.4822 10.9565 12.4846 10.9565 12.487C10.9565 12.4892 10.9565 12.4915 10.9565 12.4939C10.9565 12.4961 10.9565 12.4985 10.9565 12.5009C10.9565 12.5032 10.9565 12.5056 10.9565 12.508C10.9565 12.5103 10.9565 12.5127 10.9565 12.5151C10.9565 12.5176 10.9565 12.5199 10.9565 12.5223C10.9565 12.5248 10.9565 12.5272 10.9565 12.5297C10.9565 12.532 10.9565 12.5345 10.9565 12.5369C10.9565 12.5394 10.9565 12.5419 10.9565 12.5444C10.9565 12.5469 10.9565 12.5494 10.9565 12.5519C10.9565 12.5544 10.9565 12.5569 10.9565 12.5594C10.9565 12.5619 10.9565 12.5645 10.9565 12.5671C10.9565 12.5696 10.9565 12.5722 10.9565 12.5747C10.9565 12.5774 10.9565 12.5799 10.9565 12.5825C10.9565 12.5852 10.9565 12.5877 10.9565 12.5903C10.9565 12.593 10.9565 12.5956 10.9565 12.5983C10.9565 12.6009 10.9565 12.6035 10.9565 12.6063C10.9565 12.609 10.9565 12.6116 10.9565 12.6143C10.9565 12.617 10.9565 12.6197 10.9565 12.6225C10.9565 12.6251 10.9565 12.6279 10.9565 12.6307C10.9565 12.6333 10.9565 12.6361 10.9565 12.6389C10.9565 12.6417 10.9565 12.6445 10.9565 12.6472C10.9565 12.65 10.9565 12.6528 10.9565 12.6556C10.9565 12.6584 10.9565 12.6613 10.9565 12.6641C10.9565 12.667 10.9565 12.6698 10.9565 12.6727C10.9565 12.6755 10.9565 12.6784 10.9565 12.6813C10.9565 12.6841 10.9565 12.687 10.9565 12.6899C10.9565 12.6929 10.9565 12.6958 10.9565 12.6987C10.9565 12.7016 10.9565 12.7046 10.9565 12.7076C10.9565 12.7105 10.9565 12.7135 10.9565 12.7165C10.9565 12.7194 10.9565 12.7225 10.9565 12.7254C10.9565 12.7285 10.9565 12.7315 10.9565 12.7346C10.9565 12.7375 10.9565 12.7406 10.9565 12.7437C10.9565 12.7467 10.9565 12.7498 10.9565 12.753C10.9565 12.756 10.9565 12.7591 10.9565 12.7622C10.9565 12.7654 10.9565 12.7684 10.9565 12.7716C10.9565 12.7747 10.9565 12.7779 10.9565 12.7811C10.9565 12.7841 10.9565 12.7873 10.9565 12.7905C10.9565 12.7937 10.9565 12.7969 10.9565 12.8001C10.9565 12.8033 10.9565 12.8065 10.9565 12.8099C10.9565 12.8131 10.9565 12.8163 10.9565 12.8196C10.9565 12.8228 10.9565 12.8262 10.9565 12.8295C10.9565 12.8327 10.9565 12.836 10.9565 12.8394C10.9565 12.8427 10.9565 12.8461 10.9565 12.8494C10.9565 12.8527 10.9565 12.8561 10.9565 12.8594C10.9565 12.8627 10.9565 12.8662 10.9565 12.8696C10.9565 12.8729 10.9565 12.8764 10.9565 12.8799C10.9565 12.8832 10.9565 12.8867 10.9565 12.8902C10.9565 12.8935 10.9565 12.897 10.9565 12.9005C10.9565 12.9039 10.9565 12.9074 10.9565 12.911C10.9565 12.9145 10.9565 12.918 10.9565 12.9215C10.9565 12.9251 10.9565 12.9286 10.9565 12.9322C10.9565 12.9357 10.9565 12.9393 10.9565 12.9429C10.9565 12.9465 10.9565 12.95 10.9565 12.9536C10.9565 12.9572 10.9565 12.9608 10.9565 12.9646C10.9565 12.9682 10.9565 12.9718 10.9565 12.9754C10.9565 12.9792 10.9565 12.9828 10.9565 12.9866C10.9565 12.9902 10.9565 12.9939 10.9565 12.9977C10.9565 13.0015 10.9565 13.0051 10.9565 13.0088C10.9565 13.0126 10.9565 13.0163 10.9565 13.0201C10.9565 13.024 10.9565 13.0278 10.9565 13.0315C10.9565 13.0354 10.9565 13.0392 10.9565 13.0431C10.9565 13.0468 10.9565 13.0507 10.9565 13.0546C10.9565 13.0584 10.9565 13.0623 10.9565 13.0662C10.9565 13.0701 10.9565 13.0739 10.9565 13.0778C10.9565 13.0819 10.9565 13.0858 10.9565 13.0897C10.9565 13.0937 10.9565 13.0976 10.9565 13.1016C10.9565 13.1055 10.9565 13.1096 10.9565 13.1136C10.9565 13.1176 10.9565 13.1215 10.9565 13.1256C10.9565 13.1296 10.9565 13.1338 10.9565 13.1378C10.9565 13.1418 10.9565 13.1459 10.9565 13.1501C10.9565 13.1541 10.9565 13.1583 10.9565 13.1623C10.9565 13.1665 10.9565 13.1706 10.9565 13.1747C10.9565 13.1789 10.9565 13.183 10.9565 13.1872C10.9565 13.1914 10.9565 13.1955 10.9565 13.1999C10.9565 13.204 10.9565 13.2082 10.9565 13.2125C10.9565 13.2167 10.9565 13.221 10.9565 13.2253C10.9565 13.2295 10.9565 13.2338 10.9565 13.2381C10.9565 13.2424 10.9565 13.2467 10.9565 13.2511C10.9565 13.2554 10.9565 13.2597 10.9565 13.2641C10.9565 13.2685 10.9565 13.2728 10.9565 13.2772C10.9565 13.2815 10.9565 13.286 10.9565 13.2904C10.9565 13.2949 10.9565 13.2993 10.9565 13.3038C10.9565 13.3081 10.9565 13.3127 10.9565 13.3171C10.9565 13.3216 10.9565 13.3261 10.9565 13.3306C10.9565 13.3351 10.9565 13.3397 10.9565 13.3441C10.9565 13.3487 10.9565 13.3533 10.9565 13.3579C10.9565 13.3624 10.9565 13.367 10.9565 13.3715C10.9565 13.3763 10.9565 13.3809 10.9565 13.3855C10.9565 13.3901 10.9565 13.3948 10.9565 13.3994C10.9565 13.4041 10.9565 13.4087 10.9565 13.4134C10.9565 13.4182 10.9565 13.4229 10.9565 13.4276C10.9565 13.4323 10.9565 13.4371 10.9565 13.4418C10.9565 13.4465 10.9565 13.4514 10.9565 13.4561C10.9565 13.4609 10.9565 13.4657 10.9565 13.4706C10.9565 13.4753 10.9565 13.4802 10.9565 13.4851C10.9565 13.4899 10.9565 13.4948 10.9565 13.4997C10.9565 13.5046 10.9565 13.5094 10.9565 13.5144C10.9565 13.5193 10.9565 13.5242 10.9565 13.5292C10.9565 13.5342 10.9565 13.5391 10.9565 13.5441C10.9565 13.5491 10.9565 13.5541 10.9565 13.5591C10.9565 13.5641 10.9565 13.5691 10.9565 13.5741C10.9565 13.5791 10.9565 13.5843 10.9565 13.5893C10.9565 13.5944 10.9565 13.5994 10.9565 13.6046C10.9565 13.6097 10.9565 13.6149 10.9565 13.62C10.9565 13.6252 10.9565 13.6303 10.9565 13.6355C10.9565 13.6406 10.9565 13.6458 10.9565 13.6511C10.9565 13.6562 10.9565 13.6615 10.9565 13.6668C10.9565 13.6719 10.9565 13.6772 10.9565 13.6825C10.9565 13.6878 10.9565 13.6931 10.9565 13.6984C10.9565 13.7037 10.9565 13.7089 10.9565 13.7144C10.9565 13.7197 10.9565 13.7251 10.9565 13.7304C10.9565 13.7358 10.9565 13.7412 10.9565 13.7466C10.9565 13.7519 10.9565 13.7574 10.9565 13.7629C10.9565 13.7683 10.9565 13.7738 10.9565 13.7792C10.9565 13.7848 10.9565 13.7902 10.9565 13.7958C10.9565 13.8012 10.9565 13.8067 10.9565 13.8123C10.9565 13.8179 10.9565 13.8234 10.9565 13.829C10.9565 13.8346 10.9565 13.8401 10.9565 13.8457C10.9565 13.8514 10.9565 13.857 10.9565 13.8627C10.9565 13.8682 10.9565 13.8739 10.9565 13.8797C10.9565 13.8852 10.9565 13.8909 10.9565 13.8966C10.9565 13.9025 10.9565 13.9082 10.9565 13.9139C10.9565 13.9196 10.9565 13.9254 10.9565 13.9311C10.9565 13.937 10.9565 13.9428 10.9565 13.9485C10.9565 13.9544 10.9565 13.9602 10.9565 13.9661C10.9565 13.9719 10.9565 13.9777 10.9565 13.9837C10.9565 13.9896 10.9565 13.9954 10.9565 14.0014C10.9565 14.0074 10.9565 14.0132 10.9565 14.0192C10.9565 14.0252 10.9565 14.0312 10.9565 14.0371C10.9565 14.0431 10.9565 14.0491 10.9565 14.0551C10.9565 14.0612 10.9565 14.0672 10.9565 14.0733C10.9565 14.0793 10.9565 14.0854 10.9565 14.0915C10.9565 14.0977 10.9565 14.1038 10.9565 14.1099C10.9565 14.116 10.9565 14.1222 10.9565 14.1283C10.9565 14.1345 10.9565 14.1407 10.9565 14.1469C10.9565 14.153 10.9565 14.1593 10.9565 14.1656C10.9565 14.1718 10.9565 14.1781 10.9565 14.1843C10.9565 14.1906 10.9565 14.1969 10.9565 14.2033C10.9565 14.2095 10.9565 14.2159 10.9565 14.2222C10.9565 14.2286 10.9565 14.235 10.9565 14.2413C10.9565 14.2477 10.9565 14.2541 10.9565 14.2606C10.9565 14.267 10.9565 14.2734 10.9565 14.2798C10.9565 14.2863 10.9565 14.2927 10.9565 14.2993C10.9565 14.3058 10.9565 14.3123 10.9565 14.3189C10.9565 14.3253 10.9565 14.332 10.9565 14.3385C10.9565 14.345 10.9565 14.3516 10.9565 14.3583C10.9565 14.3648 10.9565 14.3715 10.9565 14.3782C10.9565 14.3847 10.9565 14.3914 10.9565 14.3981C10.9565 14.4047 10.9565 14.4114 10.9565 14.4182C10.9565 14.4249 10.9565 14.4316 10.9565 14.4384C10.9565 14.4452 10.9565 14.4519 10.9565 14.4587C10.9565 14.4655 10.9565 14.4723 10.9565 14.4792C10.9565 14.486 10.9565 14.4928 10.9565 14.4998C10.9565 14.5066 10.9565 14.5134 10.9565 14.5203C10.9565 14.5273 10.9565 14.5341 10.9565 14.5411C10.9565 14.548 10.9565 14.555 10.9565 14.5619C10.9565 14.569 10.9565 14.576 10.9565 14.583C10.9565 14.5901 10.9565 14.597 10.9565 14.6041C10.9565 14.6112 10.9565 14.6183 10.9565 14.6254C10.9565 14.6325 10.9565 14.6396 10.9565 14.6467C10.9565 14.6538 10.9565 14.661 10.9565 14.6681C10.9565 14.6753 10.9565 14.6826 10.9565 14.6897C10.9565 14.6969 10.9565 14.7041 10.9565 14.7114C10.9565 14.7186 10.9565 14.726 10.9565 14.7332C10.9565 14.7405 10.9565 14.7478 10.9565 14.7552C10.9565 14.7624 10.9565 14.7698 10.9565 14.7772C10.9565 14.7846 10.9565 14.7919 10.9565 14.7993C10.9565 14.8068 10.9565 14.8142 10.9565 14.8216C10.9565 14.8291 10.9565 14.8366 10.9565 14.844C10.9565 14.8515 10.9565 14.859 10.9565 14.8665C10.9565 14.874 10.9565 14.8817 10.9565 14.8892C10.9565 14.8967 10.9565 14.9043 10.9565 14.9119C10.9565 14.9195 10.9565 14.9272 10.9565 14.9348C10.9565 14.9425 10.9565 14.9501 10.9565 14.9578C10.9565 14.9654 10.9565 14.9732 10.9565 14.9809C10.9565 14.9887 10.9565 14.9963 10.9565 15.0041C10.9565 15.0119 10.9565 15.0197 10.9565 15.0275C10.9565 15.0353 10.9565 15.0431 10.9565 15.051C10.9565 15.0588 10.9565 15.0666 10.9565 15.0745C10.9565 15.0824 10.9565 15.0904 10.9565 15.0982C10.9565 15.1061 10.9565 15.1142 10.9565 15.1221C10.9565 15.13 10.9565 15.1379 10.9565 15.146C10.9565 15.1539 10.9565 15.162 10.9565 15.1701C10.9565 15.1782 10.9565 15.1862 10.9565 15.1943C10.9565 15.2024 10.9565 15.2104 10.9565 15.2186C10.9565 15.2267 10.9565 15.2349 10.9565 15.243C10.9565 15.2512 10.9565 15.2594 10.9565 15.2676C10.9565 15.2758 10.9565 15.284 10.9565 15.2922C10.9565 15.3006 10.9565 15.3088 10.9565 15.3171C10.9565 15.3254 10.9565 15.3337 10.9565 15.3421C10.9565 15.3504 10.9565 15.3587 10.9565 15.3671C10.9565 15.3754 10.9565 15.3839 10.9565 15.3923C10.9565 15.4008 10.9565 15.4091 10.9565 15.4176C10.9565 15.4261 10.9565 15.4346 10.9565 15.4431C10.9565 15.4515 10.9565 15.4602 10.9565 15.4687C10.9565 15.4771 10.9565 15.4858 10.9565 15.4944C10.9565 15.5029 10.9565 15.5115 10.9565 15.5201C10.9565 15.5288 10.9565 15.5374 10.9565 15.5462C10.9565 15.5548 10.9565 15.5634 10.9565 15.5722C10.9565 15.5809 10.9565 15.5896 10.9565 15.5983C10.9565 15.6071 10.9565 15.6159 10.9565 15.6248C10.9565 15.6335 10.9565 15.6423 10.9565 15.6512C10.9565 15.66 10.9565 15.6689 10.9565 15.6778C10.9565 15.6867 10.9565 15.6956 10.9565 15.7045C10.9565 15.7134 10.9565 15.7223 10.9565 15.7313C10.9565 15.7402 10.9565 15.7493 10.9565 15.7583C10.9565 15.7672 10.9565 15.7763 10.9565 15.7855C10.9565 15.7945 10.9565 15.8035 10.9565 15.8126C10.9565 15.8218 10.9565 15.8308 10.9565 15.84C10.9565 15.8492 10.9565 15.8584 10.9565 15.8675C10.9565 15.8767 10.9565 15.8859 10.9565 15.8951C10.9565 15.9043 10.9565 15.9136 10.9565 15.9229C10.9565 15.9321 10.9565 15.9414 10.9565 15.9507C10.9565 15.9601 10.9565 15.9694 10.9565 15.9787C10.9565 15.9882 10.9565 15.9975 10.9565 16.007C10.9565 16.0163 10.9565 16.0257 10.9565 16.0352C10.9565 16.0447 10.9565 16.0541 10.9565 16.0636C10.9565 16.0732 10.9565 16.0826 10.9565 16.0922C10.9565 16.1017 10.9565 16.1113 10.9565 16.1209C10.9565 16.1305 10.9565 16.1401 10.9565 16.1497C10.9565 16.1593 10.9565 16.1689 10.9565 16.1786C10.9565 16.1882 10.9565 16.198 10.9565 16.2077C10.9565 16.2175 10.9565 16.2272 10.9565 16.2369C10.9565 16.2467 10.9565 16.2564 10.9565 16.2663C10.9565 16.276 10.9565 16.2859 10.9565 16.2958C10.9565 16.3057 10.9565 16.3155 10.9565 16.3254C10.9565 16.3353 10.9565 16.3452 10.9565 16.3552C10.9565 16.3651 10.9565 16.3751 10.9565 16.3851C10.9565 16.395 10.9565 16.405 10.9565 16.4152C10.9565 16.4252 10.9565 16.4352 10.9565 16.4452C10.9565 16.4554 10.9565 16.4654 10.9565 16.4755C10.9565 16.4857 10.9565 16.4959 10.9565 16.506C10.9565 16.5162 10.9565 16.5263 10.9565 16.5366C10.9565 16.5468 10.9565 16.5571 10.9565 16.5674C10.9565 16.5775 10.9565 16.5878 10.9565 16.5981C10.9565 16.6086 10.9565 16.6189 10.9565 16.6291C10.9565 16.6396 10.9565 16.6499 10.9565 16.6603C10.9565 16.6707 10.9565 16.6812 10.9565 16.6916C10.9565 16.7021 10.9565 16.7125 10.9565 16.7231C10.9565 16.7335 10.9565 16.7441 10.9565 16.7546C10.9565 16.7651 10.9565 16.7757 10.9565 16.7862C10.9565 16.7968 10.9565 16.8075 10.9565 16.8181C10.9565 16.8288 10.9565 16.8394 10.9565 16.8501C10.9565 16.8608 10.9565 16.8715 10.9565 16.8822C10.9565 16.8929 10.9565 16.9037 10.9565 16.9145C10.9565 16.9252 10.9565 16.9361 10.9565 16.9469C10.9565 16.9576 10.9565 16.9685 10.9565 16.9795C10.9565 16.9903 10.9565 17.0012 10.9565 17.0122C10.9565 17.023 10.9565 17.034 10.9565 17.0449C10.9565 17.0559 10.9565 17.0669 10.9565 17.0778C10.9565 17.089 10.9565 17.1 10.9565 17.1111C10.9565 17.1221 10.9565 17.1332 10.9565 17.1443C10.9565 17.1553 10.9565 17.1665 10.9565 17.1777C10.9565 17.1889 10.9565 17.2 10.9565 17.2113C10.9565 17.2224 10.9565 17.2337 10.9565 17.2449C10.9565 17.2562 10.9565 17.2675 10.9565 17.2787C10.9565 17.29 10.9565 17.3014 10.9565 17.3127C10.9565 17.3241 10.9565 17.3355 10.9565 17.3469C10.9565 17.3583 10.9565 17.3697 10.9565 17.3811C10.9565 17.3926 10.9565 17.4041 10.9565 17.4155C10.9565 17.4271 10.9565 17.4386 10.9565 17.4502C10.9565 17.4617 10.9565 17.4733 10.9565 17.4848C10.9565 17.4965 10.9565 17.508 10.9565 17.5197C10.9565 17.5314 10.9565 17.5431 10.9565 17.5548C10.9565 17.5665 10.9565 17.5782 10.9565 17.5898C10.9565 17.6017 10.9565 17.6134 10.9565 17.6252C10.9565 17.637 10.9565 17.6488 10.9565 17.6607C10.9565 17.6725 10.9565 17.6843 10.9565 17.6963C10.9565 17.7081 10.9565 17.7201 10.9565 17.732C10.9565 17.744 10.9565 17.756 10.9565 17.7679C10.9565 17.7799 10.9565 17.7919 10.9565 17.804C10.9565 17.8159 10.9565 17.828 10.9565 17.8401C10.9565 17.8522 10.9565 17.8643 10.9565 17.8765C10.9565 17.8887 10.9565 17.9008 10.9565 17.913C10.9565 17.9251 10.9565 17.9374 10.9565 17.9496C10.9565 17.9619 10.9565 17.9741 10.9565 17.9865C10.9565 17.9987 10.9565 18.011 10.9565 18.0234C10.9565 18.0358 10.9565 18.0481 10.9565 18.0605C10.9565 18.0729 10.9565 18.0853 10.9565 18.0978C10.9565 18.1102 10.9565 18.1227 10.9565 18.1352C10.9565 18.1476 10.9565 18.1601 10.9565 18.1728C10.9565 18.1853 10.9565 18.1978 10.9565 18.2105C10.9565 18.223 10.9565 18.2357 10.9565 18.2483C10.9565 18.261 10.9565 18.2737 10.9565 18.2863C10.9565 18.299 10.9565 18.3118 10.9565 18.3245C10.9565 18.3373 10.9565 18.3501 10.9565 18.3629C10.9565 18.3757 10.9565 18.3885 10.9565 18.4014C10.9565 18.4142 10.9565 18.4271 10.9565 18.4399C10.9565 18.4529 10.9565 18.4658 10.9565 18.4787C10.9565 18.4917 10.9565 18.5048 10.9565 18.5177C10.9565 18.5308 10.9565 18.5437 10.9565 18.5568C10.9565 18.5699 10.9565 18.583 10.9565 18.596C10.9565 18.6093 10.9565 18.6223 10.9565 18.6355C10.9565 18.6486 10.9565 18.6618 10.9565 18.6751C10.9565 18.6883 10.9565 18.7015 10.9565 18.7149C10.9565 18.7281 10.9565 18.7414 10.9565 18.7546C10.9565 18.768 10.9565 18.7814 10.9565 18.7947C10.9565 18.8081 10.9565 18.8216 10.9565 18.8349C10.9565 18.8484 10.9565 18.8618 10.9565 18.8753C10.9565 18.8888 10.9565 18.9023 10.9565 18.9159C10.9565 18.9294 10.9565 18.9429 10.9565 18.9565H13.0435C13.0435 18.9429 13.0435 18.9294 13.0435 18.9159C13.0435 18.9023 13.0435 18.8888 13.0435 18.8753C13.0435 18.8618 13.0435 18.8484 13.0435 18.8349C13.0435 18.8216 13.0435 18.8081 13.0435 18.7947C13.0435 18.7814 13.0435 18.768 13.0435 18.7546C13.0435 18.7414 13.0435 18.7281 13.0435 18.7149C13.0435 18.7015 13.0435 18.6883 13.0435 18.6751C13.0435 18.6618 13.0435 18.6486 13.0435 18.6355C13.0435 18.6223 13.0435 18.6093 13.0435 18.596C13.0435 18.583 13.0435 18.5699 13.0435 18.5568C13.0435 18.5437 13.0435 18.5308 13.0435 18.5177C13.0435 18.5048 13.0435 18.4917 13.0435 18.4787C13.0435 18.4658 13.0435 18.4529 13.0435 18.4399C13.0435 18.4271 13.0435 18.4142 13.0435 18.4014C13.0435 18.3885 13.0435 18.3757 13.0435 18.3629C13.0435 18.3501 13.0435 18.3373 13.0435 18.3245C13.0435 18.3118 13.0435 18.299 13.0435 18.2863C13.0435 18.2737 13.0435 18.261 13.0435 18.2483C13.0435 18.2357 13.0435 18.223 13.0435 18.2105C13.0435 18.1978 13.0435 18.1853 13.0435 18.1728C13.0435 18.1601 13.0435 18.1476 13.0435 18.1352C13.0435 18.1227 13.0435 18.1102 13.0435 18.0978C13.0435 18.0853 13.0435 18.0729 13.0435 18.0605C13.0435 18.0481 13.0435 18.0358 13.0435 18.0234C13.0435 18.011 13.0435 17.9987 13.0435 17.9865C13.0435 17.9741 13.0435 17.9619 13.0435 17.9496C13.0435 17.9374 13.0435 17.9251 13.0435 17.913C13.0435 17.9008 13.0435 17.8887 13.0435 17.8765C13.0435 17.8643 13.0435 17.8522 13.0435 17.8401C13.0435 17.828 13.0435 17.8159 13.0435 17.804C13.0435 17.7919 13.0435 17.7799 13.0435 17.7679C13.0435 17.756 13.0435 17.744 13.0435 17.732C13.0435 17.7201 13.0435 17.7081 13.0435 17.6963C13.0435 17.6843 13.0435 17.6725 13.0435 17.6607C13.0435 17.6488 13.0435 17.637 13.0435 17.6252C13.0435 17.6134 13.0435 17.6017 13.0435 17.5898C13.0435 17.5782 13.0435 17.5665 13.0435 17.5548C13.0435 17.5431 13.0435 17.5314 13.0435 17.5197C13.0435 17.508 13.0435 17.4965 13.0435 17.4848C13.0435 17.4733 13.0435 17.4617 13.0435 17.4502C13.0435 17.4386 13.0435 17.4271 13.0435 17.4155C13.0435 17.4041 13.0435 17.3926 13.0435 17.3811C13.0435 17.3697 13.0435 17.3583 13.0435 17.3469C13.0435 17.3355 13.0435 17.3241 13.0435 17.3127C13.0435 17.3014 13.0435 17.29 13.0435 17.2787C13.0435 17.2675 13.0435 17.2562 13.0435 17.2449C13.0435 17.2337 13.0435 17.2224 13.0435 17.2113C13.0435 17.2 13.0435 17.1889 13.0435 17.1777C13.0435 17.1665 13.0435 17.1553 13.0435 17.1443C13.0435 17.1332 13.0435 17.1221 13.0435 17.1111C13.0435 17.1 13.0435 17.089 13.0435 17.0778C13.0435 17.0669 13.0435 17.0559 13.0435 17.0449C13.0435 17.034 13.0435 17.023 13.0435 17.0122C13.0435 17.0012 13.0435 16.9903 13.0435 16.9795C13.0435 16.9685 13.0435 16.9576 13.0435 16.9469C13.0435 16.9361 13.0435 16.9252 13.0435 16.9145C13.0435 16.9037 13.0435 16.8929 13.0435 16.8822C13.0435 16.8715 13.0435 16.8608 13.0435 16.8501C13.0435 16.8394 13.0435 16.8288 13.0435 16.8181C13.0435 16.8075 13.0435 16.7968 13.0435 16.7862C13.0435 16.7757 13.0435 16.7651 13.0435 16.7546C13.0435 16.7441 13.0435 16.7335 13.0435 16.7231C13.0435 16.7125 13.0435 16.7021 13.0435 16.6916C13.0435 16.6812 13.0435 16.6707 13.0435 16.6603C13.0435 16.6499 13.0435 16.6396 13.0435 16.6291C13.0435 16.6189 13.0435 16.6086 13.0435 16.5981C13.0435 16.5878 13.0435 16.5775 13.0435 16.5674C13.0435 16.5571 13.0435 16.5468 13.0435 16.5366C13.0435 16.5263 13.0435 16.5162 13.0435 16.506C13.0435 16.4959 13.0435 16.4857 13.0435 16.4755C13.0435 16.4654 13.0435 16.4554 13.0435 16.4452C13.0435 16.4352 13.0435 16.4252 13.0435 16.4152C13.0435 16.405 13.0435 16.395 13.0435 16.3851C13.0435 16.3751 13.0435 16.3651 13.0435 16.3552C13.0435 16.3452 13.0435 16.3353 13.0435 16.3254C13.0435 16.3155 13.0435 16.3057 13.0435 16.2958C13.0435 16.2859 13.0435 16.276 13.0435 16.2663C13.0435 16.2564 13.0435 16.2467 13.0435 16.2369C13.0435 16.2272 13.0435 16.2175 13.0435 16.2077C13.0435 16.198 13.0435 16.1882 13.0435 16.1786C13.0435 16.1689 13.0435 16.1593 13.0435 16.1497C13.0435 16.1401 13.0435 16.1305 13.0435 16.1209C13.0435 16.1113 13.0435 16.1017 13.0435 16.0922C13.0435 16.0826 13.0435 16.0732 13.0435 16.0636C13.0435 16.0541 13.0435 16.0447 13.0435 16.0352C13.0435 16.0257 13.0435 16.0163 13.0435 16.007C13.0435 15.9975 13.0435 15.9882 13.0435 15.9787C13.0435 15.9694 13.0435 15.9601 13.0435 15.9507C13.0435 15.9414 13.0435 15.9321 13.0435 15.9229C13.0435 15.9136 13.0435 15.9043 13.0435 15.8951C13.0435 15.8859 13.0435 15.8767 13.0435 15.8675C13.0435 15.8584 13.0435 15.8492 13.0435 15.84C13.0435 15.8308 13.0435 15.8218 13.0435 15.8126C13.0435 15.8035 13.0435 15.7945 13.0435 15.7855C13.0435 15.7763 13.0435 15.7672 13.0435 15.7583C13.0435 15.7493 13.0435 15.7402 13.0435 15.7313C13.0435 15.7223 13.0435 15.7134 13.0435 15.7045C13.0435 15.6956 13.0435 15.6867 13.0435 15.6778C13.0435 15.6689 13.0435 15.66 13.0435 15.6512C13.0435 15.6423 13.0435 15.6335 13.0435 15.6248C13.0435 15.6159 13.0435 15.6071 13.0435 15.5983C13.0435 15.5896 13.0435 15.5809 13.0435 15.5722C13.0435 15.5634 13.0435 15.5548 13.0435 15.5462C13.0435 15.5374 13.0435 15.5288 13.0435 15.5201C13.0435 15.5115 13.0435 15.5029 13.0435 15.4944C13.0435 15.4858 13.0435 15.4771 13.0435 15.4687C13.0435 15.4602 13.0435 15.4515 13.0435 15.4431C13.0435 15.4346 13.0435 15.4261 13.0435 15.4176C13.0435 15.4091 13.0435 15.4008 13.0435 15.3923C13.0435 15.3839 13.0435 15.3754 13.0435 15.3671C13.0435 15.3587 13.0435 15.3504 13.0435 15.3421C13.0435 15.3337 13.0435 15.3254 13.0435 15.3171C13.0435 15.3088 13.0435 15.3006 13.0435 15.2922C13.0435 15.284 13.0435 15.2758 13.0435 15.2676C13.0435 15.2594 13.0435 15.2512 13.0435 15.243C13.0435 15.2349 13.0435 15.2267 13.0435 15.2186C13.0435 15.2104 13.0435 15.2024 13.0435 15.1943C13.0435 15.1862 13.0435 15.1782 13.0435 15.1701C13.0435 15.162 13.0435 15.1539 13.0435 15.146C13.0435 15.1379 13.0435 15.13 13.0435 15.1221C13.0435 15.1142 13.0435 15.1061 13.0435 15.0982C13.0435 15.0904 13.0435 15.0824 13.0435 15.0745C13.0435 15.0666 13.0435 15.0588 13.0435 15.051C13.0435 15.0431 13.0435 15.0353 13.0435 15.0275C13.0435 15.0197 13.0435 15.0119 13.0435 15.0041C13.0435 14.9963 13.0435 14.9887 13.0435 14.9809C13.0435 14.9732 13.0435 14.9654 13.0435 14.9578C13.0435 14.9501 13.0435 14.9425 13.0435 14.9348C13.0435 14.9272 13.0435 14.9195 13.0435 14.9119C13.0435 14.9043 13.0435 14.8967 13.0435 14.8892C13.0435 14.8817 13.0435 14.874 13.0435 14.8665C13.0435 14.859 13.0435 14.8515 13.0435 14.844C13.0435 14.8366 13.0435 14.8291 13.0435 14.8216C13.0435 14.8142 13.0435 14.8068 13.0435 14.7993C13.0435 14.7919 13.0435 14.7846 13.0435 14.7772C13.0435 14.7698 13.0435 14.7624 13.0435 14.7552C13.0435 14.7478 13.0435 14.7405 13.0435 14.7332C13.0435 14.726 13.0435 14.7186 13.0435 14.7114C13.0435 14.7041 13.0435 14.6969 13.0435 14.6897C13.0435 14.6826 13.0435 14.6753 13.0435 14.6681C13.0435 14.661 13.0435 14.6538 13.0435 14.6467C13.0435 14.6396 13.0435 14.6325 13.0435 14.6254C13.0435 14.6183 13.0435 14.6112 13.0435 14.6041C13.0435 14.597 13.0435 14.5901 13.0435 14.583C13.0435 14.576 13.0435 14.569 13.0435 14.5619C13.0435 14.555 13.0435 14.548 13.0435 14.5411C13.0435 14.5341 13.0435 14.5273 13.0435 14.5203C13.0435 14.5134 13.0435 14.5066 13.0435 14.4998C13.0435 14.4928 13.0435 14.486 13.0435 14.4792C13.0435 14.4723 13.0435 14.4655 13.0435 14.4587C13.0435 14.4519 13.0435 14.4452 13.0435 14.4384C13.0435 14.4316 13.0435 14.4249 13.0435 14.4182C13.0435 14.4114 13.0435 14.4047 13.0435 14.3981C13.0435 14.3914 13.0435 14.3847 13.0435 14.3782C13.0435 14.3715 13.0435 14.3648 13.0435 14.3583C13.0435 14.3516 13.0435 14.345 13.0435 14.3385C13.0435 14.332 13.0435 14.3253 13.0435 14.3189C13.0435 14.3123 13.0435 14.3058 13.0435 14.2993C13.0435 14.2927 13.0435 14.2863 13.0435 14.2798C13.0435 14.2734 13.0435 14.267 13.0435 14.2606C13.0435 14.2541 13.0435 14.2477 13.0435 14.2413C13.0435 14.235 13.0435 14.2286 13.0435 14.2222C13.0435 14.2159 13.0435 14.2095 13.0435 14.2033C13.0435 14.1969 13.0435 14.1906 13.0435 14.1843C13.0435 14.1781 13.0435 14.1718 13.0435 14.1656C13.0435 14.1593 13.0435 14.153 13.0435 14.1469C13.0435 14.1407 13.0435 14.1345 13.0435 14.1283C13.0435 14.1222 13.0435 14.116 13.0435 14.1099C13.0435 14.1038 13.0435 14.0977 13.0435 14.0915C13.0435 14.0854 13.0435 14.0793 13.0435 14.0733C13.0435 14.0672 13.0435 14.0612 13.0435 14.0551C13.0435 14.0491 13.0435 14.0431 13.0435 14.0371C13.0435 14.0312 13.0435 14.0252 13.0435 14.0192C13.0435 14.0132 13.0435 14.0074 13.0435 14.0014C13.0435 13.9954 13.0435 13.9896 13.0435 13.9837C13.0435 13.9777 13.0435 13.9719 13.0435 13.9661C13.0435 13.9602 13.0435 13.9544 13.0435 13.9485C13.0435 13.9428 13.0435 13.937 13.0435 13.9311C13.0435 13.9254 13.0435 13.9196 13.0435 13.9139C13.0435 13.9082 13.0435 13.9025 13.0435 13.8966C13.0435 13.8909 13.0435 13.8852 13.0435 13.8797C13.0435 13.8739 13.0435 13.8682 13.0435 13.8627C13.0435 13.857 13.0435 13.8514 13.0435 13.8457C13.0435 13.8401 13.0435 13.8346 13.0435 13.829C13.0435 13.8234 13.0435 13.8179 13.0435 13.8123C13.0435 13.8067 13.0435 13.8012 13.0435 13.7958C13.0435 13.7902 13.0435 13.7848 13.0435 13.7792C13.0435 13.7738 13.0435 13.7683 13.0435 13.7629C13.0435 13.7574 13.0435 13.7519 13.0435 13.7466C13.0435 13.7412 13.0435 13.7358 13.0435 13.7304C13.0435 13.7251 13.0435 13.7197 13.0435 13.7144C13.0435 13.7089 13.0435 13.7037 13.0435 13.6984C13.0435 13.6931 13.0435 13.6878 13.0435 13.6825C13.0435 13.6772 13.0435 13.6719 13.0435 13.6668C13.0435 13.6615 13.0435 13.6562 13.0435 13.6511C13.0435 13.6458 13.0435 13.6406 13.0435 13.6355C13.0435 13.6303 13.0435 13.6252 13.0435 13.62C13.0435 13.6149 13.0435 13.6097 13.0435 13.6046C13.0435 13.5994 13.0435 13.5944 13.0435 13.5893C13.0435 13.5843 13.0435 13.5791 13.0435 13.5741C13.0435 13.5691 13.0435 13.5641 13.0435 13.5591C13.0435 13.5541 13.0435 13.5491 13.0435 13.5441C13.0435 13.5391 13.0435 13.5342 13.0435 13.5292C13.0435 13.5242 13.0435 13.5193 13.0435 13.5144C13.0435 13.5094 13.0435 13.5046 13.0435 13.4997C13.0435 13.4948 13.0435 13.4899 13.0435 13.4851C13.0435 13.4802 13.0435 13.4753 13.0435 13.4706C13.0435 13.4657 13.0435 13.4609 13.0435 13.4561C13.0435 13.4514 13.0435 13.4465 13.0435 13.4418C13.0435 13.4371 13.0435 13.4323 13.0435 13.4276C13.0435 13.4229 13.0435 13.4182 13.0435 13.4134C13.0435 13.4087 13.0435 13.4041 13.0435 13.3994C13.0435 13.3948 13.0435 13.3901 13.0435 13.3855C13.0435 13.3809 13.0435 13.3763 13.0435 13.3715C13.0435 13.367 13.0435 13.3624 13.0435 13.3579C13.0435 13.3533 13.0435 13.3487 13.0435 13.3441C13.0435 13.3397 13.0435 13.3351 13.0435 13.3306C13.0435 13.3261 13.0435 13.3216 13.0435 13.3171C13.0435 13.3127 13.0435 13.3081 13.0435 13.3038C13.0435 13.2993 13.0435 13.2949 13.0435 13.2904C13.0435 13.286 13.0435 13.2815 13.0435 13.2772C13.0435 13.2728 13.0435 13.2685 13.0435 13.2641C13.0435 13.2597 13.0435 13.2554 13.0435 13.2511C13.0435 13.2467 13.0435 13.2424 13.0435 13.2381C13.0435 13.2338 13.0435 13.2295 13.0435 13.2253C13.0435 13.221 13.0435 13.2167 13.0435 13.2125C13.0435 13.2082 13.0435 13.204 13.0435 13.1999C13.0435 13.1955 13.0435 13.1914 13.0435 13.1872C13.0435 13.183 13.0435 13.1789 13.0435 13.1747C13.0435 13.1706 13.0435 13.1665 13.0435 13.1623C13.0435 13.1583 13.0435 13.1541 13.0435 13.1501C13.0435 13.1459 13.0435 13.1418 13.0435 13.1378C13.0435 13.1338 13.0435 13.1296 13.0435 13.1256C13.0435 13.1215 13.0435 13.1176 13.0435 13.1136C13.0435 13.1096 13.0435 13.1055 13.0435 13.1016C13.0435 13.0976 13.0435 13.0937 13.0435 13.0897C13.0435 13.0858 13.0435 13.0819 13.0435 13.0778C13.0435 13.0739 13.0435 13.0701 13.0435 13.0662C13.0435 13.0623 13.0435 13.0584 13.0435 13.0546C13.0435 13.0507 13.0435 13.0468 13.0435 13.0431C13.0435 13.0392 13.0435 13.0354 13.0435 13.0315C13.0435 13.0278 13.0435 13.024 13.0435 13.0201C13.0435 13.0163 13.0435 13.0126 13.0435 13.0088C13.0435 13.0051 13.0435 13.0015 13.0435 12.9977C13.0435 12.9939 13.0435 12.9902 13.0435 12.9866C13.0435 12.9828 13.0435 12.9792 13.0435 12.9754C13.0435 12.9718 13.0435 12.9682 13.0435 12.9646C13.0435 12.9608 13.0435 12.9572 13.0435 12.9536C13.0435 12.95 13.0435 12.9465 13.0435 12.9429C13.0435 12.9393 13.0435 12.9357 13.0435 12.9322C13.0435 12.9286 13.0435 12.9251 13.0435 12.9215C13.0435 12.918 13.0435 12.9145 13.0435 12.911C13.0435 12.9074 13.0435 12.9039 13.0435 12.9005C13.0435 12.897 13.0435 12.8935 13.0435 12.8902C13.0435 12.8867 13.0435 12.8832 13.0435 12.8799C13.0435 12.8764 13.0435 12.8729 13.0435 12.8696C13.0435 12.8662 13.0435 12.8627 13.0435 12.8594C13.0435 12.8561 13.0435 12.8527 13.0435 12.8494C13.0435 12.8461 13.0435 12.8427 13.0435 12.8394C13.0435 12.836 13.0435 12.8327 13.0435 12.8295C13.0435 12.8262 13.0435 12.8228 13.0435 12.8196C13.0435 12.8163 13.0435 12.8131 13.0435 12.8099C13.0435 12.8065 13.0435 12.8033 13.0435 12.8001C13.0435 12.7969 13.0435 12.7937 13.0435 12.7905C13.0435 12.7873 13.0435 12.7841 13.0435 12.7811C13.0435 12.7779 13.0435 12.7747 13.0435 12.7716C13.0435 12.7684 13.0435 12.7654 13.0435 12.7622C13.0435 12.7591 13.0435 12.756 13.0435 12.753C13.0435 12.7498 13.0435 12.7467 13.0435 12.7437C13.0435 12.7406 13.0435 12.7375 13.0435 12.7346C13.0435 12.7315 13.0435 12.7285 13.0435 12.7254C13.0435 12.7225 13.0435 12.7194 13.0435 12.7165C13.0435 12.7135 13.0435 12.7105 13.0435 12.7076C13.0435 12.7046 13.0435 12.7016 13.0435 12.6987C13.0435 12.6958 13.0435 12.6929 13.0435 12.6899C13.0435 12.687 13.0435 12.6841 13.0435 12.6813C13.0435 12.6784 13.0435 12.6755 13.0435 12.6727C13.0435 12.6698 13.0435 12.667 13.0435 12.6641C13.0435 12.6613 13.0435 12.6584 13.0435 12.6556C13.0435 12.6528 13.0435 12.65 13.0435 12.6472C13.0435 12.6445 13.0435 12.6417 13.0435 12.6389C13.0435 12.6361 13.0435 12.6333 13.0435 12.6307C13.0435 12.6279 13.0435 12.6251 13.0435 12.6225C13.0435 12.6197 13.0435 12.617 13.0435 12.6143C13.0435 12.6116 13.0435 12.609 13.0435 12.6063C13.0435 12.6035 13.0435 12.6009 13.0435 12.5983C13.0435 12.5956 13.0435 12.593 13.0435 12.5903C13.0435 12.5877 13.0435 12.5852 13.0435 12.5825C13.0435 12.5799 13.0435 12.5774 13.0435 12.5747C13.0435 12.5722 13.0435 12.5696 13.0435 12.5671C13.0435 12.5645 13.0435 12.5619 13.0435 12.5594C13.0435 12.5569 13.0435 12.5544 13.0435 12.5519C13.0435 12.5494 13.0435 12.5469 13.0435 12.5444C13.0435 12.5419 13.0435 12.5394 13.0435 12.5369C13.0435 12.5345 13.0435 12.532 13.0435 12.5297C13.0435 12.5272 13.0435 12.5248 13.0435 12.5223C13.0435 12.5199 13.0435 12.5176 13.0435 12.5151C13.0435 12.5127 13.0435 12.5103 13.0435 12.508C13.0435 12.5056 13.0435 12.5032 13.0435 12.5009C13.0435 12.4985 13.0435 12.4961 13.0435 12.4939C13.0435 12.4915 13.0435 12.4892 13.0435 12.487C13.0435 12.4846 13.0435 12.4822 13.0435 12.48C13.0435 12.4778 13.0435 12.4754 13.0435 12.4732C13.0435 12.471 13.0435 12.4686 13.0435 12.4664C13.0435 12.4641 13.0435 12.4619 13.0435 12.4597C13.0435 12.4575 13.0435 12.4552 13.0435 12.4531C13.0435 12.4509 13.0435 12.4487 13.0435 12.4465C13.0435 12.4444 13.0435 12.4422 13.0435 12.4401C13.0435 12.4378 13.0435 12.4358 13.0435 12.4335C13.0435 12.4314 13.0435 12.4294 13.0435 12.4273C13.0435 12.425 13.0435 12.423 13.0435 12.4209C13.0435 12.4188 13.0435 12.4167 13.0435 12.4146C13.0435 12.4125 13.0435 12.4106 13.0435 12.4085C13.0435 12.4064 13.0435 12.4043 13.0435 12.4024C13.0435 12.4003 13.0435 12.3983 13.0435 12.3962C13.0435 12.3943 13.0435 12.3922 13.0435 12.3903C13.0435 12.3883 13.0435 12.3862 13.0435 12.3843C13.0435 12.3823 13.0435 12.3804 13.0435 12.3784C13.0435 12.3765 13.0435 12.3745 13.0435 12.3726C13.0435 12.3706 13.0435 12.3687 13.0435 12.3669C13.0435 12.3649 13.0435 12.363 13.0435 12.3612C13.0435 12.3592 13.0435 12.3574 13.0435 12.3555C13.0435 12.3537 13.0435 12.3517 13.0435 12.3499C13.0435 12.3481 13.0435 12.3462 13.0435 12.3443C13.0435 12.3425 13.0435 12.3407 13.0435 12.3389C13.0435 12.3371 13.0435 12.3353 13.0435 12.3335C13.0435 12.3317 13.0435 12.3299 13.0435 12.3282C13.0435 12.3264 13.0435 12.3246 13.0435 12.3229C13.0435 12.3211 13.0435 12.3194 13.0435 12.3176C13.0435 12.316 13.0435 12.3142 13.0435 12.3125C13.0435 12.3107 13.0435 12.309 13.0435 12.3073C13.0435 12.3057 13.0435 12.304 13.0435 12.3023C13.0435 12.3007 13.0435 12.299 13.0435 12.2973C13.0435 12.2957 13.0435 12.294 13.0435 12.2923C13.0435 12.2906 13.0435 12.289 13.0435 12.2874C13.0435 12.2858 13.0435 12.2841 13.0435 12.2826C13.0435 12.2809 13.0435 12.2794 13.0435 12.2778C13.0435 12.2762 13.0435 12.2746 13.0435 12.273C13.0435 12.2714 13.0435 12.2699 13.0435 12.2684C13.0435 12.2669 13.0435 12.2653 13.0435 12.2638C13.0435 12.2623 13.0435 12.2607 13.0435 12.2592C13.0435 12.2577 13.0435 12.2561 13.0435 12.2546C13.0435 12.2531 13.0435 12.2517 13.0435 12.2502C13.0435 12.2486 13.0435 12.2472 13.0435 12.2457C13.0435 12.2443 13.0435 12.2428 13.0435 12.2414C13.0435 12.24 13.0435 12.2385 13.0435 12.2371C13.0435 12.2357 13.0435 12.2343 13.0435 12.2328C13.0435 12.2314 13.0435 12.23 13.0435 12.2286C13.0435 12.2272 13.0435 12.2258 13.0435 12.2244C13.0435 12.223 13.0435 12.2218 13.0435 12.2204C13.0435 12.219 13.0435 12.2176 13.0435 12.2163C13.0435 12.215 13.0435 12.2136 13.0435 12.2123C13.0435 12.2109 13.0435 12.2097 13.0435 12.2083C13.0435 12.207 13.0435 12.2058 13.0435 12.2044C13.0435 12.2031 13.0435 12.2019 13.0435 12.2006C13.0435 12.1992 13.0435 12.198 13.0435 12.1967C13.0435 12.1955 13.0435 12.1942 13.0435 12.193C13.0435 12.1917 13.0435 12.1905 13.0435 12.1894C13.0435 12.1881 13.0435 12.1869 13.0435 12.1856C13.0435 12.1845 13.0435 12.1832 13.0435 12.182C13.0435 12.1809 13.0435 12.1796 13.0435 12.1785C13.0435 12.1773 13.0435 12.1761 13.0435 12.1749C13.0435 12.1738 13.0435 12.1727 13.0435 12.1714C13.0435 12.1703 13.0435 12.1692 13.0435 12.1681C13.0435 12.167 13.0435 12.1657 13.0435 12.1646C13.0435 12.1635 13.0435 12.1624 13.0435 12.1613C13.0435 12.1601 13.0435 12.1592 13.0435 12.1581C13.0435 12.1569 13.0435 12.1558 13.0435 12.1547C13.0435 12.1537 13.0435 12.1526 13.0435 12.1515C13.0435 12.1505 13.0435 12.1494 13.0435 12.1485C13.0435 12.1473 13.0435 12.1464 13.0435 12.1453C13.0435 12.1443 13.0435 12.1433 13.0435 12.1422C13.0435 12.1412 13.0435 12.1402 13.0435 12.1391C13.0435 12.1382 13.0435 12.1372 13.0435 12.1362C13.0435 12.1352 13.0435 12.1343 13.0435 12.1333C13.0435 12.1323 13.0435 12.1313 13.0435 12.1304C13.0435 12.1294 13.0435 12.1284 13.0435 12.1276C13.0435 12.1266 13.0435 12.1256 13.0435 12.1247C13.0435 12.1238 13.0435 12.1229 13.0435 12.1219C13.0435 12.121 13.0435 12.1201 13.0435 12.1192C13.0435 12.1183 13.0435 12.1174 13.0435 12.1165C13.0435 12.1156 13.0435 12.1148 13.0435 12.1138C13.0435 12.113 13.0435 12.1121 13.0435 12.1113C13.0435 12.1105 13.0435 12.1095 13.0435 12.1087C13.0435 12.1078 13.0435 12.107 13.0435 12.1062C13.0435 12.1053 13.0435 12.1045 13.0435 12.1037C13.0435 12.1028 13.0435 12.102 13.0435 12.1013C13.0435 12.1005 13.0435 12.0996 13.0435 12.0988C13.0435 12.0981 13.0435 12.0973 13.0435 12.0964C13.0435 12.0957 13.0435 12.0949 13.0435 12.0941C13.0435 12.0934 13.0435 12.0925 13.0435 12.0918C13.0435 12.0911 13.0435 12.0903 13.0435 12.0896C13.0435 12.0888 13.0435 12.0881 13.0435 12.0874C13.0435 12.0865 13.0435 12.0858 13.0435 12.0851C13.0435 12.0845 13.0435 12.0838 13.0435 12.0831C13.0435 12.0824 13.0435 12.0815 13.0435 12.0808C13.0435 12.0801 13.0435 12.0794 13.0435 12.0789C13.0435 12.0782 13.0435 12.0775 13.0435 12.0768C13.0435 12.0761 13.0435 12.0754 13.0435 12.0749C13.0435 12.0742 13.0435 12.0735 13.0435 12.0728C13.0435 12.0722 13.0435 12.0715 13.0435 12.0708C13.0435 12.0703 13.0435 12.0696 13.0435 12.069C13.0435 12.0683 13.0435 12.0678 13.0435 12.0671C13.0435 12.0665 13.0435 12.0659 13.0435 12.0653C13.0435 12.0647 13.0435 12.0641 13.0435 12.0634C13.0435 12.0629 13.0435 12.0623 13.0435 12.0618C13.0435 12.0612 13.0435 12.0605 13.0435 12.06C13.0435 12.0594 13.0435 12.0589 13.0435 12.0583C13.0435 12.0577 13.0435 12.0572 13.0435 12.0566C13.0435 12.0561 13.0435 12.0555 13.0435 12.055C13.0435 12.0544 13.0435 12.054 13.0435 12.0534C13.0435 12.0529 13.0435 12.0523 13.0435 12.0519C13.0435 12.0513 13.0435 12.0508 13.0435 12.0502C13.0435 12.0498 13.0435 12.0493 13.0435 12.0488C13.0435 12.0483 13.0435 12.0479 13.0435 12.0473C13.0435 12.0467 13.0435 12.0463 13.0435 12.0459C13.0435 12.0454 13.0435 12.0449 13.0435 12.0444C13.0435 12.044 13.0435 12.0435 13.0435 12.043C13.0435 12.0426 13.0435 12.0434 13.0435 12.043C13.0435 12.0424 13.0435 12.0408 13.0435 12.0403C13.0435 12.0399 13.0435 12.0408 13.0435 12.0403C13.0435 12.0399 13.0435 12.0383 13.0435 12.0378C13.0435 12.0374 13.0435 12.0383 13.0435 12.0378C13.0435 12.0374 13.0435 12.0358 13.0435 12.0353C13.0435 12.0349 13.0435 12.0358 13.0435 12.0353C13.0435 12.0349 13.0435 12.0334 13.0435 12.033C13.0435 12.0326 13.0435 12.0333 13.0435 12.033C13.0435 12.0326 13.0435 12.031 13.0435 12.0307C13.0435 12.0303 13.0435 12.0312 13.0435 12.0307C13.0435 12.0303 13.0435 12.0289 13.0435 12.0285C13.0435 12.0282 13.0435 12.0288 13.0435 12.0285C13.0435 12.0282 13.0435 12.0269 13.0435 12.0266C13.0435 12.0262 13.0435 12.0269 13.0435 12.0266C13.0435 12.0262 13.0435 12.0249 13.0435 12.0246C13.0435 12.0243 13.0435 12.0249 13.0435 12.0246C13.0435 12.0243 13.0435 12.0231 13.0435 12.0228C13.0435 12.0224 13.0435 12.0231 13.0435 12.0228C13.0435 12.0225 13.0435 12.0213 13.0435 12.021C13.0435 12.0207 13.0435 12.0213 13.0435 12.021C13.0435 12.0207 13.0435 12.0196 13.0435 12.0193C13.0435 12.0191 13.0435 12.0196 13.0435 12.0193C13.0435 12.0191 13.0435 12.0181 13.0435 12.0178C13.0435 12.0175 13.0435 12.0181 13.0435 12.0178C13.0435 12.0177 13.0435 12.0166 13.0435 12.0163C13.0435 12.016 13.0435 12.0145 13.0435 12.0142C13.0435 12.0141 13.0435 12.0125 13.0435 12.0124C13.0435 12.0122 13.0435 12.0109 13.0435 12.0107C13.0435 12.0106 13.0435 12.0093 13.0435 12.009C13.0435 12.0089 13.0435 12.0079 13.0435 12.0077C13.0435 12.0075 13.0435 12.0063 13.0435 12.0061C13.0435 12.006 13.0435 12.0063 13.0435 12.0061C13.0435 12.006 13.0435 12.0049 13.0435 12.0047C13.0435 12.0046 13.0435 12.0032 13.0435 12.0031C13.0435 12.0031 13.0435 12.0018 13.0435 12.0017C13.0435 12.0015 13.0435 12 13.0435 12H12ZM13.0435 12V5.04348H10.9565V12H13.0435Z" fill="white"/>
</svg>
