<svg width="153" height="54" viewBox="0 0 153 54" fill="none" xmlns="http://www.w3.org/2000/svg">
<path d="M69.2195 7.25355H67.3601C67.3071 6.94863 67.2093 6.6785 67.0668 6.44318C66.9242 6.20455 66.7469 6.00237 66.5348 5.83665C66.3227 5.67093 66.0807 5.54664 65.8089 5.46378C65.5405 5.3776 65.2505 5.33452 64.9389 5.33452C64.3854 5.33452 63.8949 5.47372 63.4673 5.75213C63.0398 6.02722 62.705 6.43158 62.4631 6.9652C62.2211 7.4955 62.1001 8.14347 62.1001 8.90909C62.1001 9.68797 62.2211 10.3442 62.4631 10.8778C62.7083 11.4081 63.0431 11.8092 63.4673 12.081C63.8949 12.3494 64.3838 12.4837 64.9339 12.4837C65.2389 12.4837 65.5239 12.4439 65.7891 12.3643C66.0575 12.2815 66.2978 12.1605 66.5099 12.0014C66.7254 11.8423 66.906 11.6468 67.0518 11.4148C67.201 11.1828 67.3037 10.9176 67.3601 10.6193L69.2195 10.6293C69.1499 11.1132 68.9991 11.5672 68.767 11.9915C68.5384 12.4157 68.2384 12.7902 67.8672 13.1151C67.496 13.4366 67.0618 13.6884 66.5646 13.8707C66.0675 14.0497 65.5156 14.1392 64.9091 14.1392C64.0142 14.1392 63.2154 13.9321 62.5128 13.5178C61.8101 13.1035 61.2566 12.5052 60.8523 11.723C60.4479 10.9408 60.2457 10.0028 60.2457 8.90909C60.2457 7.81203 60.4496 6.87405 60.8572 6.09517C61.2649 5.31297 61.8201 4.71473 62.5227 4.30043C63.2254 3.88613 64.0208 3.67898 64.9091 3.67898C65.4759 3.67898 66.0028 3.75852 66.4901 3.91761C66.9773 4.0767 67.4115 4.31037 67.7926 4.61861C68.1738 4.92353 68.487 5.29806 68.7322 5.74219C68.9808 6.183 69.1432 6.68679 69.2195 7.25355ZM75.6962 10.7884V6.36364H77.4959V14H75.7509V12.6428H75.6713C75.499 13.0703 75.2156 13.42 74.8212 13.6918C74.4301 13.9635 73.9479 14.0994 73.3745 14.0994C72.874 14.0994 72.4315 13.9884 72.0471 13.7663C71.6659 13.541 71.3676 13.2145 71.1522 12.7869C70.9367 12.3561 70.829 11.8357 70.829 11.2259V6.36364H72.6287V10.9474C72.6287 11.4313 72.7613 11.8158 73.0265 12.1009C73.2916 12.3859 73.6396 12.5284 74.0705 12.5284C74.3356 12.5284 74.5925 12.4638 74.8411 12.3345C75.0897 12.2053 75.2935 12.013 75.4526 11.7578C75.615 11.4993 75.6962 11.1761 75.6962 10.7884ZM79.3466 14V6.36364H81.0916V7.63636H81.1712C81.3104 7.19555 81.549 6.85582 81.8871 6.61719C82.2285 6.37524 82.6179 6.25426 83.0554 6.25426C83.1548 6.25426 83.2659 6.25923 83.3885 6.26918C83.5144 6.2758 83.6188 6.2874 83.7017 6.30398V7.95952C83.6255 7.933 83.5045 7.9098 83.3388 7.88991C83.1764 7.86671 83.0189 7.85511 82.8665 7.85511C82.5384 7.85511 82.2434 7.92637 81.9815 8.06889C81.723 8.2081 81.5192 8.40199 81.37 8.65057C81.2209 8.89915 81.1463 9.18584 81.1463 9.51065V14H79.3466ZM87.9636 14.1491C87.198 14.1491 86.5368 13.9901 85.9799 13.6719C85.4264 13.3504 85.0005 12.8963 84.7022 12.3097C84.4039 11.7197 84.2548 11.0253 84.2548 10.2266C84.2548 9.44105 84.4039 8.75166 84.7022 8.15838C85.0038 7.56179 85.4248 7.09777 85.965 6.76633C86.5053 6.43158 87.14 6.2642 87.8691 6.2642C88.3398 6.2642 88.7839 6.34044 89.2015 6.4929C89.6225 6.64205 89.9937 6.87405 90.3152 7.18892C90.64 7.50379 90.8952 7.90483 91.0808 8.39205C91.2664 8.87595 91.3592 9.45265 91.3592 10.1222V10.674H85.1V9.46094H89.6341C89.6307 9.11624 89.5562 8.80966 89.4103 8.54119C89.2645 8.26941 89.0607 8.05563 88.7988 7.89986C88.5403 7.74408 88.2387 7.66619 87.894 7.66619C87.5261 7.66619 87.2029 7.75568 86.9245 7.93466C86.6461 8.11032 86.429 8.34233 86.2733 8.63068C86.1208 8.91572 86.0429 9.22893 86.0396 9.57031V10.6293C86.0396 11.0734 86.1208 11.4545 86.2832 11.7727C86.4456 12.0876 86.6726 12.3295 86.9643 12.4986C87.256 12.6643 87.5974 12.7472 87.9885 12.7472C88.2503 12.7472 88.4873 12.7107 88.6994 12.6378C88.9115 12.5616 89.0955 12.4505 89.2512 12.3047C89.407 12.1589 89.5247 11.9782 89.6042 11.7628L91.2846 11.9517C91.1786 12.3958 90.9764 12.7836 90.6781 13.1151C90.3831 13.4432 90.0053 13.6984 89.5446 13.8807C89.0839 14.0597 88.5569 14.1491 87.9636 14.1491ZM94.6815 9.52557V14H92.8817V6.36364H94.6019V7.66122H94.6914C94.8671 7.23366 95.1471 6.89394 95.5316 6.64205C95.9194 6.39015 96.3983 6.2642 96.9684 6.2642C97.4954 6.2642 97.9544 6.37689 98.3455 6.60227C98.7399 6.82765 99.0449 7.15412 99.2603 7.58168C99.479 8.00923 99.5868 8.52794 99.5835 9.13778V14H97.7837V9.41619C97.7837 8.90578 97.6512 8.50639 97.386 8.21804C97.1242 7.92969 96.7612 7.78551 96.2972 7.78551C95.9824 7.78551 95.7023 7.85511 95.457 7.99432C95.2151 8.13021 95.0245 8.32741 94.8853 8.58594C94.7494 8.84446 94.6815 9.15767 94.6815 9.52557ZM105.226 6.36364V7.75568H100.836V6.36364H105.226ZM101.92 4.53409H103.72V11.7031C103.72 11.9451 103.756 12.1307 103.829 12.2599C103.905 12.3859 104.005 12.4721 104.127 12.5185C104.25 12.5649 104.386 12.5881 104.535 12.5881C104.648 12.5881 104.751 12.5798 104.843 12.5632C104.94 12.5466 105.012 12.5317 105.062 12.5185L105.365 13.9254C105.269 13.9586 105.132 13.995 104.953 14.0348C104.777 14.0746 104.562 14.0978 104.306 14.1044C103.856 14.1177 103.45 14.0497 103.088 13.9006C102.727 13.7481 102.44 13.5128 102.228 13.1946C102.02 12.8764 101.917 12.4787 101.92 12.0014V4.53409ZM110.284 14V3.81818H114.102C114.884 3.81818 115.54 3.96401 116.07 4.25568C116.604 4.54735 117.007 4.94839 117.279 5.45881C117.554 5.96591 117.691 6.54261 117.691 7.18892C117.691 7.84186 117.554 8.42187 117.279 8.92898C117.003 9.43608 116.597 9.83546 116.061 10.1271C115.524 10.4155 114.862 10.5597 114.077 10.5597H111.546V9.04332H113.828C114.286 9.04332 114.66 8.96378 114.952 8.80469C115.244 8.6456 115.459 8.42685 115.598 8.14844C115.741 7.87003 115.812 7.55019 115.812 7.18892C115.812 6.82765 115.741 6.50947 115.598 6.23438C115.459 5.95928 115.242 5.7455 114.947 5.59304C114.655 5.43726 114.279 5.35938 113.818 5.35938H112.128V14H110.284ZM121.013 3.81818V14H119.214V3.81818H121.013ZM125.062 14.1541C124.578 14.1541 124.142 14.0679 123.754 13.8956C123.37 13.7199 123.065 13.4614 122.839 13.12C122.617 12.7786 122.506 12.3577 122.506 11.8572C122.506 11.4264 122.586 11.0701 122.745 10.7884C122.904 10.5066 123.121 10.2812 123.396 10.1122C123.671 9.94318 123.981 9.81558 124.326 9.7294C124.674 9.63991 125.033 9.57528 125.405 9.53551C125.852 9.48911 126.215 9.44768 126.493 9.41122C126.772 9.37145 126.974 9.31179 127.1 9.23224C127.229 9.14938 127.294 9.02178 127.294 8.84943V8.8196C127.294 8.44508 127.183 8.15507 126.961 7.94957C126.739 7.74408 126.419 7.64134 126.001 7.64134C125.56 7.64134 125.211 7.73745 124.952 7.92969C124.697 8.12192 124.525 8.34896 124.435 8.6108L122.755 8.37216C122.887 7.90814 123.106 7.52036 123.411 7.20881C123.716 6.89394 124.089 6.65862 124.53 6.50284C124.97 6.34375 125.458 6.2642 125.991 6.2642C126.359 6.2642 126.725 6.30729 127.09 6.39347C127.455 6.47964 127.788 6.62216 128.089 6.82102C128.391 7.01657 128.633 7.28338 128.815 7.62145C129.001 7.95952 129.094 8.3821 129.094 8.8892V14H127.363V12.951H127.304C127.194 13.1631 127.04 13.362 126.841 13.5476C126.646 13.7299 126.399 13.8774 126.101 13.9901C125.806 14.0994 125.459 14.1541 125.062 14.1541ZM125.529 12.8317C125.89 12.8317 126.203 12.7604 126.469 12.6179C126.734 12.4721 126.938 12.2798 127.08 12.0412C127.226 11.8026 127.299 11.5424 127.299 11.2607V10.3608C127.242 10.4072 127.146 10.4503 127.01 10.4901C126.878 10.5298 126.729 10.5646 126.563 10.5945C126.397 10.6243 126.233 10.6508 126.071 10.674C125.908 10.6972 125.768 10.7171 125.648 10.7337C125.38 10.7701 125.14 10.8298 124.927 10.9126C124.715 10.9955 124.548 11.1115 124.425 11.2607C124.303 11.4065 124.241 11.5954 124.241 11.8274C124.241 12.1589 124.362 12.4091 124.604 12.5781C124.846 12.7472 125.154 12.8317 125.529 12.8317ZM132.703 9.52557V14H130.903V6.36364H132.623V7.66122H132.713C132.889 7.23366 133.169 6.89394 133.553 6.64205C133.941 6.39015 134.42 6.2642 134.99 6.2642C135.517 6.2642 135.976 6.37689 136.367 6.60227C136.761 6.82765 137.066 7.15412 137.282 7.58168C137.501 8.00923 137.608 8.52794 137.605 9.13778V14H135.805V9.41619C135.805 8.90578 135.673 8.50639 135.407 8.21804C135.146 7.92969 134.783 7.78551 134.319 7.78551C134.004 7.78551 133.724 7.85511 133.479 7.99432C133.237 8.13021 133.046 8.32741 132.907 8.58594C132.771 8.84446 132.703 9.15767 132.703 9.52557Z" fill="#F59C42"/>
<path d="M9.22129 50.4487C9.06395 51.262 9.59574 52.0489 10.4091 52.2063C11.2224 52.3636 12.0093 51.8318 12.1667 51.0185L9.22129 50.4487ZM50.5848 11.7913C51.4058 11.6804 51.9813 10.9249 51.8704 10.1039C51.7594 9.28295 51.0039 8.70739 50.1829 8.81836L50.5848 11.7913ZM4.78798 40.3309C4.36111 39.6209 3.43951 39.3914 2.72953 39.8183C2.01955 40.2452 1.79004 41.1668 2.21692 41.8768L4.78798 40.3309ZM8.97744 50.21L7.6919 50.9829L7.69263 50.9841L8.97744 50.21ZM12.5939 51.2607L11.981 49.8917L11.9798 49.8922L12.5939 51.2607ZM23.513 48.0157C24.2691 47.6772 24.6077 46.7898 24.2692 46.0337C23.9306 45.2776 23.0433 44.939 22.2872 45.2776L23.513 48.0157ZM10.694 50.7336C12.1667 51.0185 12.1666 51.0188 12.1666 51.0191C12.1666 51.0191 12.1665 51.0193 12.1665 51.0193C12.1665 51.0193 12.1666 51.019 12.1667 51.0185C12.1669 51.0174 12.1673 51.0153 12.1679 51.0122C12.1692 51.0059 12.1713 50.9954 12.1742 50.9809C12.1801 50.9518 12.1894 50.9065 12.2023 50.8457C12.2281 50.7241 12.2683 50.5405 12.3241 50.3009C12.4357 49.8218 12.6096 49.1194 12.8559 48.2422C13.3489 46.4864 14.1299 44.0372 15.2781 41.2783C17.584 35.7376 21.3243 29.0616 27.0845 24.2003L25.1497 21.9077C18.877 27.2014 14.9058 34.3652 12.5084 40.1256C11.3049 43.0172 10.4863 45.5838 9.96757 47.4312C9.70803 48.3556 9.52308 49.1017 9.40225 49.6205C9.34183 49.88 9.2974 50.0828 9.26769 50.2229C9.25283 50.2929 9.24164 50.3472 9.23396 50.3851C9.23012 50.404 9.22716 50.4189 9.22506 50.4295C9.224 50.4348 9.22317 50.4391 9.22254 50.4423C9.22223 50.4439 9.22197 50.4452 9.22176 50.4463C9.22165 50.4468 9.22154 50.4474 9.22149 50.4477C9.22138 50.4482 9.22129 50.4487 10.694 50.7336ZM27.0845 24.2003C38.8971 14.2312 48.2855 12.1021 50.5848 11.7913L50.1829 8.81836C47.3244 9.20477 37.4028 11.5667 25.1497 21.9077L27.0845 24.2003ZM2.21692 41.8768L7.6919 50.9829L10.263 49.437L4.78798 40.3309L2.21692 41.8768ZM7.69263 50.9841C8.83488 52.8799 11.2212 53.521 13.2081 52.6292L11.9798 49.8922C11.2787 50.2069 10.5668 49.9414 10.2622 49.4358L7.69263 50.9841ZM13.2069 52.6298L23.513 48.0157L22.2872 45.2776L11.981 49.8917L13.2069 52.6298Z" fill="#F59C42"/>
</svg>
